G04 Pdf2Gerb 1.6L: Bottom Copper at Sat Apr  1 21:06:43 2017 *
%FSLAX24Y24*%
%IPPOS*%
G70*
%MOIN*%
%ADD10C,0.03500*%
%ADD11C,0.01000*%
%ADD12C,0.03100*%
G01*
G54D10*
G54D10*
X024659Y021237D03*
G54D11*
X044525Y060627D02*
X044625Y060627D01*
X044725Y060626D01*
X044825Y060625D01*
X044925Y060623D01*
X045025Y060621D01*
X045125Y060618D01*
X045225Y060614D01*
X045325Y060611D01*
X045424Y060606D01*
X045524Y060601D01*
X045624Y060596D01*
X045724Y060590D01*
X045824Y060584D01*
X045924Y060577D01*
X046023Y060570D01*
X046123Y060562D01*
X046223Y060553D01*
X046322Y060544D01*
X046422Y060535D01*
X046521Y060525D01*
X046621Y060515D01*
X046720Y060504D01*
X046820Y060492D01*
X046919Y060480D01*
X047018Y060468D01*
X047117Y060455D01*
X047216Y060442D01*
X047315Y060428D01*
X047414Y060413D01*
X047513Y060398D01*
X047612Y060383D01*
X047711Y060367D01*
X047809Y060350D01*
X047908Y060333D01*
X048006Y060316D01*
X048105Y060298D01*
X048203Y060279D01*
X048301Y060260D01*
X048399Y060241D01*
X048497Y060221D01*
X048595Y060200D01*
X048693Y060179D01*
X048790Y060158D01*
X048888Y060136D01*
X048985Y060114D01*
X049083Y060091D01*
X049180Y060067D01*
X049277Y060043D01*
X049374Y060019D01*
X049471Y059994D01*
X049568Y059968D01*
X049664Y059942D01*
X049761Y059916D01*
X049857Y059889D01*
X049953Y059862D01*
X050049Y059834D01*
X050145Y059805D01*
X050241Y059776D01*
X050336Y059747D01*
X050432Y059717D01*
X050527Y059687D01*
X050622Y059656D01*
X050717Y059625D01*
X050812Y059593D01*
X050907Y059561D01*
X051001Y059528D01*
X051095Y059495D01*
X051190Y059461D01*
X051284Y059427D01*
X051377Y059392D01*
X051471Y059357D01*
X051564Y059322D01*
X051658Y059285D01*
X051751Y059249D01*
X051844Y059212D01*
X051936Y059174D01*
X052029Y059136D01*
X052121Y059098D01*
X052213Y059059D01*
X052305Y059020D01*
X052397Y058980D01*
X052488Y058939D01*
X052580Y058899D01*
X052671Y058857D01*
X052762Y058816D01*
X052852Y058773D01*
X052943Y058731D01*
X053033Y058688D01*
X053123Y058644D01*
X053213Y058600D01*
X053302Y058556D01*
X053392Y058511D01*
X053481Y058465D01*
X053570Y058420D01*
X053658Y058373D01*
X053747Y058326D01*
X053835Y058279D01*
X053923Y058232D01*
X054011Y058184D01*
X054098Y058135D01*
X054185Y058086D01*
X054272Y058037D01*
X054359Y057987D01*
X054445Y057936D01*
X054531Y057886D01*
X054617Y057835D01*
X054703Y057783D01*
X054788Y057731D01*
X054873Y057678D01*
X054958Y057625D01*
X055043Y057572D01*
X055127Y057518D01*
X055211Y057464D01*
X055295Y057409D01*
X055378Y057354D01*
X055462Y057299D01*
X055545Y057243D01*
X055627Y057187D01*
X055710Y057130D01*
X055792Y057073D01*
X055873Y057015D01*
X055955Y056957D01*
X056036Y056899D01*
X056117Y056840D01*
X056197Y056781D01*
X056278Y056721D01*
X056358Y056661D01*
X056437Y056600D01*
X056517Y056540D01*
X056596Y056478D01*
X056674Y056417D01*
X056753Y056355D01*
X056831Y056292D01*
X056909Y056229D01*
X056986Y056166D01*
X057063Y056102D01*
X057140Y056038D01*
X057216Y055974D01*
X057293Y055909D01*
X057368Y055844D01*
X057444Y055778D01*
X057519Y055712D01*
X057594Y055646D01*
X057668Y055579D01*
X057742Y055512D01*
X057816Y055444D01*
X057890Y055377D01*
X057963Y055308D01*
X058035Y055240D01*
X058108Y055171D01*
X058180Y055101D01*
X058251Y055032D01*
X058323Y054961D01*
X058394Y054891D01*
X058464Y054820D01*
X058535Y054749D01*
X058604Y054678D01*
X058674Y054606D01*
X058743Y054533D01*
X058812Y054461D01*
X058880Y054388D01*
X058948Y054315D01*
X059016Y054241D01*
X059083Y054167D01*
X059150Y054093D01*
X059217Y054018D01*
X059283Y053943D01*
X059349Y053868D01*
X059414Y053792D01*
X059479Y053716D01*
X059544Y053640D01*
X059608Y053563D01*
X059672Y053486D01*
X059735Y053409D01*
X059798Y053331D01*
X059861Y053253D01*
X059923Y053175D01*
X059985Y053096D01*
X060046Y053017D01*
X060107Y052938D01*
X060168Y052859D01*
X060228Y052779D01*
X060288Y052699D01*
X060348Y052618D01*
X060407Y052538D01*
X060465Y052457D01*
X060523Y052375D01*
X060581Y052294D01*
X060638Y052212D01*
X060695Y052129D01*
X060752Y052047D01*
X060808Y051964D01*
X060864Y051881D01*
X060919Y051798D01*
X060974Y051714D01*
X061028Y051630D01*
X061082Y051546D01*
X061136Y051462D01*
X061189Y051377D01*
X061241Y051292D01*
X061294Y051207D01*
X061345Y051121D01*
X061397Y051035D01*
X061448Y050949D01*
X061498Y050863D01*
X061548Y050776D01*
X061598Y050689D01*
X061647Y050602D01*
X061696Y050515D01*
X061744Y050427D01*
X061792Y050340D01*
X061839Y050252D01*
X061886Y050163D01*
X061933Y050075D01*
X061979Y049986D01*
X062024Y049897D01*
X062069Y049808D01*
X062114Y049718D01*
X062158Y049629D01*
X062202Y049539D01*
X062245Y049449D01*
X062288Y049358D01*
X062331Y049268D01*
X062373Y049177D01*
X062414Y049086D01*
X062455Y048995D01*
X062495Y048903D01*
X062536Y048812D01*
X062575Y048720D01*
X062614Y048628D01*
X062653Y048535D01*
X062691Y048443D01*
X062729Y048350D01*
X062766Y048258D01*
X062803Y048165D01*
X062839Y048071D01*
X062875Y047978D01*
X062910Y047885D01*
X062945Y047791D01*
X062980Y047697D01*
X063013Y047603D01*
X063047Y047509D01*
X063080Y047414D01*
X063112Y047320D01*
X063144Y047225D01*
X063176Y047130D01*
X063207Y047035D01*
X063237Y046940D01*
X063267Y046844D01*
X063297Y046749D01*
X063326Y046653D01*
X063355Y046557D01*
X063383Y046461D01*
X063410Y046365D01*
X063437Y046269D01*
X063464Y046172D01*
X063490Y046076D01*
X063516Y045979D01*
X063541Y045883D01*
X063566Y045786D01*
X063590Y045689D01*
X063614Y045591D01*
X063637Y045494D01*
X063659Y045397D01*
X063682Y045299D01*
X063703Y045202D01*
X063724Y045104D01*
X063745Y045006D01*
X063765Y044908D01*
X063785Y044810D01*
X063804Y044712D01*
X063823Y044614D01*
X063841Y044515D01*
X063859Y044417D01*
X063876Y044318D01*
X063893Y044220D01*
X063909Y044121D01*
X063925Y044022D01*
X063940Y043924D01*
X063954Y043825D01*
X063969Y043726D01*
X063982Y043627D01*
X063995Y043527D01*
X064008Y043428D01*
X064020Y043329D01*
X064032Y043230D01*
X064043Y043130D01*
X064054Y043031D01*
X064064Y042931D01*
X064073Y042832D01*
X064083Y042732D01*
X064091Y042633D01*
X064099Y042533D01*
X064107Y042433D01*
X064114Y042333D01*
X064121Y042234D01*
X064127Y042134D01*
X064132Y042034D01*
X064137Y041934D01*
X064142Y041834D01*
X064146Y041734D01*
X064149Y041634D01*
X064152Y041534D01*
X064155Y041435D01*
X064157Y041335D01*
X064158Y041235D01*
X064159Y041135D01*
X064160Y041035D01*
X064160Y040935D01*
X064159Y040835D01*
X064158Y040735D01*
X064157Y040635D01*
X064155Y040535D01*
X064152Y040435D01*
X064149Y040335D01*
X064145Y040235D01*
X064141Y040135D01*
X064137Y040035D01*
X064131Y039935D01*
X064126Y039835D01*
X064120Y039735D01*
X064113Y039636D01*
X064106Y039536D01*
X064098Y039436D01*
X064090Y039337D01*
X064081Y039237D01*
X064072Y039137D01*
X064062Y039038D01*
X064052Y038938D01*
X064041Y038839D01*
X064030Y038740D01*
X064018Y038640D01*
X064006Y038541D01*
X063994Y038442D01*
X063980Y038343D01*
X063967Y038244D01*
X063952Y038145D01*
X063938Y038046D01*
X063922Y037947D01*
X063907Y037848D01*
X063890Y037749D01*
X063874Y037651D01*
X063856Y037552D01*
X063838Y037454D01*
X063820Y037356D01*
X063801Y037257D01*
X063782Y037159D01*
X063762Y037061D01*
X063742Y036963D01*
X063721Y036866D01*
X063700Y036768D01*
X063678Y036670D01*
X063656Y036573D01*
X063633Y036475D01*
X063610Y036378D01*
X063586Y036281D01*
X063562Y036184D01*
X063537Y036087D01*
X063512Y035990D01*
X063486Y035894D01*
X063460Y035797D01*
X063434Y035701D01*
X063406Y035605D01*
X063379Y035508D01*
X063350Y035412D01*
X063322Y035317D01*
X063293Y035221D01*
X063263Y035126D01*
X063233Y035030D01*
X063202Y034935D01*
X063171Y034840D01*
X063140Y034745D01*
X063108Y034650D01*
X063075Y034556D01*
X063042Y034461D01*
X063009Y034367D01*
X062975Y034273D01*
X062940Y034179D01*
X062905Y034086D01*
X062870Y033992D01*
X062834Y033899D01*
X062797Y033806D01*
X062761Y033713D01*
X062723Y033620D01*
X062686Y033527D01*
X062647Y033435D01*
X062609Y033343D01*
X062569Y033251D01*
X062530Y033159D01*
X062490Y033067D01*
X062449Y032976D01*
X062408Y032885D01*
X062366Y032794D01*
X062324Y032703D01*
X062282Y032612D01*
X062239Y032522D01*
X062196Y032432D01*
X062152Y032342D01*
X062108Y032252D01*
X062063Y032163D01*
X062018Y032074D01*
X061972Y031985D01*
X061926Y031896D01*
X061879Y031807D01*
X061832Y031719D01*
X061785Y031631D01*
X061737Y031543D01*
X061689Y031456D01*
X061640Y031369D01*
X061591Y031282D01*
X061541Y031195D01*
X061491Y031108D01*
X061440Y031022D01*
X061389Y030936D01*
X061338Y030850D01*
X061286Y030765D01*
X061234Y030679D01*
X061181Y030594D01*
X061128Y030510D01*
X061074Y030425D01*
X061020Y030341D01*
X060966Y030257D01*
X060911Y030174D01*
X060856Y030090D01*
X060800Y030007D01*
X060744Y029925D01*
X060687Y029842D01*
X060630Y029760D01*
X060573Y029678D01*
X060515Y029597D01*
X060457Y029515D01*
X060398Y029434D01*
X060339Y029354D01*
X060279Y029273D01*
X060220Y029193D01*
X060159Y029113D01*
X060099Y029034D01*
X060037Y028955D01*
X059976Y028876D01*
X059914Y028797D01*
X059852Y028719D01*
X059789Y028641D01*
X059726Y028564D01*
X059662Y028486D01*
X059599Y028409D01*
X059534Y028333D01*
X059470Y028257D01*
X059405Y028181D01*
X059339Y028105D01*
X059273Y028030D01*
X059207Y027955D01*
X059140Y027880D01*
X059074Y027806D01*
X059006Y027732D01*
X058938Y027658D01*
X058870Y027585D01*
X058802Y027512D01*
X058733Y027440D01*
X058664Y027368D01*
X058594Y027296D01*
X058524Y027224D01*
X058454Y027153D01*
X058383Y027082D01*
X058312Y027012D01*
X058241Y026942D01*
X058169Y026872D01*
X058097Y026803D01*
X058025Y026734D01*
X057952Y026665D01*
X057879Y026597D01*
X057805Y026529D01*
X057732Y026462D01*
X057657Y026395D01*
X057583Y026328D01*
X057508Y026262D01*
X057433Y026196D01*
X057357Y026130D01*
X057281Y026065D01*
X057205Y026000D01*
X057129Y025936D01*
X057052Y025872D01*
X056975Y025808D01*
X056897Y025745D01*
X056819Y025682D01*
X056741Y025620D01*
X056663Y025558D01*
X056584Y025496D01*
X056505Y025435D01*
X056426Y025374D01*
X056346Y025314D01*
X056266Y025254D01*
X056186Y025194D01*
X056105Y025135D01*
X056024Y025076D01*
X055943Y025018D01*
X055861Y024960D01*
X055780Y024903D01*
X055698Y024845D01*
X055615Y024789D01*
X055532Y024733D01*
X055450Y024677D01*
X055366Y024621D01*
X055283Y024566D01*
X055199Y024512D01*
X055115Y024458D01*
X055031Y024404D01*
X054946Y024350D01*
X054861Y024298D01*
X054776Y024245D01*
X054690Y024193D01*
X054605Y024142D01*
X054519Y024091D01*
X054433Y024040D01*
X054346Y023990D01*
X054259Y023940D01*
X054172Y023890D01*
X054085Y023842D01*
X053998Y023793D01*
X053910Y023745D01*
X053822Y023697D01*
X053734Y023650D01*
X053646Y023604D01*
X053557Y023557D01*
X053468Y023512D01*
X053379Y023466D01*
X053289Y023422D01*
X053200Y023377D01*
X053110Y023333D01*
X053020Y023290D01*
X052930Y023247D01*
X052839Y023204D01*
X052748Y023162D01*
X052658Y023120D01*
X052566Y023079D01*
X052475Y023038D01*
X052384Y022998D01*
X052292Y022958D01*
X052200Y022919D01*
X052108Y022880D01*
X052015Y022842D01*
X051923Y022804D01*
X051830Y022766D01*
X051737Y022729D01*
X051644Y022693D01*
X051551Y022657D01*
X051457Y022621D01*
X051364Y022586D01*
X051270Y022552D01*
X051176Y022518D01*
X051082Y022484D01*
X050987Y022451D01*
X050893Y022418D01*
X050798Y022386D01*
X050703Y022354D01*
X050608Y022323D01*
X050513Y022292D01*
X050418Y022262D01*
X050322Y022232D01*
X050227Y022203D01*
X050131Y022174D01*
X050035Y022146D01*
X049939Y022118D01*
X049843Y022091D01*
X049747Y022064D01*
X049650Y022038D01*
X049553Y022012D01*
X049457Y021986D01*
X049360Y021961D01*
X049263Y021937D01*
X049166Y021913D01*
X049069Y021890D01*
X048971Y021867D01*
X048874Y021844D01*
X048776Y021823D01*
X048679Y021801D01*
X048581Y021780D01*
X048483Y021760D01*
X048385Y021740D01*
X048287Y021721D01*
X048189Y021702D01*
X048090Y021683D01*
X047992Y021665D01*
X047893Y021648D01*
X047795Y021631D01*
X047696Y021615D01*
X047597Y021599D01*
X047499Y021583D01*
X047400Y021568D01*
X047301Y021554D01*
X047202Y021540D01*
X047103Y021527D01*
X047004Y021514D01*
X046904Y021501D01*
X046805Y021490D01*
X046706Y021478D01*
X046606Y021467D01*
X046507Y021457D01*
X046407Y021447D01*
X046308Y021438D01*
X046208Y021429D01*
X046108Y021421D01*
X046009Y021413D01*
X045909Y021406D01*
X045809Y021399D01*
X045709Y021393D01*
X045610Y021387D01*
X045510Y021381D01*
X045410Y021377D01*
X045310Y021372D01*
X045210Y021369D01*
X045110Y021366D01*
X045010Y021363D01*
X044910Y021361D01*
X044810Y021359D01*
X044710Y021358D01*
X044610Y021357D01*
X044510Y021357D01*
X044410Y021357D01*
X044310Y021358D01*
X044210Y021359D01*
X044110Y021361D01*
X044010Y021364D01*
X043910Y021366D01*
X043810Y021370D01*
X043710Y021374D01*
X043610Y021378D01*
X043511Y021383D01*
X043411Y021388D01*
X043311Y021394D01*
X043211Y021401D01*
X043111Y021408D01*
X043012Y021415D01*
X042912Y021423D01*
X042812Y021432D01*
X042713Y021441D01*
X042613Y021450D01*
X042514Y021460D01*
X042414Y021471D01*
X042315Y021482D01*
X042216Y021493D01*
X042116Y021505D01*
X042017Y021518D01*
X041918Y021531D01*
X041819Y021544D01*
X041720Y021558D01*
X041621Y021573D01*
X041522Y021588D01*
X041423Y021603D01*
X041324Y021619D01*
X041226Y021636D01*
X041127Y021653D01*
X041029Y021670D01*
X040931Y021689D01*
X040832Y021707D01*
X040734Y021726D01*
X040636Y021746D01*
X040538Y021766D01*
X040440Y021786D01*
X040342Y021807D01*
X040245Y021829D01*
X040147Y021851D01*
X040050Y021874D01*
X039953Y021897D01*
X039855Y021920D01*
X039758Y021944D01*
X039661Y021969D01*
X039564Y021994D01*
X039468Y022019D01*
X039371Y022045D01*
X039275Y022072D01*
X039179Y022099D01*
X039082Y022126D01*
X038986Y022154D01*
X038890Y022183D01*
X038795Y022211D01*
X038699Y022241D01*
X038604Y022271D01*
X038509Y022301D01*
X038413Y022332D01*
X038318Y022363D01*
X038224Y022395D01*
X038129Y022428D01*
X038035Y022460D01*
X037940Y022494D01*
X037846Y022528D01*
X037752Y022562D01*
X037658Y022596D01*
X037565Y022632D01*
X037471Y022667D01*
X037378Y022704D01*
X037285Y022740D01*
X037192Y022777D01*
X037100Y022815D01*
X037007Y022853D01*
X036915Y022891D01*
X036823Y022930D01*
X036731Y022970D01*
X036639Y023010D01*
X036548Y023050D01*
X036456Y023091D01*
X036365Y023132D01*
X036275Y023174D01*
X036184Y023216D01*
X036093Y023259D01*
X036003Y023302D01*
X035913Y023346D01*
X035824Y023390D01*
X035734Y023435D01*
X035645Y023480D01*
X035556Y023525D01*
X035467Y023571D01*
X035378Y023617D01*
X035290Y023664D01*
X035202Y023711D01*
X035114Y023759D01*
X035026Y023807D01*
X034939Y023856D01*
X034852Y023905D01*
X034765Y023954D01*
X034678Y024004D01*
X034592Y024055D01*
X034506Y024105D01*
X034420Y024157D01*
X034334Y024208D01*
X034249Y024260D01*
X034164Y024313D01*
X034079Y024366D01*
X033994Y024419D01*
X033910Y024473D01*
X033826Y024528D01*
X033742Y024582D01*
X033659Y024637D01*
X033576Y024693D01*
X033493Y024749D01*
X033410Y024805D01*
X033328Y024862D01*
X033246Y024919D01*
X033164Y024977D01*
X033083Y025035D01*
X033002Y025094D01*
X032921Y025152D01*
X032840Y025212D01*
X032760Y025271D01*
X032680Y025332D01*
X032601Y025392D01*
X032521Y025453D01*
X032442Y025514D01*
X032364Y025576D01*
X032285Y025638D01*
X032207Y025701D01*
X032130Y025764D01*
X032052Y025827D01*
X031975Y025891D01*
X031898Y025955D01*
X031822Y026019D01*
X031746Y026084D01*
X031670Y026150D01*
X031595Y026215D01*
X031520Y026281D01*
X031445Y026348D01*
X031370Y026414D01*
X031296Y026482D01*
X031223Y026549D01*
X031149Y026617D01*
X031076Y026685D01*
X031004Y026754D01*
X030931Y026823D01*
X030859Y026893D01*
X030788Y026962D01*
X030716Y027032D01*
X030645Y027103D01*
X030575Y027174D01*
X030505Y027245D01*
X030435Y027317D01*
X030365Y027389D01*
X030296Y027461D01*
X030228Y027534D01*
X030159Y027607D01*
X030091Y027680D01*
X030024Y027754D01*
X029956Y027828D01*
X029890Y027902D01*
X029823Y027977D01*
X029757Y028052D01*
X029691Y028127D01*
X029626Y028203D01*
X029561Y028279D01*
X029496Y028355D01*
X029432Y028432D01*
X029369Y028509D01*
X029305Y028586D01*
X029242Y028664D01*
X029180Y028742D01*
X029117Y028820D01*
X029056Y028899D01*
X028994Y028978D01*
X028933Y029057D01*
X028873Y029137D01*
X028812Y029216D01*
X028753Y029297D01*
X028693Y029377D01*
X028634Y029458D01*
X028576Y029539D01*
X028518Y029620D01*
X028460Y029702D01*
X028403Y029784D01*
X028346Y029866D01*
X028289Y029949D01*
X028233Y030032D01*
X028178Y030115D01*
X028123Y030198D01*
X028068Y030282D01*
X028013Y030366D01*
X027960Y030450D01*
X027906Y030534D01*
X027853Y030619D01*
X027800Y030704D01*
X027748Y030790D01*
X027697Y030875D01*
X027645Y030961D01*
X027594Y031047D01*
X027544Y031133D01*
X027494Y031220D01*
X027444Y031307D01*
X027395Y031394D01*
X027347Y031481D01*
X027298Y031569D01*
X027251Y031657D01*
X027203Y031745D01*
X027156Y031833D01*
X027110Y031922D01*
X027064Y032011D01*
X027019Y032100D01*
X026974Y032189D01*
X026929Y032279D01*
X026885Y032368D01*
X026841Y032458D01*
X026798Y032548D01*
X026755Y032639D01*
X026713Y032729D01*
X026671Y032820D01*
X026630Y032911D01*
X026589Y033002D01*
X026548Y033094D01*
X026508Y033186D01*
X026469Y033277D01*
X026430Y033369D01*
X026391Y033462D01*
X026353Y033554D01*
X026315Y033647D01*
X026278Y033740D01*
X026241Y033833D01*
X026205Y033926D01*
X026169Y034019D01*
X026134Y034113D01*
X026099Y034207D01*
X026065Y034301D01*
X026031Y034395D01*
X025998Y034489D01*
X025965Y034583D01*
X025933Y034678D01*
X025901Y034773D01*
X025869Y034868D01*
X025838Y034963D01*
X025808Y035058D01*
X025778Y035153D01*
X025748Y035249D01*
X025719Y035345D01*
X025691Y035441D01*
X025663Y035537D01*
X025635Y035633D01*
X025608Y035729D01*
X025582Y035825D01*
X025556Y035922D01*
X025530Y036019D01*
X025505Y036115D01*
X025480Y036212D01*
X025456Y036309D01*
X025433Y036406D01*
X025410Y036504D01*
X025387Y036601D01*
X025365Y036699D01*
X025343Y036796D01*
X025322Y036894D01*
X025301Y036992D01*
X025281Y037090D01*
X025262Y037188D01*
X025243Y037286D01*
X025224Y037384D01*
X025206Y037483D01*
X025188Y037581D01*
X025171Y037680D01*
X025154Y037778D01*
X025138Y037877D01*
X025123Y037976D01*
X025108Y038075D01*
X025093Y038174D01*
X025079Y038273D01*
X025065Y038372D01*
X025052Y038471D01*
X025040Y038570D01*
X025028Y038669D01*
X025016Y038769D01*
X025005Y038868D01*
X024994Y038967D01*
X024984Y039067D01*
X024975Y039166D01*
X024966Y039266D01*
X024957Y039366D01*
X024949Y039465D01*
X024942Y039565D01*
X024935Y039665D01*
X024928Y039765D01*
X024922Y039864D01*
X024917Y039964D01*
X024912Y040064D01*
X024907Y040164D01*
X024903Y040264D01*
X024900Y040364D01*
X024897Y040464D01*
X024894Y040564D01*
X024892Y040664D01*
X024891Y040764D01*
X024890Y040864D01*
X024890Y040964D01*
X024890Y041064D01*
X024890Y041164D01*
X024892Y041264D01*
X024893Y041364D01*
X024895Y041464D01*
X024898Y041564D01*
X024901Y041664D01*
X024905Y041764D01*
X024909Y041863D01*
X024914Y041963D01*
X024919Y042063D01*
X024925Y042163D01*
X024931Y042263D01*
X024938Y042363D01*
X024945Y042462D01*
X024953Y042562D01*
X024961Y042662D01*
X024970Y042761D01*
X024979Y042861D01*
X024989Y042960D01*
X024999Y043060D01*
X025010Y043159D01*
X025021Y043259D01*
X025033Y043358D01*
X025045Y043457D01*
X025058Y043556D01*
X025071Y043656D01*
X025085Y043755D01*
X025099Y043854D01*
X025114Y043952D01*
X025130Y044051D01*
X025145Y044150D01*
X025162Y044249D01*
X025179Y044347D01*
X025196Y044446D01*
X025214Y044544D01*
X025232Y044642D01*
X025251Y044741D01*
X025270Y044839D01*
X025290Y044937D01*
X025310Y045035D01*
X025331Y045132D01*
X025353Y045230D01*
X025374Y045328D01*
X025397Y045425D01*
X025420Y045523D01*
X025443Y045620D01*
X025467Y045717D01*
X025491Y045814D01*
X025516Y045911D01*
X025541Y046008D01*
X025567Y046104D01*
X025593Y046201D01*
X025620Y046297D01*
X025647Y046393D01*
X025675Y046489D01*
X025703Y046585D01*
X025732Y046681D01*
X025761Y046777D01*
X025791Y046872D01*
X025821Y046967D01*
X025852Y047063D01*
X025883Y047158D01*
X025915Y047253D01*
X025947Y047347D01*
X025979Y047442D01*
X026012Y047536D01*
X026046Y047630D01*
X026080Y047724D01*
X026115Y047818D01*
X026150Y047912D01*
X026185Y048005D01*
X026221Y048099D01*
X026257Y048192D01*
X026294Y048285D01*
X026332Y048377D01*
X026370Y048470D01*
X026408Y048562D01*
X026447Y048655D01*
X026486Y048747D01*
X026526Y048838D01*
X026566Y048930D01*
X026606Y049021D01*
X026648Y049112D01*
X026689Y049203D01*
X026731Y049294D01*
X026774Y049385D01*
X026817Y049475D01*
X026860Y049565D01*
X026904Y049655D01*
X026948Y049744D01*
X026993Y049834D01*
X027038Y049923D01*
X027084Y050012D01*
X027130Y050101D01*
X027177Y050189D01*
X027224Y050277D01*
X027272Y050365D01*
X027320Y050453D01*
X027368Y050541D01*
X027417Y050628D01*
X027466Y050715D01*
X027516Y050802D01*
X027566Y050888D01*
X027617Y050974D01*
X027668Y051060D01*
X027719Y051146D01*
X027771Y051232D01*
X027823Y051317D01*
X027876Y051402D01*
X027929Y051486D01*
X027983Y051571D01*
X028037Y051655D01*
X028092Y051739D01*
X028147Y051822D01*
X028202Y051905D01*
X028258Y051988D01*
X028314Y052071D01*
X028371Y052154D01*
X028428Y052236D01*
X028485Y052317D01*
X028543Y052399D01*
X028601Y052480D01*
X028660Y052561D01*
X028719Y052642D01*
X028779Y052722D01*
X028839Y052802D01*
X028899Y052882D01*
X028960Y052961D01*
X029021Y053041D01*
X029083Y053119D01*
X029145Y053198D01*
X029207Y053276D01*
X029270Y053354D01*
X029333Y053431D01*
X029396Y053509D01*
X029460Y053585D01*
X029525Y053662D01*
X029589Y053738D01*
X029655Y053814D01*
X029720Y053890D01*
X029786Y053965D01*
X029852Y054040D01*
X029919Y054114D01*
X029986Y054189D01*
X030053Y054262D01*
X030121Y054336D01*
X030189Y054409D01*
X030258Y054482D01*
X030327Y054555D01*
X030396Y054627D01*
X030465Y054698D01*
X030535Y054770D01*
X030606Y054841D01*
X030676Y054912D01*
X030748Y054982D01*
X030819Y055052D01*
X030891Y055122D01*
X030963Y055191D01*
X031035Y055260D01*
X031108Y055328D01*
X031181Y055396D01*
X031255Y055464D01*
X031329Y055532D01*
X031403Y055599D01*
X031478Y055665D01*
X031553Y055731D01*
X031628Y055797D01*
X031703Y055863D01*
X031779Y055928D01*
X031855Y055993D01*
X031932Y056057D01*
X032009Y056121D01*
X032086Y056184D01*
X032164Y056248D01*
X032242Y056310D01*
X032320Y056373D01*
X032398Y056435D01*
X032477Y056496D01*
X032556Y056557D01*
X032636Y056618D01*
X032715Y056679D01*
X032795Y056738D01*
X032876Y056798D01*
X032956Y056857D01*
X033037Y056916D01*
X033119Y056974D01*
X033200Y057032D01*
X033282Y057089D01*
X033364Y057147D01*
X033446Y057203D01*
X033529Y057259D01*
X033612Y057315D01*
X033695Y057371D01*
X033779Y057425D01*
X033863Y057480D01*
X033947Y057534D01*
X034031Y057588D01*
X034116Y057641D01*
X034201Y057694D01*
X034286Y057746D01*
X034372Y057798D01*
X034457Y057850D01*
X034543Y057901D01*
X034629Y057951D01*
X034716Y058001D01*
X034803Y058051D01*
X034890Y058100D01*
X034977Y058149D01*
X035065Y058198D01*
X035152Y058246D01*
X035240Y058293D01*
X035328Y058340D01*
X035417Y058387D01*
X035506Y058433D01*
X035595Y058479D01*
X035684Y058524D01*
X035773Y058569D01*
X035863Y058613D01*
X035953Y058657D01*
X036043Y058700D01*
X036133Y058743D01*
X036224Y058786D01*
X036314Y058828D01*
X036405Y058869D01*
X036496Y058911D01*
X036588Y058951D01*
X036679Y058991D01*
X036771Y059031D01*
X036863Y059070D01*
X036955Y059109D01*
X037048Y059148D01*
X037140Y059185D01*
X037233Y059223D01*
X037326Y059260D01*
X037419Y059296D01*
X037512Y059332D01*
X037606Y059367D01*
X037699Y059402D01*
X037793Y059437D01*
X037887Y059471D01*
X037982Y059505D01*
X038076Y059538D01*
X038170Y059570D01*
X038265Y059602D01*
X038360Y059634D01*
X038455Y059665D01*
X038550Y059696D01*
X038646Y059726D01*
X038741Y059756D01*
X038837Y059785D01*
X038932Y059814D01*
X039028Y059842D01*
X039124Y059870D01*
X039221Y059897D01*
X039317Y059924D01*
X039414Y059950D01*
X039510Y059976D01*
X039607Y060001D01*
X039704Y060026D01*
X039801Y060050D01*
X039898Y060074D01*
X039995Y060097D01*
X040093Y060120D01*
X040190Y060142D01*
X040288Y060164D01*
X040385Y060186D01*
X040483Y060206D01*
X040581Y060227D01*
X040679Y060247D01*
X040777Y060266D01*
X040875Y060285D01*
X040974Y060303D01*
X041072Y060321D01*
X041171Y060338D01*
X041269Y060355D01*
X041368Y060371D01*
X041466Y060387D01*
X041565Y060403D01*
X041664Y060417D01*
X041763Y060432D01*
X041862Y060446D01*
X041961Y060459D01*
X042060Y060472D01*
X042160Y060484D01*
X042259Y060496D01*
X042358Y060507D01*
X042458Y060518D01*
X042557Y060528D01*
X042657Y060538D01*
X042756Y060547D01*
X042856Y060556D01*
X042956Y060564D01*
X043055Y060572D01*
X043155Y060579D01*
X043255Y060586D01*
X043355Y060592D01*
X043455Y060598D01*
X043554Y060603D01*
X043654Y060608D01*
X043754Y060612D01*
X043854Y060615D01*
X043954Y060619D01*
X044054Y060621D01*
X044154Y060623D01*
X044254Y060625D01*
X044354Y060626D01*
X044454Y060627D01*
X042647Y021447D02*
X046403D01*
X047177Y021537D02*
X041872D01*
X041280Y021627D02*
X047770D01*
X048267Y021717D02*
X040782D01*
X040345Y021807D02*
X048704D01*
X049098Y021897D02*
X039952D01*
X039591Y021987D02*
X049459D01*
X049793Y022077D02*
X039256D01*
X038943Y022167D02*
X050106D01*
X050401Y022257D02*
X038648D01*
X038369Y022347D02*
X050681D01*
X050947Y022437D02*
X038103D01*
X037848Y022527D02*
X051201D01*
X051445Y022617D02*
X037604D01*
X037370Y022707D02*
X051680D01*
X051906Y022797D02*
X037144D01*
X036926Y022887D02*
X052124D01*
X052335Y022977D02*
X036715D01*
X036511Y023067D02*
X052539D01*
X052737Y023157D02*
X036312D01*
X036119Y023247D02*
X052930D01*
X053117Y023337D02*
X035932D01*
X035750Y023427D02*
X053300D01*
X053478Y023517D02*
X035572D01*
X035398Y023607D02*
X053651D01*
X053821Y023697D02*
X035229D01*
X035063Y023787D02*
X053986D01*
X054148Y023877D02*
X034901D01*
X034743Y023967D02*
X054307D01*
X054462Y024057D02*
X034588D01*
X034436Y024147D02*
X054613D01*
X054762Y024237D02*
X034287D01*
X034142Y024327D02*
X054908D01*
X055051Y024417D02*
X033998D01*
X033858Y024507D02*
X055191D01*
X055329Y024597D02*
X033720D01*
X033585Y024687D02*
X055465D01*
X055598Y024777D02*
X033452D01*
X033321Y024867D02*
X055728D01*
X055857Y024957D02*
X033193D01*
X033067Y025047D02*
X055983D01*
X056107Y025137D02*
X032942D01*
X032820Y025227D02*
X056229D01*
X056350Y025317D02*
X032700D01*
X032581Y025407D02*
X056468D01*
X056585Y025497D02*
X032465D01*
X032350Y025587D02*
X056699D01*
X056812Y025677D02*
X032237D01*
X032126Y025767D02*
X056924D01*
X057033Y025857D02*
X032016D01*
X031908Y025947D02*
X057141D01*
X057248Y026037D02*
X031801D01*
X031696Y026127D02*
X057353D01*
X057457Y026217D02*
X031593D01*
X031491Y026307D02*
X057559D01*
X057659Y026397D02*
X031390D01*
X031291Y026487D02*
X057759D01*
X057857Y026577D02*
X031193D01*
X031096Y026667D02*
X057953D01*
X058049Y026757D02*
X031001D01*
X030907Y026847D02*
X058143D01*
X058236Y026937D02*
X030814D01*
X030722Y027027D02*
X058327D01*
X058418Y027117D02*
X030632D01*
X030542Y027207D02*
X058507D01*
X058595Y027297D02*
X030454D01*
X030367Y027387D02*
X058682D01*
X058768Y027477D02*
X030281D01*
X030196Y027567D02*
X058853D01*
X058937Y027657D02*
X030113D01*
X030030Y027747D02*
X059020D01*
X059101Y027837D02*
X029948D01*
X029867Y027927D02*
X059182D01*
X059262Y028017D02*
X029788D01*
X029709Y028107D02*
X059341D01*
X059418Y028197D02*
X029631D01*
X029554Y028287D02*
X059495D01*
X059571Y028377D02*
X029478D01*
X029403Y028467D02*
X059646D01*
X059720Y028557D02*
X029329D01*
X029256Y028647D02*
X059794D01*
X059866Y028737D02*
X029184D01*
X029112Y028827D02*
X059937D01*
X060008Y028917D02*
X029042D01*
X028972Y029007D02*
X060078D01*
X060147Y029097D02*
X028903D01*
X028835Y029187D02*
X060215D01*
X060282Y029277D02*
X028767D01*
X028701Y029367D02*
X060349D01*
X060414Y029457D02*
X028635D01*
X028570Y029547D02*
X060479D01*
X060543Y029637D02*
X028506D01*
X028443Y029727D02*
X060607D01*
X060670Y029817D02*
X028380D01*
X028318Y029907D02*
X060731D01*
X060793Y029997D02*
X028257D01*
X028196Y030087D02*
X060853D01*
X060913Y030177D02*
X028137D01*
X028078Y030267D02*
X060972D01*
X061030Y030357D02*
X028019D01*
X027962Y030447D02*
X061088D01*
X061145Y030537D02*
X027905D01*
X027848Y030627D02*
X061201D01*
X061257Y030717D02*
X027793D01*
X027738Y030807D02*
X061312D01*
X061366Y030897D02*
X027684D01*
X027630Y030987D02*
X061420D01*
X061473Y031077D02*
X027577D01*
X027525Y031167D02*
X061525D01*
X061577Y031257D02*
X027473D01*
X027422Y031347D02*
X061628D01*
X061678Y031437D02*
X027371D01*
X027322Y031527D02*
X061728D01*
X061777Y031617D02*
X027272D01*
X027224Y031707D02*
X061826D01*
X061874Y031797D02*
X027176D01*
X027128Y031887D02*
X061921D01*
X061968Y031977D02*
X027082D01*
X027035Y032067D02*
X062014D01*
X062060Y032157D02*
X026990D01*
X026945Y032247D02*
X062105D01*
X062149Y032337D02*
X026900D01*
X026856Y032427D02*
X062193D01*
X062237Y032517D02*
X026813D01*
X026770Y032607D02*
X062279D01*
X062322Y032697D02*
X026728D01*
X026686Y032787D02*
X062363D01*
X062404Y032877D02*
X026645D01*
X026605Y032967D02*
X062445D01*
X062485Y033057D02*
X026565D01*
X026525Y033147D02*
X062525D01*
X062563Y033237D02*
X026486D01*
X026448Y033327D02*
X062602D01*
X062640Y033417D02*
X026410D01*
X026372Y033507D02*
X062677D01*
X062714Y033597D02*
X026336D01*
X026299Y033687D02*
X062750D01*
X062786Y033777D02*
X026263D01*
X026228Y033867D02*
X062821D01*
X062856Y033957D02*
X026193D01*
X026159Y034047D02*
X062891D01*
X062924Y034137D02*
X026125D01*
X026092Y034227D02*
X062958D01*
X062990Y034317D02*
X026059D01*
X026027Y034407D02*
X063023D01*
X063054Y034497D02*
X025995D01*
X025964Y034587D02*
X063086D01*
X063117Y034677D02*
X025933D01*
X025903Y034767D02*
X063147D01*
X063177Y034857D02*
X025873D01*
X025843Y034947D02*
X063206D01*
X063235Y035037D02*
X025815D01*
X025786Y035127D02*
X063263D01*
X063291Y035217D02*
X025758D01*
X025731Y035307D02*
X063319D01*
X063346Y035397D02*
X025704D01*
X025677Y035487D02*
X063372D01*
X063398Y035577D02*
X025651D01*
X025626Y035667D02*
X063424D01*
X063449Y035757D02*
X025600D01*
X025576Y035847D02*
X063474D01*
X063498Y035937D02*
X025552D01*
X025528Y036027D02*
X063522D01*
X063545Y036117D02*
X025505D01*
X025482Y036207D02*
X063568D01*
X063590Y036297D02*
X025459D01*
X025437Y036387D02*
X063612D01*
X063634Y036477D02*
X025416D01*
X025395Y036567D02*
X063655D01*
X063675Y036657D02*
X025374D01*
X025354Y036747D02*
X063695D01*
X063715Y036837D02*
X025334D01*
X025315Y036927D02*
X063734D01*
X063753Y037017D02*
X025296D01*
X025278Y037107D02*
X063772D01*
X063790Y037197D02*
X025260D01*
X025242Y037287D02*
X063807D01*
X063824Y037377D02*
X025225D01*
X025209Y037467D02*
X063841D01*
X063857Y037557D02*
X025193D01*
X025177Y037647D02*
X063873D01*
X063888Y037737D02*
X025161D01*
X025146Y037827D02*
X063903D01*
X063918Y037917D02*
X025132D01*
X025118Y038007D02*
X063932D01*
X063945Y038097D02*
X025104D01*
X025091Y038187D02*
X063958D01*
X063971Y038277D02*
X025078D01*
X025066Y038367D02*
X063984D01*
X063995Y038457D02*
X025054D01*
X025043Y038547D02*
X064007D01*
X064018Y038637D02*
X025031D01*
X025021Y038727D02*
X064029D01*
X064039Y038817D02*
X025011D01*
X025001Y038907D02*
X064049D01*
X064058Y038997D02*
X024991D01*
X024982Y039087D02*
X064067D01*
X064076Y039177D02*
X024974D01*
X024966Y039267D02*
X064084D01*
X064092Y039357D02*
X024958D01*
X024951Y039447D02*
X064099D01*
X064106Y039537D02*
X024944D01*
X024937Y039627D02*
X064112D01*
X064118Y039717D02*
X024931D01*
X024925Y039807D02*
X064124D01*
X064129Y039897D02*
X024920D01*
X024915Y039987D02*
X064134D01*
X064138Y040077D02*
X024911D01*
X024907Y040167D02*
X064142D01*
X064146Y040257D02*
X024903D01*
X024900Y040347D02*
X064149D01*
X064152Y040437D02*
X024898D01*
X024895Y040527D02*
X064154D01*
X064156Y040617D02*
X024893D01*
X024892Y040707D02*
X064158D01*
X064159Y040797D02*
X024891D01*
X024890Y040887D02*
X064160D01*
X064160Y040977D02*
X024890D01*
X024890Y041067D02*
X064160D01*
X064159Y041157D02*
X024890D01*
X024891Y041247D02*
X064158D01*
X064157Y041337D02*
X024893D01*
X024895Y041427D02*
X064155D01*
X064153Y041517D02*
X024897D01*
X024899Y041607D02*
X064150D01*
X064147Y041697D02*
X024902D01*
X024906Y041787D02*
X064144D01*
X064140Y041877D02*
X024910D01*
X024914Y041967D02*
X064136D01*
X064131Y042057D02*
X024919D01*
X024924Y042147D02*
X064126D01*
X064120Y042237D02*
X024929D01*
X024935Y042327D02*
X064114D01*
X064108Y042417D02*
X024941D01*
X024948Y042507D02*
X064101D01*
X064094Y042597D02*
X024955D01*
X024963Y042687D02*
X064087D01*
X064079Y042777D02*
X024971D01*
X024979Y042867D02*
X064070D01*
X064061Y042957D02*
X024988D01*
X024998Y043047D02*
X064052D01*
X064042Y043137D02*
X025007D01*
X025017Y043227D02*
X064032D01*
X064022Y043317D02*
X025028D01*
X025039Y043407D02*
X064011D01*
X063999Y043497D02*
X025050D01*
X025062Y043587D02*
X063988D01*
X063975Y043677D02*
X025074D01*
X025087Y043767D02*
X063963D01*
X063950Y043857D02*
X025100D01*
X025113Y043947D02*
X063936D01*
X063922Y044037D02*
X025127D01*
X025142Y044127D02*
X063908D01*
X063893Y044217D02*
X025156D01*
X025172Y044307D02*
X063878D01*
X063862Y044397D02*
X025187D01*
X025203Y044487D02*
X063846D01*
X063830Y044577D02*
X025220D01*
X025237Y044667D02*
X063813D01*
X063795Y044757D02*
X025254D01*
X025272Y044847D02*
X063778D01*
X063759Y044937D02*
X025290D01*
X025309Y045027D02*
X063741D01*
X063722Y045117D02*
X025328D01*
X025347Y045207D02*
X063702D01*
X063682Y045297D02*
X025367D01*
X025388Y045387D02*
X063662D01*
X063641Y045477D02*
X025409D01*
X025430Y045567D02*
X063619D01*
X063598Y045657D02*
X025452D01*
X025474Y045747D02*
X063575D01*
X063553Y045837D02*
X025497D01*
X025520Y045927D02*
X063530D01*
X063506Y046017D02*
X025544D01*
X025568Y046107D02*
X063482D01*
X063457Y046197D02*
X025592D01*
X025617Y046287D02*
X063432D01*
X063407Y046377D02*
X025643D01*
X025668Y046467D02*
X063381D01*
X063355Y046557D02*
X025695D01*
X025722Y046647D02*
X063328D01*
X063301Y046737D02*
X025749D01*
X025777Y046827D02*
X063273D01*
X063245Y046917D02*
X025805D01*
X025834Y047007D02*
X063216D01*
X063187Y047097D02*
X025863D01*
X025893Y047187D02*
X063157D01*
X063127Y047277D02*
X025923D01*
X025953Y047367D02*
X063096D01*
X063065Y047457D02*
X025985D01*
X026016Y047547D02*
X063033D01*
X063001Y047637D02*
X026048D01*
X026081Y047727D02*
X062969D01*
X062936Y047817D02*
X026114D01*
X026148Y047907D02*
X062902D01*
X062868Y047997D02*
X026182D01*
X026216Y048087D02*
X062833D01*
X062798Y048177D02*
X026251D01*
X026287Y048267D02*
X062762D01*
X062726Y048357D02*
X026323D01*
X026360Y048447D02*
X062690D01*
X062652Y048537D02*
X026397D01*
X026435Y048627D02*
X062615D01*
X062576Y048717D02*
X026473D01*
X026512Y048807D02*
X062538D01*
X062498Y048897D02*
X026551D01*
X026591Y048987D02*
X062458D01*
X062418Y049077D02*
X026631D01*
X026672Y049167D02*
X062377D01*
X062336Y049257D02*
X026714D01*
X026756Y049347D02*
X062294D01*
X062251Y049437D02*
X026799D01*
X026842Y049527D02*
X062208D01*
X062164Y049617D02*
X026885D01*
X026930Y049707D02*
X062120D01*
X062075Y049797D02*
X026975D01*
X027020Y049887D02*
X062030D01*
X061983Y049977D02*
X027066D01*
X027113Y050067D02*
X061937D01*
X061890Y050157D02*
X027160D01*
X027208Y050247D02*
X061842D01*
X061793Y050337D02*
X027256D01*
X027305Y050427D02*
X061744D01*
X061695Y050517D02*
X027355D01*
X027405Y050607D02*
X061645D01*
X061594Y050697D02*
X027456D01*
X027507Y050787D02*
X061542D01*
X061490Y050877D02*
X027559D01*
X027612Y050967D02*
X061437D01*
X061384Y051057D02*
X027666D01*
X027720Y051147D02*
X061330D01*
X061275Y051237D02*
X027774D01*
X027830Y051327D02*
X061220D01*
X061164Y051417D02*
X027886D01*
X027942Y051507D02*
X061107D01*
X061050Y051597D02*
X028000D01*
X028058Y051687D02*
X060992D01*
X060933Y051777D02*
X028117D01*
X028176Y051867D02*
X060873D01*
X060813Y051957D02*
X028237D01*
X028297Y052047D02*
X060752D01*
X060690Y052137D02*
X028359D01*
X028422Y052227D02*
X060628D01*
X060565Y052317D02*
X028485D01*
X028549Y052407D02*
X060501D01*
X060436Y052497D02*
X028613D01*
X028679Y052587D02*
X060371D01*
X060304Y052677D02*
X028745D01*
X028812Y052767D02*
X060237D01*
X060170Y052857D02*
X028880D01*
X028949Y052947D02*
X060101D01*
X060031Y053037D02*
X029018D01*
X029088Y053127D02*
X059961D01*
X059890Y053217D02*
X029160D01*
X029232Y053307D02*
X059818D01*
X059745Y053397D02*
X029305D01*
X029378Y053487D02*
X059671D01*
X059596Y053577D02*
X029453D01*
X029529Y053667D02*
X059521D01*
X059444Y053757D02*
X029605D01*
X029683Y053847D02*
X059367D01*
X059288Y053937D02*
X029761D01*
X029841Y054027D02*
X059209D01*
X059129Y054117D02*
X029921D01*
X030002Y054207D02*
X059047D01*
X058965Y054297D02*
X030085D01*
X030168Y054387D02*
X058881D01*
X058797Y054477D02*
X030253D01*
X030338Y054567D02*
X058711D01*
X058625Y054657D02*
X030425D01*
X030513Y054747D02*
X058537D01*
X058448Y054837D02*
X030602D01*
X030692Y054927D02*
X058358D01*
X058267Y055017D02*
X030783D01*
X030875Y055107D02*
X058174D01*
X058080Y055197D02*
X030969D01*
X031064Y055287D02*
X057985D01*
X057889Y055377D02*
X031160D01*
X031258Y055467D02*
X057792D01*
X057693Y055557D02*
X031357D01*
X031457Y055647D02*
X057593D01*
X057491Y055737D02*
X031559D01*
X031662Y055827D02*
X057388D01*
X057283Y055917D02*
X031766D01*
X031872Y056007D02*
X057177D01*
X057070Y056097D02*
X031980D01*
X032089Y056187D02*
X056961D01*
X056850Y056277D02*
X032200D01*
X032312Y056367D02*
X056737D01*
X056623Y056457D02*
X032426D01*
X032542Y056547D02*
X056507D01*
X056390Y056637D02*
X032660D01*
X032780Y056727D02*
X056270D01*
X056148Y056817D02*
X032901D01*
X033025Y056907D02*
X056025D01*
X055899Y056997D02*
X033150D01*
X033278Y057087D02*
X055772D01*
X055642Y057177D02*
X033408D01*
X033540Y057267D02*
X055509D01*
X055375Y057357D02*
X033675D01*
X033812Y057447D02*
X055238D01*
X055098Y057537D02*
X033951D01*
X034093Y057627D02*
X054956D01*
X054811Y057717D02*
X034238D01*
X034386Y057807D02*
X054664D01*
X054513Y057897D02*
X034537D01*
X034691Y057987D02*
X054359D01*
X054202Y058077D02*
X034848D01*
X035009Y058167D02*
X054041D01*
X053877Y058257D02*
X035173D01*
X035341Y058347D02*
X053709D01*
X053536Y058437D02*
X035513D01*
X035689Y058527D02*
X053360D01*
X053179Y058617D02*
X035870D01*
X036056Y058707D02*
X052993D01*
X052802Y058797D02*
X036247D01*
X036443Y058887D02*
X052606D01*
X052404Y058977D02*
X036646D01*
X036855Y059067D02*
X052195D01*
X051979Y059157D02*
X037070D01*
X037293Y059247D02*
X051756D01*
X051525Y059337D02*
X037525D01*
X037765Y059427D02*
X051284D01*
X051033Y059517D02*
X038016D01*
X038278Y059607D02*
X050771D01*
X050496Y059697D02*
X038553D01*
X038843Y059787D02*
X050207D01*
X049900Y059877D02*
X039149D01*
X039476Y059967D02*
X049573D01*
X049222Y060057D02*
X039827D01*
X040209Y060147D02*
X048840D01*
X048419Y060237D02*
X040630D01*
X041105Y060327D02*
X047945D01*
X047390Y060417D02*
X041660D01*
X042356Y060507D02*
X046694D01*
X045612Y060597D02*
X043437D01*
G04 drill T01 X024657Y021237*
%LPC*%
G54D12*
G04 /drill T01 X024657Y021237*
%LPD*%
G54D10*
X024663Y018102D03*
G04 drill T01 X024661Y018102*
%LPC*%
G54D12*
G04 /drill T01 X024661Y018102*
%LPD*%
G54D10*
X014734Y021226D03*
G04 drill T01 X014732Y021226*
%LPC*%
G54D12*
G04 /drill T01 X014732Y021226*
%LPD*%
G54D10*
X014756Y018077D03*
G04 drill T01 X014754Y018077*
%LPC*%
G54D12*
G04 /drill T01 X014754Y018077*
M02*
