G75*
%MOIN*%
%OFA0B0*%
%FSLAX25Y25*%
%IPPOS*%
%LPD*%
%AMOC8*
5,1,8,0,0,1.08239X$1,22.5*
%
%ADD10C,0.01200*%
%ADD11C,0.00100*%
D10*
X0017339Y0001600D02*
X0017339Y0018271D01*
X0088168Y0046609D01*
X0119747Y0034964D01*
X0119747Y0041380D01*
X0096754Y0050018D01*
X0096754Y0061460D01*
X0111162Y0056266D01*
X0186017Y0084671D01*
X0186109Y0105664D01*
X0111162Y0134344D01*
X0096783Y0129255D01*
X0096754Y0122240D02*
X0096754Y0140593D01*
X0119747Y0149231D01*
X0119747Y0155854D01*
X0152804Y0142531D01*
X0185836Y0156037D01*
X0185836Y0149414D01*
X0194358Y0146213D01*
X0194421Y0134527D01*
X0119566Y0105701D01*
X0079877Y0122114D01*
X0071812Y0119298D01*
X0057046Y0125107D01*
X0057046Y0157143D01*
X0145644Y0190233D01*
X0160431Y0190233D02*
X0248537Y0157326D01*
X0288244Y0172522D01*
X0304750Y0166535D01*
X0288244Y0172522D02*
X0288244Y0190233D01*
X0248537Y0182775D02*
X0227195Y0190576D01*
X0208800Y0190576D02*
X0208800Y0172167D01*
X0152804Y0149414D01*
X0096768Y0172179D01*
X0096768Y0190233D01*
X0077950Y0190233D02*
X0057046Y0182591D01*
X0017339Y0190576D01*
X0017339Y0172484D01*
X0057046Y0157143D01*
X0026149Y0144933D01*
X0001600Y0154448D01*
X0001600Y0166353D02*
X0017339Y0172484D01*
X0057046Y0182591D02*
X0057046Y0157143D01*
X0088168Y0144394D01*
X0088168Y0046609D01*
X0096754Y0061460D02*
X0096754Y0068371D01*
X0056983Y0083697D01*
X0045321Y0079322D01*
X0045187Y0081649D02*
X0045137Y0054249D01*
X0045187Y0054249D02*
X0025773Y0045879D01*
X0025784Y0045867D02*
X0141267Y0001973D01*
X0163721Y0001973D02*
X0280494Y0046152D01*
X0304750Y0035796D01*
X0304750Y0024442D02*
X0288244Y0018455D01*
X0288244Y0001600D01*
X0288244Y0018455D02*
X0217415Y0046792D01*
X0185836Y0035147D01*
X0185836Y0041563D01*
X0208721Y0050201D01*
X0208721Y0061743D01*
X0208721Y0067933D01*
X0248537Y0083880D01*
X0248537Y0107097D01*
X0217296Y0119481D01*
X0186109Y0105664D01*
X0208829Y0122423D02*
X0217296Y0119481D01*
X0225705Y0122297D01*
X0233982Y0119564D01*
X0248537Y0125291D01*
X0262480Y0119564D01*
X0263390Y0119760D02*
X0248080Y0114274D01*
X0233982Y0119564D01*
X0248537Y0125291D02*
X0248537Y0157326D01*
X0280564Y0145042D01*
X0304750Y0155384D01*
X0280534Y0145017D02*
X0263537Y0137799D01*
X0263592Y0119884D01*
X0263617Y0112931D02*
X0248537Y0107097D01*
X0263637Y0109449D02*
X0263637Y0112899D01*
X0263637Y0109449D02*
X0280587Y0103999D01*
X0280696Y0103990D02*
X0304750Y0096088D01*
X0304687Y0096149D02*
X0263637Y0081999D01*
X0263587Y0078199D01*
X0263567Y0077973D02*
X0248537Y0083880D01*
X0248600Y0077095D02*
X0234157Y0071673D01*
X0248537Y0065686D01*
X0263629Y0071330D01*
X0263662Y0071229D02*
X0263687Y0053449D01*
X0280506Y0046153D01*
X0248537Y0065686D02*
X0248537Y0008202D01*
X0230475Y0001600D01*
X0208721Y0001600D02*
X0208721Y0018619D01*
X0152804Y0041107D01*
X0096680Y0018598D01*
X0096680Y0001600D01*
X0073310Y0002058D02*
X0057046Y0008019D01*
X0057046Y0065503D01*
X0071427Y0071490D01*
X0079877Y0068497D02*
X0119566Y0084487D01*
X0152779Y0073180D01*
X0194358Y0056475D01*
X0194358Y0045107D01*
X0185836Y0035147D02*
X0153111Y0046860D01*
X0119747Y0034964D01*
X0111162Y0044581D02*
X0111162Y0056266D01*
X0079877Y0068497D02*
X0056983Y0076912D01*
X0045143Y0072483D01*
X0045239Y0070180D02*
X0057046Y0065503D01*
X0045099Y0081767D02*
X0001600Y0096088D01*
X0044649Y0110641D01*
X0044637Y0110599D02*
X0044637Y0137749D01*
X0026237Y0144949D01*
X0044687Y0120049D02*
X0057137Y0125099D01*
X0056983Y0113699D02*
X0044734Y0118586D01*
X0044649Y0111678D02*
X0057326Y0106914D01*
X0056983Y0083697D01*
X0057326Y0106914D02*
X0096754Y0122240D01*
X0111162Y0134344D02*
X0111224Y0145870D01*
X0119747Y0155854D02*
X0088168Y0144394D01*
X0071812Y0119298D02*
X0056983Y0113699D01*
X0119566Y0105701D02*
X0119566Y0084487D01*
X0153111Y0046860D02*
X0152804Y0142531D01*
X0185836Y0156037D02*
X0217415Y0144597D01*
X0217415Y0046792D01*
X0208721Y0061743D02*
X0194358Y0056475D01*
X0186017Y0084671D02*
X0225705Y0068680D01*
X0234157Y0071673D01*
X0248600Y0077095D02*
X0263651Y0071467D01*
X0208829Y0122423D02*
X0208829Y0140776D01*
X0194358Y0146213D01*
X0194421Y0134527D02*
X0208665Y0129255D01*
X0217415Y0144597D02*
X0248537Y0157326D01*
X0248537Y0182775D01*
X0025784Y0045867D02*
X0001600Y0035615D01*
X0001600Y0024257D02*
X0017339Y0018271D01*
D11*
X0013156Y0041127D02*
X0013407Y0091541D01*
X0014279Y0091276D01*
X0044586Y0081302D01*
X0044537Y0054626D01*
X0013156Y0041127D01*
X0013156Y0041193D02*
X0013308Y0041193D01*
X0013157Y0041291D02*
X0013537Y0041291D01*
X0013766Y0041390D02*
X0013157Y0041390D01*
X0013158Y0041488D02*
X0013995Y0041488D01*
X0014224Y0041587D02*
X0013158Y0041587D01*
X0013159Y0041685D02*
X0014453Y0041685D01*
X0014682Y0041784D02*
X0013159Y0041784D01*
X0013160Y0041882D02*
X0014911Y0041882D01*
X0015140Y0041981D02*
X0013160Y0041981D01*
X0013160Y0042079D02*
X0015369Y0042079D01*
X0015598Y0042178D02*
X0013161Y0042178D01*
X0013161Y0042276D02*
X0015827Y0042276D01*
X0016056Y0042375D02*
X0013162Y0042375D01*
X0013162Y0042473D02*
X0016285Y0042473D01*
X0016514Y0042572D02*
X0013163Y0042572D01*
X0013163Y0042670D02*
X0016743Y0042670D01*
X0016972Y0042769D02*
X0013164Y0042769D01*
X0013164Y0042867D02*
X0017201Y0042867D01*
X0017430Y0042966D02*
X0013165Y0042966D01*
X0013165Y0043064D02*
X0017659Y0043064D01*
X0017888Y0043163D02*
X0013166Y0043163D01*
X0013166Y0043262D02*
X0018117Y0043262D01*
X0018346Y0043360D02*
X0013167Y0043360D01*
X0013167Y0043459D02*
X0018575Y0043459D01*
X0018804Y0043557D02*
X0013168Y0043557D01*
X0013168Y0043656D02*
X0019033Y0043656D01*
X0019262Y0043754D02*
X0013169Y0043754D01*
X0013169Y0043853D02*
X0019491Y0043853D01*
X0019720Y0043951D02*
X0013170Y0043951D01*
X0013170Y0044050D02*
X0019949Y0044050D01*
X0020178Y0044148D02*
X0013171Y0044148D01*
X0013171Y0044247D02*
X0020407Y0044247D01*
X0020636Y0044345D02*
X0013172Y0044345D01*
X0013172Y0044444D02*
X0020865Y0044444D01*
X0021094Y0044542D02*
X0013173Y0044542D01*
X0013173Y0044641D02*
X0021323Y0044641D01*
X0021552Y0044739D02*
X0013174Y0044739D01*
X0013174Y0044838D02*
X0021781Y0044838D01*
X0022010Y0044936D02*
X0013175Y0044936D01*
X0013175Y0045035D02*
X0022239Y0045035D01*
X0022468Y0045133D02*
X0013176Y0045133D01*
X0013176Y0045232D02*
X0022697Y0045232D01*
X0022926Y0045330D02*
X0013177Y0045330D01*
X0013177Y0045429D02*
X0023155Y0045429D01*
X0023384Y0045527D02*
X0013178Y0045527D01*
X0013178Y0045626D02*
X0023613Y0045626D01*
X0023842Y0045724D02*
X0013179Y0045724D01*
X0013179Y0045823D02*
X0024071Y0045823D01*
X0024300Y0045921D02*
X0013180Y0045921D01*
X0013180Y0046020D02*
X0024529Y0046020D01*
X0024758Y0046118D02*
X0013181Y0046118D01*
X0013181Y0046217D02*
X0024987Y0046217D01*
X0025216Y0046315D02*
X0013182Y0046315D01*
X0013182Y0046414D02*
X0025445Y0046414D01*
X0025674Y0046512D02*
X0013183Y0046512D01*
X0013183Y0046611D02*
X0025903Y0046611D01*
X0026132Y0046709D02*
X0013184Y0046709D01*
X0013184Y0046808D02*
X0026361Y0046808D01*
X0026590Y0046906D02*
X0013185Y0046906D01*
X0013185Y0047005D02*
X0026819Y0047005D01*
X0027048Y0047103D02*
X0013186Y0047103D01*
X0013186Y0047202D02*
X0027278Y0047202D01*
X0027507Y0047300D02*
X0013187Y0047300D01*
X0013187Y0047399D02*
X0027736Y0047399D01*
X0027965Y0047497D02*
X0013187Y0047497D01*
X0013188Y0047596D02*
X0028194Y0047596D01*
X0028423Y0047695D02*
X0013188Y0047695D01*
X0013189Y0047793D02*
X0028652Y0047793D01*
X0028881Y0047892D02*
X0013189Y0047892D01*
X0013190Y0047990D02*
X0029110Y0047990D01*
X0029339Y0048089D02*
X0013190Y0048089D01*
X0013191Y0048187D02*
X0029568Y0048187D01*
X0029797Y0048286D02*
X0013191Y0048286D01*
X0013192Y0048384D02*
X0030026Y0048384D01*
X0030255Y0048483D02*
X0013192Y0048483D01*
X0013193Y0048581D02*
X0030484Y0048581D01*
X0030713Y0048680D02*
X0013193Y0048680D01*
X0013194Y0048778D02*
X0030942Y0048778D01*
X0031171Y0048877D02*
X0013194Y0048877D01*
X0013195Y0048975D02*
X0031400Y0048975D01*
X0031629Y0049074D02*
X0013195Y0049074D01*
X0013196Y0049172D02*
X0031858Y0049172D01*
X0032087Y0049271D02*
X0013196Y0049271D01*
X0013197Y0049369D02*
X0032316Y0049369D01*
X0032545Y0049468D02*
X0013197Y0049468D01*
X0013198Y0049566D02*
X0032774Y0049566D01*
X0033003Y0049665D02*
X0013198Y0049665D01*
X0013199Y0049763D02*
X0033232Y0049763D01*
X0033461Y0049862D02*
X0013199Y0049862D01*
X0013200Y0049960D02*
X0033690Y0049960D01*
X0033919Y0050059D02*
X0013200Y0050059D01*
X0013201Y0050157D02*
X0034148Y0050157D01*
X0034377Y0050256D02*
X0013201Y0050256D01*
X0013202Y0050354D02*
X0034606Y0050354D01*
X0034835Y0050453D02*
X0013202Y0050453D01*
X0013203Y0050551D02*
X0035064Y0050551D01*
X0035293Y0050650D02*
X0013203Y0050650D01*
X0013204Y0050748D02*
X0035522Y0050748D01*
X0035751Y0050847D02*
X0013204Y0050847D01*
X0013205Y0050945D02*
X0035980Y0050945D01*
X0036209Y0051044D02*
X0013205Y0051044D01*
X0013206Y0051142D02*
X0036438Y0051142D01*
X0036667Y0051241D02*
X0013206Y0051241D01*
X0013207Y0051339D02*
X0036896Y0051339D01*
X0037125Y0051438D02*
X0013207Y0051438D01*
X0013208Y0051536D02*
X0037354Y0051536D01*
X0037583Y0051635D02*
X0013208Y0051635D01*
X0013209Y0051733D02*
X0037812Y0051733D01*
X0038041Y0051832D02*
X0013209Y0051832D01*
X0013210Y0051930D02*
X0038270Y0051930D01*
X0038499Y0052029D02*
X0013210Y0052029D01*
X0013211Y0052128D02*
X0038728Y0052128D01*
X0038957Y0052226D02*
X0013211Y0052226D01*
X0013212Y0052325D02*
X0039186Y0052325D01*
X0039415Y0052423D02*
X0013212Y0052423D01*
X0013213Y0052522D02*
X0039644Y0052522D01*
X0039873Y0052620D02*
X0013213Y0052620D01*
X0013214Y0052719D02*
X0040102Y0052719D01*
X0040331Y0052817D02*
X0013214Y0052817D01*
X0013214Y0052916D02*
X0040560Y0052916D01*
X0040789Y0053014D02*
X0013215Y0053014D01*
X0013215Y0053113D02*
X0041018Y0053113D01*
X0041247Y0053211D02*
X0013216Y0053211D01*
X0013216Y0053310D02*
X0041476Y0053310D01*
X0041705Y0053408D02*
X0013217Y0053408D01*
X0013217Y0053507D02*
X0041934Y0053507D01*
X0042163Y0053605D02*
X0013218Y0053605D01*
X0013218Y0053704D02*
X0042392Y0053704D01*
X0042621Y0053802D02*
X0013219Y0053802D01*
X0013219Y0053901D02*
X0042850Y0053901D01*
X0043079Y0053999D02*
X0013220Y0053999D01*
X0013220Y0054098D02*
X0043308Y0054098D01*
X0043537Y0054196D02*
X0013221Y0054196D01*
X0013221Y0054295D02*
X0043766Y0054295D01*
X0043995Y0054393D02*
X0013222Y0054393D01*
X0013222Y0054492D02*
X0044224Y0054492D01*
X0044453Y0054590D02*
X0013223Y0054590D01*
X0013223Y0054689D02*
X0044537Y0054689D01*
X0044537Y0054787D02*
X0013224Y0054787D01*
X0013224Y0054886D02*
X0044537Y0054886D01*
X0044538Y0054984D02*
X0013225Y0054984D01*
X0013225Y0055083D02*
X0044538Y0055083D01*
X0044538Y0055181D02*
X0013226Y0055181D01*
X0013226Y0055280D02*
X0044538Y0055280D01*
X0044538Y0055378D02*
X0013227Y0055378D01*
X0013227Y0055477D02*
X0044539Y0055477D01*
X0044539Y0055575D02*
X0013228Y0055575D01*
X0013228Y0055674D02*
X0044539Y0055674D01*
X0044539Y0055772D02*
X0013229Y0055772D01*
X0013229Y0055871D02*
X0044539Y0055871D01*
X0044539Y0055969D02*
X0013230Y0055969D01*
X0013230Y0056068D02*
X0044540Y0056068D01*
X0044540Y0056166D02*
X0013231Y0056166D01*
X0013231Y0056265D02*
X0044540Y0056265D01*
X0044540Y0056364D02*
X0013232Y0056364D01*
X0013232Y0056462D02*
X0044540Y0056462D01*
X0044541Y0056561D02*
X0013233Y0056561D01*
X0013233Y0056659D02*
X0044541Y0056659D01*
X0044541Y0056758D02*
X0013234Y0056758D01*
X0013234Y0056856D02*
X0044541Y0056856D01*
X0044541Y0056955D02*
X0013235Y0056955D01*
X0013235Y0057053D02*
X0044541Y0057053D01*
X0044542Y0057152D02*
X0013236Y0057152D01*
X0013236Y0057250D02*
X0044542Y0057250D01*
X0044542Y0057349D02*
X0013237Y0057349D01*
X0013237Y0057447D02*
X0044542Y0057447D01*
X0044542Y0057546D02*
X0013238Y0057546D01*
X0013238Y0057644D02*
X0044542Y0057644D01*
X0044543Y0057743D02*
X0013239Y0057743D01*
X0013239Y0057841D02*
X0044543Y0057841D01*
X0044543Y0057940D02*
X0013240Y0057940D01*
X0013240Y0058038D02*
X0044543Y0058038D01*
X0044543Y0058137D02*
X0013241Y0058137D01*
X0013241Y0058235D02*
X0044544Y0058235D01*
X0044544Y0058334D02*
X0013241Y0058334D01*
X0013242Y0058432D02*
X0044544Y0058432D01*
X0044544Y0058531D02*
X0013242Y0058531D01*
X0013243Y0058629D02*
X0044544Y0058629D01*
X0044544Y0058728D02*
X0013243Y0058728D01*
X0013244Y0058826D02*
X0044545Y0058826D01*
X0044545Y0058925D02*
X0013244Y0058925D01*
X0013245Y0059023D02*
X0044545Y0059023D01*
X0044545Y0059122D02*
X0013245Y0059122D01*
X0013246Y0059220D02*
X0044545Y0059220D01*
X0044546Y0059319D02*
X0013246Y0059319D01*
X0013247Y0059417D02*
X0044546Y0059417D01*
X0044546Y0059516D02*
X0013247Y0059516D01*
X0013248Y0059614D02*
X0044546Y0059614D01*
X0044546Y0059713D02*
X0013248Y0059713D01*
X0013249Y0059811D02*
X0044546Y0059811D01*
X0044547Y0059910D02*
X0013249Y0059910D01*
X0013250Y0060008D02*
X0044547Y0060008D01*
X0044547Y0060107D02*
X0013250Y0060107D01*
X0013251Y0060205D02*
X0044547Y0060205D01*
X0044547Y0060304D02*
X0013251Y0060304D01*
X0013252Y0060402D02*
X0044548Y0060402D01*
X0044548Y0060501D02*
X0013252Y0060501D01*
X0013253Y0060599D02*
X0044548Y0060599D01*
X0044548Y0060698D02*
X0013253Y0060698D01*
X0013254Y0060797D02*
X0044548Y0060797D01*
X0044548Y0060895D02*
X0013254Y0060895D01*
X0013255Y0060994D02*
X0044549Y0060994D01*
X0044549Y0061092D02*
X0013255Y0061092D01*
X0013256Y0061191D02*
X0044549Y0061191D01*
X0044549Y0061289D02*
X0013256Y0061289D01*
X0013257Y0061388D02*
X0044549Y0061388D01*
X0044550Y0061486D02*
X0013257Y0061486D01*
X0013258Y0061585D02*
X0044550Y0061585D01*
X0044550Y0061683D02*
X0013258Y0061683D01*
X0013259Y0061782D02*
X0044550Y0061782D01*
X0044550Y0061880D02*
X0013259Y0061880D01*
X0013260Y0061979D02*
X0044550Y0061979D01*
X0044551Y0062077D02*
X0013260Y0062077D01*
X0013261Y0062176D02*
X0044551Y0062176D01*
X0044551Y0062274D02*
X0013261Y0062274D01*
X0013262Y0062373D02*
X0044551Y0062373D01*
X0044551Y0062471D02*
X0013262Y0062471D01*
X0013263Y0062570D02*
X0044552Y0062570D01*
X0044552Y0062668D02*
X0013263Y0062668D01*
X0013264Y0062767D02*
X0044552Y0062767D01*
X0044552Y0062865D02*
X0013264Y0062865D01*
X0013265Y0062964D02*
X0044552Y0062964D01*
X0044552Y0063062D02*
X0013265Y0063062D01*
X0013266Y0063161D02*
X0044553Y0063161D01*
X0044553Y0063259D02*
X0013266Y0063259D01*
X0013267Y0063358D02*
X0044553Y0063358D01*
X0044553Y0063456D02*
X0013267Y0063456D01*
X0013268Y0063555D02*
X0044553Y0063555D01*
X0044554Y0063653D02*
X0013268Y0063653D01*
X0013269Y0063752D02*
X0044554Y0063752D01*
X0044554Y0063850D02*
X0013269Y0063850D01*
X0013269Y0063949D02*
X0044554Y0063949D01*
X0044554Y0064047D02*
X0013270Y0064047D01*
X0013270Y0064146D02*
X0044554Y0064146D01*
X0044555Y0064244D02*
X0013271Y0064244D01*
X0013271Y0064343D02*
X0044555Y0064343D01*
X0044555Y0064441D02*
X0013272Y0064441D01*
X0013272Y0064540D02*
X0044555Y0064540D01*
X0044555Y0064638D02*
X0013273Y0064638D01*
X0013273Y0064737D02*
X0044556Y0064737D01*
X0044556Y0064835D02*
X0013274Y0064835D01*
X0013274Y0064934D02*
X0044556Y0064934D01*
X0044556Y0065033D02*
X0013275Y0065033D01*
X0013275Y0065131D02*
X0044556Y0065131D01*
X0044556Y0065230D02*
X0013276Y0065230D01*
X0013276Y0065328D02*
X0044557Y0065328D01*
X0044557Y0065427D02*
X0013277Y0065427D01*
X0013277Y0065525D02*
X0044557Y0065525D01*
X0044557Y0065624D02*
X0013278Y0065624D01*
X0013278Y0065722D02*
X0044557Y0065722D01*
X0044558Y0065821D02*
X0013279Y0065821D01*
X0013279Y0065919D02*
X0044558Y0065919D01*
X0044558Y0066018D02*
X0013280Y0066018D01*
X0013280Y0066116D02*
X0044558Y0066116D01*
X0044558Y0066215D02*
X0013281Y0066215D01*
X0013281Y0066313D02*
X0044558Y0066313D01*
X0044559Y0066412D02*
X0013282Y0066412D01*
X0013282Y0066510D02*
X0044559Y0066510D01*
X0044559Y0066609D02*
X0013283Y0066609D01*
X0013283Y0066707D02*
X0044559Y0066707D01*
X0044559Y0066806D02*
X0013284Y0066806D01*
X0013284Y0066904D02*
X0044559Y0066904D01*
X0044560Y0067003D02*
X0013285Y0067003D01*
X0013285Y0067101D02*
X0044560Y0067101D01*
X0044560Y0067200D02*
X0013286Y0067200D01*
X0013286Y0067298D02*
X0044560Y0067298D01*
X0044560Y0067397D02*
X0013287Y0067397D01*
X0013287Y0067495D02*
X0044561Y0067495D01*
X0044561Y0067594D02*
X0013288Y0067594D01*
X0013288Y0067692D02*
X0044561Y0067692D01*
X0044561Y0067791D02*
X0013289Y0067791D01*
X0013289Y0067889D02*
X0044561Y0067889D01*
X0044561Y0067988D02*
X0013290Y0067988D01*
X0013290Y0068086D02*
X0044562Y0068086D01*
X0044562Y0068185D02*
X0013291Y0068185D01*
X0013291Y0068283D02*
X0044562Y0068283D01*
X0044562Y0068382D02*
X0013292Y0068382D01*
X0013292Y0068480D02*
X0044562Y0068480D01*
X0044563Y0068579D02*
X0013293Y0068579D01*
X0013293Y0068677D02*
X0044563Y0068677D01*
X0044563Y0068776D02*
X0013294Y0068776D01*
X0013294Y0068874D02*
X0044563Y0068874D01*
X0044563Y0068973D02*
X0013295Y0068973D01*
X0013295Y0069071D02*
X0044563Y0069071D01*
X0044564Y0069170D02*
X0013295Y0069170D01*
X0013296Y0069268D02*
X0044564Y0069268D01*
X0044564Y0069367D02*
X0013296Y0069367D01*
X0013297Y0069466D02*
X0044564Y0069466D01*
X0044564Y0069564D02*
X0013297Y0069564D01*
X0013298Y0069663D02*
X0044565Y0069663D01*
X0044565Y0069761D02*
X0013298Y0069761D01*
X0013299Y0069860D02*
X0044565Y0069860D01*
X0044565Y0069958D02*
X0013299Y0069958D01*
X0013300Y0070057D02*
X0044565Y0070057D01*
X0044565Y0070155D02*
X0013300Y0070155D01*
X0013301Y0070254D02*
X0044566Y0070254D01*
X0044566Y0070352D02*
X0013301Y0070352D01*
X0013302Y0070451D02*
X0044566Y0070451D01*
X0044566Y0070549D02*
X0013302Y0070549D01*
X0013303Y0070648D02*
X0044566Y0070648D01*
X0044567Y0070746D02*
X0013303Y0070746D01*
X0013304Y0070845D02*
X0044567Y0070845D01*
X0044567Y0070943D02*
X0013304Y0070943D01*
X0013305Y0071042D02*
X0044567Y0071042D01*
X0044567Y0071140D02*
X0013305Y0071140D01*
X0013306Y0071239D02*
X0044567Y0071239D01*
X0044568Y0071337D02*
X0013306Y0071337D01*
X0013307Y0071436D02*
X0044568Y0071436D01*
X0044568Y0071534D02*
X0013307Y0071534D01*
X0013308Y0071633D02*
X0044568Y0071633D01*
X0044568Y0071731D02*
X0013308Y0071731D01*
X0013309Y0071830D02*
X0044569Y0071830D01*
X0044569Y0071928D02*
X0013309Y0071928D01*
X0013310Y0072027D02*
X0044569Y0072027D01*
X0044569Y0072125D02*
X0013310Y0072125D01*
X0013311Y0072224D02*
X0044569Y0072224D01*
X0044569Y0072322D02*
X0013311Y0072322D01*
X0013312Y0072421D02*
X0044570Y0072421D01*
X0044570Y0072519D02*
X0013312Y0072519D01*
X0013313Y0072618D02*
X0044570Y0072618D01*
X0044570Y0072716D02*
X0013313Y0072716D01*
X0013314Y0072815D02*
X0044570Y0072815D01*
X0044571Y0072913D02*
X0013314Y0072913D01*
X0013315Y0073012D02*
X0044571Y0073012D01*
X0044571Y0073110D02*
X0013315Y0073110D01*
X0013316Y0073209D02*
X0044571Y0073209D01*
X0044571Y0073307D02*
X0013316Y0073307D01*
X0013317Y0073406D02*
X0044571Y0073406D01*
X0044572Y0073504D02*
X0013317Y0073504D01*
X0013318Y0073603D02*
X0044572Y0073603D01*
X0044572Y0073702D02*
X0013318Y0073702D01*
X0013319Y0073800D02*
X0044572Y0073800D01*
X0044572Y0073899D02*
X0013319Y0073899D01*
X0013320Y0073997D02*
X0044573Y0073997D01*
X0044573Y0074096D02*
X0013320Y0074096D01*
X0013321Y0074194D02*
X0044573Y0074194D01*
X0044573Y0074293D02*
X0013321Y0074293D01*
X0013322Y0074391D02*
X0044573Y0074391D01*
X0044573Y0074490D02*
X0013322Y0074490D01*
X0013323Y0074588D02*
X0044574Y0074588D01*
X0044574Y0074687D02*
X0013323Y0074687D01*
X0013323Y0074785D02*
X0044574Y0074785D01*
X0044574Y0074884D02*
X0013324Y0074884D01*
X0013324Y0074982D02*
X0044574Y0074982D01*
X0044575Y0075081D02*
X0013325Y0075081D01*
X0013325Y0075179D02*
X0044575Y0075179D01*
X0044575Y0075278D02*
X0013326Y0075278D01*
X0013326Y0075376D02*
X0044575Y0075376D01*
X0044575Y0075475D02*
X0013327Y0075475D01*
X0013327Y0075573D02*
X0044575Y0075573D01*
X0044576Y0075672D02*
X0013328Y0075672D01*
X0013328Y0075770D02*
X0044576Y0075770D01*
X0044576Y0075869D02*
X0013329Y0075869D01*
X0013329Y0075967D02*
X0044576Y0075967D01*
X0044576Y0076066D02*
X0013330Y0076066D01*
X0013330Y0076164D02*
X0044577Y0076164D01*
X0044577Y0076263D02*
X0013331Y0076263D01*
X0013331Y0076361D02*
X0044577Y0076361D01*
X0044577Y0076460D02*
X0013332Y0076460D01*
X0013332Y0076558D02*
X0044577Y0076558D01*
X0044577Y0076657D02*
X0013333Y0076657D01*
X0013333Y0076755D02*
X0044578Y0076755D01*
X0044578Y0076854D02*
X0013334Y0076854D01*
X0013334Y0076952D02*
X0044578Y0076952D01*
X0044578Y0077051D02*
X0013335Y0077051D01*
X0013335Y0077149D02*
X0044578Y0077149D01*
X0044578Y0077248D02*
X0013336Y0077248D01*
X0013336Y0077346D02*
X0044579Y0077346D01*
X0044579Y0077445D02*
X0013337Y0077445D01*
X0013337Y0077543D02*
X0044579Y0077543D01*
X0044579Y0077642D02*
X0013338Y0077642D01*
X0013338Y0077740D02*
X0044579Y0077740D01*
X0044580Y0077839D02*
X0013339Y0077839D01*
X0013339Y0077937D02*
X0044580Y0077937D01*
X0044580Y0078036D02*
X0013340Y0078036D01*
X0013340Y0078135D02*
X0044580Y0078135D01*
X0044580Y0078233D02*
X0013341Y0078233D01*
X0013341Y0078332D02*
X0044580Y0078332D01*
X0044581Y0078430D02*
X0013342Y0078430D01*
X0013342Y0078529D02*
X0044581Y0078529D01*
X0044581Y0078627D02*
X0013343Y0078627D01*
X0013343Y0078726D02*
X0044581Y0078726D01*
X0044581Y0078824D02*
X0013344Y0078824D01*
X0013344Y0078923D02*
X0044582Y0078923D01*
X0044582Y0079021D02*
X0013345Y0079021D01*
X0013345Y0079120D02*
X0044582Y0079120D01*
X0044582Y0079218D02*
X0013346Y0079218D01*
X0013346Y0079317D02*
X0044582Y0079317D01*
X0044582Y0079415D02*
X0013347Y0079415D01*
X0013347Y0079514D02*
X0044583Y0079514D01*
X0044583Y0079612D02*
X0013348Y0079612D01*
X0013348Y0079711D02*
X0044583Y0079711D01*
X0044583Y0079809D02*
X0013349Y0079809D01*
X0013349Y0079908D02*
X0044583Y0079908D01*
X0044584Y0080006D02*
X0013349Y0080006D01*
X0013350Y0080105D02*
X0044584Y0080105D01*
X0044584Y0080203D02*
X0013350Y0080203D01*
X0013351Y0080302D02*
X0044584Y0080302D01*
X0044584Y0080400D02*
X0013351Y0080400D01*
X0013352Y0080499D02*
X0044584Y0080499D01*
X0044585Y0080597D02*
X0013352Y0080597D01*
X0013353Y0080696D02*
X0044585Y0080696D01*
X0044585Y0080794D02*
X0013353Y0080794D01*
X0013354Y0080893D02*
X0044585Y0080893D01*
X0044585Y0080991D02*
X0013354Y0080991D01*
X0013355Y0081090D02*
X0044586Y0081090D01*
X0044586Y0081188D02*
X0013355Y0081188D01*
X0013356Y0081287D02*
X0044586Y0081287D01*
X0044332Y0081385D02*
X0013356Y0081385D01*
X0013357Y0081484D02*
X0044032Y0081484D01*
X0043733Y0081582D02*
X0013357Y0081582D01*
X0013358Y0081681D02*
X0043434Y0081681D01*
X0043134Y0081779D02*
X0013358Y0081779D01*
X0013359Y0081878D02*
X0042835Y0081878D01*
X0042536Y0081976D02*
X0013359Y0081976D01*
X0013360Y0082075D02*
X0042236Y0082075D01*
X0041937Y0082173D02*
X0013360Y0082173D01*
X0013361Y0082272D02*
X0041637Y0082272D01*
X0041338Y0082370D02*
X0013361Y0082370D01*
X0013362Y0082469D02*
X0041039Y0082469D01*
X0040739Y0082568D02*
X0013362Y0082568D01*
X0013363Y0082666D02*
X0040440Y0082666D01*
X0040141Y0082765D02*
X0013363Y0082765D01*
X0013364Y0082863D02*
X0039841Y0082863D01*
X0039542Y0082962D02*
X0013364Y0082962D01*
X0013365Y0083060D02*
X0039243Y0083060D01*
X0038943Y0083159D02*
X0013365Y0083159D01*
X0013366Y0083257D02*
X0038644Y0083257D01*
X0038345Y0083356D02*
X0013366Y0083356D01*
X0013367Y0083454D02*
X0038045Y0083454D01*
X0037746Y0083553D02*
X0013367Y0083553D01*
X0013368Y0083651D02*
X0037447Y0083651D01*
X0037147Y0083750D02*
X0013368Y0083750D01*
X0013369Y0083848D02*
X0036848Y0083848D01*
X0036549Y0083947D02*
X0013369Y0083947D01*
X0013370Y0084045D02*
X0036249Y0084045D01*
X0035950Y0084144D02*
X0013370Y0084144D01*
X0013371Y0084242D02*
X0035651Y0084242D01*
X0035351Y0084341D02*
X0013371Y0084341D01*
X0013372Y0084439D02*
X0035052Y0084439D01*
X0034753Y0084538D02*
X0013372Y0084538D01*
X0013373Y0084636D02*
X0034453Y0084636D01*
X0034154Y0084735D02*
X0013373Y0084735D01*
X0013374Y0084833D02*
X0033855Y0084833D01*
X0033555Y0084932D02*
X0013374Y0084932D01*
X0013375Y0085030D02*
X0033256Y0085030D01*
X0032957Y0085129D02*
X0013375Y0085129D01*
X0013376Y0085227D02*
X0032657Y0085227D01*
X0032358Y0085326D02*
X0013376Y0085326D01*
X0013377Y0085424D02*
X0032059Y0085424D01*
X0031759Y0085523D02*
X0013377Y0085523D01*
X0013377Y0085621D02*
X0031460Y0085621D01*
X0031160Y0085720D02*
X0013378Y0085720D01*
X0013378Y0085818D02*
X0030861Y0085818D01*
X0030562Y0085917D02*
X0013379Y0085917D01*
X0013379Y0086015D02*
X0030262Y0086015D01*
X0029963Y0086114D02*
X0013380Y0086114D01*
X0013380Y0086212D02*
X0029664Y0086212D01*
X0029364Y0086311D02*
X0013381Y0086311D01*
X0013381Y0086409D02*
X0029065Y0086409D01*
X0028766Y0086508D02*
X0013382Y0086508D01*
X0013382Y0086606D02*
X0028466Y0086606D01*
X0028167Y0086705D02*
X0013383Y0086705D01*
X0013383Y0086804D02*
X0027868Y0086804D01*
X0027568Y0086902D02*
X0013384Y0086902D01*
X0013384Y0087001D02*
X0027269Y0087001D01*
X0026970Y0087099D02*
X0013385Y0087099D01*
X0013385Y0087198D02*
X0026670Y0087198D01*
X0026371Y0087296D02*
X0013386Y0087296D01*
X0013386Y0087395D02*
X0026072Y0087395D01*
X0025772Y0087493D02*
X0013387Y0087493D01*
X0013387Y0087592D02*
X0025473Y0087592D01*
X0025174Y0087690D02*
X0013388Y0087690D01*
X0013388Y0087789D02*
X0024874Y0087789D01*
X0024575Y0087887D02*
X0013389Y0087887D01*
X0013389Y0087986D02*
X0024276Y0087986D01*
X0023976Y0088084D02*
X0013390Y0088084D01*
X0013390Y0088183D02*
X0023677Y0088183D01*
X0023378Y0088281D02*
X0013391Y0088281D01*
X0013391Y0088380D02*
X0023078Y0088380D01*
X0022779Y0088478D02*
X0013392Y0088478D01*
X0013392Y0088577D02*
X0022480Y0088577D01*
X0022180Y0088675D02*
X0013393Y0088675D01*
X0013393Y0088774D02*
X0021881Y0088774D01*
X0021581Y0088872D02*
X0013394Y0088872D01*
X0013394Y0088971D02*
X0021282Y0088971D01*
X0020983Y0089069D02*
X0013395Y0089069D01*
X0013395Y0089168D02*
X0020683Y0089168D01*
X0020384Y0089266D02*
X0013396Y0089266D01*
X0013396Y0089365D02*
X0020085Y0089365D01*
X0019785Y0089463D02*
X0013397Y0089463D01*
X0013397Y0089562D02*
X0019486Y0089562D01*
X0019187Y0089660D02*
X0013398Y0089660D01*
X0013398Y0089759D02*
X0018887Y0089759D01*
X0018588Y0089857D02*
X0013399Y0089857D01*
X0013399Y0089956D02*
X0018289Y0089956D01*
X0017989Y0090054D02*
X0013400Y0090054D01*
X0013400Y0090153D02*
X0017690Y0090153D01*
X0017391Y0090251D02*
X0013401Y0090251D01*
X0013401Y0090350D02*
X0017091Y0090350D01*
X0016792Y0090448D02*
X0013402Y0090448D01*
X0013402Y0090547D02*
X0016493Y0090547D01*
X0016193Y0090645D02*
X0013403Y0090645D01*
X0013403Y0090744D02*
X0015894Y0090744D01*
X0015595Y0090842D02*
X0013403Y0090842D01*
X0013404Y0090941D02*
X0015295Y0090941D01*
X0014996Y0091039D02*
X0013404Y0091039D01*
X0013405Y0091138D02*
X0014697Y0091138D01*
X0014397Y0091237D02*
X0013405Y0091237D01*
X0013406Y0091335D02*
X0014084Y0091335D01*
X0013760Y0091434D02*
X0013406Y0091434D01*
X0013407Y0091532D02*
X0013437Y0091532D01*
X0013799Y0100849D02*
X0013825Y0100869D01*
X0044051Y0111077D01*
X0044034Y0137344D01*
X0013438Y0149213D01*
X0013799Y0100849D01*
X0013798Y0100891D02*
X0013889Y0100891D01*
X0013798Y0100989D02*
X0014181Y0100989D01*
X0014472Y0101088D02*
X0013797Y0101088D01*
X0013796Y0101186D02*
X0014764Y0101186D01*
X0015056Y0101285D02*
X0013795Y0101285D01*
X0013795Y0101383D02*
X0015348Y0101383D01*
X0015639Y0101482D02*
X0013794Y0101482D01*
X0013793Y0101580D02*
X0015931Y0101580D01*
X0016223Y0101679D02*
X0013793Y0101679D01*
X0013792Y0101777D02*
X0016514Y0101777D01*
X0016806Y0101876D02*
X0013791Y0101876D01*
X0013790Y0101974D02*
X0017098Y0101974D01*
X0017389Y0102073D02*
X0013790Y0102073D01*
X0013789Y0102171D02*
X0017681Y0102171D01*
X0017973Y0102270D02*
X0013788Y0102270D01*
X0013787Y0102368D02*
X0018265Y0102368D01*
X0018556Y0102467D02*
X0013787Y0102467D01*
X0013786Y0102565D02*
X0018848Y0102565D01*
X0019140Y0102664D02*
X0013785Y0102664D01*
X0013784Y0102762D02*
X0019431Y0102762D01*
X0019723Y0102861D02*
X0013784Y0102861D01*
X0013783Y0102959D02*
X0020015Y0102959D01*
X0020307Y0103058D02*
X0013782Y0103058D01*
X0013782Y0103156D02*
X0020598Y0103156D01*
X0020890Y0103255D02*
X0013781Y0103255D01*
X0013780Y0103353D02*
X0021182Y0103353D01*
X0021473Y0103452D02*
X0013779Y0103452D01*
X0013779Y0103550D02*
X0021765Y0103550D01*
X0022057Y0103649D02*
X0013778Y0103649D01*
X0013777Y0103747D02*
X0022348Y0103747D01*
X0022640Y0103846D02*
X0013776Y0103846D01*
X0013776Y0103944D02*
X0022932Y0103944D01*
X0023224Y0104043D02*
X0013775Y0104043D01*
X0013774Y0104141D02*
X0023515Y0104141D01*
X0023807Y0104240D02*
X0013773Y0104240D01*
X0013773Y0104339D02*
X0024099Y0104339D01*
X0024390Y0104437D02*
X0013772Y0104437D01*
X0013771Y0104536D02*
X0024682Y0104536D01*
X0024974Y0104634D02*
X0013770Y0104634D01*
X0013770Y0104733D02*
X0025266Y0104733D01*
X0025557Y0104831D02*
X0013769Y0104831D01*
X0013768Y0104930D02*
X0025849Y0104930D01*
X0026141Y0105028D02*
X0013768Y0105028D01*
X0013767Y0105127D02*
X0026432Y0105127D01*
X0026724Y0105225D02*
X0013766Y0105225D01*
X0013765Y0105324D02*
X0027016Y0105324D01*
X0027307Y0105422D02*
X0013765Y0105422D01*
X0013764Y0105521D02*
X0027599Y0105521D01*
X0027891Y0105619D02*
X0013763Y0105619D01*
X0013762Y0105718D02*
X0028183Y0105718D01*
X0028474Y0105816D02*
X0013762Y0105816D01*
X0013761Y0105915D02*
X0028766Y0105915D01*
X0029058Y0106013D02*
X0013760Y0106013D01*
X0013759Y0106112D02*
X0029349Y0106112D01*
X0029641Y0106210D02*
X0013759Y0106210D01*
X0013758Y0106309D02*
X0029933Y0106309D01*
X0030225Y0106407D02*
X0013757Y0106407D01*
X0013757Y0106506D02*
X0030516Y0106506D01*
X0030808Y0106604D02*
X0013756Y0106604D01*
X0013755Y0106703D02*
X0031100Y0106703D01*
X0031391Y0106801D02*
X0013754Y0106801D01*
X0013754Y0106900D02*
X0031683Y0106900D01*
X0031975Y0106998D02*
X0013753Y0106998D01*
X0013752Y0107097D02*
X0032266Y0107097D01*
X0032558Y0107195D02*
X0013751Y0107195D01*
X0013751Y0107294D02*
X0032850Y0107294D01*
X0033142Y0107392D02*
X0013750Y0107392D01*
X0013749Y0107491D02*
X0033433Y0107491D01*
X0033725Y0107589D02*
X0013748Y0107589D01*
X0013748Y0107688D02*
X0034017Y0107688D01*
X0034308Y0107786D02*
X0013747Y0107786D01*
X0013746Y0107885D02*
X0034600Y0107885D01*
X0034892Y0107983D02*
X0013745Y0107983D01*
X0013745Y0108082D02*
X0035184Y0108082D01*
X0035475Y0108180D02*
X0013744Y0108180D01*
X0013743Y0108279D02*
X0035767Y0108279D01*
X0036059Y0108377D02*
X0013743Y0108377D01*
X0013742Y0108476D02*
X0036350Y0108476D01*
X0036642Y0108575D02*
X0013741Y0108575D01*
X0013740Y0108673D02*
X0036934Y0108673D01*
X0037225Y0108772D02*
X0013740Y0108772D01*
X0013739Y0108870D02*
X0037517Y0108870D01*
X0037809Y0108969D02*
X0013738Y0108969D01*
X0013737Y0109067D02*
X0038101Y0109067D01*
X0038392Y0109166D02*
X0013737Y0109166D01*
X0013736Y0109264D02*
X0038684Y0109264D01*
X0038976Y0109363D02*
X0013735Y0109363D01*
X0013734Y0109461D02*
X0039267Y0109461D01*
X0039559Y0109560D02*
X0013734Y0109560D01*
X0013733Y0109658D02*
X0039851Y0109658D01*
X0040143Y0109757D02*
X0013732Y0109757D01*
X0013732Y0109855D02*
X0040434Y0109855D01*
X0040726Y0109954D02*
X0013731Y0109954D01*
X0013730Y0110052D02*
X0041018Y0110052D01*
X0041309Y0110151D02*
X0013729Y0110151D01*
X0013729Y0110249D02*
X0041601Y0110249D01*
X0041893Y0110348D02*
X0013728Y0110348D01*
X0013727Y0110446D02*
X0042184Y0110446D01*
X0042476Y0110545D02*
X0013726Y0110545D01*
X0013726Y0110643D02*
X0042768Y0110643D01*
X0043060Y0110742D02*
X0013725Y0110742D01*
X0013724Y0110840D02*
X0043351Y0110840D01*
X0043643Y0110939D02*
X0013723Y0110939D01*
X0013723Y0111037D02*
X0043935Y0111037D01*
X0044051Y0111136D02*
X0013722Y0111136D01*
X0013721Y0111234D02*
X0044051Y0111234D01*
X0044051Y0111333D02*
X0013721Y0111333D01*
X0013720Y0111431D02*
X0044051Y0111431D01*
X0044051Y0111530D02*
X0013719Y0111530D01*
X0013718Y0111628D02*
X0044051Y0111628D01*
X0044051Y0111727D02*
X0013718Y0111727D01*
X0013717Y0111825D02*
X0044051Y0111825D01*
X0044051Y0111924D02*
X0013716Y0111924D01*
X0013715Y0112022D02*
X0044051Y0112022D01*
X0044051Y0112121D02*
X0013715Y0112121D01*
X0013714Y0112219D02*
X0044050Y0112219D01*
X0044050Y0112318D02*
X0013713Y0112318D01*
X0013712Y0112416D02*
X0044050Y0112416D01*
X0044050Y0112515D02*
X0013712Y0112515D01*
X0013711Y0112613D02*
X0044050Y0112613D01*
X0044050Y0112712D02*
X0013710Y0112712D01*
X0013709Y0112810D02*
X0044050Y0112810D01*
X0044050Y0112909D02*
X0013709Y0112909D01*
X0013708Y0113008D02*
X0044050Y0113008D01*
X0044050Y0113106D02*
X0013707Y0113106D01*
X0013707Y0113205D02*
X0044050Y0113205D01*
X0044050Y0113303D02*
X0013706Y0113303D01*
X0013705Y0113402D02*
X0044050Y0113402D01*
X0044050Y0113500D02*
X0013704Y0113500D01*
X0013704Y0113599D02*
X0044050Y0113599D01*
X0044049Y0113697D02*
X0013703Y0113697D01*
X0013702Y0113796D02*
X0044049Y0113796D01*
X0044049Y0113894D02*
X0013701Y0113894D01*
X0013701Y0113993D02*
X0044049Y0113993D01*
X0044049Y0114091D02*
X0013700Y0114091D01*
X0013699Y0114190D02*
X0044049Y0114190D01*
X0044049Y0114288D02*
X0013698Y0114288D01*
X0013698Y0114387D02*
X0044049Y0114387D01*
X0044049Y0114485D02*
X0013697Y0114485D01*
X0013696Y0114584D02*
X0044049Y0114584D01*
X0044049Y0114682D02*
X0013696Y0114682D01*
X0013695Y0114781D02*
X0044049Y0114781D01*
X0044049Y0114879D02*
X0013694Y0114879D01*
X0013693Y0114978D02*
X0044049Y0114978D01*
X0044049Y0115076D02*
X0013693Y0115076D01*
X0013692Y0115175D02*
X0044049Y0115175D01*
X0044048Y0115273D02*
X0013691Y0115273D01*
X0013690Y0115372D02*
X0044048Y0115372D01*
X0044048Y0115470D02*
X0013690Y0115470D01*
X0013689Y0115569D02*
X0044048Y0115569D01*
X0044048Y0115667D02*
X0013688Y0115667D01*
X0013687Y0115766D02*
X0044048Y0115766D01*
X0044048Y0115864D02*
X0013687Y0115864D01*
X0013686Y0115963D02*
X0044048Y0115963D01*
X0044048Y0116061D02*
X0013685Y0116061D01*
X0013685Y0116160D02*
X0044048Y0116160D01*
X0044048Y0116258D02*
X0013684Y0116258D01*
X0013683Y0116357D02*
X0044048Y0116357D01*
X0044048Y0116455D02*
X0013682Y0116455D01*
X0013682Y0116554D02*
X0044048Y0116554D01*
X0044048Y0116652D02*
X0013681Y0116652D01*
X0013680Y0116751D02*
X0044047Y0116751D01*
X0044047Y0116849D02*
X0013679Y0116849D01*
X0013679Y0116948D02*
X0044047Y0116948D01*
X0044047Y0117046D02*
X0013678Y0117046D01*
X0013677Y0117145D02*
X0044047Y0117145D01*
X0044047Y0117244D02*
X0013676Y0117244D01*
X0013676Y0117342D02*
X0044047Y0117342D01*
X0044047Y0117441D02*
X0013675Y0117441D01*
X0013674Y0117539D02*
X0044047Y0117539D01*
X0044047Y0117638D02*
X0013673Y0117638D01*
X0013673Y0117736D02*
X0044047Y0117736D01*
X0044047Y0117835D02*
X0013672Y0117835D01*
X0013671Y0117933D02*
X0044047Y0117933D01*
X0044047Y0118032D02*
X0013671Y0118032D01*
X0013670Y0118130D02*
X0044047Y0118130D01*
X0044047Y0118229D02*
X0013669Y0118229D01*
X0013668Y0118327D02*
X0044046Y0118327D01*
X0044046Y0118426D02*
X0013668Y0118426D01*
X0013667Y0118524D02*
X0044046Y0118524D01*
X0044046Y0118623D02*
X0013666Y0118623D01*
X0013665Y0118721D02*
X0044046Y0118721D01*
X0044046Y0118820D02*
X0013665Y0118820D01*
X0013664Y0118918D02*
X0044046Y0118918D01*
X0044046Y0119017D02*
X0013663Y0119017D01*
X0013662Y0119115D02*
X0044046Y0119115D01*
X0044046Y0119214D02*
X0013662Y0119214D01*
X0013661Y0119312D02*
X0044046Y0119312D01*
X0044046Y0119411D02*
X0013660Y0119411D01*
X0013660Y0119509D02*
X0044046Y0119509D01*
X0044046Y0119608D02*
X0013659Y0119608D01*
X0013658Y0119706D02*
X0044046Y0119706D01*
X0044045Y0119805D02*
X0013657Y0119805D01*
X0013657Y0119903D02*
X0044045Y0119903D01*
X0044045Y0120002D02*
X0013656Y0120002D01*
X0013655Y0120100D02*
X0044045Y0120100D01*
X0044045Y0120199D02*
X0013654Y0120199D01*
X0013654Y0120297D02*
X0044045Y0120297D01*
X0044045Y0120396D02*
X0013653Y0120396D01*
X0013652Y0120494D02*
X0044045Y0120494D01*
X0044045Y0120593D02*
X0013651Y0120593D01*
X0013651Y0120691D02*
X0044045Y0120691D01*
X0044045Y0120790D02*
X0013650Y0120790D01*
X0013649Y0120888D02*
X0044045Y0120888D01*
X0044045Y0120987D02*
X0013648Y0120987D01*
X0013648Y0121085D02*
X0044045Y0121085D01*
X0044045Y0121184D02*
X0013647Y0121184D01*
X0013646Y0121282D02*
X0044045Y0121282D01*
X0044044Y0121381D02*
X0013646Y0121381D01*
X0013645Y0121479D02*
X0044044Y0121479D01*
X0044044Y0121578D02*
X0013644Y0121578D01*
X0013643Y0121677D02*
X0044044Y0121677D01*
X0044044Y0121775D02*
X0013643Y0121775D01*
X0013642Y0121874D02*
X0044044Y0121874D01*
X0044044Y0121972D02*
X0013641Y0121972D01*
X0013640Y0122071D02*
X0044044Y0122071D01*
X0044044Y0122169D02*
X0013640Y0122169D01*
X0013639Y0122268D02*
X0044044Y0122268D01*
X0044044Y0122366D02*
X0013638Y0122366D01*
X0013637Y0122465D02*
X0044044Y0122465D01*
X0044044Y0122563D02*
X0013637Y0122563D01*
X0013636Y0122662D02*
X0044044Y0122662D01*
X0044044Y0122760D02*
X0013635Y0122760D01*
X0013635Y0122859D02*
X0044043Y0122859D01*
X0044043Y0122957D02*
X0013634Y0122957D01*
X0013633Y0123056D02*
X0044043Y0123056D01*
X0044043Y0123154D02*
X0013632Y0123154D01*
X0013632Y0123253D02*
X0044043Y0123253D01*
X0044043Y0123351D02*
X0013631Y0123351D01*
X0013630Y0123450D02*
X0044043Y0123450D01*
X0044043Y0123548D02*
X0013629Y0123548D01*
X0013629Y0123647D02*
X0044043Y0123647D01*
X0044043Y0123745D02*
X0013628Y0123745D01*
X0013627Y0123844D02*
X0044043Y0123844D01*
X0044043Y0123942D02*
X0013626Y0123942D01*
X0013626Y0124041D02*
X0044043Y0124041D01*
X0044043Y0124139D02*
X0013625Y0124139D01*
X0013624Y0124238D02*
X0044043Y0124238D01*
X0044043Y0124336D02*
X0013624Y0124336D01*
X0013623Y0124435D02*
X0044042Y0124435D01*
X0044042Y0124533D02*
X0013622Y0124533D01*
X0013621Y0124632D02*
X0044042Y0124632D01*
X0044042Y0124730D02*
X0013621Y0124730D01*
X0013620Y0124829D02*
X0044042Y0124829D01*
X0044042Y0124927D02*
X0013619Y0124927D01*
X0013618Y0125026D02*
X0044042Y0125026D01*
X0044042Y0125124D02*
X0013618Y0125124D01*
X0013617Y0125223D02*
X0044042Y0125223D01*
X0044042Y0125321D02*
X0013616Y0125321D01*
X0013615Y0125420D02*
X0044042Y0125420D01*
X0044042Y0125518D02*
X0013615Y0125518D01*
X0013614Y0125617D02*
X0044042Y0125617D01*
X0044042Y0125715D02*
X0013613Y0125715D01*
X0013612Y0125814D02*
X0044042Y0125814D01*
X0044041Y0125912D02*
X0013612Y0125912D01*
X0013611Y0126011D02*
X0044041Y0126011D01*
X0044041Y0126110D02*
X0013610Y0126110D01*
X0013610Y0126208D02*
X0044041Y0126208D01*
X0044041Y0126307D02*
X0013609Y0126307D01*
X0013608Y0126405D02*
X0044041Y0126405D01*
X0044041Y0126504D02*
X0013607Y0126504D01*
X0013607Y0126602D02*
X0044041Y0126602D01*
X0044041Y0126701D02*
X0013606Y0126701D01*
X0013605Y0126799D02*
X0044041Y0126799D01*
X0044041Y0126898D02*
X0013604Y0126898D01*
X0013604Y0126996D02*
X0044041Y0126996D01*
X0044041Y0127095D02*
X0013603Y0127095D01*
X0013602Y0127193D02*
X0044041Y0127193D01*
X0044041Y0127292D02*
X0013601Y0127292D01*
X0013601Y0127390D02*
X0044041Y0127390D01*
X0044040Y0127489D02*
X0013600Y0127489D01*
X0013599Y0127587D02*
X0044040Y0127587D01*
X0044040Y0127686D02*
X0013599Y0127686D01*
X0013598Y0127784D02*
X0044040Y0127784D01*
X0044040Y0127883D02*
X0013597Y0127883D01*
X0013596Y0127981D02*
X0044040Y0127981D01*
X0044040Y0128080D02*
X0013596Y0128080D01*
X0013595Y0128178D02*
X0044040Y0128178D01*
X0044040Y0128277D02*
X0013594Y0128277D01*
X0013593Y0128375D02*
X0044040Y0128375D01*
X0044040Y0128474D02*
X0013593Y0128474D01*
X0013592Y0128572D02*
X0044040Y0128572D01*
X0044040Y0128671D02*
X0013591Y0128671D01*
X0013590Y0128769D02*
X0044040Y0128769D01*
X0044040Y0128868D02*
X0013590Y0128868D01*
X0013589Y0128966D02*
X0044039Y0128966D01*
X0044039Y0129065D02*
X0013588Y0129065D01*
X0013588Y0129163D02*
X0044039Y0129163D01*
X0044039Y0129262D02*
X0013587Y0129262D01*
X0013586Y0129360D02*
X0044039Y0129360D01*
X0044039Y0129459D02*
X0013585Y0129459D01*
X0013585Y0129557D02*
X0044039Y0129557D01*
X0044039Y0129656D02*
X0013584Y0129656D01*
X0013583Y0129754D02*
X0044039Y0129754D01*
X0044039Y0129853D02*
X0013582Y0129853D01*
X0013582Y0129951D02*
X0044039Y0129951D01*
X0044039Y0130050D02*
X0013581Y0130050D01*
X0013580Y0130148D02*
X0044039Y0130148D01*
X0044039Y0130247D02*
X0013579Y0130247D01*
X0013579Y0130346D02*
X0044039Y0130346D01*
X0044039Y0130444D02*
X0013578Y0130444D01*
X0013577Y0130543D02*
X0044038Y0130543D01*
X0044038Y0130641D02*
X0013576Y0130641D01*
X0013576Y0130740D02*
X0044038Y0130740D01*
X0044038Y0130838D02*
X0013575Y0130838D01*
X0013574Y0130937D02*
X0044038Y0130937D01*
X0044038Y0131035D02*
X0013574Y0131035D01*
X0013573Y0131134D02*
X0044038Y0131134D01*
X0044038Y0131232D02*
X0013572Y0131232D01*
X0013571Y0131331D02*
X0044038Y0131331D01*
X0044038Y0131429D02*
X0013571Y0131429D01*
X0013570Y0131528D02*
X0044038Y0131528D01*
X0044038Y0131626D02*
X0013569Y0131626D01*
X0013568Y0131725D02*
X0044038Y0131725D01*
X0044038Y0131823D02*
X0013568Y0131823D01*
X0013567Y0131922D02*
X0044038Y0131922D01*
X0044037Y0132020D02*
X0013566Y0132020D01*
X0013565Y0132119D02*
X0044037Y0132119D01*
X0044037Y0132217D02*
X0013565Y0132217D01*
X0013564Y0132316D02*
X0044037Y0132316D01*
X0044037Y0132414D02*
X0013563Y0132414D01*
X0013563Y0132513D02*
X0044037Y0132513D01*
X0044037Y0132611D02*
X0013562Y0132611D01*
X0013561Y0132710D02*
X0044037Y0132710D01*
X0044037Y0132808D02*
X0013560Y0132808D01*
X0013560Y0132907D02*
X0044037Y0132907D01*
X0044037Y0133005D02*
X0013559Y0133005D01*
X0013558Y0133104D02*
X0044037Y0133104D01*
X0044037Y0133202D02*
X0013557Y0133202D01*
X0013557Y0133301D02*
X0044037Y0133301D01*
X0044037Y0133399D02*
X0013556Y0133399D01*
X0013555Y0133498D02*
X0044037Y0133498D01*
X0044036Y0133596D02*
X0013554Y0133596D01*
X0013554Y0133695D02*
X0044036Y0133695D01*
X0044036Y0133793D02*
X0013553Y0133793D01*
X0013552Y0133892D02*
X0044036Y0133892D01*
X0044036Y0133990D02*
X0013552Y0133990D01*
X0013551Y0134089D02*
X0044036Y0134089D01*
X0044036Y0134187D02*
X0013550Y0134187D01*
X0013549Y0134286D02*
X0044036Y0134286D01*
X0044036Y0134384D02*
X0013549Y0134384D01*
X0013548Y0134483D02*
X0044036Y0134483D01*
X0044036Y0134581D02*
X0013547Y0134581D01*
X0013546Y0134680D02*
X0044036Y0134680D01*
X0044036Y0134779D02*
X0013546Y0134779D01*
X0013545Y0134877D02*
X0044036Y0134877D01*
X0044036Y0134976D02*
X0013544Y0134976D01*
X0013543Y0135074D02*
X0044035Y0135074D01*
X0044035Y0135173D02*
X0013543Y0135173D01*
X0013542Y0135271D02*
X0044035Y0135271D01*
X0044035Y0135370D02*
X0013541Y0135370D01*
X0013540Y0135468D02*
X0044035Y0135468D01*
X0044035Y0135567D02*
X0013540Y0135567D01*
X0013539Y0135665D02*
X0044035Y0135665D01*
X0044035Y0135764D02*
X0013538Y0135764D01*
X0013538Y0135862D02*
X0044035Y0135862D01*
X0044035Y0135961D02*
X0013537Y0135961D01*
X0013536Y0136059D02*
X0044035Y0136059D01*
X0044035Y0136158D02*
X0013535Y0136158D01*
X0013535Y0136256D02*
X0044035Y0136256D01*
X0044035Y0136355D02*
X0013534Y0136355D01*
X0013533Y0136453D02*
X0044035Y0136453D01*
X0044035Y0136552D02*
X0013532Y0136552D01*
X0013532Y0136650D02*
X0044034Y0136650D01*
X0044034Y0136749D02*
X0013531Y0136749D01*
X0013530Y0136847D02*
X0044034Y0136847D01*
X0044034Y0136946D02*
X0013529Y0136946D01*
X0013529Y0137044D02*
X0044034Y0137044D01*
X0044034Y0137143D02*
X0013528Y0137143D01*
X0013527Y0137241D02*
X0044034Y0137241D01*
X0044034Y0137340D02*
X0013527Y0137340D01*
X0013526Y0137438D02*
X0043792Y0137438D01*
X0043538Y0137537D02*
X0013525Y0137537D01*
X0013524Y0137635D02*
X0043284Y0137635D01*
X0043030Y0137734D02*
X0013524Y0137734D01*
X0013523Y0137832D02*
X0042776Y0137832D01*
X0042522Y0137931D02*
X0013522Y0137931D01*
X0013521Y0138029D02*
X0042268Y0138029D01*
X0042014Y0138128D02*
X0013521Y0138128D01*
X0013520Y0138226D02*
X0041760Y0138226D01*
X0041506Y0138325D02*
X0013519Y0138325D01*
X0013518Y0138423D02*
X0041252Y0138423D01*
X0040998Y0138522D02*
X0013518Y0138522D01*
X0013517Y0138620D02*
X0040744Y0138620D01*
X0040490Y0138719D02*
X0013516Y0138719D01*
X0013516Y0138817D02*
X0040236Y0138817D01*
X0039982Y0138916D02*
X0013515Y0138916D01*
X0013514Y0139015D02*
X0039728Y0139015D01*
X0039474Y0139113D02*
X0013513Y0139113D01*
X0013513Y0139212D02*
X0039220Y0139212D01*
X0038967Y0139310D02*
X0013512Y0139310D01*
X0013511Y0139409D02*
X0038713Y0139409D01*
X0038459Y0139507D02*
X0013510Y0139507D01*
X0013510Y0139606D02*
X0038205Y0139606D01*
X0037951Y0139704D02*
X0013509Y0139704D01*
X0013508Y0139803D02*
X0037697Y0139803D01*
X0037443Y0139901D02*
X0013507Y0139901D01*
X0013507Y0140000D02*
X0037189Y0140000D01*
X0036935Y0140098D02*
X0013506Y0140098D01*
X0013505Y0140197D02*
X0036681Y0140197D01*
X0036427Y0140295D02*
X0013504Y0140295D01*
X0013504Y0140394D02*
X0036173Y0140394D01*
X0035919Y0140492D02*
X0013503Y0140492D01*
X0013502Y0140591D02*
X0035665Y0140591D01*
X0035411Y0140689D02*
X0013502Y0140689D01*
X0013501Y0140788D02*
X0035157Y0140788D01*
X0034903Y0140886D02*
X0013500Y0140886D01*
X0013499Y0140985D02*
X0034649Y0140985D01*
X0034395Y0141083D02*
X0013499Y0141083D01*
X0013498Y0141182D02*
X0034141Y0141182D01*
X0033887Y0141280D02*
X0013497Y0141280D01*
X0013496Y0141379D02*
X0033634Y0141379D01*
X0033380Y0141477D02*
X0013496Y0141477D01*
X0013495Y0141576D02*
X0033126Y0141576D01*
X0032872Y0141674D02*
X0013494Y0141674D01*
X0013493Y0141773D02*
X0032618Y0141773D01*
X0032364Y0141871D02*
X0013493Y0141871D01*
X0013492Y0141970D02*
X0032110Y0141970D01*
X0031856Y0142068D02*
X0013491Y0142068D01*
X0013491Y0142167D02*
X0031602Y0142167D01*
X0031348Y0142265D02*
X0013490Y0142265D01*
X0013489Y0142364D02*
X0031094Y0142364D01*
X0030840Y0142462D02*
X0013488Y0142462D01*
X0013488Y0142561D02*
X0030586Y0142561D01*
X0030332Y0142659D02*
X0013487Y0142659D01*
X0013486Y0142758D02*
X0030078Y0142758D01*
X0029824Y0142856D02*
X0013485Y0142856D01*
X0013485Y0142955D02*
X0029570Y0142955D01*
X0029316Y0143053D02*
X0013484Y0143053D01*
X0013483Y0143152D02*
X0029062Y0143152D01*
X0028808Y0143250D02*
X0013482Y0143250D01*
X0013482Y0143349D02*
X0028555Y0143349D01*
X0028301Y0143448D02*
X0013481Y0143448D01*
X0013480Y0143546D02*
X0028047Y0143546D01*
X0027793Y0143645D02*
X0013479Y0143645D01*
X0013479Y0143743D02*
X0027539Y0143743D01*
X0027285Y0143842D02*
X0013478Y0143842D01*
X0013477Y0143940D02*
X0027031Y0143940D01*
X0026777Y0144039D02*
X0013477Y0144039D01*
X0013476Y0144137D02*
X0026523Y0144137D01*
X0026269Y0144236D02*
X0013475Y0144236D01*
X0013474Y0144334D02*
X0026015Y0144334D01*
X0025761Y0144433D02*
X0013474Y0144433D01*
X0013473Y0144531D02*
X0025507Y0144531D01*
X0025253Y0144630D02*
X0013472Y0144630D01*
X0013471Y0144728D02*
X0024999Y0144728D01*
X0024745Y0144827D02*
X0013471Y0144827D01*
X0013470Y0144925D02*
X0024491Y0144925D01*
X0024237Y0145024D02*
X0013469Y0145024D01*
X0013468Y0145122D02*
X0023983Y0145122D01*
X0023729Y0145221D02*
X0013468Y0145221D01*
X0013467Y0145319D02*
X0023475Y0145319D01*
X0023222Y0145418D02*
X0013466Y0145418D01*
X0013466Y0145516D02*
X0022968Y0145516D01*
X0022714Y0145615D02*
X0013465Y0145615D01*
X0013464Y0145713D02*
X0022460Y0145713D01*
X0022206Y0145812D02*
X0013463Y0145812D01*
X0013463Y0145910D02*
X0021952Y0145910D01*
X0021698Y0146009D02*
X0013462Y0146009D01*
X0013461Y0146107D02*
X0021444Y0146107D01*
X0021190Y0146206D02*
X0013460Y0146206D01*
X0013460Y0146304D02*
X0020936Y0146304D01*
X0020682Y0146403D02*
X0013459Y0146403D01*
X0013458Y0146501D02*
X0020428Y0146501D01*
X0020174Y0146600D02*
X0013457Y0146600D01*
X0013457Y0146698D02*
X0019920Y0146698D01*
X0019666Y0146797D02*
X0013456Y0146797D01*
X0013455Y0146895D02*
X0019412Y0146895D01*
X0019158Y0146994D02*
X0013455Y0146994D01*
X0013454Y0147092D02*
X0018904Y0147092D01*
X0018650Y0147191D02*
X0013453Y0147191D01*
X0013452Y0147289D02*
X0018396Y0147289D01*
X0018143Y0147388D02*
X0013452Y0147388D01*
X0013451Y0147486D02*
X0017889Y0147486D01*
X0017635Y0147585D02*
X0013450Y0147585D01*
X0013449Y0147684D02*
X0017381Y0147684D01*
X0017127Y0147782D02*
X0013449Y0147782D01*
X0013448Y0147881D02*
X0016873Y0147881D01*
X0016619Y0147979D02*
X0013447Y0147979D01*
X0013446Y0148078D02*
X0016365Y0148078D01*
X0016111Y0148176D02*
X0013446Y0148176D01*
X0013445Y0148275D02*
X0015857Y0148275D01*
X0015603Y0148373D02*
X0013444Y0148373D01*
X0013443Y0148472D02*
X0015349Y0148472D01*
X0015095Y0148570D02*
X0013443Y0148570D01*
X0013442Y0148669D02*
X0014841Y0148669D01*
X0014587Y0148767D02*
X0013441Y0148767D01*
X0013441Y0148866D02*
X0014333Y0148866D01*
X0014079Y0148964D02*
X0013440Y0148964D01*
X0013439Y0149063D02*
X0013825Y0149063D01*
X0013571Y0149161D02*
X0013438Y0149161D01*
X0264137Y0137387D02*
X0264212Y0109880D01*
X0298856Y0098710D01*
X0298310Y0151941D01*
X0264166Y0137399D01*
X0264137Y0137387D01*
X0264137Y0137340D02*
X0298460Y0137340D01*
X0298459Y0137438D02*
X0264259Y0137438D01*
X0264137Y0137241D02*
X0298461Y0137241D01*
X0298462Y0137143D02*
X0264138Y0137143D01*
X0264138Y0137044D02*
X0298463Y0137044D01*
X0298464Y0136946D02*
X0264138Y0136946D01*
X0264138Y0136847D02*
X0298465Y0136847D01*
X0298466Y0136749D02*
X0264139Y0136749D01*
X0264139Y0136650D02*
X0298467Y0136650D01*
X0298468Y0136552D02*
X0264139Y0136552D01*
X0264140Y0136453D02*
X0298469Y0136453D01*
X0298470Y0136355D02*
X0264140Y0136355D01*
X0264140Y0136256D02*
X0298471Y0136256D01*
X0298472Y0136158D02*
X0264140Y0136158D01*
X0264141Y0136059D02*
X0298473Y0136059D01*
X0298474Y0135961D02*
X0264141Y0135961D01*
X0264141Y0135862D02*
X0298475Y0135862D01*
X0298476Y0135764D02*
X0264141Y0135764D01*
X0264142Y0135665D02*
X0298477Y0135665D01*
X0298478Y0135567D02*
X0264142Y0135567D01*
X0264142Y0135468D02*
X0298479Y0135468D01*
X0298480Y0135370D02*
X0264143Y0135370D01*
X0264143Y0135271D02*
X0298481Y0135271D01*
X0298482Y0135173D02*
X0264143Y0135173D01*
X0264143Y0135074D02*
X0298483Y0135074D01*
X0298484Y0134976D02*
X0264144Y0134976D01*
X0264144Y0134877D02*
X0298485Y0134877D01*
X0298486Y0134779D02*
X0264144Y0134779D01*
X0264144Y0134680D02*
X0298487Y0134680D01*
X0298488Y0134581D02*
X0264145Y0134581D01*
X0264145Y0134483D02*
X0298489Y0134483D01*
X0298490Y0134384D02*
X0264145Y0134384D01*
X0264145Y0134286D02*
X0298491Y0134286D01*
X0298492Y0134187D02*
X0264146Y0134187D01*
X0264146Y0134089D02*
X0298493Y0134089D01*
X0298494Y0133990D02*
X0264146Y0133990D01*
X0264147Y0133892D02*
X0298495Y0133892D01*
X0298496Y0133793D02*
X0264147Y0133793D01*
X0264147Y0133695D02*
X0298497Y0133695D01*
X0298498Y0133596D02*
X0264147Y0133596D01*
X0264148Y0133498D02*
X0298499Y0133498D01*
X0298500Y0133399D02*
X0264148Y0133399D01*
X0264148Y0133301D02*
X0298501Y0133301D01*
X0298502Y0133202D02*
X0264148Y0133202D01*
X0264149Y0133104D02*
X0298503Y0133104D01*
X0298504Y0133005D02*
X0264149Y0133005D01*
X0264149Y0132907D02*
X0298505Y0132907D01*
X0298506Y0132808D02*
X0264149Y0132808D01*
X0264150Y0132710D02*
X0298507Y0132710D01*
X0298508Y0132611D02*
X0264150Y0132611D01*
X0264150Y0132513D02*
X0298509Y0132513D01*
X0298510Y0132414D02*
X0264151Y0132414D01*
X0264151Y0132316D02*
X0298511Y0132316D01*
X0298512Y0132217D02*
X0264151Y0132217D01*
X0264151Y0132119D02*
X0298513Y0132119D01*
X0298514Y0132020D02*
X0264152Y0132020D01*
X0264152Y0131922D02*
X0298515Y0131922D01*
X0298516Y0131823D02*
X0264152Y0131823D01*
X0264152Y0131725D02*
X0298517Y0131725D01*
X0298518Y0131626D02*
X0264153Y0131626D01*
X0264153Y0131528D02*
X0298519Y0131528D01*
X0298520Y0131429D02*
X0264153Y0131429D01*
X0264153Y0131331D02*
X0298521Y0131331D01*
X0298522Y0131232D02*
X0264154Y0131232D01*
X0264154Y0131134D02*
X0298523Y0131134D01*
X0298524Y0131035D02*
X0264154Y0131035D01*
X0264155Y0130937D02*
X0298525Y0130937D01*
X0298526Y0130838D02*
X0264155Y0130838D01*
X0264155Y0130740D02*
X0298527Y0130740D01*
X0298528Y0130641D02*
X0264155Y0130641D01*
X0264156Y0130543D02*
X0298529Y0130543D01*
X0298530Y0130444D02*
X0264156Y0130444D01*
X0264156Y0130346D02*
X0298531Y0130346D01*
X0298532Y0130247D02*
X0264156Y0130247D01*
X0264157Y0130148D02*
X0298533Y0130148D01*
X0298534Y0130050D02*
X0264157Y0130050D01*
X0264157Y0129951D02*
X0298535Y0129951D01*
X0298536Y0129853D02*
X0264158Y0129853D01*
X0264158Y0129754D02*
X0298537Y0129754D01*
X0298538Y0129656D02*
X0264158Y0129656D01*
X0264158Y0129557D02*
X0298539Y0129557D01*
X0298540Y0129459D02*
X0264159Y0129459D01*
X0264159Y0129360D02*
X0298541Y0129360D01*
X0298542Y0129262D02*
X0264159Y0129262D01*
X0264159Y0129163D02*
X0298543Y0129163D01*
X0298544Y0129065D02*
X0264160Y0129065D01*
X0264160Y0128966D02*
X0298545Y0128966D01*
X0298546Y0128868D02*
X0264160Y0128868D01*
X0264160Y0128769D02*
X0298547Y0128769D01*
X0298548Y0128671D02*
X0264161Y0128671D01*
X0264161Y0128572D02*
X0298549Y0128572D01*
X0298551Y0128474D02*
X0264161Y0128474D01*
X0264162Y0128375D02*
X0298552Y0128375D01*
X0298553Y0128277D02*
X0264162Y0128277D01*
X0264162Y0128178D02*
X0298554Y0128178D01*
X0298555Y0128080D02*
X0264162Y0128080D01*
X0264163Y0127981D02*
X0298556Y0127981D01*
X0298557Y0127883D02*
X0264163Y0127883D01*
X0264163Y0127784D02*
X0298558Y0127784D01*
X0298559Y0127686D02*
X0264163Y0127686D01*
X0264164Y0127587D02*
X0298560Y0127587D01*
X0298561Y0127489D02*
X0264164Y0127489D01*
X0264164Y0127390D02*
X0298562Y0127390D01*
X0298563Y0127292D02*
X0264164Y0127292D01*
X0264165Y0127193D02*
X0298564Y0127193D01*
X0298565Y0127095D02*
X0264165Y0127095D01*
X0264165Y0126996D02*
X0298566Y0126996D01*
X0298567Y0126898D02*
X0264166Y0126898D01*
X0264166Y0126799D02*
X0298568Y0126799D01*
X0298569Y0126701D02*
X0264166Y0126701D01*
X0264166Y0126602D02*
X0298570Y0126602D01*
X0298571Y0126504D02*
X0264167Y0126504D01*
X0264167Y0126405D02*
X0298572Y0126405D01*
X0298573Y0126307D02*
X0264167Y0126307D01*
X0264167Y0126208D02*
X0298574Y0126208D01*
X0298575Y0126110D02*
X0264168Y0126110D01*
X0264168Y0126011D02*
X0298576Y0126011D01*
X0298577Y0125912D02*
X0264168Y0125912D01*
X0264168Y0125814D02*
X0298578Y0125814D01*
X0298579Y0125715D02*
X0264169Y0125715D01*
X0264169Y0125617D02*
X0298580Y0125617D01*
X0298581Y0125518D02*
X0264169Y0125518D01*
X0264170Y0125420D02*
X0298582Y0125420D01*
X0298583Y0125321D02*
X0264170Y0125321D01*
X0264170Y0125223D02*
X0298584Y0125223D01*
X0298585Y0125124D02*
X0264170Y0125124D01*
X0264171Y0125026D02*
X0298586Y0125026D01*
X0298587Y0124927D02*
X0264171Y0124927D01*
X0264171Y0124829D02*
X0298588Y0124829D01*
X0298589Y0124730D02*
X0264171Y0124730D01*
X0264172Y0124632D02*
X0298590Y0124632D01*
X0298591Y0124533D02*
X0264172Y0124533D01*
X0264172Y0124435D02*
X0298592Y0124435D01*
X0298593Y0124336D02*
X0264173Y0124336D01*
X0264173Y0124238D02*
X0298594Y0124238D01*
X0298595Y0124139D02*
X0264173Y0124139D01*
X0264173Y0124041D02*
X0298596Y0124041D01*
X0298597Y0123942D02*
X0264174Y0123942D01*
X0264174Y0123844D02*
X0298598Y0123844D01*
X0298599Y0123745D02*
X0264174Y0123745D01*
X0264174Y0123647D02*
X0298600Y0123647D01*
X0298601Y0123548D02*
X0264175Y0123548D01*
X0264175Y0123450D02*
X0298602Y0123450D01*
X0298603Y0123351D02*
X0264175Y0123351D01*
X0264175Y0123253D02*
X0298604Y0123253D01*
X0298605Y0123154D02*
X0264176Y0123154D01*
X0264176Y0123056D02*
X0298606Y0123056D01*
X0298607Y0122957D02*
X0264176Y0122957D01*
X0264177Y0122859D02*
X0298608Y0122859D01*
X0298609Y0122760D02*
X0264177Y0122760D01*
X0264177Y0122662D02*
X0298610Y0122662D01*
X0298611Y0122563D02*
X0264177Y0122563D01*
X0264178Y0122465D02*
X0298612Y0122465D01*
X0298613Y0122366D02*
X0264178Y0122366D01*
X0264178Y0122268D02*
X0298614Y0122268D01*
X0298615Y0122169D02*
X0264178Y0122169D01*
X0264179Y0122071D02*
X0298616Y0122071D01*
X0298617Y0121972D02*
X0264179Y0121972D01*
X0264179Y0121874D02*
X0298618Y0121874D01*
X0298619Y0121775D02*
X0264179Y0121775D01*
X0264180Y0121677D02*
X0298620Y0121677D01*
X0298621Y0121578D02*
X0264180Y0121578D01*
X0264180Y0121479D02*
X0298622Y0121479D01*
X0298623Y0121381D02*
X0264181Y0121381D01*
X0264181Y0121282D02*
X0298624Y0121282D01*
X0298625Y0121184D02*
X0264181Y0121184D01*
X0264181Y0121085D02*
X0298626Y0121085D01*
X0298627Y0120987D02*
X0264182Y0120987D01*
X0264182Y0120888D02*
X0298628Y0120888D01*
X0298629Y0120790D02*
X0264182Y0120790D01*
X0264182Y0120691D02*
X0298630Y0120691D01*
X0298631Y0120593D02*
X0264183Y0120593D01*
X0264183Y0120494D02*
X0298632Y0120494D01*
X0298633Y0120396D02*
X0264183Y0120396D01*
X0264183Y0120297D02*
X0298634Y0120297D01*
X0298635Y0120199D02*
X0264184Y0120199D01*
X0264184Y0120100D02*
X0298636Y0120100D01*
X0298637Y0120002D02*
X0264184Y0120002D01*
X0264185Y0119903D02*
X0298638Y0119903D01*
X0298639Y0119805D02*
X0264185Y0119805D01*
X0264185Y0119706D02*
X0298640Y0119706D01*
X0298641Y0119608D02*
X0264185Y0119608D01*
X0264186Y0119509D02*
X0298642Y0119509D01*
X0298643Y0119411D02*
X0264186Y0119411D01*
X0264186Y0119312D02*
X0298644Y0119312D01*
X0298645Y0119214D02*
X0264186Y0119214D01*
X0264187Y0119115D02*
X0298647Y0119115D01*
X0298648Y0119017D02*
X0264187Y0119017D01*
X0264187Y0118918D02*
X0298649Y0118918D01*
X0298650Y0118820D02*
X0264188Y0118820D01*
X0264188Y0118721D02*
X0298651Y0118721D01*
X0298652Y0118623D02*
X0264188Y0118623D01*
X0264188Y0118524D02*
X0298653Y0118524D01*
X0298654Y0118426D02*
X0264189Y0118426D01*
X0264189Y0118327D02*
X0298655Y0118327D01*
X0298656Y0118229D02*
X0264189Y0118229D01*
X0264189Y0118130D02*
X0298657Y0118130D01*
X0298658Y0118032D02*
X0264190Y0118032D01*
X0264190Y0117933D02*
X0298659Y0117933D01*
X0298660Y0117835D02*
X0264190Y0117835D01*
X0264190Y0117736D02*
X0298661Y0117736D01*
X0298662Y0117638D02*
X0264191Y0117638D01*
X0264191Y0117539D02*
X0298663Y0117539D01*
X0298664Y0117441D02*
X0264191Y0117441D01*
X0264192Y0117342D02*
X0298665Y0117342D01*
X0298666Y0117244D02*
X0264192Y0117244D01*
X0264192Y0117145D02*
X0298667Y0117145D01*
X0298668Y0117046D02*
X0264192Y0117046D01*
X0264193Y0116948D02*
X0298669Y0116948D01*
X0298670Y0116849D02*
X0264193Y0116849D01*
X0264193Y0116751D02*
X0298671Y0116751D01*
X0298672Y0116652D02*
X0264193Y0116652D01*
X0264194Y0116554D02*
X0298673Y0116554D01*
X0298674Y0116455D02*
X0264194Y0116455D01*
X0264194Y0116357D02*
X0298675Y0116357D01*
X0298676Y0116258D02*
X0264194Y0116258D01*
X0264195Y0116160D02*
X0298677Y0116160D01*
X0298678Y0116061D02*
X0264195Y0116061D01*
X0264195Y0115963D02*
X0298679Y0115963D01*
X0298680Y0115864D02*
X0264196Y0115864D01*
X0264196Y0115766D02*
X0298681Y0115766D01*
X0298682Y0115667D02*
X0264196Y0115667D01*
X0264196Y0115569D02*
X0298683Y0115569D01*
X0298684Y0115470D02*
X0264197Y0115470D01*
X0264197Y0115372D02*
X0298685Y0115372D01*
X0298686Y0115273D02*
X0264197Y0115273D01*
X0264197Y0115175D02*
X0298687Y0115175D01*
X0298688Y0115076D02*
X0264198Y0115076D01*
X0264198Y0114978D02*
X0298689Y0114978D01*
X0298690Y0114879D02*
X0264198Y0114879D01*
X0264198Y0114781D02*
X0298691Y0114781D01*
X0298692Y0114682D02*
X0264199Y0114682D01*
X0264199Y0114584D02*
X0298693Y0114584D01*
X0298694Y0114485D02*
X0264199Y0114485D01*
X0264200Y0114387D02*
X0298695Y0114387D01*
X0298696Y0114288D02*
X0264200Y0114288D01*
X0264200Y0114190D02*
X0298697Y0114190D01*
X0298698Y0114091D02*
X0264200Y0114091D01*
X0264201Y0113993D02*
X0298699Y0113993D01*
X0298700Y0113894D02*
X0264201Y0113894D01*
X0264201Y0113796D02*
X0298701Y0113796D01*
X0298702Y0113697D02*
X0264201Y0113697D01*
X0264202Y0113599D02*
X0298703Y0113599D01*
X0298704Y0113500D02*
X0264202Y0113500D01*
X0264202Y0113402D02*
X0298705Y0113402D01*
X0298706Y0113303D02*
X0264202Y0113303D01*
X0264203Y0113205D02*
X0298707Y0113205D01*
X0298708Y0113106D02*
X0264203Y0113106D01*
X0264203Y0113008D02*
X0298709Y0113008D01*
X0298710Y0112909D02*
X0264204Y0112909D01*
X0264204Y0112810D02*
X0298711Y0112810D01*
X0298712Y0112712D02*
X0264204Y0112712D01*
X0264204Y0112613D02*
X0298713Y0112613D01*
X0298714Y0112515D02*
X0264205Y0112515D01*
X0264205Y0112416D02*
X0298715Y0112416D01*
X0298716Y0112318D02*
X0264205Y0112318D01*
X0264205Y0112219D02*
X0298717Y0112219D01*
X0298718Y0112121D02*
X0264206Y0112121D01*
X0264206Y0112022D02*
X0298719Y0112022D01*
X0298720Y0111924D02*
X0264206Y0111924D01*
X0264207Y0111825D02*
X0298721Y0111825D01*
X0298722Y0111727D02*
X0264207Y0111727D01*
X0264207Y0111628D02*
X0298723Y0111628D01*
X0298724Y0111530D02*
X0264207Y0111530D01*
X0264208Y0111431D02*
X0298725Y0111431D01*
X0298726Y0111333D02*
X0264208Y0111333D01*
X0264208Y0111234D02*
X0298727Y0111234D01*
X0298728Y0111136D02*
X0264208Y0111136D01*
X0264209Y0111037D02*
X0298729Y0111037D01*
X0298730Y0110939D02*
X0264209Y0110939D01*
X0264209Y0110840D02*
X0298731Y0110840D01*
X0298732Y0110742D02*
X0264209Y0110742D01*
X0264210Y0110643D02*
X0298733Y0110643D01*
X0298734Y0110545D02*
X0264210Y0110545D01*
X0264210Y0110446D02*
X0298735Y0110446D01*
X0298736Y0110348D02*
X0264211Y0110348D01*
X0264211Y0110249D02*
X0298737Y0110249D01*
X0298738Y0110151D02*
X0264211Y0110151D01*
X0264211Y0110052D02*
X0298739Y0110052D01*
X0298740Y0109954D02*
X0264212Y0109954D01*
X0264290Y0109855D02*
X0298741Y0109855D01*
X0298743Y0109757D02*
X0264595Y0109757D01*
X0264901Y0109658D02*
X0298744Y0109658D01*
X0298745Y0109560D02*
X0265206Y0109560D01*
X0265512Y0109461D02*
X0298746Y0109461D01*
X0298747Y0109363D02*
X0265817Y0109363D01*
X0266123Y0109264D02*
X0298748Y0109264D01*
X0298749Y0109166D02*
X0266428Y0109166D01*
X0266734Y0109067D02*
X0298750Y0109067D01*
X0298751Y0108969D02*
X0267040Y0108969D01*
X0267345Y0108870D02*
X0298752Y0108870D01*
X0298753Y0108772D02*
X0267651Y0108772D01*
X0267956Y0108673D02*
X0298754Y0108673D01*
X0298755Y0108575D02*
X0268262Y0108575D01*
X0268567Y0108476D02*
X0298756Y0108476D01*
X0298757Y0108377D02*
X0268873Y0108377D01*
X0269178Y0108279D02*
X0298758Y0108279D01*
X0298759Y0108180D02*
X0269484Y0108180D01*
X0269789Y0108082D02*
X0298760Y0108082D01*
X0298761Y0107983D02*
X0270095Y0107983D01*
X0270400Y0107885D02*
X0298762Y0107885D01*
X0298763Y0107786D02*
X0270706Y0107786D01*
X0271011Y0107688D02*
X0298764Y0107688D01*
X0298765Y0107589D02*
X0271317Y0107589D01*
X0271622Y0107491D02*
X0298766Y0107491D01*
X0298767Y0107392D02*
X0271928Y0107392D01*
X0272233Y0107294D02*
X0298768Y0107294D01*
X0298769Y0107195D02*
X0272539Y0107195D01*
X0272844Y0107097D02*
X0298770Y0107097D01*
X0298771Y0106998D02*
X0273150Y0106998D01*
X0273455Y0106900D02*
X0298772Y0106900D01*
X0298773Y0106801D02*
X0273761Y0106801D01*
X0274066Y0106703D02*
X0298774Y0106703D01*
X0298775Y0106604D02*
X0274372Y0106604D01*
X0274677Y0106506D02*
X0298776Y0106506D01*
X0298777Y0106407D02*
X0274983Y0106407D01*
X0275288Y0106309D02*
X0298778Y0106309D01*
X0298779Y0106210D02*
X0275594Y0106210D01*
X0275900Y0106112D02*
X0298780Y0106112D01*
X0298781Y0106013D02*
X0276205Y0106013D01*
X0276511Y0105915D02*
X0298782Y0105915D01*
X0298783Y0105816D02*
X0276816Y0105816D01*
X0277122Y0105718D02*
X0298784Y0105718D01*
X0298785Y0105619D02*
X0277427Y0105619D01*
X0277733Y0105521D02*
X0298786Y0105521D01*
X0298787Y0105422D02*
X0278038Y0105422D01*
X0278344Y0105324D02*
X0298788Y0105324D01*
X0298789Y0105225D02*
X0278649Y0105225D01*
X0278955Y0105127D02*
X0298790Y0105127D01*
X0298791Y0105028D02*
X0279260Y0105028D01*
X0279566Y0104930D02*
X0298792Y0104930D01*
X0298793Y0104831D02*
X0279871Y0104831D01*
X0280177Y0104733D02*
X0298794Y0104733D01*
X0298795Y0104634D02*
X0280482Y0104634D01*
X0280788Y0104536D02*
X0298796Y0104536D01*
X0298797Y0104437D02*
X0281093Y0104437D01*
X0281399Y0104339D02*
X0298798Y0104339D01*
X0298799Y0104240D02*
X0281704Y0104240D01*
X0282010Y0104141D02*
X0298800Y0104141D01*
X0298801Y0104043D02*
X0282315Y0104043D01*
X0282621Y0103944D02*
X0298802Y0103944D01*
X0298803Y0103846D02*
X0282926Y0103846D01*
X0283232Y0103747D02*
X0298804Y0103747D01*
X0298805Y0103649D02*
X0283537Y0103649D01*
X0283843Y0103550D02*
X0298806Y0103550D01*
X0298807Y0103452D02*
X0284149Y0103452D01*
X0284454Y0103353D02*
X0298808Y0103353D01*
X0298809Y0103255D02*
X0284760Y0103255D01*
X0285065Y0103156D02*
X0298810Y0103156D01*
X0298811Y0103058D02*
X0285371Y0103058D01*
X0285676Y0102959D02*
X0298812Y0102959D01*
X0298813Y0102861D02*
X0285982Y0102861D01*
X0286287Y0102762D02*
X0298814Y0102762D01*
X0298815Y0102664D02*
X0286593Y0102664D01*
X0286898Y0102565D02*
X0298816Y0102565D01*
X0298817Y0102467D02*
X0287204Y0102467D01*
X0287509Y0102368D02*
X0298818Y0102368D01*
X0298819Y0102270D02*
X0287815Y0102270D01*
X0288120Y0102171D02*
X0298820Y0102171D01*
X0298821Y0102073D02*
X0288426Y0102073D01*
X0288731Y0101974D02*
X0298822Y0101974D01*
X0298823Y0101876D02*
X0289037Y0101876D01*
X0289342Y0101777D02*
X0298824Y0101777D01*
X0298825Y0101679D02*
X0289648Y0101679D01*
X0289953Y0101580D02*
X0298826Y0101580D01*
X0298827Y0101482D02*
X0290259Y0101482D01*
X0290564Y0101383D02*
X0298828Y0101383D01*
X0298829Y0101285D02*
X0290870Y0101285D01*
X0291175Y0101186D02*
X0298830Y0101186D01*
X0298831Y0101088D02*
X0291481Y0101088D01*
X0291786Y0100989D02*
X0298832Y0100989D01*
X0298833Y0100891D02*
X0292092Y0100891D01*
X0292398Y0100792D02*
X0298834Y0100792D01*
X0298835Y0100694D02*
X0292703Y0100694D01*
X0293009Y0100595D02*
X0298836Y0100595D01*
X0298838Y0100497D02*
X0293314Y0100497D01*
X0293620Y0100398D02*
X0298839Y0100398D01*
X0298840Y0100300D02*
X0293925Y0100300D01*
X0294231Y0100201D02*
X0298841Y0100201D01*
X0298842Y0100103D02*
X0294536Y0100103D01*
X0294842Y0100004D02*
X0298843Y0100004D01*
X0298844Y0099906D02*
X0295147Y0099906D01*
X0295453Y0099807D02*
X0298845Y0099807D01*
X0298846Y0099708D02*
X0295758Y0099708D01*
X0296064Y0099610D02*
X0298847Y0099610D01*
X0298848Y0099511D02*
X0296369Y0099511D01*
X0296675Y0099413D02*
X0298849Y0099413D01*
X0298850Y0099314D02*
X0296980Y0099314D01*
X0297286Y0099216D02*
X0298851Y0099216D01*
X0298852Y0099117D02*
X0297591Y0099117D01*
X0297897Y0099019D02*
X0298853Y0099019D01*
X0298854Y0098920D02*
X0298202Y0098920D01*
X0298508Y0098822D02*
X0298855Y0098822D01*
X0298856Y0098723D02*
X0298813Y0098723D01*
X0299245Y0093551D02*
X0297731Y0093116D01*
X0264292Y0081556D01*
X0264262Y0053857D01*
X0298744Y0038990D01*
X0299245Y0093551D01*
X0299245Y0093502D02*
X0299077Y0093502D01*
X0299244Y0093404D02*
X0298733Y0093404D01*
X0298390Y0093305D02*
X0299243Y0093305D01*
X0299242Y0093207D02*
X0298047Y0093207D01*
X0297708Y0093108D02*
X0299241Y0093108D01*
X0299240Y0093010D02*
X0297423Y0093010D01*
X0297138Y0092911D02*
X0299239Y0092911D01*
X0299238Y0092813D02*
X0296853Y0092813D01*
X0296568Y0092714D02*
X0299237Y0092714D01*
X0299236Y0092616D02*
X0296283Y0092616D01*
X0295998Y0092517D02*
X0299235Y0092517D01*
X0299235Y0092419D02*
X0295713Y0092419D01*
X0295428Y0092320D02*
X0299234Y0092320D01*
X0299233Y0092222D02*
X0295144Y0092222D01*
X0294859Y0092123D02*
X0299232Y0092123D01*
X0299231Y0092025D02*
X0294574Y0092025D01*
X0294289Y0091926D02*
X0299230Y0091926D01*
X0299229Y0091828D02*
X0294004Y0091828D01*
X0293719Y0091729D02*
X0299228Y0091729D01*
X0299227Y0091631D02*
X0293434Y0091631D01*
X0293149Y0091532D02*
X0299226Y0091532D01*
X0299226Y0091434D02*
X0292864Y0091434D01*
X0292579Y0091335D02*
X0299225Y0091335D01*
X0299224Y0091237D02*
X0292294Y0091237D01*
X0292009Y0091138D02*
X0299223Y0091138D01*
X0299222Y0091039D02*
X0291724Y0091039D01*
X0291439Y0090941D02*
X0299221Y0090941D01*
X0299220Y0090842D02*
X0291154Y0090842D01*
X0290869Y0090744D02*
X0299219Y0090744D01*
X0299218Y0090645D02*
X0290584Y0090645D01*
X0290299Y0090547D02*
X0299217Y0090547D01*
X0299216Y0090448D02*
X0290014Y0090448D01*
X0289729Y0090350D02*
X0299216Y0090350D01*
X0299215Y0090251D02*
X0289444Y0090251D01*
X0289159Y0090153D02*
X0299214Y0090153D01*
X0299213Y0090054D02*
X0288874Y0090054D01*
X0288589Y0089956D02*
X0299212Y0089956D01*
X0299211Y0089857D02*
X0288304Y0089857D01*
X0288019Y0089759D02*
X0299210Y0089759D01*
X0299209Y0089660D02*
X0287734Y0089660D01*
X0287450Y0089562D02*
X0299208Y0089562D01*
X0299207Y0089463D02*
X0287165Y0089463D01*
X0286880Y0089365D02*
X0299207Y0089365D01*
X0299206Y0089266D02*
X0286595Y0089266D01*
X0286310Y0089168D02*
X0299205Y0089168D01*
X0299204Y0089069D02*
X0286025Y0089069D01*
X0285740Y0088971D02*
X0299203Y0088971D01*
X0299202Y0088872D02*
X0285455Y0088872D01*
X0285170Y0088774D02*
X0299201Y0088774D01*
X0299200Y0088675D02*
X0284885Y0088675D01*
X0284600Y0088577D02*
X0299199Y0088577D01*
X0299198Y0088478D02*
X0284315Y0088478D01*
X0284030Y0088380D02*
X0299197Y0088380D01*
X0299197Y0088281D02*
X0283745Y0088281D01*
X0283460Y0088183D02*
X0299196Y0088183D01*
X0299195Y0088084D02*
X0283175Y0088084D01*
X0282890Y0087986D02*
X0299194Y0087986D01*
X0299193Y0087887D02*
X0282605Y0087887D01*
X0282320Y0087789D02*
X0299192Y0087789D01*
X0299191Y0087690D02*
X0282035Y0087690D01*
X0281750Y0087592D02*
X0299190Y0087592D01*
X0299189Y0087493D02*
X0281465Y0087493D01*
X0281180Y0087395D02*
X0299188Y0087395D01*
X0299188Y0087296D02*
X0280895Y0087296D01*
X0280610Y0087198D02*
X0299187Y0087198D01*
X0299186Y0087099D02*
X0280325Y0087099D01*
X0280040Y0087001D02*
X0299185Y0087001D01*
X0299184Y0086902D02*
X0279755Y0086902D01*
X0279471Y0086804D02*
X0299183Y0086804D01*
X0299182Y0086705D02*
X0279186Y0086705D01*
X0278901Y0086606D02*
X0299181Y0086606D01*
X0299180Y0086508D02*
X0278616Y0086508D01*
X0278331Y0086409D02*
X0299179Y0086409D01*
X0299178Y0086311D02*
X0278046Y0086311D01*
X0277761Y0086212D02*
X0299178Y0086212D01*
X0299177Y0086114D02*
X0277476Y0086114D01*
X0277191Y0086015D02*
X0299176Y0086015D01*
X0299175Y0085917D02*
X0276906Y0085917D01*
X0276621Y0085818D02*
X0299174Y0085818D01*
X0299173Y0085720D02*
X0276336Y0085720D01*
X0276051Y0085621D02*
X0299172Y0085621D01*
X0299171Y0085523D02*
X0275766Y0085523D01*
X0275481Y0085424D02*
X0299170Y0085424D01*
X0299169Y0085326D02*
X0275196Y0085326D01*
X0274911Y0085227D02*
X0299169Y0085227D01*
X0299168Y0085129D02*
X0274626Y0085129D01*
X0274341Y0085030D02*
X0299167Y0085030D01*
X0299166Y0084932D02*
X0274056Y0084932D01*
X0273771Y0084833D02*
X0299165Y0084833D01*
X0299164Y0084735D02*
X0273486Y0084735D01*
X0273201Y0084636D02*
X0299163Y0084636D01*
X0299162Y0084538D02*
X0272916Y0084538D01*
X0272631Y0084439D02*
X0299161Y0084439D01*
X0299160Y0084341D02*
X0272346Y0084341D01*
X0272061Y0084242D02*
X0299159Y0084242D01*
X0299159Y0084144D02*
X0271777Y0084144D01*
X0271492Y0084045D02*
X0299158Y0084045D01*
X0299157Y0083947D02*
X0271207Y0083947D01*
X0270922Y0083848D02*
X0299156Y0083848D01*
X0299155Y0083750D02*
X0270637Y0083750D01*
X0270352Y0083651D02*
X0299154Y0083651D01*
X0299153Y0083553D02*
X0270067Y0083553D01*
X0269782Y0083454D02*
X0299152Y0083454D01*
X0299151Y0083356D02*
X0269497Y0083356D01*
X0269212Y0083257D02*
X0299150Y0083257D01*
X0299149Y0083159D02*
X0268927Y0083159D01*
X0268642Y0083060D02*
X0299149Y0083060D01*
X0299148Y0082962D02*
X0268357Y0082962D01*
X0268072Y0082863D02*
X0299147Y0082863D01*
X0299146Y0082765D02*
X0267787Y0082765D01*
X0267502Y0082666D02*
X0299145Y0082666D01*
X0299144Y0082568D02*
X0267217Y0082568D01*
X0266932Y0082469D02*
X0299143Y0082469D01*
X0299142Y0082370D02*
X0266647Y0082370D01*
X0266362Y0082272D02*
X0299141Y0082272D01*
X0299140Y0082173D02*
X0266077Y0082173D01*
X0265792Y0082075D02*
X0299140Y0082075D01*
X0299139Y0081976D02*
X0265507Y0081976D01*
X0265222Y0081878D02*
X0299138Y0081878D01*
X0299137Y0081779D02*
X0264937Y0081779D01*
X0264652Y0081681D02*
X0299136Y0081681D01*
X0299135Y0081582D02*
X0264367Y0081582D01*
X0264292Y0081484D02*
X0299134Y0081484D01*
X0299133Y0081385D02*
X0264292Y0081385D01*
X0264292Y0081287D02*
X0299132Y0081287D01*
X0299131Y0081188D02*
X0264292Y0081188D01*
X0264292Y0081090D02*
X0299130Y0081090D01*
X0299130Y0080991D02*
X0264292Y0080991D01*
X0264292Y0080893D02*
X0299129Y0080893D01*
X0299128Y0080794D02*
X0264292Y0080794D01*
X0264291Y0080696D02*
X0299127Y0080696D01*
X0299126Y0080597D02*
X0264291Y0080597D01*
X0264291Y0080499D02*
X0299125Y0080499D01*
X0299124Y0080400D02*
X0264291Y0080400D01*
X0264291Y0080302D02*
X0299123Y0080302D01*
X0299122Y0080203D02*
X0264291Y0080203D01*
X0264291Y0080105D02*
X0299121Y0080105D01*
X0299121Y0080006D02*
X0264291Y0080006D01*
X0264291Y0079908D02*
X0299120Y0079908D01*
X0299119Y0079809D02*
X0264290Y0079809D01*
X0264290Y0079711D02*
X0299118Y0079711D01*
X0299117Y0079612D02*
X0264290Y0079612D01*
X0264290Y0079514D02*
X0299116Y0079514D01*
X0299115Y0079415D02*
X0264290Y0079415D01*
X0264290Y0079317D02*
X0299114Y0079317D01*
X0299113Y0079218D02*
X0264290Y0079218D01*
X0264290Y0079120D02*
X0299112Y0079120D01*
X0299111Y0079021D02*
X0264290Y0079021D01*
X0264289Y0078923D02*
X0299111Y0078923D01*
X0299110Y0078824D02*
X0264289Y0078824D01*
X0264289Y0078726D02*
X0299109Y0078726D01*
X0299108Y0078627D02*
X0264289Y0078627D01*
X0264289Y0078529D02*
X0299107Y0078529D01*
X0299106Y0078430D02*
X0264289Y0078430D01*
X0264289Y0078332D02*
X0299105Y0078332D01*
X0299104Y0078233D02*
X0264289Y0078233D01*
X0264289Y0078135D02*
X0299103Y0078135D01*
X0299102Y0078036D02*
X0264288Y0078036D01*
X0264288Y0077937D02*
X0299102Y0077937D01*
X0299101Y0077839D02*
X0264288Y0077839D01*
X0264288Y0077740D02*
X0299100Y0077740D01*
X0299099Y0077642D02*
X0264288Y0077642D01*
X0264288Y0077543D02*
X0299098Y0077543D01*
X0299097Y0077445D02*
X0264288Y0077445D01*
X0264288Y0077346D02*
X0299096Y0077346D01*
X0299095Y0077248D02*
X0264288Y0077248D01*
X0264287Y0077149D02*
X0299094Y0077149D01*
X0299093Y0077051D02*
X0264287Y0077051D01*
X0264287Y0076952D02*
X0299092Y0076952D01*
X0299092Y0076854D02*
X0264287Y0076854D01*
X0264287Y0076755D02*
X0299091Y0076755D01*
X0299090Y0076657D02*
X0264287Y0076657D01*
X0264287Y0076558D02*
X0299089Y0076558D01*
X0299088Y0076460D02*
X0264287Y0076460D01*
X0264287Y0076361D02*
X0299087Y0076361D01*
X0299086Y0076263D02*
X0264286Y0076263D01*
X0264286Y0076164D02*
X0299085Y0076164D01*
X0299084Y0076066D02*
X0264286Y0076066D01*
X0264286Y0075967D02*
X0299083Y0075967D01*
X0299083Y0075869D02*
X0264286Y0075869D01*
X0264286Y0075770D02*
X0299082Y0075770D01*
X0299081Y0075672D02*
X0264286Y0075672D01*
X0264286Y0075573D02*
X0299080Y0075573D01*
X0299079Y0075475D02*
X0264286Y0075475D01*
X0264285Y0075376D02*
X0299078Y0075376D01*
X0299077Y0075278D02*
X0264285Y0075278D01*
X0264285Y0075179D02*
X0299076Y0075179D01*
X0299075Y0075081D02*
X0264285Y0075081D01*
X0264285Y0074982D02*
X0299074Y0074982D01*
X0299073Y0074884D02*
X0264285Y0074884D01*
X0264285Y0074785D02*
X0299073Y0074785D01*
X0299072Y0074687D02*
X0264285Y0074687D01*
X0264285Y0074588D02*
X0299071Y0074588D01*
X0299070Y0074490D02*
X0264285Y0074490D01*
X0264284Y0074391D02*
X0299069Y0074391D01*
X0299068Y0074293D02*
X0264284Y0074293D01*
X0264284Y0074194D02*
X0299067Y0074194D01*
X0299066Y0074096D02*
X0264284Y0074096D01*
X0264284Y0073997D02*
X0299065Y0073997D01*
X0299064Y0073899D02*
X0264284Y0073899D01*
X0264284Y0073800D02*
X0299064Y0073800D01*
X0299063Y0073702D02*
X0264284Y0073702D01*
X0264284Y0073603D02*
X0299062Y0073603D01*
X0299061Y0073504D02*
X0264283Y0073504D01*
X0264283Y0073406D02*
X0299060Y0073406D01*
X0299059Y0073307D02*
X0264283Y0073307D01*
X0264283Y0073209D02*
X0299058Y0073209D01*
X0299057Y0073110D02*
X0264283Y0073110D01*
X0264283Y0073012D02*
X0299056Y0073012D01*
X0299055Y0072913D02*
X0264283Y0072913D01*
X0264283Y0072815D02*
X0299054Y0072815D01*
X0299054Y0072716D02*
X0264283Y0072716D01*
X0264282Y0072618D02*
X0299053Y0072618D01*
X0299052Y0072519D02*
X0264282Y0072519D01*
X0264282Y0072421D02*
X0299051Y0072421D01*
X0299050Y0072322D02*
X0264282Y0072322D01*
X0264282Y0072224D02*
X0299049Y0072224D01*
X0299048Y0072125D02*
X0264282Y0072125D01*
X0264282Y0072027D02*
X0299047Y0072027D01*
X0299046Y0071928D02*
X0264282Y0071928D01*
X0264282Y0071830D02*
X0299045Y0071830D01*
X0299045Y0071731D02*
X0264281Y0071731D01*
X0264281Y0071633D02*
X0299044Y0071633D01*
X0299043Y0071534D02*
X0264281Y0071534D01*
X0264281Y0071436D02*
X0299042Y0071436D01*
X0299041Y0071337D02*
X0264281Y0071337D01*
X0264281Y0071239D02*
X0299040Y0071239D01*
X0299039Y0071140D02*
X0264281Y0071140D01*
X0264281Y0071042D02*
X0299038Y0071042D01*
X0299037Y0070943D02*
X0264281Y0070943D01*
X0264280Y0070845D02*
X0299036Y0070845D01*
X0299035Y0070746D02*
X0264280Y0070746D01*
X0264280Y0070648D02*
X0299035Y0070648D01*
X0299034Y0070549D02*
X0264280Y0070549D01*
X0264280Y0070451D02*
X0299033Y0070451D01*
X0299032Y0070352D02*
X0264280Y0070352D01*
X0264280Y0070254D02*
X0299031Y0070254D01*
X0299030Y0070155D02*
X0264280Y0070155D01*
X0264280Y0070057D02*
X0299029Y0070057D01*
X0299028Y0069958D02*
X0264279Y0069958D01*
X0264279Y0069860D02*
X0299027Y0069860D01*
X0299026Y0069761D02*
X0264279Y0069761D01*
X0264279Y0069663D02*
X0299026Y0069663D01*
X0299025Y0069564D02*
X0264279Y0069564D01*
X0264279Y0069466D02*
X0299024Y0069466D01*
X0299023Y0069367D02*
X0264279Y0069367D01*
X0264279Y0069268D02*
X0299022Y0069268D01*
X0299021Y0069170D02*
X0264279Y0069170D01*
X0264278Y0069071D02*
X0299020Y0069071D01*
X0299019Y0068973D02*
X0264278Y0068973D01*
X0264278Y0068874D02*
X0299018Y0068874D01*
X0299017Y0068776D02*
X0264278Y0068776D01*
X0264278Y0068677D02*
X0299016Y0068677D01*
X0299016Y0068579D02*
X0264278Y0068579D01*
X0264278Y0068480D02*
X0299015Y0068480D01*
X0299014Y0068382D02*
X0264278Y0068382D01*
X0264278Y0068283D02*
X0299013Y0068283D01*
X0299012Y0068185D02*
X0264277Y0068185D01*
X0264277Y0068086D02*
X0299011Y0068086D01*
X0299010Y0067988D02*
X0264277Y0067988D01*
X0264277Y0067889D02*
X0299009Y0067889D01*
X0299008Y0067791D02*
X0264277Y0067791D01*
X0264277Y0067692D02*
X0299007Y0067692D01*
X0299007Y0067594D02*
X0264277Y0067594D01*
X0264277Y0067495D02*
X0299006Y0067495D01*
X0299005Y0067397D02*
X0264277Y0067397D01*
X0264277Y0067298D02*
X0299004Y0067298D01*
X0299003Y0067200D02*
X0264276Y0067200D01*
X0264276Y0067101D02*
X0299002Y0067101D01*
X0299001Y0067003D02*
X0264276Y0067003D01*
X0264276Y0066904D02*
X0299000Y0066904D01*
X0298999Y0066806D02*
X0264276Y0066806D01*
X0264276Y0066707D02*
X0298998Y0066707D01*
X0298997Y0066609D02*
X0264276Y0066609D01*
X0264276Y0066510D02*
X0298997Y0066510D01*
X0298996Y0066412D02*
X0264276Y0066412D01*
X0264275Y0066313D02*
X0298995Y0066313D01*
X0298994Y0066215D02*
X0264275Y0066215D01*
X0264275Y0066116D02*
X0298993Y0066116D01*
X0298992Y0066018D02*
X0264275Y0066018D01*
X0264275Y0065919D02*
X0298991Y0065919D01*
X0298990Y0065821D02*
X0264275Y0065821D01*
X0264275Y0065722D02*
X0298989Y0065722D01*
X0298988Y0065624D02*
X0264275Y0065624D01*
X0264275Y0065525D02*
X0298988Y0065525D01*
X0298987Y0065427D02*
X0264274Y0065427D01*
X0264274Y0065328D02*
X0298986Y0065328D01*
X0298985Y0065230D02*
X0264274Y0065230D01*
X0264274Y0065131D02*
X0298984Y0065131D01*
X0298983Y0065033D02*
X0264274Y0065033D01*
X0264274Y0064934D02*
X0298982Y0064934D01*
X0298981Y0064835D02*
X0264274Y0064835D01*
X0264274Y0064737D02*
X0298980Y0064737D01*
X0298979Y0064638D02*
X0264274Y0064638D01*
X0264273Y0064540D02*
X0298978Y0064540D01*
X0298978Y0064441D02*
X0264273Y0064441D01*
X0264273Y0064343D02*
X0298977Y0064343D01*
X0298976Y0064244D02*
X0264273Y0064244D01*
X0264273Y0064146D02*
X0298975Y0064146D01*
X0298974Y0064047D02*
X0264273Y0064047D01*
X0264273Y0063949D02*
X0298973Y0063949D01*
X0298972Y0063850D02*
X0264273Y0063850D01*
X0264273Y0063752D02*
X0298971Y0063752D01*
X0298970Y0063653D02*
X0264272Y0063653D01*
X0264272Y0063555D02*
X0298969Y0063555D01*
X0298969Y0063456D02*
X0264272Y0063456D01*
X0264272Y0063358D02*
X0298968Y0063358D01*
X0298967Y0063259D02*
X0264272Y0063259D01*
X0264272Y0063161D02*
X0298966Y0063161D01*
X0298965Y0063062D02*
X0264272Y0063062D01*
X0264272Y0062964D02*
X0298964Y0062964D01*
X0298963Y0062865D02*
X0264272Y0062865D01*
X0264271Y0062767D02*
X0298962Y0062767D01*
X0298961Y0062668D02*
X0264271Y0062668D01*
X0264271Y0062570D02*
X0298960Y0062570D01*
X0298959Y0062471D02*
X0264271Y0062471D01*
X0264271Y0062373D02*
X0298959Y0062373D01*
X0298958Y0062274D02*
X0264271Y0062274D01*
X0264271Y0062176D02*
X0298957Y0062176D01*
X0298956Y0062077D02*
X0264271Y0062077D01*
X0264271Y0061979D02*
X0298955Y0061979D01*
X0298954Y0061880D02*
X0264270Y0061880D01*
X0264270Y0061782D02*
X0298953Y0061782D01*
X0298952Y0061683D02*
X0264270Y0061683D01*
X0264270Y0061585D02*
X0298951Y0061585D01*
X0298950Y0061486D02*
X0264270Y0061486D01*
X0264270Y0061388D02*
X0298950Y0061388D01*
X0298949Y0061289D02*
X0264270Y0061289D01*
X0264270Y0061191D02*
X0298948Y0061191D01*
X0298947Y0061092D02*
X0264270Y0061092D01*
X0264269Y0060994D02*
X0298946Y0060994D01*
X0298945Y0060895D02*
X0264269Y0060895D01*
X0264269Y0060797D02*
X0298944Y0060797D01*
X0298943Y0060698D02*
X0264269Y0060698D01*
X0264269Y0060599D02*
X0298942Y0060599D01*
X0298941Y0060501D02*
X0264269Y0060501D01*
X0264269Y0060402D02*
X0298940Y0060402D01*
X0298940Y0060304D02*
X0264269Y0060304D01*
X0264269Y0060205D02*
X0298939Y0060205D01*
X0298938Y0060107D02*
X0264268Y0060107D01*
X0264268Y0060008D02*
X0298937Y0060008D01*
X0298936Y0059910D02*
X0264268Y0059910D01*
X0264268Y0059811D02*
X0298935Y0059811D01*
X0298934Y0059713D02*
X0264268Y0059713D01*
X0264268Y0059614D02*
X0298933Y0059614D01*
X0298932Y0059516D02*
X0264268Y0059516D01*
X0264268Y0059417D02*
X0298931Y0059417D01*
X0298930Y0059319D02*
X0264268Y0059319D01*
X0264268Y0059220D02*
X0298930Y0059220D01*
X0298929Y0059122D02*
X0264267Y0059122D01*
X0264267Y0059023D02*
X0298928Y0059023D01*
X0298927Y0058925D02*
X0264267Y0058925D01*
X0264267Y0058826D02*
X0298926Y0058826D01*
X0298925Y0058728D02*
X0264267Y0058728D01*
X0264267Y0058629D02*
X0298924Y0058629D01*
X0298923Y0058531D02*
X0264267Y0058531D01*
X0264267Y0058432D02*
X0298922Y0058432D01*
X0298921Y0058334D02*
X0264267Y0058334D01*
X0264266Y0058235D02*
X0298921Y0058235D01*
X0298920Y0058137D02*
X0264266Y0058137D01*
X0264266Y0058038D02*
X0298919Y0058038D01*
X0298918Y0057940D02*
X0264266Y0057940D01*
X0264266Y0057841D02*
X0298917Y0057841D01*
X0298916Y0057743D02*
X0264266Y0057743D01*
X0264266Y0057644D02*
X0298915Y0057644D01*
X0298914Y0057546D02*
X0264266Y0057546D01*
X0264266Y0057447D02*
X0298913Y0057447D01*
X0298912Y0057349D02*
X0264265Y0057349D01*
X0264265Y0057250D02*
X0298912Y0057250D01*
X0298911Y0057152D02*
X0264265Y0057152D01*
X0264265Y0057053D02*
X0298910Y0057053D01*
X0298909Y0056955D02*
X0264265Y0056955D01*
X0264265Y0056856D02*
X0298908Y0056856D01*
X0298907Y0056758D02*
X0264265Y0056758D01*
X0264265Y0056659D02*
X0298906Y0056659D01*
X0298905Y0056561D02*
X0264265Y0056561D01*
X0264264Y0056462D02*
X0298904Y0056462D01*
X0298903Y0056364D02*
X0264264Y0056364D01*
X0264264Y0056265D02*
X0298902Y0056265D01*
X0298902Y0056166D02*
X0264264Y0056166D01*
X0264264Y0056068D02*
X0298901Y0056068D01*
X0298900Y0055969D02*
X0264264Y0055969D01*
X0264264Y0055871D02*
X0298899Y0055871D01*
X0298898Y0055772D02*
X0264264Y0055772D01*
X0264264Y0055674D02*
X0298897Y0055674D01*
X0298896Y0055575D02*
X0264263Y0055575D01*
X0264263Y0055477D02*
X0298895Y0055477D01*
X0298894Y0055378D02*
X0264263Y0055378D01*
X0264263Y0055280D02*
X0298893Y0055280D01*
X0298892Y0055181D02*
X0264263Y0055181D01*
X0264263Y0055083D02*
X0298892Y0055083D01*
X0298891Y0054984D02*
X0264263Y0054984D01*
X0264263Y0054886D02*
X0298890Y0054886D01*
X0298889Y0054787D02*
X0264263Y0054787D01*
X0264262Y0054689D02*
X0298888Y0054689D01*
X0298887Y0054590D02*
X0264262Y0054590D01*
X0264262Y0054492D02*
X0298886Y0054492D01*
X0298885Y0054393D02*
X0264262Y0054393D01*
X0264262Y0054295D02*
X0298884Y0054295D01*
X0298883Y0054196D02*
X0264262Y0054196D01*
X0264262Y0054098D02*
X0298883Y0054098D01*
X0298882Y0053999D02*
X0264262Y0053999D01*
X0264262Y0053901D02*
X0298881Y0053901D01*
X0298880Y0053802D02*
X0264389Y0053802D01*
X0264617Y0053704D02*
X0298879Y0053704D01*
X0298878Y0053605D02*
X0264846Y0053605D01*
X0265074Y0053507D02*
X0298877Y0053507D01*
X0298876Y0053408D02*
X0265303Y0053408D01*
X0265531Y0053310D02*
X0298875Y0053310D01*
X0298874Y0053211D02*
X0265760Y0053211D01*
X0265988Y0053113D02*
X0298873Y0053113D01*
X0298873Y0053014D02*
X0266217Y0053014D01*
X0266445Y0052916D02*
X0298872Y0052916D01*
X0298871Y0052817D02*
X0266674Y0052817D01*
X0266902Y0052719D02*
X0298870Y0052719D01*
X0298869Y0052620D02*
X0267131Y0052620D01*
X0267359Y0052522D02*
X0298868Y0052522D01*
X0298867Y0052423D02*
X0267588Y0052423D01*
X0267816Y0052325D02*
X0298866Y0052325D01*
X0298865Y0052226D02*
X0268044Y0052226D01*
X0268273Y0052128D02*
X0298864Y0052128D01*
X0298864Y0052029D02*
X0268501Y0052029D01*
X0268730Y0051930D02*
X0298863Y0051930D01*
X0298862Y0051832D02*
X0268958Y0051832D01*
X0269187Y0051733D02*
X0298861Y0051733D01*
X0298860Y0051635D02*
X0269415Y0051635D01*
X0269644Y0051536D02*
X0298859Y0051536D01*
X0298858Y0051438D02*
X0269872Y0051438D01*
X0270101Y0051339D02*
X0298857Y0051339D01*
X0298856Y0051241D02*
X0270329Y0051241D01*
X0270558Y0051142D02*
X0298855Y0051142D01*
X0298854Y0051044D02*
X0270786Y0051044D01*
X0271015Y0050945D02*
X0298854Y0050945D01*
X0298853Y0050847D02*
X0271243Y0050847D01*
X0271472Y0050748D02*
X0298852Y0050748D01*
X0298851Y0050650D02*
X0271700Y0050650D01*
X0271929Y0050551D02*
X0298850Y0050551D01*
X0298849Y0050453D02*
X0272157Y0050453D01*
X0272386Y0050354D02*
X0298848Y0050354D01*
X0298847Y0050256D02*
X0272614Y0050256D01*
X0272842Y0050157D02*
X0298846Y0050157D01*
X0298845Y0050059D02*
X0273071Y0050059D01*
X0273299Y0049960D02*
X0298845Y0049960D01*
X0298844Y0049862D02*
X0273528Y0049862D01*
X0273756Y0049763D02*
X0298843Y0049763D01*
X0298842Y0049665D02*
X0273985Y0049665D01*
X0274213Y0049566D02*
X0298841Y0049566D01*
X0298840Y0049468D02*
X0274442Y0049468D01*
X0274670Y0049369D02*
X0298839Y0049369D01*
X0298838Y0049271D02*
X0274899Y0049271D01*
X0275127Y0049172D02*
X0298837Y0049172D01*
X0298836Y0049074D02*
X0275356Y0049074D01*
X0275584Y0048975D02*
X0298835Y0048975D01*
X0298835Y0048877D02*
X0275813Y0048877D01*
X0276041Y0048778D02*
X0298834Y0048778D01*
X0298833Y0048680D02*
X0276270Y0048680D01*
X0276498Y0048581D02*
X0298832Y0048581D01*
X0298831Y0048483D02*
X0276727Y0048483D01*
X0276955Y0048384D02*
X0298830Y0048384D01*
X0298829Y0048286D02*
X0277184Y0048286D01*
X0277412Y0048187D02*
X0298828Y0048187D01*
X0298827Y0048089D02*
X0277641Y0048089D01*
X0277869Y0047990D02*
X0298826Y0047990D01*
X0298826Y0047892D02*
X0278097Y0047892D01*
X0278326Y0047793D02*
X0298825Y0047793D01*
X0298824Y0047695D02*
X0278554Y0047695D01*
X0278783Y0047596D02*
X0298823Y0047596D01*
X0298822Y0047497D02*
X0279011Y0047497D01*
X0279240Y0047399D02*
X0298821Y0047399D01*
X0298820Y0047300D02*
X0279468Y0047300D01*
X0279697Y0047202D02*
X0298819Y0047202D01*
X0298818Y0047103D02*
X0279925Y0047103D01*
X0280154Y0047005D02*
X0298817Y0047005D01*
X0298816Y0046906D02*
X0280382Y0046906D01*
X0280611Y0046808D02*
X0298816Y0046808D01*
X0298815Y0046709D02*
X0280839Y0046709D01*
X0281068Y0046611D02*
X0298814Y0046611D01*
X0298813Y0046512D02*
X0281296Y0046512D01*
X0281525Y0046414D02*
X0298812Y0046414D01*
X0298811Y0046315D02*
X0281753Y0046315D01*
X0281982Y0046217D02*
X0298810Y0046217D01*
X0298809Y0046118D02*
X0282210Y0046118D01*
X0282438Y0046020D02*
X0298808Y0046020D01*
X0298807Y0045921D02*
X0282667Y0045921D01*
X0282895Y0045823D02*
X0298807Y0045823D01*
X0298806Y0045724D02*
X0283124Y0045724D01*
X0283352Y0045626D02*
X0298805Y0045626D01*
X0298804Y0045527D02*
X0283581Y0045527D01*
X0283809Y0045429D02*
X0298803Y0045429D01*
X0298802Y0045330D02*
X0284038Y0045330D01*
X0284266Y0045232D02*
X0298801Y0045232D01*
X0298800Y0045133D02*
X0284495Y0045133D01*
X0284723Y0045035D02*
X0298799Y0045035D01*
X0298798Y0044936D02*
X0284952Y0044936D01*
X0285180Y0044838D02*
X0298797Y0044838D01*
X0298797Y0044739D02*
X0285409Y0044739D01*
X0285637Y0044641D02*
X0298796Y0044641D01*
X0298795Y0044542D02*
X0285866Y0044542D01*
X0286094Y0044444D02*
X0298794Y0044444D01*
X0298793Y0044345D02*
X0286323Y0044345D01*
X0286551Y0044247D02*
X0298792Y0044247D01*
X0298791Y0044148D02*
X0286780Y0044148D01*
X0287008Y0044050D02*
X0298790Y0044050D01*
X0298789Y0043951D02*
X0287237Y0043951D01*
X0287465Y0043853D02*
X0298788Y0043853D01*
X0298788Y0043754D02*
X0287693Y0043754D01*
X0287922Y0043656D02*
X0298787Y0043656D01*
X0298786Y0043557D02*
X0288150Y0043557D01*
X0288379Y0043459D02*
X0298785Y0043459D01*
X0298784Y0043360D02*
X0288607Y0043360D01*
X0288836Y0043262D02*
X0298783Y0043262D01*
X0298782Y0043163D02*
X0289064Y0043163D01*
X0289293Y0043064D02*
X0298781Y0043064D01*
X0298780Y0042966D02*
X0289521Y0042966D01*
X0289750Y0042867D02*
X0298779Y0042867D01*
X0298778Y0042769D02*
X0289978Y0042769D01*
X0290207Y0042670D02*
X0298778Y0042670D01*
X0298777Y0042572D02*
X0290435Y0042572D01*
X0290664Y0042473D02*
X0298776Y0042473D01*
X0298775Y0042375D02*
X0290892Y0042375D01*
X0291121Y0042276D02*
X0298774Y0042276D01*
X0298773Y0042178D02*
X0291349Y0042178D01*
X0291578Y0042079D02*
X0298772Y0042079D01*
X0298771Y0041981D02*
X0291806Y0041981D01*
X0292035Y0041882D02*
X0298770Y0041882D01*
X0298769Y0041784D02*
X0292263Y0041784D01*
X0292491Y0041685D02*
X0298769Y0041685D01*
X0298768Y0041587D02*
X0292720Y0041587D01*
X0292948Y0041488D02*
X0298767Y0041488D01*
X0298766Y0041390D02*
X0293177Y0041390D01*
X0293405Y0041291D02*
X0298765Y0041291D01*
X0298764Y0041193D02*
X0293634Y0041193D01*
X0293862Y0041094D02*
X0298763Y0041094D01*
X0298762Y0040996D02*
X0294091Y0040996D01*
X0294319Y0040897D02*
X0298761Y0040897D01*
X0298760Y0040799D02*
X0294548Y0040799D01*
X0294776Y0040700D02*
X0298759Y0040700D01*
X0298759Y0040602D02*
X0295005Y0040602D01*
X0295233Y0040503D02*
X0298758Y0040503D01*
X0298757Y0040405D02*
X0295462Y0040405D01*
X0295690Y0040306D02*
X0298756Y0040306D01*
X0298755Y0040208D02*
X0295919Y0040208D01*
X0296147Y0040109D02*
X0298754Y0040109D01*
X0298753Y0040011D02*
X0296376Y0040011D01*
X0296604Y0039912D02*
X0298752Y0039912D01*
X0298751Y0039814D02*
X0296833Y0039814D01*
X0297061Y0039715D02*
X0298750Y0039715D01*
X0298750Y0039617D02*
X0297289Y0039617D01*
X0297518Y0039518D02*
X0298749Y0039518D01*
X0298748Y0039420D02*
X0297746Y0039420D01*
X0297975Y0039321D02*
X0298747Y0039321D01*
X0298746Y0039223D02*
X0298203Y0039223D01*
X0298432Y0039124D02*
X0298745Y0039124D01*
X0298744Y0039026D02*
X0298660Y0039026D01*
X0298458Y0137537D02*
X0264490Y0137537D01*
X0264721Y0137635D02*
X0298457Y0137635D01*
X0298456Y0137734D02*
X0264952Y0137734D01*
X0265184Y0137832D02*
X0298455Y0137832D01*
X0298454Y0137931D02*
X0265415Y0137931D01*
X0265646Y0138029D02*
X0298452Y0138029D01*
X0298451Y0138128D02*
X0265878Y0138128D01*
X0266109Y0138226D02*
X0298450Y0138226D01*
X0298449Y0138325D02*
X0266340Y0138325D01*
X0266571Y0138423D02*
X0298448Y0138423D01*
X0298447Y0138522D02*
X0266803Y0138522D01*
X0267034Y0138620D02*
X0298446Y0138620D01*
X0298445Y0138719D02*
X0267265Y0138719D01*
X0267497Y0138817D02*
X0298444Y0138817D01*
X0298443Y0138916D02*
X0267728Y0138916D01*
X0267959Y0139015D02*
X0298442Y0139015D01*
X0298441Y0139113D02*
X0268191Y0139113D01*
X0268422Y0139212D02*
X0298440Y0139212D01*
X0298439Y0139310D02*
X0268653Y0139310D01*
X0268884Y0139409D02*
X0298438Y0139409D01*
X0298437Y0139507D02*
X0269116Y0139507D01*
X0269347Y0139606D02*
X0298436Y0139606D01*
X0298435Y0139704D02*
X0269578Y0139704D01*
X0269810Y0139803D02*
X0298434Y0139803D01*
X0298433Y0139901D02*
X0270041Y0139901D01*
X0270272Y0140000D02*
X0298432Y0140000D01*
X0298431Y0140098D02*
X0270503Y0140098D01*
X0270735Y0140197D02*
X0298430Y0140197D01*
X0298429Y0140295D02*
X0270966Y0140295D01*
X0271197Y0140394D02*
X0298428Y0140394D01*
X0298427Y0140492D02*
X0271429Y0140492D01*
X0271660Y0140591D02*
X0298426Y0140591D01*
X0298425Y0140689D02*
X0271891Y0140689D01*
X0272123Y0140788D02*
X0298424Y0140788D01*
X0298423Y0140886D02*
X0272354Y0140886D01*
X0272585Y0140985D02*
X0298422Y0140985D01*
X0298421Y0141083D02*
X0272816Y0141083D01*
X0273048Y0141182D02*
X0298420Y0141182D01*
X0298419Y0141280D02*
X0273279Y0141280D01*
X0273510Y0141379D02*
X0298418Y0141379D01*
X0298417Y0141477D02*
X0273742Y0141477D01*
X0273973Y0141576D02*
X0298416Y0141576D01*
X0298415Y0141674D02*
X0274204Y0141674D01*
X0274436Y0141773D02*
X0298414Y0141773D01*
X0298413Y0141871D02*
X0274667Y0141871D01*
X0274898Y0141970D02*
X0298412Y0141970D01*
X0298411Y0142068D02*
X0275129Y0142068D01*
X0275361Y0142167D02*
X0298410Y0142167D01*
X0298409Y0142265D02*
X0275592Y0142265D01*
X0275823Y0142364D02*
X0298408Y0142364D01*
X0298407Y0142462D02*
X0276055Y0142462D01*
X0276286Y0142561D02*
X0298406Y0142561D01*
X0298405Y0142659D02*
X0276517Y0142659D01*
X0276748Y0142758D02*
X0298404Y0142758D01*
X0298403Y0142856D02*
X0276980Y0142856D01*
X0277211Y0142955D02*
X0298402Y0142955D01*
X0298401Y0143053D02*
X0277442Y0143053D01*
X0277674Y0143152D02*
X0298400Y0143152D01*
X0298399Y0143250D02*
X0277905Y0143250D01*
X0278136Y0143349D02*
X0298398Y0143349D01*
X0298397Y0143448D02*
X0278368Y0143448D01*
X0278599Y0143546D02*
X0298396Y0143546D01*
X0298395Y0143645D02*
X0278830Y0143645D01*
X0279061Y0143743D02*
X0298394Y0143743D01*
X0298393Y0143842D02*
X0279293Y0143842D01*
X0279524Y0143940D02*
X0298392Y0143940D01*
X0298391Y0144039D02*
X0279755Y0144039D01*
X0279987Y0144137D02*
X0298390Y0144137D01*
X0298389Y0144236D02*
X0280218Y0144236D01*
X0280449Y0144334D02*
X0298388Y0144334D01*
X0298387Y0144433D02*
X0280680Y0144433D01*
X0280912Y0144531D02*
X0298386Y0144531D01*
X0298385Y0144630D02*
X0281143Y0144630D01*
X0281374Y0144728D02*
X0298384Y0144728D01*
X0298383Y0144827D02*
X0281606Y0144827D01*
X0281837Y0144925D02*
X0298382Y0144925D01*
X0298381Y0145024D02*
X0282068Y0145024D01*
X0282300Y0145122D02*
X0298380Y0145122D01*
X0298379Y0145221D02*
X0282531Y0145221D01*
X0282762Y0145319D02*
X0298378Y0145319D01*
X0298377Y0145418D02*
X0282993Y0145418D01*
X0283225Y0145516D02*
X0298376Y0145516D01*
X0298375Y0145615D02*
X0283456Y0145615D01*
X0283687Y0145713D02*
X0298374Y0145713D01*
X0298373Y0145812D02*
X0283919Y0145812D01*
X0284150Y0145910D02*
X0298372Y0145910D01*
X0298371Y0146009D02*
X0284381Y0146009D01*
X0284612Y0146107D02*
X0298370Y0146107D01*
X0298369Y0146206D02*
X0284844Y0146206D01*
X0285075Y0146304D02*
X0298368Y0146304D01*
X0298367Y0146403D02*
X0285306Y0146403D01*
X0285538Y0146501D02*
X0298366Y0146501D01*
X0298365Y0146600D02*
X0285769Y0146600D01*
X0286000Y0146698D02*
X0298364Y0146698D01*
X0298363Y0146797D02*
X0286232Y0146797D01*
X0286463Y0146895D02*
X0298362Y0146895D01*
X0298361Y0146994D02*
X0286694Y0146994D01*
X0286925Y0147092D02*
X0298360Y0147092D01*
X0298359Y0147191D02*
X0287157Y0147191D01*
X0287388Y0147289D02*
X0298358Y0147289D01*
X0298356Y0147388D02*
X0287619Y0147388D01*
X0287851Y0147486D02*
X0298355Y0147486D01*
X0298354Y0147585D02*
X0288082Y0147585D01*
X0288313Y0147684D02*
X0298353Y0147684D01*
X0298352Y0147782D02*
X0288544Y0147782D01*
X0288776Y0147881D02*
X0298351Y0147881D01*
X0298350Y0147979D02*
X0289007Y0147979D01*
X0289238Y0148078D02*
X0298349Y0148078D01*
X0298348Y0148176D02*
X0289470Y0148176D01*
X0289701Y0148275D02*
X0298347Y0148275D01*
X0298346Y0148373D02*
X0289932Y0148373D01*
X0290164Y0148472D02*
X0298345Y0148472D01*
X0298344Y0148570D02*
X0290395Y0148570D01*
X0290626Y0148669D02*
X0298343Y0148669D01*
X0298342Y0148767D02*
X0290857Y0148767D01*
X0291089Y0148866D02*
X0298341Y0148866D01*
X0298340Y0148964D02*
X0291320Y0148964D01*
X0291551Y0149063D02*
X0298339Y0149063D01*
X0298338Y0149161D02*
X0291783Y0149161D01*
X0292014Y0149260D02*
X0298337Y0149260D01*
X0298336Y0149358D02*
X0292245Y0149358D01*
X0292476Y0149457D02*
X0298335Y0149457D01*
X0298334Y0149555D02*
X0292708Y0149555D01*
X0292939Y0149654D02*
X0298333Y0149654D01*
X0298332Y0149752D02*
X0293170Y0149752D01*
X0293402Y0149851D02*
X0298331Y0149851D01*
X0298330Y0149949D02*
X0293633Y0149949D01*
X0293864Y0150048D02*
X0298329Y0150048D01*
X0298328Y0150146D02*
X0294096Y0150146D01*
X0294327Y0150245D02*
X0298327Y0150245D01*
X0298326Y0150343D02*
X0294558Y0150343D01*
X0294789Y0150442D02*
X0298325Y0150442D01*
X0298324Y0150540D02*
X0295021Y0150540D01*
X0295252Y0150639D02*
X0298323Y0150639D01*
X0298322Y0150737D02*
X0295483Y0150737D01*
X0295715Y0150836D02*
X0298321Y0150836D01*
X0298320Y0150934D02*
X0295946Y0150934D01*
X0296177Y0151033D02*
X0298319Y0151033D01*
X0298318Y0151131D02*
X0296409Y0151131D01*
X0296640Y0151230D02*
X0298317Y0151230D01*
X0298316Y0151328D02*
X0296871Y0151328D01*
X0297102Y0151427D02*
X0298315Y0151427D01*
X0298314Y0151525D02*
X0297334Y0151525D01*
X0297565Y0151624D02*
X0298313Y0151624D01*
X0298312Y0151722D02*
X0297796Y0151722D01*
X0298028Y0151821D02*
X0298311Y0151821D01*
X0298310Y0151919D02*
X0298259Y0151919D01*
M02*
