G75*
%MOIN*%
%OFA0B0*%
%FSLAX25Y25*%
%IPPOS*%
%LPD*%
%AMOC8*
5,1,8,0,0,1.08239X$1,22.5*
%
%ADD10C,0.00394*%
%ADD11C,0.00100*%
%ADD12R,0.05800X0.08910*%
%ADD13R,0.05524X0.06312*%
%ADD14R,0.04343X0.03950*%
%ADD15R,0.05918X0.07099*%
%ADD16R,0.05524X0.03162*%
%ADD17C,0.22300*%
%ADD18C,0.06343*%
%ADD19C,0.04000*%
D10*
X0013386Y0013511D02*
X0297323Y0013511D01*
X0297323Y0178511D01*
X0013386Y0178511D01*
X0013386Y0013511D01*
D11*
X0017499Y0013355D02*
X0017491Y0014604D01*
X0017487Y0018241D01*
X0056775Y0033967D01*
X0056806Y0033961D01*
X0056809Y0013395D01*
X0017499Y0013355D01*
X0017499Y0013413D02*
X0056809Y0013413D01*
X0056809Y0013511D02*
X0017498Y0013511D01*
X0017498Y0013610D02*
X0056809Y0013610D01*
X0056809Y0013708D02*
X0017497Y0013708D01*
X0017496Y0013807D02*
X0056809Y0013807D01*
X0056809Y0013905D02*
X0017495Y0013905D01*
X0017495Y0014004D02*
X0056809Y0014004D01*
X0056809Y0014102D02*
X0017494Y0014102D01*
X0017493Y0014201D02*
X0056809Y0014201D01*
X0056809Y0014299D02*
X0017493Y0014299D01*
X0017492Y0014398D02*
X0056809Y0014398D01*
X0056809Y0014496D02*
X0017491Y0014496D01*
X0017491Y0014595D02*
X0056809Y0014595D01*
X0056809Y0014693D02*
X0017490Y0014693D01*
X0017490Y0014792D02*
X0056809Y0014792D01*
X0056809Y0014890D02*
X0017490Y0014890D01*
X0017490Y0014989D02*
X0056809Y0014989D01*
X0056809Y0015087D02*
X0017490Y0015087D01*
X0017490Y0015186D02*
X0056809Y0015186D01*
X0056809Y0015284D02*
X0017490Y0015284D01*
X0017490Y0015383D02*
X0056809Y0015383D01*
X0056809Y0015481D02*
X0017490Y0015481D01*
X0017489Y0015580D02*
X0056809Y0015580D01*
X0056809Y0015678D02*
X0017489Y0015678D01*
X0017489Y0015777D02*
X0056809Y0015777D01*
X0056809Y0015875D02*
X0017489Y0015875D01*
X0017489Y0015974D02*
X0056809Y0015974D01*
X0056809Y0016072D02*
X0017489Y0016072D01*
X0017489Y0016171D02*
X0056809Y0016171D01*
X0056809Y0016269D02*
X0017489Y0016269D01*
X0017489Y0016368D02*
X0056809Y0016368D01*
X0056809Y0016466D02*
X0017489Y0016466D01*
X0017488Y0016565D02*
X0056809Y0016565D01*
X0056809Y0016663D02*
X0017488Y0016663D01*
X0017488Y0016762D02*
X0056809Y0016762D01*
X0056809Y0016860D02*
X0017488Y0016860D01*
X0017488Y0016959D02*
X0056809Y0016959D01*
X0056809Y0017057D02*
X0017488Y0017057D01*
X0017488Y0017156D02*
X0056809Y0017156D01*
X0056809Y0017255D02*
X0017488Y0017255D01*
X0017488Y0017353D02*
X0056809Y0017353D01*
X0056809Y0017452D02*
X0017487Y0017452D01*
X0017487Y0017550D02*
X0056809Y0017550D01*
X0056809Y0017649D02*
X0017487Y0017649D01*
X0017487Y0017747D02*
X0056809Y0017747D01*
X0056809Y0017846D02*
X0017487Y0017846D01*
X0017487Y0017944D02*
X0056809Y0017944D01*
X0056809Y0018043D02*
X0017487Y0018043D01*
X0017487Y0018141D02*
X0056808Y0018141D01*
X0056808Y0018240D02*
X0017487Y0018240D01*
X0017729Y0018338D02*
X0056808Y0018338D01*
X0056808Y0018437D02*
X0017975Y0018437D01*
X0018221Y0018535D02*
X0056808Y0018535D01*
X0056808Y0018634D02*
X0018467Y0018634D01*
X0018713Y0018732D02*
X0056808Y0018732D01*
X0056808Y0018831D02*
X0018959Y0018831D01*
X0019206Y0018929D02*
X0056808Y0018929D01*
X0056808Y0019028D02*
X0019452Y0019028D01*
X0019698Y0019126D02*
X0056808Y0019126D01*
X0056808Y0019225D02*
X0019944Y0019225D01*
X0020190Y0019323D02*
X0056808Y0019323D01*
X0056808Y0019422D02*
X0020436Y0019422D01*
X0020682Y0019520D02*
X0056808Y0019520D01*
X0056808Y0019619D02*
X0020928Y0019619D01*
X0021174Y0019717D02*
X0056808Y0019717D01*
X0056808Y0019816D02*
X0021420Y0019816D01*
X0021667Y0019914D02*
X0056808Y0019914D01*
X0056808Y0020013D02*
X0021913Y0020013D01*
X0022159Y0020111D02*
X0056808Y0020111D01*
X0056808Y0020210D02*
X0022405Y0020210D01*
X0022651Y0020308D02*
X0056808Y0020308D01*
X0056808Y0020407D02*
X0022897Y0020407D01*
X0023143Y0020505D02*
X0056808Y0020505D01*
X0056808Y0020604D02*
X0023389Y0020604D01*
X0023635Y0020702D02*
X0056808Y0020702D01*
X0056808Y0020801D02*
X0023882Y0020801D01*
X0024128Y0020899D02*
X0056808Y0020899D01*
X0056808Y0020998D02*
X0024374Y0020998D01*
X0024620Y0021096D02*
X0056808Y0021096D01*
X0056808Y0021195D02*
X0024866Y0021195D01*
X0025112Y0021293D02*
X0056808Y0021293D01*
X0056808Y0021392D02*
X0025358Y0021392D01*
X0025604Y0021491D02*
X0056808Y0021491D01*
X0056808Y0021589D02*
X0025850Y0021589D01*
X0026096Y0021688D02*
X0056808Y0021688D01*
X0056808Y0021786D02*
X0026343Y0021786D01*
X0026589Y0021885D02*
X0056808Y0021885D01*
X0056808Y0021983D02*
X0026835Y0021983D01*
X0027081Y0022082D02*
X0056808Y0022082D01*
X0056808Y0022180D02*
X0027327Y0022180D01*
X0027573Y0022279D02*
X0056808Y0022279D01*
X0056808Y0022377D02*
X0027819Y0022377D01*
X0028065Y0022476D02*
X0056808Y0022476D01*
X0056808Y0022574D02*
X0028311Y0022574D01*
X0028558Y0022673D02*
X0056808Y0022673D01*
X0056808Y0022771D02*
X0028804Y0022771D01*
X0029050Y0022870D02*
X0056808Y0022870D01*
X0056808Y0022968D02*
X0029296Y0022968D01*
X0029542Y0023067D02*
X0056808Y0023067D01*
X0056808Y0023165D02*
X0029788Y0023165D01*
X0030034Y0023264D02*
X0056808Y0023264D01*
X0056808Y0023362D02*
X0030280Y0023362D01*
X0030526Y0023461D02*
X0056807Y0023461D01*
X0056807Y0023559D02*
X0030772Y0023559D01*
X0031019Y0023658D02*
X0056807Y0023658D01*
X0056807Y0023756D02*
X0031265Y0023756D01*
X0031511Y0023855D02*
X0056807Y0023855D01*
X0056807Y0023953D02*
X0031757Y0023953D01*
X0032003Y0024052D02*
X0056807Y0024052D01*
X0056807Y0024150D02*
X0032249Y0024150D01*
X0032495Y0024249D02*
X0056807Y0024249D01*
X0056807Y0024347D02*
X0032741Y0024347D01*
X0032987Y0024446D02*
X0056807Y0024446D01*
X0056807Y0024544D02*
X0033233Y0024544D01*
X0033480Y0024643D02*
X0056807Y0024643D01*
X0056807Y0024741D02*
X0033726Y0024741D01*
X0033972Y0024840D02*
X0056807Y0024840D01*
X0056807Y0024938D02*
X0034218Y0024938D01*
X0034464Y0025037D02*
X0056807Y0025037D01*
X0056807Y0025135D02*
X0034710Y0025135D01*
X0034956Y0025234D02*
X0056807Y0025234D01*
X0056807Y0025332D02*
X0035202Y0025332D01*
X0035448Y0025431D02*
X0056807Y0025431D01*
X0056807Y0025529D02*
X0035695Y0025529D01*
X0035941Y0025628D02*
X0056807Y0025628D01*
X0056807Y0025726D02*
X0036187Y0025726D01*
X0036433Y0025825D02*
X0056807Y0025825D01*
X0056807Y0025924D02*
X0036679Y0025924D01*
X0036925Y0026022D02*
X0056807Y0026022D01*
X0056807Y0026121D02*
X0037171Y0026121D01*
X0037417Y0026219D02*
X0056807Y0026219D01*
X0056807Y0026318D02*
X0037663Y0026318D01*
X0037909Y0026416D02*
X0056807Y0026416D01*
X0056807Y0026515D02*
X0038156Y0026515D01*
X0038402Y0026613D02*
X0056807Y0026613D01*
X0056807Y0026712D02*
X0038648Y0026712D01*
X0038894Y0026810D02*
X0056807Y0026810D01*
X0056807Y0026909D02*
X0039140Y0026909D01*
X0039386Y0027007D02*
X0056807Y0027007D01*
X0056807Y0027106D02*
X0039632Y0027106D01*
X0039878Y0027204D02*
X0056807Y0027204D01*
X0056807Y0027303D02*
X0040124Y0027303D01*
X0040370Y0027401D02*
X0056807Y0027401D01*
X0056807Y0027500D02*
X0040617Y0027500D01*
X0040863Y0027598D02*
X0056807Y0027598D01*
X0056807Y0027697D02*
X0041109Y0027697D01*
X0041355Y0027795D02*
X0056807Y0027795D01*
X0056807Y0027894D02*
X0041601Y0027894D01*
X0041847Y0027992D02*
X0056807Y0027992D01*
X0056807Y0028091D02*
X0042093Y0028091D01*
X0042339Y0028189D02*
X0056807Y0028189D01*
X0056807Y0028288D02*
X0042585Y0028288D01*
X0042832Y0028386D02*
X0056807Y0028386D01*
X0056807Y0028485D02*
X0043078Y0028485D01*
X0043324Y0028583D02*
X0056807Y0028583D01*
X0056807Y0028682D02*
X0043570Y0028682D01*
X0043816Y0028780D02*
X0056806Y0028780D01*
X0056806Y0028879D02*
X0044062Y0028879D01*
X0044308Y0028977D02*
X0056806Y0028977D01*
X0056806Y0029076D02*
X0044554Y0029076D01*
X0044800Y0029174D02*
X0056806Y0029174D01*
X0056806Y0029273D02*
X0045046Y0029273D01*
X0045293Y0029371D02*
X0056806Y0029371D01*
X0056806Y0029470D02*
X0045539Y0029470D01*
X0045785Y0029568D02*
X0056806Y0029568D01*
X0056806Y0029667D02*
X0046031Y0029667D01*
X0046277Y0029765D02*
X0056806Y0029765D01*
X0056806Y0029864D02*
X0046523Y0029864D01*
X0046769Y0029962D02*
X0056806Y0029962D01*
X0056806Y0030061D02*
X0047015Y0030061D01*
X0047261Y0030159D02*
X0056806Y0030159D01*
X0056806Y0030258D02*
X0047508Y0030258D01*
X0047754Y0030357D02*
X0056806Y0030357D01*
X0056806Y0030455D02*
X0048000Y0030455D01*
X0048246Y0030554D02*
X0056806Y0030554D01*
X0056806Y0030652D02*
X0048492Y0030652D01*
X0048738Y0030751D02*
X0056806Y0030751D01*
X0056806Y0030849D02*
X0048984Y0030849D01*
X0049230Y0030948D02*
X0056806Y0030948D01*
X0056806Y0031046D02*
X0049476Y0031046D01*
X0049722Y0031145D02*
X0056806Y0031145D01*
X0056806Y0031243D02*
X0049969Y0031243D01*
X0050215Y0031342D02*
X0056806Y0031342D01*
X0056806Y0031440D02*
X0050461Y0031440D01*
X0050707Y0031539D02*
X0056806Y0031539D01*
X0056806Y0031637D02*
X0050953Y0031637D01*
X0051199Y0031736D02*
X0056806Y0031736D01*
X0056806Y0031834D02*
X0051445Y0031834D01*
X0051691Y0031933D02*
X0056806Y0031933D01*
X0056806Y0032031D02*
X0051937Y0032031D01*
X0052183Y0032130D02*
X0056806Y0032130D01*
X0056806Y0032228D02*
X0052430Y0032228D01*
X0052676Y0032327D02*
X0056806Y0032327D01*
X0056806Y0032425D02*
X0052922Y0032425D01*
X0053168Y0032524D02*
X0056806Y0032524D01*
X0056806Y0032622D02*
X0053414Y0032622D01*
X0053660Y0032721D02*
X0056806Y0032721D01*
X0056806Y0032819D02*
X0053906Y0032819D01*
X0054152Y0032918D02*
X0056806Y0032918D01*
X0056806Y0033016D02*
X0054398Y0033016D01*
X0054645Y0033115D02*
X0056806Y0033115D01*
X0056806Y0033213D02*
X0054891Y0033213D01*
X0055137Y0033312D02*
X0056806Y0033312D01*
X0056806Y0033410D02*
X0055383Y0033410D01*
X0055629Y0033509D02*
X0056806Y0033509D01*
X0056806Y0033607D02*
X0055875Y0033607D01*
X0056121Y0033706D02*
X0056806Y0033706D01*
X0056806Y0033804D02*
X0056367Y0033804D01*
X0056613Y0033903D02*
X0056806Y0033903D01*
X0034355Y0049960D02*
X0013287Y0049960D01*
X0013287Y0049862D02*
X0034123Y0049862D01*
X0033891Y0049763D02*
X0013287Y0049763D01*
X0013287Y0049665D02*
X0033659Y0049665D01*
X0033427Y0049566D02*
X0013287Y0049566D01*
X0013287Y0049468D02*
X0033195Y0049468D01*
X0032963Y0049369D02*
X0013286Y0049369D01*
X0013286Y0049271D02*
X0032731Y0049271D01*
X0032499Y0049172D02*
X0013286Y0049172D01*
X0013286Y0049074D02*
X0032267Y0049074D01*
X0032035Y0048975D02*
X0013286Y0048975D01*
X0013286Y0048877D02*
X0031803Y0048877D01*
X0031571Y0048778D02*
X0013285Y0048778D01*
X0013285Y0048680D02*
X0031339Y0048680D01*
X0031107Y0048581D02*
X0013285Y0048581D01*
X0013285Y0048483D02*
X0030875Y0048483D01*
X0030643Y0048384D02*
X0013285Y0048384D01*
X0013285Y0048286D02*
X0030411Y0048286D01*
X0030179Y0048187D02*
X0013284Y0048187D01*
X0013284Y0048089D02*
X0029947Y0048089D01*
X0029715Y0047990D02*
X0013284Y0047990D01*
X0013284Y0047892D02*
X0029483Y0047892D01*
X0029251Y0047793D02*
X0013284Y0047793D01*
X0013284Y0047695D02*
X0029019Y0047695D01*
X0028787Y0047596D02*
X0013284Y0047596D01*
X0013283Y0047497D02*
X0028555Y0047497D01*
X0028323Y0047399D02*
X0013283Y0047399D01*
X0013283Y0047300D02*
X0028091Y0047300D01*
X0027859Y0047202D02*
X0013283Y0047202D01*
X0013283Y0047103D02*
X0027627Y0047103D01*
X0027395Y0047005D02*
X0013283Y0047005D01*
X0013282Y0046906D02*
X0027163Y0046906D01*
X0026931Y0046808D02*
X0013282Y0046808D01*
X0013282Y0046709D02*
X0026699Y0046709D01*
X0026467Y0046611D02*
X0013282Y0046611D01*
X0013282Y0046512D02*
X0026235Y0046512D01*
X0026003Y0046414D02*
X0013282Y0046414D01*
X0013281Y0046315D02*
X0025771Y0046315D01*
X0025539Y0046217D02*
X0013281Y0046217D01*
X0013281Y0046118D02*
X0025307Y0046118D01*
X0025075Y0046020D02*
X0013281Y0046020D01*
X0013281Y0045921D02*
X0024843Y0045921D01*
X0024611Y0045823D02*
X0013281Y0045823D01*
X0013280Y0045724D02*
X0024379Y0045724D01*
X0024147Y0045626D02*
X0013280Y0045626D01*
X0013280Y0045527D02*
X0023915Y0045527D01*
X0023683Y0045429D02*
X0013280Y0045429D01*
X0013280Y0045330D02*
X0023451Y0045330D01*
X0023219Y0045232D02*
X0013280Y0045232D01*
X0013279Y0045133D02*
X0022987Y0045133D01*
X0022755Y0045035D02*
X0013279Y0045035D01*
X0013279Y0044936D02*
X0022523Y0044936D01*
X0022291Y0044838D02*
X0013279Y0044838D01*
X0013279Y0044739D02*
X0022059Y0044739D01*
X0021827Y0044641D02*
X0013279Y0044641D01*
X0013278Y0044542D02*
X0021595Y0044542D01*
X0021363Y0044444D02*
X0013278Y0044444D01*
X0013278Y0044345D02*
X0021131Y0044345D01*
X0020899Y0044247D02*
X0013278Y0044247D01*
X0013278Y0044148D02*
X0020667Y0044148D01*
X0020435Y0044050D02*
X0013278Y0044050D01*
X0013277Y0043951D02*
X0020203Y0043951D01*
X0019971Y0043853D02*
X0013277Y0043853D01*
X0013277Y0043754D02*
X0019739Y0043754D01*
X0019507Y0043656D02*
X0013277Y0043656D01*
X0013277Y0043557D02*
X0019275Y0043557D01*
X0019043Y0043459D02*
X0013277Y0043459D01*
X0013276Y0043360D02*
X0018811Y0043360D01*
X0018579Y0043262D02*
X0013276Y0043262D01*
X0013276Y0043163D02*
X0018347Y0043163D01*
X0018115Y0043064D02*
X0013276Y0043064D01*
X0013276Y0042966D02*
X0017883Y0042966D01*
X0017651Y0042867D02*
X0013276Y0042867D01*
X0013276Y0042769D02*
X0017419Y0042769D01*
X0017187Y0042670D02*
X0013275Y0042670D01*
X0013275Y0042572D02*
X0016955Y0042572D01*
X0016723Y0042473D02*
X0013275Y0042473D01*
X0013275Y0042375D02*
X0016491Y0042375D01*
X0016259Y0042276D02*
X0013275Y0042276D01*
X0013275Y0042178D02*
X0016027Y0042178D01*
X0015795Y0042079D02*
X0013274Y0042079D01*
X0013274Y0041981D02*
X0015563Y0041981D01*
X0015331Y0041882D02*
X0013274Y0041882D01*
X0013274Y0041784D02*
X0015099Y0041784D01*
X0014867Y0041685D02*
X0013274Y0041685D01*
X0013274Y0041587D02*
X0014635Y0041587D01*
X0014403Y0041488D02*
X0013273Y0041488D01*
X0013273Y0041390D02*
X0014171Y0041390D01*
X0013939Y0041291D02*
X0013273Y0041291D01*
X0013273Y0041193D02*
X0013707Y0041193D01*
X0013475Y0041094D02*
X0013273Y0041094D01*
X0013273Y0041008D02*
X0013356Y0091235D01*
X0013314Y0092162D01*
X0044873Y0081707D01*
X0044892Y0054434D01*
X0013273Y0041008D01*
X0013288Y0050059D02*
X0034587Y0050059D01*
X0034819Y0050157D02*
X0013288Y0050157D01*
X0013288Y0050256D02*
X0035051Y0050256D01*
X0035283Y0050354D02*
X0013288Y0050354D01*
X0013288Y0050453D02*
X0035515Y0050453D01*
X0035747Y0050551D02*
X0013288Y0050551D01*
X0013289Y0050650D02*
X0035979Y0050650D01*
X0036211Y0050748D02*
X0013289Y0050748D01*
X0013289Y0050847D02*
X0036443Y0050847D01*
X0036675Y0050945D02*
X0013289Y0050945D01*
X0013289Y0051044D02*
X0036907Y0051044D01*
X0037139Y0051142D02*
X0013289Y0051142D01*
X0013290Y0051241D02*
X0037371Y0051241D01*
X0037603Y0051339D02*
X0013290Y0051339D01*
X0013290Y0051438D02*
X0037835Y0051438D01*
X0038067Y0051536D02*
X0013290Y0051536D01*
X0013290Y0051635D02*
X0038299Y0051635D01*
X0038531Y0051733D02*
X0013290Y0051733D01*
X0013291Y0051832D02*
X0038763Y0051832D01*
X0038995Y0051930D02*
X0013291Y0051930D01*
X0013291Y0052029D02*
X0039227Y0052029D01*
X0039459Y0052128D02*
X0013291Y0052128D01*
X0013291Y0052226D02*
X0039691Y0052226D01*
X0039923Y0052325D02*
X0013291Y0052325D01*
X0013291Y0052423D02*
X0040155Y0052423D01*
X0040387Y0052522D02*
X0013292Y0052522D01*
X0013292Y0052620D02*
X0040619Y0052620D01*
X0040851Y0052719D02*
X0013292Y0052719D01*
X0013292Y0052817D02*
X0041083Y0052817D01*
X0041315Y0052916D02*
X0013292Y0052916D01*
X0013292Y0053014D02*
X0041547Y0053014D01*
X0041779Y0053113D02*
X0013293Y0053113D01*
X0013293Y0053211D02*
X0042011Y0053211D01*
X0042243Y0053310D02*
X0013293Y0053310D01*
X0013293Y0053408D02*
X0042475Y0053408D01*
X0042707Y0053507D02*
X0013293Y0053507D01*
X0013293Y0053605D02*
X0042939Y0053605D01*
X0043171Y0053704D02*
X0013294Y0053704D01*
X0013294Y0053802D02*
X0043403Y0053802D01*
X0043635Y0053901D02*
X0013294Y0053901D01*
X0013294Y0053999D02*
X0043867Y0053999D01*
X0044099Y0054098D02*
X0013294Y0054098D01*
X0013294Y0054196D02*
X0044331Y0054196D01*
X0044563Y0054295D02*
X0013295Y0054295D01*
X0013295Y0054393D02*
X0044795Y0054393D01*
X0044891Y0054492D02*
X0013295Y0054492D01*
X0013295Y0054590D02*
X0044891Y0054590D01*
X0044891Y0054689D02*
X0013295Y0054689D01*
X0013295Y0054787D02*
X0044891Y0054787D01*
X0044891Y0054886D02*
X0013296Y0054886D01*
X0013296Y0054984D02*
X0044891Y0054984D01*
X0044891Y0055083D02*
X0013296Y0055083D01*
X0013296Y0055181D02*
X0044891Y0055181D01*
X0044891Y0055280D02*
X0013296Y0055280D01*
X0013296Y0055378D02*
X0044891Y0055378D01*
X0044891Y0055477D02*
X0013297Y0055477D01*
X0013297Y0055575D02*
X0044891Y0055575D01*
X0044891Y0055674D02*
X0013297Y0055674D01*
X0013297Y0055772D02*
X0044891Y0055772D01*
X0044891Y0055871D02*
X0013297Y0055871D01*
X0013297Y0055969D02*
X0044891Y0055969D01*
X0044890Y0056068D02*
X0013298Y0056068D01*
X0013298Y0056166D02*
X0044890Y0056166D01*
X0044890Y0056265D02*
X0013298Y0056265D01*
X0013298Y0056364D02*
X0044890Y0056364D01*
X0044890Y0056462D02*
X0013298Y0056462D01*
X0013298Y0056561D02*
X0044890Y0056561D01*
X0044890Y0056659D02*
X0013299Y0056659D01*
X0013299Y0056758D02*
X0044890Y0056758D01*
X0044890Y0056856D02*
X0013299Y0056856D01*
X0013299Y0056955D02*
X0044890Y0056955D01*
X0044890Y0057053D02*
X0013299Y0057053D01*
X0013299Y0057152D02*
X0044890Y0057152D01*
X0044890Y0057250D02*
X0013299Y0057250D01*
X0013300Y0057349D02*
X0044890Y0057349D01*
X0044890Y0057447D02*
X0013300Y0057447D01*
X0013300Y0057546D02*
X0044889Y0057546D01*
X0044889Y0057644D02*
X0013300Y0057644D01*
X0013300Y0057743D02*
X0044889Y0057743D01*
X0044889Y0057841D02*
X0013300Y0057841D01*
X0013301Y0057940D02*
X0044889Y0057940D01*
X0044889Y0058038D02*
X0013301Y0058038D01*
X0013301Y0058137D02*
X0044889Y0058137D01*
X0044889Y0058235D02*
X0013301Y0058235D01*
X0013301Y0058334D02*
X0044889Y0058334D01*
X0044889Y0058432D02*
X0013301Y0058432D01*
X0013302Y0058531D02*
X0044889Y0058531D01*
X0044889Y0058629D02*
X0013302Y0058629D01*
X0013302Y0058728D02*
X0044889Y0058728D01*
X0044889Y0058826D02*
X0013302Y0058826D01*
X0013302Y0058925D02*
X0044889Y0058925D01*
X0044888Y0059023D02*
X0013302Y0059023D01*
X0013303Y0059122D02*
X0044888Y0059122D01*
X0044888Y0059220D02*
X0013303Y0059220D01*
X0013303Y0059319D02*
X0044888Y0059319D01*
X0044888Y0059417D02*
X0013303Y0059417D01*
X0013303Y0059516D02*
X0044888Y0059516D01*
X0044888Y0059614D02*
X0013303Y0059614D01*
X0013304Y0059713D02*
X0044888Y0059713D01*
X0044888Y0059811D02*
X0013304Y0059811D01*
X0013304Y0059910D02*
X0044888Y0059910D01*
X0044888Y0060008D02*
X0013304Y0060008D01*
X0013304Y0060107D02*
X0044888Y0060107D01*
X0044888Y0060205D02*
X0013304Y0060205D01*
X0013305Y0060304D02*
X0044888Y0060304D01*
X0044888Y0060402D02*
X0013305Y0060402D01*
X0013305Y0060501D02*
X0044887Y0060501D01*
X0044887Y0060599D02*
X0013305Y0060599D01*
X0013305Y0060698D02*
X0044887Y0060698D01*
X0044887Y0060797D02*
X0013305Y0060797D01*
X0013306Y0060895D02*
X0044887Y0060895D01*
X0044887Y0060994D02*
X0013306Y0060994D01*
X0013306Y0061092D02*
X0044887Y0061092D01*
X0044887Y0061191D02*
X0013306Y0061191D01*
X0013306Y0061289D02*
X0044887Y0061289D01*
X0044887Y0061388D02*
X0013306Y0061388D01*
X0013307Y0061486D02*
X0044887Y0061486D01*
X0044887Y0061585D02*
X0013307Y0061585D01*
X0013307Y0061683D02*
X0044887Y0061683D01*
X0044887Y0061782D02*
X0013307Y0061782D01*
X0013307Y0061880D02*
X0044887Y0061880D01*
X0044887Y0061979D02*
X0013307Y0061979D01*
X0013307Y0062077D02*
X0044886Y0062077D01*
X0044886Y0062176D02*
X0013308Y0062176D01*
X0013308Y0062274D02*
X0044886Y0062274D01*
X0044886Y0062373D02*
X0013308Y0062373D01*
X0013308Y0062471D02*
X0044886Y0062471D01*
X0044886Y0062570D02*
X0013308Y0062570D01*
X0013308Y0062668D02*
X0044886Y0062668D01*
X0044886Y0062767D02*
X0013309Y0062767D01*
X0013309Y0062865D02*
X0044886Y0062865D01*
X0044886Y0062964D02*
X0013309Y0062964D01*
X0013309Y0063062D02*
X0044886Y0063062D01*
X0044886Y0063161D02*
X0013309Y0063161D01*
X0013309Y0063259D02*
X0044886Y0063259D01*
X0044886Y0063358D02*
X0013310Y0063358D01*
X0013310Y0063456D02*
X0044886Y0063456D01*
X0044885Y0063555D02*
X0013310Y0063555D01*
X0013310Y0063653D02*
X0044885Y0063653D01*
X0044885Y0063752D02*
X0013310Y0063752D01*
X0013310Y0063850D02*
X0044885Y0063850D01*
X0044885Y0063949D02*
X0013311Y0063949D01*
X0013311Y0064047D02*
X0044885Y0064047D01*
X0044885Y0064146D02*
X0013311Y0064146D01*
X0013311Y0064244D02*
X0044885Y0064244D01*
X0044885Y0064343D02*
X0013311Y0064343D01*
X0013311Y0064441D02*
X0044885Y0064441D01*
X0044885Y0064540D02*
X0013312Y0064540D01*
X0013312Y0064638D02*
X0044885Y0064638D01*
X0044885Y0064737D02*
X0013312Y0064737D01*
X0013312Y0064835D02*
X0044885Y0064835D01*
X0044885Y0064934D02*
X0013312Y0064934D01*
X0013312Y0065033D02*
X0044884Y0065033D01*
X0044884Y0065131D02*
X0013313Y0065131D01*
X0013313Y0065230D02*
X0044884Y0065230D01*
X0044884Y0065328D02*
X0013313Y0065328D01*
X0013313Y0065427D02*
X0044884Y0065427D01*
X0044884Y0065525D02*
X0013313Y0065525D01*
X0013313Y0065624D02*
X0044884Y0065624D01*
X0044884Y0065722D02*
X0013314Y0065722D01*
X0013314Y0065821D02*
X0044884Y0065821D01*
X0044884Y0065919D02*
X0013314Y0065919D01*
X0013314Y0066018D02*
X0044884Y0066018D01*
X0044884Y0066116D02*
X0013314Y0066116D01*
X0013314Y0066215D02*
X0044884Y0066215D01*
X0044884Y0066313D02*
X0013315Y0066313D01*
X0013315Y0066412D02*
X0044884Y0066412D01*
X0044884Y0066510D02*
X0013315Y0066510D01*
X0013315Y0066609D02*
X0044883Y0066609D01*
X0044883Y0066707D02*
X0013315Y0066707D01*
X0013315Y0066806D02*
X0044883Y0066806D01*
X0044883Y0066904D02*
X0013315Y0066904D01*
X0013316Y0067003D02*
X0044883Y0067003D01*
X0044883Y0067101D02*
X0013316Y0067101D01*
X0013316Y0067200D02*
X0044883Y0067200D01*
X0044883Y0067298D02*
X0013316Y0067298D01*
X0013316Y0067397D02*
X0044883Y0067397D01*
X0044883Y0067495D02*
X0013316Y0067495D01*
X0013317Y0067594D02*
X0044883Y0067594D01*
X0044883Y0067692D02*
X0013317Y0067692D01*
X0013317Y0067791D02*
X0044883Y0067791D01*
X0044883Y0067889D02*
X0013317Y0067889D01*
X0013317Y0067988D02*
X0044883Y0067988D01*
X0044882Y0068086D02*
X0013317Y0068086D01*
X0013318Y0068185D02*
X0044882Y0068185D01*
X0044882Y0068283D02*
X0013318Y0068283D01*
X0013318Y0068382D02*
X0044882Y0068382D01*
X0044882Y0068480D02*
X0013318Y0068480D01*
X0013318Y0068579D02*
X0044882Y0068579D01*
X0044882Y0068677D02*
X0013318Y0068677D01*
X0013319Y0068776D02*
X0044882Y0068776D01*
X0044882Y0068874D02*
X0013319Y0068874D01*
X0013319Y0068973D02*
X0044882Y0068973D01*
X0044882Y0069071D02*
X0013319Y0069071D01*
X0013319Y0069170D02*
X0044882Y0069170D01*
X0044882Y0069268D02*
X0013319Y0069268D01*
X0013320Y0069367D02*
X0044882Y0069367D01*
X0044882Y0069466D02*
X0013320Y0069466D01*
X0013320Y0069564D02*
X0044881Y0069564D01*
X0044881Y0069663D02*
X0013320Y0069663D01*
X0013320Y0069761D02*
X0044881Y0069761D01*
X0044881Y0069860D02*
X0013320Y0069860D01*
X0013321Y0069958D02*
X0044881Y0069958D01*
X0044881Y0070057D02*
X0013321Y0070057D01*
X0013321Y0070155D02*
X0044881Y0070155D01*
X0044881Y0070254D02*
X0013321Y0070254D01*
X0013321Y0070352D02*
X0044881Y0070352D01*
X0044881Y0070451D02*
X0013321Y0070451D01*
X0013322Y0070549D02*
X0044881Y0070549D01*
X0044881Y0070648D02*
X0013322Y0070648D01*
X0013322Y0070746D02*
X0044881Y0070746D01*
X0044881Y0070845D02*
X0013322Y0070845D01*
X0013322Y0070943D02*
X0044881Y0070943D01*
X0044880Y0071042D02*
X0013322Y0071042D01*
X0013323Y0071140D02*
X0044880Y0071140D01*
X0044880Y0071239D02*
X0013323Y0071239D01*
X0013323Y0071337D02*
X0044880Y0071337D01*
X0044880Y0071436D02*
X0013323Y0071436D01*
X0013323Y0071534D02*
X0044880Y0071534D01*
X0044880Y0071633D02*
X0013323Y0071633D01*
X0013323Y0071731D02*
X0044880Y0071731D01*
X0044880Y0071830D02*
X0013324Y0071830D01*
X0013324Y0071928D02*
X0044880Y0071928D01*
X0044880Y0072027D02*
X0013324Y0072027D01*
X0013324Y0072125D02*
X0044880Y0072125D01*
X0044880Y0072224D02*
X0013324Y0072224D01*
X0013324Y0072322D02*
X0044880Y0072322D01*
X0044880Y0072421D02*
X0013325Y0072421D01*
X0013325Y0072519D02*
X0044880Y0072519D01*
X0044879Y0072618D02*
X0013325Y0072618D01*
X0013325Y0072716D02*
X0044879Y0072716D01*
X0044879Y0072815D02*
X0013325Y0072815D01*
X0013325Y0072913D02*
X0044879Y0072913D01*
X0044879Y0073012D02*
X0013326Y0073012D01*
X0013326Y0073110D02*
X0044879Y0073110D01*
X0044879Y0073209D02*
X0013326Y0073209D01*
X0013326Y0073307D02*
X0044879Y0073307D01*
X0044879Y0073406D02*
X0013326Y0073406D01*
X0013326Y0073504D02*
X0044879Y0073504D01*
X0044879Y0073603D02*
X0013327Y0073603D01*
X0013327Y0073702D02*
X0044879Y0073702D01*
X0044879Y0073800D02*
X0013327Y0073800D01*
X0013327Y0073899D02*
X0044879Y0073899D01*
X0044879Y0073997D02*
X0013327Y0073997D01*
X0013327Y0074096D02*
X0044878Y0074096D01*
X0044878Y0074194D02*
X0013328Y0074194D01*
X0013328Y0074293D02*
X0044878Y0074293D01*
X0044878Y0074391D02*
X0013328Y0074391D01*
X0013328Y0074490D02*
X0044878Y0074490D01*
X0044878Y0074588D02*
X0013328Y0074588D01*
X0013328Y0074687D02*
X0044878Y0074687D01*
X0044878Y0074785D02*
X0013329Y0074785D01*
X0013329Y0074884D02*
X0044878Y0074884D01*
X0044878Y0074982D02*
X0013329Y0074982D01*
X0013329Y0075081D02*
X0044878Y0075081D01*
X0044878Y0075179D02*
X0013329Y0075179D01*
X0013329Y0075278D02*
X0044878Y0075278D01*
X0044878Y0075376D02*
X0013330Y0075376D01*
X0013330Y0075475D02*
X0044878Y0075475D01*
X0044877Y0075573D02*
X0013330Y0075573D01*
X0013330Y0075672D02*
X0044877Y0075672D01*
X0044877Y0075770D02*
X0013330Y0075770D01*
X0013330Y0075869D02*
X0044877Y0075869D01*
X0044877Y0075967D02*
X0013331Y0075967D01*
X0013331Y0076066D02*
X0044877Y0076066D01*
X0044877Y0076164D02*
X0013331Y0076164D01*
X0013331Y0076263D02*
X0044877Y0076263D01*
X0044877Y0076361D02*
X0013331Y0076361D01*
X0013331Y0076460D02*
X0044877Y0076460D01*
X0044877Y0076558D02*
X0013331Y0076558D01*
X0013332Y0076657D02*
X0044877Y0076657D01*
X0044877Y0076755D02*
X0013332Y0076755D01*
X0013332Y0076854D02*
X0044877Y0076854D01*
X0044877Y0076952D02*
X0013332Y0076952D01*
X0013332Y0077051D02*
X0044876Y0077051D01*
X0044876Y0077149D02*
X0013332Y0077149D01*
X0013333Y0077248D02*
X0044876Y0077248D01*
X0044876Y0077346D02*
X0013333Y0077346D01*
X0013333Y0077445D02*
X0044876Y0077445D01*
X0044876Y0077543D02*
X0013333Y0077543D01*
X0013333Y0077642D02*
X0044876Y0077642D01*
X0044876Y0077740D02*
X0013333Y0077740D01*
X0013334Y0077839D02*
X0044876Y0077839D01*
X0044876Y0077937D02*
X0013334Y0077937D01*
X0013334Y0078036D02*
X0044876Y0078036D01*
X0044876Y0078135D02*
X0013334Y0078135D01*
X0013334Y0078233D02*
X0044876Y0078233D01*
X0044876Y0078332D02*
X0013334Y0078332D01*
X0013335Y0078430D02*
X0044876Y0078430D01*
X0044876Y0078529D02*
X0013335Y0078529D01*
X0013335Y0078627D02*
X0044875Y0078627D01*
X0044875Y0078726D02*
X0013335Y0078726D01*
X0013335Y0078824D02*
X0044875Y0078824D01*
X0044875Y0078923D02*
X0013335Y0078923D01*
X0013336Y0079021D02*
X0044875Y0079021D01*
X0044875Y0079120D02*
X0013336Y0079120D01*
X0013336Y0079218D02*
X0044875Y0079218D01*
X0044875Y0079317D02*
X0013336Y0079317D01*
X0013336Y0079415D02*
X0044875Y0079415D01*
X0044875Y0079514D02*
X0013336Y0079514D01*
X0013337Y0079612D02*
X0044875Y0079612D01*
X0044875Y0079711D02*
X0013337Y0079711D01*
X0013337Y0079809D02*
X0044875Y0079809D01*
X0044875Y0079908D02*
X0013337Y0079908D01*
X0013337Y0080006D02*
X0044875Y0080006D01*
X0044874Y0080105D02*
X0013337Y0080105D01*
X0013338Y0080203D02*
X0044874Y0080203D01*
X0044874Y0080302D02*
X0013338Y0080302D01*
X0013338Y0080400D02*
X0044874Y0080400D01*
X0044874Y0080499D02*
X0013338Y0080499D01*
X0013338Y0080597D02*
X0044874Y0080597D01*
X0044874Y0080696D02*
X0013338Y0080696D01*
X0013339Y0080794D02*
X0044874Y0080794D01*
X0044874Y0080893D02*
X0013339Y0080893D01*
X0013339Y0080991D02*
X0044874Y0080991D01*
X0044874Y0081090D02*
X0013339Y0081090D01*
X0013339Y0081188D02*
X0044874Y0081188D01*
X0044874Y0081287D02*
X0013339Y0081287D01*
X0013339Y0081385D02*
X0044874Y0081385D01*
X0044874Y0081484D02*
X0013340Y0081484D01*
X0013340Y0081582D02*
X0044873Y0081582D01*
X0044873Y0081681D02*
X0013340Y0081681D01*
X0013340Y0081779D02*
X0044655Y0081779D01*
X0044358Y0081878D02*
X0013340Y0081878D01*
X0013340Y0081976D02*
X0044061Y0081976D01*
X0043763Y0082075D02*
X0013341Y0082075D01*
X0013341Y0082173D02*
X0043466Y0082173D01*
X0043169Y0082272D02*
X0013341Y0082272D01*
X0013341Y0082370D02*
X0042871Y0082370D01*
X0042574Y0082469D02*
X0013341Y0082469D01*
X0013341Y0082568D02*
X0042276Y0082568D01*
X0041979Y0082666D02*
X0013342Y0082666D01*
X0013342Y0082765D02*
X0041682Y0082765D01*
X0041384Y0082863D02*
X0013342Y0082863D01*
X0013342Y0082962D02*
X0041087Y0082962D01*
X0040790Y0083060D02*
X0013342Y0083060D01*
X0013342Y0083159D02*
X0040492Y0083159D01*
X0040195Y0083257D02*
X0013343Y0083257D01*
X0013343Y0083356D02*
X0039897Y0083356D01*
X0039600Y0083454D02*
X0013343Y0083454D01*
X0013343Y0083553D02*
X0039303Y0083553D01*
X0039005Y0083651D02*
X0013343Y0083651D01*
X0013343Y0083750D02*
X0038708Y0083750D01*
X0038411Y0083848D02*
X0013344Y0083848D01*
X0013344Y0083947D02*
X0038113Y0083947D01*
X0037816Y0084045D02*
X0013344Y0084045D01*
X0013344Y0084144D02*
X0037518Y0084144D01*
X0037221Y0084242D02*
X0013344Y0084242D01*
X0013344Y0084341D02*
X0036924Y0084341D01*
X0036626Y0084439D02*
X0013345Y0084439D01*
X0013345Y0084538D02*
X0036329Y0084538D01*
X0036032Y0084636D02*
X0013345Y0084636D01*
X0013345Y0084735D02*
X0035734Y0084735D01*
X0035437Y0084833D02*
X0013345Y0084833D01*
X0013345Y0084932D02*
X0035139Y0084932D01*
X0034842Y0085030D02*
X0013346Y0085030D01*
X0013346Y0085129D02*
X0034545Y0085129D01*
X0034247Y0085227D02*
X0013346Y0085227D01*
X0013346Y0085326D02*
X0033950Y0085326D01*
X0033653Y0085424D02*
X0013346Y0085424D01*
X0013346Y0085523D02*
X0033355Y0085523D01*
X0033058Y0085621D02*
X0013347Y0085621D01*
X0013347Y0085720D02*
X0032761Y0085720D01*
X0032463Y0085818D02*
X0013347Y0085818D01*
X0013347Y0085917D02*
X0032166Y0085917D01*
X0031868Y0086015D02*
X0013347Y0086015D01*
X0013347Y0086114D02*
X0031571Y0086114D01*
X0031274Y0086212D02*
X0013347Y0086212D01*
X0013348Y0086311D02*
X0030976Y0086311D01*
X0030679Y0086409D02*
X0013348Y0086409D01*
X0013348Y0086508D02*
X0030382Y0086508D01*
X0030084Y0086606D02*
X0013348Y0086606D01*
X0013348Y0086705D02*
X0029787Y0086705D01*
X0029489Y0086804D02*
X0013348Y0086804D01*
X0013349Y0086902D02*
X0029192Y0086902D01*
X0028895Y0087001D02*
X0013349Y0087001D01*
X0013349Y0087099D02*
X0028597Y0087099D01*
X0028300Y0087198D02*
X0013349Y0087198D01*
X0013349Y0087296D02*
X0028003Y0087296D01*
X0027705Y0087395D02*
X0013349Y0087395D01*
X0013350Y0087493D02*
X0027408Y0087493D01*
X0027110Y0087592D02*
X0013350Y0087592D01*
X0013350Y0087690D02*
X0026813Y0087690D01*
X0026516Y0087789D02*
X0013350Y0087789D01*
X0013350Y0087887D02*
X0026218Y0087887D01*
X0025921Y0087986D02*
X0013350Y0087986D01*
X0013351Y0088084D02*
X0025624Y0088084D01*
X0025326Y0088183D02*
X0013351Y0088183D01*
X0013351Y0088281D02*
X0025029Y0088281D01*
X0024732Y0088380D02*
X0013351Y0088380D01*
X0013351Y0088478D02*
X0024434Y0088478D01*
X0024137Y0088577D02*
X0013351Y0088577D01*
X0013352Y0088675D02*
X0023839Y0088675D01*
X0023542Y0088774D02*
X0013352Y0088774D01*
X0013352Y0088872D02*
X0023245Y0088872D01*
X0022947Y0088971D02*
X0013352Y0088971D01*
X0013352Y0089069D02*
X0022650Y0089069D01*
X0022353Y0089168D02*
X0013352Y0089168D01*
X0013353Y0089266D02*
X0022055Y0089266D01*
X0021758Y0089365D02*
X0013353Y0089365D01*
X0013353Y0089463D02*
X0021460Y0089463D01*
X0021163Y0089562D02*
X0013353Y0089562D01*
X0013353Y0089660D02*
X0020866Y0089660D01*
X0020568Y0089759D02*
X0013353Y0089759D01*
X0013354Y0089857D02*
X0020271Y0089857D01*
X0019974Y0089956D02*
X0013354Y0089956D01*
X0013354Y0090054D02*
X0019676Y0090054D01*
X0019379Y0090153D02*
X0013354Y0090153D01*
X0013354Y0090251D02*
X0019081Y0090251D01*
X0018784Y0090350D02*
X0013354Y0090350D01*
X0013355Y0090448D02*
X0018487Y0090448D01*
X0018189Y0090547D02*
X0013355Y0090547D01*
X0013355Y0090645D02*
X0017892Y0090645D01*
X0017595Y0090744D02*
X0013355Y0090744D01*
X0013355Y0090842D02*
X0017297Y0090842D01*
X0017000Y0090941D02*
X0013355Y0090941D01*
X0013355Y0091039D02*
X0016702Y0091039D01*
X0016405Y0091138D02*
X0013356Y0091138D01*
X0013356Y0091237D02*
X0016108Y0091237D01*
X0015810Y0091335D02*
X0013351Y0091335D01*
X0013347Y0091434D02*
X0015513Y0091434D01*
X0015216Y0091532D02*
X0013343Y0091532D01*
X0013338Y0091631D02*
X0014918Y0091631D01*
X0014621Y0091729D02*
X0013334Y0091729D01*
X0013329Y0091828D02*
X0014324Y0091828D01*
X0014026Y0091926D02*
X0013325Y0091926D01*
X0013321Y0092025D02*
X0013729Y0092025D01*
X0013431Y0092123D02*
X0013316Y0092123D01*
X0013441Y0101569D02*
X0013365Y0146220D01*
X0013341Y0149781D01*
X0044242Y0137149D01*
X0044248Y0111809D01*
X0013441Y0101569D01*
X0013441Y0101580D02*
X0013473Y0101580D01*
X0013441Y0101679D02*
X0013770Y0101679D01*
X0014066Y0101777D02*
X0013440Y0101777D01*
X0013440Y0101876D02*
X0014362Y0101876D01*
X0014659Y0101974D02*
X0013440Y0101974D01*
X0013440Y0102073D02*
X0014955Y0102073D01*
X0015252Y0102171D02*
X0013440Y0102171D01*
X0013440Y0102270D02*
X0015548Y0102270D01*
X0015844Y0102368D02*
X0013439Y0102368D01*
X0013439Y0102467D02*
X0016141Y0102467D01*
X0016437Y0102565D02*
X0013439Y0102565D01*
X0013439Y0102664D02*
X0016734Y0102664D01*
X0017030Y0102762D02*
X0013439Y0102762D01*
X0013439Y0102861D02*
X0017326Y0102861D01*
X0017623Y0102959D02*
X0013438Y0102959D01*
X0013438Y0103058D02*
X0017919Y0103058D01*
X0018215Y0103156D02*
X0013438Y0103156D01*
X0013438Y0103255D02*
X0018512Y0103255D01*
X0018808Y0103353D02*
X0013438Y0103353D01*
X0013438Y0103452D02*
X0019105Y0103452D01*
X0019401Y0103550D02*
X0013437Y0103550D01*
X0013437Y0103649D02*
X0019697Y0103649D01*
X0019994Y0103747D02*
X0013437Y0103747D01*
X0013437Y0103846D02*
X0020290Y0103846D01*
X0020586Y0103944D02*
X0013437Y0103944D01*
X0013437Y0104043D02*
X0020883Y0104043D01*
X0021179Y0104141D02*
X0013436Y0104141D01*
X0013436Y0104240D02*
X0021476Y0104240D01*
X0021772Y0104339D02*
X0013436Y0104339D01*
X0013436Y0104437D02*
X0022068Y0104437D01*
X0022365Y0104536D02*
X0013436Y0104536D01*
X0013436Y0104634D02*
X0022661Y0104634D01*
X0022958Y0104733D02*
X0013435Y0104733D01*
X0013435Y0104831D02*
X0023254Y0104831D01*
X0023550Y0104930D02*
X0013435Y0104930D01*
X0013435Y0105028D02*
X0023847Y0105028D01*
X0024143Y0105127D02*
X0013435Y0105127D01*
X0013435Y0105225D02*
X0024439Y0105225D01*
X0024736Y0105324D02*
X0013434Y0105324D01*
X0013434Y0105422D02*
X0025032Y0105422D01*
X0025329Y0105521D02*
X0013434Y0105521D01*
X0013434Y0105619D02*
X0025625Y0105619D01*
X0025921Y0105718D02*
X0013434Y0105718D01*
X0013434Y0105816D02*
X0026218Y0105816D01*
X0026514Y0105915D02*
X0013433Y0105915D01*
X0013433Y0106013D02*
X0026810Y0106013D01*
X0027107Y0106112D02*
X0013433Y0106112D01*
X0013433Y0106210D02*
X0027403Y0106210D01*
X0027700Y0106309D02*
X0013433Y0106309D01*
X0013433Y0106407D02*
X0027996Y0106407D01*
X0028292Y0106506D02*
X0013432Y0106506D01*
X0013432Y0106604D02*
X0028589Y0106604D01*
X0028885Y0106703D02*
X0013432Y0106703D01*
X0013432Y0106801D02*
X0029182Y0106801D01*
X0029478Y0106900D02*
X0013432Y0106900D01*
X0013432Y0106998D02*
X0029774Y0106998D01*
X0030071Y0107097D02*
X0013431Y0107097D01*
X0013431Y0107195D02*
X0030367Y0107195D01*
X0030663Y0107294D02*
X0013431Y0107294D01*
X0013431Y0107392D02*
X0030960Y0107392D01*
X0031256Y0107491D02*
X0013431Y0107491D01*
X0013431Y0107589D02*
X0031553Y0107589D01*
X0031849Y0107688D02*
X0013430Y0107688D01*
X0013430Y0107786D02*
X0032145Y0107786D01*
X0032442Y0107885D02*
X0013430Y0107885D01*
X0013430Y0107983D02*
X0032738Y0107983D01*
X0033034Y0108082D02*
X0013430Y0108082D01*
X0013430Y0108180D02*
X0033331Y0108180D01*
X0033627Y0108279D02*
X0013429Y0108279D01*
X0013429Y0108377D02*
X0033924Y0108377D01*
X0034220Y0108476D02*
X0013429Y0108476D01*
X0013429Y0108575D02*
X0034516Y0108575D01*
X0034813Y0108673D02*
X0013429Y0108673D01*
X0013429Y0108772D02*
X0035109Y0108772D01*
X0035406Y0108870D02*
X0013428Y0108870D01*
X0013428Y0108969D02*
X0035702Y0108969D01*
X0035998Y0109067D02*
X0013428Y0109067D01*
X0013428Y0109166D02*
X0036295Y0109166D01*
X0036591Y0109264D02*
X0013428Y0109264D01*
X0013428Y0109363D02*
X0036887Y0109363D01*
X0037184Y0109461D02*
X0013427Y0109461D01*
X0013427Y0109560D02*
X0037480Y0109560D01*
X0037777Y0109658D02*
X0013427Y0109658D01*
X0013427Y0109757D02*
X0038073Y0109757D01*
X0038369Y0109855D02*
X0013427Y0109855D01*
X0013427Y0109954D02*
X0038666Y0109954D01*
X0038962Y0110052D02*
X0013426Y0110052D01*
X0013426Y0110151D02*
X0039259Y0110151D01*
X0039555Y0110249D02*
X0013426Y0110249D01*
X0013426Y0110348D02*
X0039851Y0110348D01*
X0040148Y0110446D02*
X0013426Y0110446D01*
X0013426Y0110545D02*
X0040444Y0110545D01*
X0040740Y0110643D02*
X0013425Y0110643D01*
X0013425Y0110742D02*
X0041037Y0110742D01*
X0041333Y0110840D02*
X0013425Y0110840D01*
X0013425Y0110939D02*
X0041630Y0110939D01*
X0041926Y0111037D02*
X0013425Y0111037D01*
X0013425Y0111136D02*
X0042222Y0111136D01*
X0042519Y0111234D02*
X0013424Y0111234D01*
X0013424Y0111333D02*
X0042815Y0111333D01*
X0043111Y0111431D02*
X0013424Y0111431D01*
X0013424Y0111530D02*
X0043408Y0111530D01*
X0043704Y0111628D02*
X0013424Y0111628D01*
X0013424Y0111727D02*
X0044001Y0111727D01*
X0044248Y0111825D02*
X0013423Y0111825D01*
X0013423Y0111924D02*
X0044247Y0111924D01*
X0044247Y0112022D02*
X0013423Y0112022D01*
X0013423Y0112121D02*
X0044247Y0112121D01*
X0044247Y0112219D02*
X0013423Y0112219D01*
X0013423Y0112318D02*
X0044247Y0112318D01*
X0044247Y0112416D02*
X0013422Y0112416D01*
X0013422Y0112515D02*
X0044247Y0112515D01*
X0044247Y0112613D02*
X0013422Y0112613D01*
X0013422Y0112712D02*
X0044247Y0112712D01*
X0044247Y0112810D02*
X0013422Y0112810D01*
X0013422Y0112909D02*
X0044247Y0112909D01*
X0044247Y0113008D02*
X0013421Y0113008D01*
X0013421Y0113106D02*
X0044247Y0113106D01*
X0044247Y0113205D02*
X0013421Y0113205D01*
X0013421Y0113303D02*
X0044247Y0113303D01*
X0044247Y0113402D02*
X0013421Y0113402D01*
X0013421Y0113500D02*
X0044247Y0113500D01*
X0044247Y0113599D02*
X0013420Y0113599D01*
X0013420Y0113697D02*
X0044247Y0113697D01*
X0044247Y0113796D02*
X0013420Y0113796D01*
X0013420Y0113894D02*
X0044247Y0113894D01*
X0044247Y0113993D02*
X0013420Y0113993D01*
X0013420Y0114091D02*
X0044247Y0114091D01*
X0044247Y0114190D02*
X0013419Y0114190D01*
X0013419Y0114288D02*
X0044247Y0114288D01*
X0044247Y0114387D02*
X0013419Y0114387D01*
X0013419Y0114485D02*
X0044247Y0114485D01*
X0044247Y0114584D02*
X0013419Y0114584D01*
X0013419Y0114682D02*
X0044247Y0114682D01*
X0044247Y0114781D02*
X0013418Y0114781D01*
X0013418Y0114879D02*
X0044247Y0114879D01*
X0044247Y0114978D02*
X0013418Y0114978D01*
X0013418Y0115076D02*
X0044247Y0115076D01*
X0044247Y0115175D02*
X0013418Y0115175D01*
X0013418Y0115273D02*
X0044247Y0115273D01*
X0044247Y0115372D02*
X0013417Y0115372D01*
X0013417Y0115470D02*
X0044247Y0115470D01*
X0044247Y0115569D02*
X0013417Y0115569D01*
X0013417Y0115667D02*
X0044247Y0115667D01*
X0044247Y0115766D02*
X0013417Y0115766D01*
X0013416Y0115864D02*
X0044247Y0115864D01*
X0044247Y0115963D02*
X0013416Y0115963D01*
X0013416Y0116061D02*
X0044247Y0116061D01*
X0044247Y0116160D02*
X0013416Y0116160D01*
X0013416Y0116258D02*
X0044247Y0116258D01*
X0044247Y0116357D02*
X0013416Y0116357D01*
X0013416Y0116455D02*
X0044247Y0116455D01*
X0044246Y0116554D02*
X0013415Y0116554D01*
X0013415Y0116652D02*
X0044246Y0116652D01*
X0044246Y0116751D02*
X0013415Y0116751D01*
X0013415Y0116849D02*
X0044246Y0116849D01*
X0044246Y0116948D02*
X0013415Y0116948D01*
X0013414Y0117046D02*
X0044246Y0117046D01*
X0044246Y0117145D02*
X0013414Y0117145D01*
X0013414Y0117244D02*
X0044246Y0117244D01*
X0044246Y0117342D02*
X0013414Y0117342D01*
X0013414Y0117441D02*
X0044246Y0117441D01*
X0044246Y0117539D02*
X0013414Y0117539D01*
X0013413Y0117638D02*
X0044246Y0117638D01*
X0044246Y0117736D02*
X0013413Y0117736D01*
X0013413Y0117835D02*
X0044246Y0117835D01*
X0044246Y0117933D02*
X0013413Y0117933D01*
X0013413Y0118032D02*
X0044246Y0118032D01*
X0044246Y0118130D02*
X0013413Y0118130D01*
X0013412Y0118229D02*
X0044246Y0118229D01*
X0044246Y0118327D02*
X0013412Y0118327D01*
X0013412Y0118426D02*
X0044246Y0118426D01*
X0044246Y0118524D02*
X0013412Y0118524D01*
X0013412Y0118623D02*
X0044246Y0118623D01*
X0044246Y0118721D02*
X0013412Y0118721D01*
X0013411Y0118820D02*
X0044246Y0118820D01*
X0044246Y0118918D02*
X0013411Y0118918D01*
X0013411Y0119017D02*
X0044246Y0119017D01*
X0044246Y0119115D02*
X0013411Y0119115D01*
X0013411Y0119214D02*
X0044246Y0119214D01*
X0044246Y0119312D02*
X0013411Y0119312D01*
X0013410Y0119411D02*
X0044246Y0119411D01*
X0044246Y0119509D02*
X0013410Y0119509D01*
X0013410Y0119608D02*
X0044246Y0119608D01*
X0044246Y0119706D02*
X0013410Y0119706D01*
X0013410Y0119805D02*
X0044246Y0119805D01*
X0044246Y0119903D02*
X0013410Y0119903D01*
X0013409Y0120002D02*
X0044246Y0120002D01*
X0044246Y0120100D02*
X0013409Y0120100D01*
X0013409Y0120199D02*
X0044246Y0120199D01*
X0044246Y0120297D02*
X0013409Y0120297D01*
X0013409Y0120396D02*
X0044246Y0120396D01*
X0044246Y0120494D02*
X0013409Y0120494D01*
X0013408Y0120593D02*
X0044246Y0120593D01*
X0044246Y0120691D02*
X0013408Y0120691D01*
X0013408Y0120790D02*
X0044246Y0120790D01*
X0044246Y0120888D02*
X0013408Y0120888D01*
X0013408Y0120987D02*
X0044246Y0120987D01*
X0044246Y0121085D02*
X0013408Y0121085D01*
X0013407Y0121184D02*
X0044245Y0121184D01*
X0044245Y0121282D02*
X0013407Y0121282D01*
X0013407Y0121381D02*
X0044245Y0121381D01*
X0044245Y0121479D02*
X0013407Y0121479D01*
X0013407Y0121578D02*
X0044245Y0121578D01*
X0044245Y0121677D02*
X0013407Y0121677D01*
X0013406Y0121775D02*
X0044245Y0121775D01*
X0044245Y0121874D02*
X0013406Y0121874D01*
X0013406Y0121972D02*
X0044245Y0121972D01*
X0044245Y0122071D02*
X0013406Y0122071D01*
X0013406Y0122169D02*
X0044245Y0122169D01*
X0044245Y0122268D02*
X0013406Y0122268D01*
X0013405Y0122366D02*
X0044245Y0122366D01*
X0044245Y0122465D02*
X0013405Y0122465D01*
X0013405Y0122563D02*
X0044245Y0122563D01*
X0044245Y0122662D02*
X0013405Y0122662D01*
X0013405Y0122760D02*
X0044245Y0122760D01*
X0044245Y0122859D02*
X0013405Y0122859D01*
X0013404Y0122957D02*
X0044245Y0122957D01*
X0044245Y0123056D02*
X0013404Y0123056D01*
X0013404Y0123154D02*
X0044245Y0123154D01*
X0044245Y0123253D02*
X0013404Y0123253D01*
X0013404Y0123351D02*
X0044245Y0123351D01*
X0044245Y0123450D02*
X0013404Y0123450D01*
X0013403Y0123548D02*
X0044245Y0123548D01*
X0044245Y0123647D02*
X0013403Y0123647D01*
X0013403Y0123745D02*
X0044245Y0123745D01*
X0044245Y0123844D02*
X0013403Y0123844D01*
X0013403Y0123942D02*
X0044245Y0123942D01*
X0044245Y0124041D02*
X0013403Y0124041D01*
X0013402Y0124139D02*
X0044245Y0124139D01*
X0044245Y0124238D02*
X0013402Y0124238D01*
X0013402Y0124336D02*
X0044245Y0124336D01*
X0044245Y0124435D02*
X0013402Y0124435D01*
X0013402Y0124533D02*
X0044245Y0124533D01*
X0044245Y0124632D02*
X0013402Y0124632D01*
X0013401Y0124730D02*
X0044245Y0124730D01*
X0044245Y0124829D02*
X0013401Y0124829D01*
X0013401Y0124927D02*
X0044245Y0124927D01*
X0044245Y0125026D02*
X0013401Y0125026D01*
X0013401Y0125124D02*
X0044245Y0125124D01*
X0044245Y0125223D02*
X0013401Y0125223D01*
X0013400Y0125321D02*
X0044245Y0125321D01*
X0044245Y0125420D02*
X0013400Y0125420D01*
X0013400Y0125518D02*
X0044245Y0125518D01*
X0044245Y0125617D02*
X0013400Y0125617D01*
X0013400Y0125715D02*
X0044245Y0125715D01*
X0044244Y0125814D02*
X0013400Y0125814D01*
X0013399Y0125912D02*
X0044244Y0125912D01*
X0044244Y0126011D02*
X0013399Y0126011D01*
X0013399Y0126110D02*
X0044244Y0126110D01*
X0044244Y0126208D02*
X0013399Y0126208D01*
X0013399Y0126307D02*
X0044244Y0126307D01*
X0044244Y0126405D02*
X0013399Y0126405D01*
X0013398Y0126504D02*
X0044244Y0126504D01*
X0044244Y0126602D02*
X0013398Y0126602D01*
X0013398Y0126701D02*
X0044244Y0126701D01*
X0044244Y0126799D02*
X0013398Y0126799D01*
X0013398Y0126898D02*
X0044244Y0126898D01*
X0044244Y0126996D02*
X0013398Y0126996D01*
X0013397Y0127095D02*
X0044244Y0127095D01*
X0044244Y0127193D02*
X0013397Y0127193D01*
X0013397Y0127292D02*
X0044244Y0127292D01*
X0044244Y0127390D02*
X0013397Y0127390D01*
X0013397Y0127489D02*
X0044244Y0127489D01*
X0044244Y0127587D02*
X0013397Y0127587D01*
X0013396Y0127686D02*
X0044244Y0127686D01*
X0044244Y0127784D02*
X0013396Y0127784D01*
X0013396Y0127883D02*
X0044244Y0127883D01*
X0044244Y0127981D02*
X0013396Y0127981D01*
X0013396Y0128080D02*
X0044244Y0128080D01*
X0044244Y0128178D02*
X0013396Y0128178D01*
X0013395Y0128277D02*
X0044244Y0128277D01*
X0044244Y0128375D02*
X0013395Y0128375D01*
X0013395Y0128474D02*
X0044244Y0128474D01*
X0044244Y0128572D02*
X0013395Y0128572D01*
X0013395Y0128671D02*
X0044244Y0128671D01*
X0044244Y0128769D02*
X0013395Y0128769D01*
X0013394Y0128868D02*
X0044244Y0128868D01*
X0044244Y0128966D02*
X0013394Y0128966D01*
X0013394Y0129065D02*
X0044244Y0129065D01*
X0044244Y0129163D02*
X0013394Y0129163D01*
X0013394Y0129262D02*
X0044244Y0129262D01*
X0044244Y0129360D02*
X0013394Y0129360D01*
X0013393Y0129459D02*
X0044244Y0129459D01*
X0044244Y0129557D02*
X0013393Y0129557D01*
X0013393Y0129656D02*
X0044244Y0129656D01*
X0044244Y0129754D02*
X0013393Y0129754D01*
X0013393Y0129853D02*
X0044244Y0129853D01*
X0044244Y0129951D02*
X0013393Y0129951D01*
X0013392Y0130050D02*
X0044244Y0130050D01*
X0044244Y0130148D02*
X0013392Y0130148D01*
X0013392Y0130247D02*
X0044244Y0130247D01*
X0044244Y0130346D02*
X0013392Y0130346D01*
X0013392Y0130444D02*
X0044243Y0130444D01*
X0044243Y0130543D02*
X0013392Y0130543D01*
X0013391Y0130641D02*
X0044243Y0130641D01*
X0044243Y0130740D02*
X0013391Y0130740D01*
X0013391Y0130838D02*
X0044243Y0130838D01*
X0044243Y0130937D02*
X0013391Y0130937D01*
X0013391Y0131035D02*
X0044243Y0131035D01*
X0044243Y0131134D02*
X0013391Y0131134D01*
X0013390Y0131232D02*
X0044243Y0131232D01*
X0044243Y0131331D02*
X0013390Y0131331D01*
X0013390Y0131429D02*
X0044243Y0131429D01*
X0044243Y0131528D02*
X0013390Y0131528D01*
X0013390Y0131626D02*
X0044243Y0131626D01*
X0044243Y0131725D02*
X0013390Y0131725D01*
X0013389Y0131823D02*
X0044243Y0131823D01*
X0044243Y0131922D02*
X0013389Y0131922D01*
X0013389Y0132020D02*
X0044243Y0132020D01*
X0044243Y0132119D02*
X0013389Y0132119D01*
X0013389Y0132217D02*
X0044243Y0132217D01*
X0044243Y0132316D02*
X0013389Y0132316D01*
X0013388Y0132414D02*
X0044243Y0132414D01*
X0044243Y0132513D02*
X0013388Y0132513D01*
X0013388Y0132611D02*
X0044243Y0132611D01*
X0044243Y0132710D02*
X0013388Y0132710D01*
X0013388Y0132808D02*
X0044243Y0132808D01*
X0044243Y0132907D02*
X0013388Y0132907D01*
X0013387Y0133005D02*
X0044243Y0133005D01*
X0044243Y0133104D02*
X0013387Y0133104D01*
X0013387Y0133202D02*
X0044243Y0133202D01*
X0044243Y0133301D02*
X0013387Y0133301D01*
X0013387Y0133399D02*
X0044243Y0133399D01*
X0044243Y0133498D02*
X0013387Y0133498D01*
X0013386Y0133596D02*
X0044243Y0133596D01*
X0044243Y0133695D02*
X0013386Y0133695D01*
X0013386Y0133793D02*
X0044243Y0133793D01*
X0044243Y0133892D02*
X0013386Y0133892D01*
X0013386Y0133990D02*
X0044243Y0133990D01*
X0044243Y0134089D02*
X0013386Y0134089D01*
X0013385Y0134187D02*
X0044243Y0134187D01*
X0044243Y0134286D02*
X0013385Y0134286D01*
X0013385Y0134384D02*
X0044243Y0134384D01*
X0044243Y0134483D02*
X0013385Y0134483D01*
X0013385Y0134581D02*
X0044243Y0134581D01*
X0044243Y0134680D02*
X0013385Y0134680D01*
X0013384Y0134779D02*
X0044243Y0134779D01*
X0044243Y0134877D02*
X0013384Y0134877D01*
X0013384Y0134976D02*
X0044243Y0134976D01*
X0044242Y0135074D02*
X0013384Y0135074D01*
X0013384Y0135173D02*
X0044242Y0135173D01*
X0044242Y0135271D02*
X0013384Y0135271D01*
X0013383Y0135370D02*
X0044242Y0135370D01*
X0044242Y0135468D02*
X0013383Y0135468D01*
X0013383Y0135567D02*
X0044242Y0135567D01*
X0044242Y0135665D02*
X0013383Y0135665D01*
X0013383Y0135764D02*
X0044242Y0135764D01*
X0044242Y0135862D02*
X0013383Y0135862D01*
X0013382Y0135961D02*
X0044242Y0135961D01*
X0044242Y0136059D02*
X0013382Y0136059D01*
X0013382Y0136158D02*
X0044242Y0136158D01*
X0044242Y0136256D02*
X0013382Y0136256D01*
X0013382Y0136355D02*
X0044242Y0136355D01*
X0044242Y0136453D02*
X0013382Y0136453D01*
X0013381Y0136552D02*
X0044242Y0136552D01*
X0044242Y0136650D02*
X0013381Y0136650D01*
X0013381Y0136749D02*
X0044242Y0136749D01*
X0044242Y0136847D02*
X0013381Y0136847D01*
X0013381Y0136946D02*
X0044242Y0136946D01*
X0044242Y0137044D02*
X0013381Y0137044D01*
X0013380Y0137143D02*
X0044242Y0137143D01*
X0044015Y0137241D02*
X0013380Y0137241D01*
X0013380Y0137340D02*
X0043774Y0137340D01*
X0043533Y0137438D02*
X0013380Y0137438D01*
X0013380Y0137537D02*
X0043292Y0137537D01*
X0043051Y0137635D02*
X0013380Y0137635D01*
X0013379Y0137734D02*
X0042810Y0137734D01*
X0042569Y0137832D02*
X0013379Y0137832D01*
X0013379Y0137931D02*
X0042328Y0137931D01*
X0042087Y0138029D02*
X0013379Y0138029D01*
X0013379Y0138128D02*
X0041846Y0138128D01*
X0041605Y0138226D02*
X0013379Y0138226D01*
X0013378Y0138325D02*
X0041364Y0138325D01*
X0041123Y0138423D02*
X0013378Y0138423D01*
X0013378Y0138522D02*
X0040882Y0138522D01*
X0040641Y0138620D02*
X0013378Y0138620D01*
X0013378Y0138719D02*
X0040401Y0138719D01*
X0040160Y0138817D02*
X0013378Y0138817D01*
X0013377Y0138916D02*
X0039919Y0138916D01*
X0039678Y0139015D02*
X0013377Y0139015D01*
X0013377Y0139113D02*
X0039437Y0139113D01*
X0039196Y0139212D02*
X0013377Y0139212D01*
X0013377Y0139310D02*
X0038955Y0139310D01*
X0038714Y0139409D02*
X0013377Y0139409D01*
X0013376Y0139507D02*
X0038473Y0139507D01*
X0038232Y0139606D02*
X0013376Y0139606D01*
X0013376Y0139704D02*
X0037991Y0139704D01*
X0037750Y0139803D02*
X0013376Y0139803D01*
X0013376Y0139901D02*
X0037509Y0139901D01*
X0037268Y0140000D02*
X0013376Y0140000D01*
X0013375Y0140098D02*
X0037027Y0140098D01*
X0036786Y0140197D02*
X0013375Y0140197D01*
X0013375Y0140295D02*
X0036545Y0140295D01*
X0036304Y0140394D02*
X0013375Y0140394D01*
X0013375Y0140492D02*
X0036063Y0140492D01*
X0035822Y0140591D02*
X0013375Y0140591D01*
X0013374Y0140689D02*
X0035581Y0140689D01*
X0035340Y0140788D02*
X0013374Y0140788D01*
X0013374Y0140886D02*
X0035099Y0140886D01*
X0034858Y0140985D02*
X0013374Y0140985D01*
X0013374Y0141083D02*
X0034617Y0141083D01*
X0034376Y0141182D02*
X0013374Y0141182D01*
X0013373Y0141280D02*
X0034135Y0141280D01*
X0033894Y0141379D02*
X0013373Y0141379D01*
X0013373Y0141477D02*
X0033653Y0141477D01*
X0033412Y0141576D02*
X0013373Y0141576D01*
X0013373Y0141674D02*
X0033171Y0141674D01*
X0032930Y0141773D02*
X0013373Y0141773D01*
X0013372Y0141871D02*
X0032690Y0141871D01*
X0032449Y0141970D02*
X0013372Y0141970D01*
X0013372Y0142068D02*
X0032208Y0142068D01*
X0031967Y0142167D02*
X0013372Y0142167D01*
X0013372Y0142265D02*
X0031726Y0142265D01*
X0031485Y0142364D02*
X0013372Y0142364D01*
X0013371Y0142462D02*
X0031244Y0142462D01*
X0031003Y0142561D02*
X0013371Y0142561D01*
X0013371Y0142659D02*
X0030762Y0142659D01*
X0030521Y0142758D02*
X0013371Y0142758D01*
X0013371Y0142856D02*
X0030280Y0142856D01*
X0030039Y0142955D02*
X0013371Y0142955D01*
X0013370Y0143053D02*
X0029798Y0143053D01*
X0029557Y0143152D02*
X0013370Y0143152D01*
X0013370Y0143250D02*
X0029316Y0143250D01*
X0029075Y0143349D02*
X0013370Y0143349D01*
X0013370Y0143448D02*
X0028834Y0143448D01*
X0028593Y0143546D02*
X0013370Y0143546D01*
X0013369Y0143645D02*
X0028352Y0143645D01*
X0028111Y0143743D02*
X0013369Y0143743D01*
X0013369Y0143842D02*
X0027870Y0143842D01*
X0027629Y0143940D02*
X0013369Y0143940D01*
X0013369Y0144039D02*
X0027388Y0144039D01*
X0027147Y0144137D02*
X0013369Y0144137D01*
X0013368Y0144236D02*
X0026906Y0144236D01*
X0026665Y0144334D02*
X0013368Y0144334D01*
X0013368Y0144433D02*
X0026424Y0144433D01*
X0026183Y0144531D02*
X0013368Y0144531D01*
X0013368Y0144630D02*
X0025942Y0144630D01*
X0025701Y0144728D02*
X0013367Y0144728D01*
X0013367Y0144827D02*
X0025460Y0144827D01*
X0025219Y0144925D02*
X0013367Y0144925D01*
X0013367Y0145024D02*
X0024978Y0145024D01*
X0024738Y0145122D02*
X0013367Y0145122D01*
X0013367Y0145221D02*
X0024497Y0145221D01*
X0024256Y0145319D02*
X0013366Y0145319D01*
X0013366Y0145418D02*
X0024015Y0145418D01*
X0023774Y0145516D02*
X0013366Y0145516D01*
X0013366Y0145615D02*
X0023533Y0145615D01*
X0023292Y0145713D02*
X0013366Y0145713D01*
X0013366Y0145812D02*
X0023051Y0145812D01*
X0022810Y0145910D02*
X0013365Y0145910D01*
X0013365Y0146009D02*
X0022569Y0146009D01*
X0022328Y0146107D02*
X0013365Y0146107D01*
X0013365Y0146206D02*
X0022087Y0146206D01*
X0021846Y0146304D02*
X0013364Y0146304D01*
X0013364Y0146403D02*
X0021605Y0146403D01*
X0021364Y0146501D02*
X0013363Y0146501D01*
X0013362Y0146600D02*
X0021123Y0146600D01*
X0020882Y0146698D02*
X0013362Y0146698D01*
X0013361Y0146797D02*
X0020641Y0146797D01*
X0020400Y0146895D02*
X0013360Y0146895D01*
X0013360Y0146994D02*
X0020159Y0146994D01*
X0019918Y0147092D02*
X0013359Y0147092D01*
X0013359Y0147191D02*
X0019677Y0147191D01*
X0019436Y0147289D02*
X0013358Y0147289D01*
X0013357Y0147388D02*
X0019195Y0147388D01*
X0018954Y0147486D02*
X0013357Y0147486D01*
X0013356Y0147585D02*
X0018713Y0147585D01*
X0018472Y0147684D02*
X0013355Y0147684D01*
X0013355Y0147782D02*
X0018231Y0147782D01*
X0017990Y0147881D02*
X0013354Y0147881D01*
X0013353Y0147979D02*
X0017749Y0147979D01*
X0017508Y0148078D02*
X0013353Y0148078D01*
X0013352Y0148176D02*
X0017267Y0148176D01*
X0017026Y0148275D02*
X0013351Y0148275D01*
X0013351Y0148373D02*
X0016786Y0148373D01*
X0016545Y0148472D02*
X0013350Y0148472D01*
X0013349Y0148570D02*
X0016304Y0148570D01*
X0016063Y0148669D02*
X0013349Y0148669D01*
X0013348Y0148767D02*
X0015822Y0148767D01*
X0015581Y0148866D02*
X0013347Y0148866D01*
X0013347Y0148964D02*
X0015340Y0148964D01*
X0015099Y0149063D02*
X0013346Y0149063D01*
X0013345Y0149161D02*
X0014858Y0149161D01*
X0014617Y0149260D02*
X0013345Y0149260D01*
X0013344Y0149358D02*
X0014376Y0149358D01*
X0014135Y0149457D02*
X0013343Y0149457D01*
X0013343Y0149555D02*
X0013894Y0149555D01*
X0013653Y0149654D02*
X0013342Y0149654D01*
X0013342Y0149752D02*
X0013412Y0149752D01*
X0096901Y0140561D02*
X0096952Y0140504D01*
X0096878Y0140248D01*
X0096910Y0129630D01*
X0110916Y0134590D01*
X0110985Y0145870D01*
X0096901Y0140561D01*
X0096948Y0140492D02*
X0110953Y0140492D01*
X0110952Y0140394D02*
X0096920Y0140394D01*
X0096892Y0140295D02*
X0110951Y0140295D01*
X0110951Y0140197D02*
X0096878Y0140197D01*
X0096879Y0140098D02*
X0110950Y0140098D01*
X0110949Y0140000D02*
X0096879Y0140000D01*
X0096879Y0139901D02*
X0110949Y0139901D01*
X0110948Y0139803D02*
X0096880Y0139803D01*
X0096880Y0139704D02*
X0110948Y0139704D01*
X0110947Y0139606D02*
X0096880Y0139606D01*
X0096880Y0139507D02*
X0110946Y0139507D01*
X0110946Y0139409D02*
X0096881Y0139409D01*
X0096881Y0139310D02*
X0110945Y0139310D01*
X0110945Y0139212D02*
X0096881Y0139212D01*
X0096882Y0139113D02*
X0110944Y0139113D01*
X0110943Y0139015D02*
X0096882Y0139015D01*
X0096882Y0138916D02*
X0110943Y0138916D01*
X0110942Y0138817D02*
X0096883Y0138817D01*
X0096883Y0138719D02*
X0110942Y0138719D01*
X0110941Y0138620D02*
X0096883Y0138620D01*
X0096883Y0138522D02*
X0110940Y0138522D01*
X0110940Y0138423D02*
X0096884Y0138423D01*
X0096884Y0138325D02*
X0110939Y0138325D01*
X0110939Y0138226D02*
X0096884Y0138226D01*
X0096885Y0138128D02*
X0110938Y0138128D01*
X0110937Y0138029D02*
X0096885Y0138029D01*
X0096885Y0137931D02*
X0110937Y0137931D01*
X0110936Y0137832D02*
X0096885Y0137832D01*
X0096886Y0137734D02*
X0110936Y0137734D01*
X0110935Y0137635D02*
X0096886Y0137635D01*
X0096886Y0137537D02*
X0110934Y0137537D01*
X0110934Y0137438D02*
X0096887Y0137438D01*
X0096887Y0137340D02*
X0110933Y0137340D01*
X0110933Y0137241D02*
X0096887Y0137241D01*
X0096888Y0137143D02*
X0110932Y0137143D01*
X0110931Y0137044D02*
X0096888Y0137044D01*
X0096888Y0136946D02*
X0110931Y0136946D01*
X0110930Y0136847D02*
X0096888Y0136847D01*
X0096889Y0136749D02*
X0110930Y0136749D01*
X0110929Y0136650D02*
X0096889Y0136650D01*
X0096889Y0136552D02*
X0110928Y0136552D01*
X0110928Y0136453D02*
X0096890Y0136453D01*
X0096890Y0136355D02*
X0110927Y0136355D01*
X0110927Y0136256D02*
X0096890Y0136256D01*
X0096891Y0136158D02*
X0110926Y0136158D01*
X0110925Y0136059D02*
X0096891Y0136059D01*
X0096891Y0135961D02*
X0110925Y0135961D01*
X0110924Y0135862D02*
X0096891Y0135862D01*
X0096892Y0135764D02*
X0110924Y0135764D01*
X0110923Y0135665D02*
X0096892Y0135665D01*
X0096892Y0135567D02*
X0110922Y0135567D01*
X0110922Y0135468D02*
X0096893Y0135468D01*
X0096893Y0135370D02*
X0110921Y0135370D01*
X0110921Y0135271D02*
X0096893Y0135271D01*
X0096894Y0135173D02*
X0110920Y0135173D01*
X0110919Y0135074D02*
X0096894Y0135074D01*
X0096894Y0134976D02*
X0110919Y0134976D01*
X0110918Y0134877D02*
X0096894Y0134877D01*
X0096895Y0134779D02*
X0110918Y0134779D01*
X0110917Y0134680D02*
X0096895Y0134680D01*
X0096895Y0134581D02*
X0110894Y0134581D01*
X0110616Y0134483D02*
X0096896Y0134483D01*
X0096896Y0134384D02*
X0110337Y0134384D01*
X0110059Y0134286D02*
X0096896Y0134286D01*
X0096896Y0134187D02*
X0109781Y0134187D01*
X0109503Y0134089D02*
X0096897Y0134089D01*
X0096897Y0133990D02*
X0109224Y0133990D01*
X0108946Y0133892D02*
X0096897Y0133892D01*
X0096898Y0133793D02*
X0108668Y0133793D01*
X0108390Y0133695D02*
X0096898Y0133695D01*
X0096898Y0133596D02*
X0108112Y0133596D01*
X0107833Y0133498D02*
X0096899Y0133498D01*
X0096899Y0133399D02*
X0107555Y0133399D01*
X0107277Y0133301D02*
X0096899Y0133301D01*
X0096899Y0133202D02*
X0106999Y0133202D01*
X0106721Y0133104D02*
X0096900Y0133104D01*
X0096900Y0133005D02*
X0106442Y0133005D01*
X0106164Y0132907D02*
X0096900Y0132907D01*
X0096901Y0132808D02*
X0105886Y0132808D01*
X0105608Y0132710D02*
X0096901Y0132710D01*
X0096901Y0132611D02*
X0105330Y0132611D01*
X0105051Y0132513D02*
X0096902Y0132513D01*
X0096902Y0132414D02*
X0104773Y0132414D01*
X0104495Y0132316D02*
X0096902Y0132316D01*
X0096902Y0132217D02*
X0104217Y0132217D01*
X0103939Y0132119D02*
X0096903Y0132119D01*
X0096903Y0132020D02*
X0103660Y0132020D01*
X0103382Y0131922D02*
X0096903Y0131922D01*
X0096904Y0131823D02*
X0103104Y0131823D01*
X0102826Y0131725D02*
X0096904Y0131725D01*
X0096904Y0131626D02*
X0102547Y0131626D01*
X0102269Y0131528D02*
X0096905Y0131528D01*
X0096905Y0131429D02*
X0101991Y0131429D01*
X0101713Y0131331D02*
X0096905Y0131331D01*
X0096905Y0131232D02*
X0101435Y0131232D01*
X0101156Y0131134D02*
X0096906Y0131134D01*
X0096906Y0131035D02*
X0100878Y0131035D01*
X0100600Y0130937D02*
X0096906Y0130937D01*
X0096907Y0130838D02*
X0100322Y0130838D01*
X0100044Y0130740D02*
X0096907Y0130740D01*
X0096907Y0130641D02*
X0099765Y0130641D01*
X0099487Y0130543D02*
X0096908Y0130543D01*
X0096908Y0130444D02*
X0099209Y0130444D01*
X0098931Y0130346D02*
X0096908Y0130346D01*
X0096908Y0130247D02*
X0098653Y0130247D01*
X0098374Y0130148D02*
X0096909Y0130148D01*
X0096909Y0130050D02*
X0098096Y0130050D01*
X0097818Y0129951D02*
X0096909Y0129951D01*
X0096910Y0129853D02*
X0097540Y0129853D01*
X0097261Y0129754D02*
X0096910Y0129754D01*
X0096910Y0129656D02*
X0096983Y0129656D01*
X0096980Y0140591D02*
X0110953Y0140591D01*
X0110954Y0140689D02*
X0097241Y0140689D01*
X0097502Y0140788D02*
X0110954Y0140788D01*
X0110955Y0140886D02*
X0097764Y0140886D01*
X0098025Y0140985D02*
X0110956Y0140985D01*
X0110956Y0141083D02*
X0098286Y0141083D01*
X0098548Y0141182D02*
X0110957Y0141182D01*
X0110957Y0141280D02*
X0098809Y0141280D01*
X0099071Y0141379D02*
X0110958Y0141379D01*
X0110959Y0141477D02*
X0099332Y0141477D01*
X0099593Y0141576D02*
X0110959Y0141576D01*
X0110960Y0141674D02*
X0099855Y0141674D01*
X0100116Y0141773D02*
X0110960Y0141773D01*
X0110961Y0141871D02*
X0100377Y0141871D01*
X0100639Y0141970D02*
X0110962Y0141970D01*
X0110962Y0142068D02*
X0100900Y0142068D01*
X0101161Y0142167D02*
X0110963Y0142167D01*
X0110963Y0142265D02*
X0101423Y0142265D01*
X0101684Y0142364D02*
X0110964Y0142364D01*
X0110965Y0142462D02*
X0101946Y0142462D01*
X0102207Y0142561D02*
X0110965Y0142561D01*
X0110966Y0142659D02*
X0102468Y0142659D01*
X0102730Y0142758D02*
X0110966Y0142758D01*
X0110967Y0142856D02*
X0102991Y0142856D01*
X0103252Y0142955D02*
X0110968Y0142955D01*
X0110968Y0143053D02*
X0103514Y0143053D01*
X0103775Y0143152D02*
X0110969Y0143152D01*
X0110969Y0143250D02*
X0104037Y0143250D01*
X0104298Y0143349D02*
X0110970Y0143349D01*
X0110971Y0143448D02*
X0104559Y0143448D01*
X0104821Y0143546D02*
X0110971Y0143546D01*
X0110972Y0143645D02*
X0105082Y0143645D01*
X0105343Y0143743D02*
X0110972Y0143743D01*
X0110973Y0143842D02*
X0105605Y0143842D01*
X0105866Y0143940D02*
X0110974Y0143940D01*
X0110974Y0144039D02*
X0106127Y0144039D01*
X0106389Y0144137D02*
X0110975Y0144137D01*
X0110975Y0144236D02*
X0106650Y0144236D01*
X0106912Y0144334D02*
X0110976Y0144334D01*
X0110977Y0144433D02*
X0107173Y0144433D01*
X0107434Y0144531D02*
X0110977Y0144531D01*
X0110978Y0144630D02*
X0107696Y0144630D01*
X0107957Y0144728D02*
X0110978Y0144728D01*
X0110979Y0144827D02*
X0108218Y0144827D01*
X0108480Y0144925D02*
X0110980Y0144925D01*
X0110980Y0145024D02*
X0108741Y0145024D01*
X0109002Y0145122D02*
X0110981Y0145122D01*
X0110981Y0145221D02*
X0109264Y0145221D01*
X0109525Y0145319D02*
X0110982Y0145319D01*
X0110983Y0145418D02*
X0109787Y0145418D01*
X0110048Y0145516D02*
X0110983Y0145516D01*
X0110984Y0145615D02*
X0110309Y0145615D01*
X0110571Y0145713D02*
X0110984Y0145713D01*
X0110985Y0145812D02*
X0110832Y0145812D01*
X0217558Y0144577D02*
X0217586Y0119911D01*
X0225636Y0122611D01*
X0233545Y0119902D01*
X0233868Y0119737D01*
X0248295Y0125543D01*
X0248286Y0157139D01*
X0217569Y0144572D01*
X0217594Y0144566D01*
X0217575Y0144575D01*
X0217558Y0144577D01*
X0217559Y0144531D02*
X0248289Y0144531D01*
X0248290Y0144433D02*
X0217559Y0144433D01*
X0217559Y0144334D02*
X0248290Y0144334D01*
X0248290Y0144236D02*
X0217559Y0144236D01*
X0217559Y0144137D02*
X0248290Y0144137D01*
X0248290Y0144039D02*
X0217559Y0144039D01*
X0217559Y0143940D02*
X0248290Y0143940D01*
X0248290Y0143842D02*
X0217559Y0143842D01*
X0217559Y0143743D02*
X0248290Y0143743D01*
X0248290Y0143645D02*
X0217560Y0143645D01*
X0217560Y0143546D02*
X0248290Y0143546D01*
X0248290Y0143448D02*
X0217560Y0143448D01*
X0217560Y0143349D02*
X0248290Y0143349D01*
X0248290Y0143250D02*
X0217560Y0143250D01*
X0217560Y0143152D02*
X0248290Y0143152D01*
X0248290Y0143053D02*
X0217560Y0143053D01*
X0217560Y0142955D02*
X0248290Y0142955D01*
X0248290Y0142856D02*
X0217560Y0142856D01*
X0217561Y0142758D02*
X0248290Y0142758D01*
X0248290Y0142659D02*
X0217561Y0142659D01*
X0217561Y0142561D02*
X0248290Y0142561D01*
X0248290Y0142462D02*
X0217561Y0142462D01*
X0217561Y0142364D02*
X0248290Y0142364D01*
X0248290Y0142265D02*
X0217561Y0142265D01*
X0217561Y0142167D02*
X0248290Y0142167D01*
X0248290Y0142068D02*
X0217561Y0142068D01*
X0217561Y0141970D02*
X0248290Y0141970D01*
X0248290Y0141871D02*
X0217562Y0141871D01*
X0217562Y0141773D02*
X0248290Y0141773D01*
X0248290Y0141674D02*
X0217562Y0141674D01*
X0217562Y0141576D02*
X0248290Y0141576D01*
X0248290Y0141477D02*
X0217562Y0141477D01*
X0217562Y0141379D02*
X0248290Y0141379D01*
X0248290Y0141280D02*
X0217562Y0141280D01*
X0217562Y0141182D02*
X0248290Y0141182D01*
X0248290Y0141083D02*
X0217562Y0141083D01*
X0217563Y0140985D02*
X0248291Y0140985D01*
X0248291Y0140886D02*
X0217563Y0140886D01*
X0217563Y0140788D02*
X0248291Y0140788D01*
X0248291Y0140689D02*
X0217563Y0140689D01*
X0217563Y0140591D02*
X0248291Y0140591D01*
X0248291Y0140492D02*
X0217563Y0140492D01*
X0217563Y0140394D02*
X0248291Y0140394D01*
X0248291Y0140295D02*
X0217563Y0140295D01*
X0217563Y0140197D02*
X0248291Y0140197D01*
X0248291Y0140098D02*
X0217564Y0140098D01*
X0217564Y0140000D02*
X0248291Y0140000D01*
X0248291Y0139901D02*
X0217564Y0139901D01*
X0217564Y0139803D02*
X0248291Y0139803D01*
X0248291Y0139704D02*
X0217564Y0139704D01*
X0217564Y0139606D02*
X0248291Y0139606D01*
X0248291Y0139507D02*
X0217564Y0139507D01*
X0217564Y0139409D02*
X0248291Y0139409D01*
X0248291Y0139310D02*
X0217564Y0139310D01*
X0217565Y0139212D02*
X0248291Y0139212D01*
X0248291Y0139113D02*
X0217565Y0139113D01*
X0217565Y0139015D02*
X0248291Y0139015D01*
X0248291Y0138916D02*
X0217565Y0138916D01*
X0217565Y0138817D02*
X0248291Y0138817D01*
X0248291Y0138719D02*
X0217565Y0138719D01*
X0217565Y0138620D02*
X0248291Y0138620D01*
X0248291Y0138522D02*
X0217565Y0138522D01*
X0217565Y0138423D02*
X0248291Y0138423D01*
X0248291Y0138325D02*
X0217566Y0138325D01*
X0217566Y0138226D02*
X0248291Y0138226D01*
X0248291Y0138128D02*
X0217566Y0138128D01*
X0217566Y0138029D02*
X0248291Y0138029D01*
X0248291Y0137931D02*
X0217566Y0137931D01*
X0217566Y0137832D02*
X0248291Y0137832D01*
X0248291Y0137734D02*
X0217566Y0137734D01*
X0217566Y0137635D02*
X0248292Y0137635D01*
X0248292Y0137537D02*
X0217566Y0137537D01*
X0217567Y0137438D02*
X0248292Y0137438D01*
X0248292Y0137340D02*
X0217567Y0137340D01*
X0217567Y0137241D02*
X0248292Y0137241D01*
X0248292Y0137143D02*
X0217567Y0137143D01*
X0217567Y0137044D02*
X0248292Y0137044D01*
X0248292Y0136946D02*
X0217567Y0136946D01*
X0217567Y0136847D02*
X0248292Y0136847D01*
X0248292Y0136749D02*
X0217567Y0136749D01*
X0217567Y0136650D02*
X0248292Y0136650D01*
X0248292Y0136552D02*
X0217568Y0136552D01*
X0217568Y0136453D02*
X0248292Y0136453D01*
X0248292Y0136355D02*
X0217568Y0136355D01*
X0217568Y0136256D02*
X0248292Y0136256D01*
X0248292Y0136158D02*
X0217568Y0136158D01*
X0217568Y0136059D02*
X0248292Y0136059D01*
X0248292Y0135961D02*
X0217568Y0135961D01*
X0217568Y0135862D02*
X0248292Y0135862D01*
X0248292Y0135764D02*
X0217568Y0135764D01*
X0217569Y0135665D02*
X0248292Y0135665D01*
X0248292Y0135567D02*
X0217569Y0135567D01*
X0217569Y0135468D02*
X0248292Y0135468D01*
X0248292Y0135370D02*
X0217569Y0135370D01*
X0217569Y0135271D02*
X0248292Y0135271D01*
X0248292Y0135173D02*
X0217569Y0135173D01*
X0217569Y0135074D02*
X0248292Y0135074D01*
X0248292Y0134976D02*
X0217569Y0134976D01*
X0217569Y0134877D02*
X0248292Y0134877D01*
X0248292Y0134779D02*
X0217570Y0134779D01*
X0217570Y0134680D02*
X0248292Y0134680D01*
X0248292Y0134581D02*
X0217570Y0134581D01*
X0217570Y0134483D02*
X0248292Y0134483D01*
X0248292Y0134384D02*
X0217570Y0134384D01*
X0217570Y0134286D02*
X0248292Y0134286D01*
X0248293Y0134187D02*
X0217570Y0134187D01*
X0217570Y0134089D02*
X0248293Y0134089D01*
X0248293Y0133990D02*
X0217570Y0133990D01*
X0217571Y0133892D02*
X0248293Y0133892D01*
X0248293Y0133793D02*
X0217571Y0133793D01*
X0217571Y0133695D02*
X0248293Y0133695D01*
X0248293Y0133596D02*
X0217571Y0133596D01*
X0217571Y0133498D02*
X0248293Y0133498D01*
X0248293Y0133399D02*
X0217571Y0133399D01*
X0217571Y0133301D02*
X0248293Y0133301D01*
X0248293Y0133202D02*
X0217571Y0133202D01*
X0217571Y0133104D02*
X0248293Y0133104D01*
X0248293Y0133005D02*
X0217572Y0133005D01*
X0217572Y0132907D02*
X0248293Y0132907D01*
X0248293Y0132808D02*
X0217572Y0132808D01*
X0217572Y0132710D02*
X0248293Y0132710D01*
X0248293Y0132611D02*
X0217572Y0132611D01*
X0217572Y0132513D02*
X0248293Y0132513D01*
X0248293Y0132414D02*
X0217572Y0132414D01*
X0217572Y0132316D02*
X0248293Y0132316D01*
X0248293Y0132217D02*
X0217572Y0132217D01*
X0217573Y0132119D02*
X0248293Y0132119D01*
X0248293Y0132020D02*
X0217573Y0132020D01*
X0217573Y0131922D02*
X0248293Y0131922D01*
X0248293Y0131823D02*
X0217573Y0131823D01*
X0217573Y0131725D02*
X0248293Y0131725D01*
X0248293Y0131626D02*
X0217573Y0131626D01*
X0217573Y0131528D02*
X0248293Y0131528D01*
X0248293Y0131429D02*
X0217573Y0131429D01*
X0217573Y0131331D02*
X0248293Y0131331D01*
X0248293Y0131232D02*
X0217574Y0131232D01*
X0217574Y0131134D02*
X0248293Y0131134D01*
X0248293Y0131035D02*
X0217574Y0131035D01*
X0217574Y0130937D02*
X0248293Y0130937D01*
X0248294Y0130838D02*
X0217574Y0130838D01*
X0217574Y0130740D02*
X0248294Y0130740D01*
X0248294Y0130641D02*
X0217574Y0130641D01*
X0217574Y0130543D02*
X0248294Y0130543D01*
X0248294Y0130444D02*
X0217574Y0130444D01*
X0217575Y0130346D02*
X0248294Y0130346D01*
X0248294Y0130247D02*
X0217575Y0130247D01*
X0217575Y0130148D02*
X0248294Y0130148D01*
X0248294Y0130050D02*
X0217575Y0130050D01*
X0217575Y0129951D02*
X0248294Y0129951D01*
X0248294Y0129853D02*
X0217575Y0129853D01*
X0217575Y0129754D02*
X0248294Y0129754D01*
X0248294Y0129656D02*
X0217575Y0129656D01*
X0217575Y0129557D02*
X0248294Y0129557D01*
X0248294Y0129459D02*
X0217576Y0129459D01*
X0217576Y0129360D02*
X0248294Y0129360D01*
X0248294Y0129262D02*
X0217576Y0129262D01*
X0217576Y0129163D02*
X0248294Y0129163D01*
X0248294Y0129065D02*
X0217576Y0129065D01*
X0217576Y0128966D02*
X0248294Y0128966D01*
X0248294Y0128868D02*
X0217576Y0128868D01*
X0217576Y0128769D02*
X0248294Y0128769D01*
X0248294Y0128671D02*
X0217576Y0128671D01*
X0217577Y0128572D02*
X0248294Y0128572D01*
X0248294Y0128474D02*
X0217577Y0128474D01*
X0217577Y0128375D02*
X0248294Y0128375D01*
X0248294Y0128277D02*
X0217577Y0128277D01*
X0217577Y0128178D02*
X0248294Y0128178D01*
X0248294Y0128080D02*
X0217577Y0128080D01*
X0217577Y0127981D02*
X0248294Y0127981D01*
X0248294Y0127883D02*
X0217577Y0127883D01*
X0217577Y0127784D02*
X0248294Y0127784D01*
X0248294Y0127686D02*
X0217578Y0127686D01*
X0217578Y0127587D02*
X0248294Y0127587D01*
X0248294Y0127489D02*
X0217578Y0127489D01*
X0217578Y0127390D02*
X0248295Y0127390D01*
X0248295Y0127292D02*
X0217578Y0127292D01*
X0217578Y0127193D02*
X0248295Y0127193D01*
X0248295Y0127095D02*
X0217578Y0127095D01*
X0217578Y0126996D02*
X0248295Y0126996D01*
X0248295Y0126898D02*
X0217578Y0126898D01*
X0217579Y0126799D02*
X0248295Y0126799D01*
X0248295Y0126701D02*
X0217579Y0126701D01*
X0217579Y0126602D02*
X0248295Y0126602D01*
X0248295Y0126504D02*
X0217579Y0126504D01*
X0217579Y0126405D02*
X0248295Y0126405D01*
X0248295Y0126307D02*
X0217579Y0126307D01*
X0217579Y0126208D02*
X0248295Y0126208D01*
X0248295Y0126110D02*
X0217579Y0126110D01*
X0217579Y0126011D02*
X0248295Y0126011D01*
X0248295Y0125912D02*
X0217580Y0125912D01*
X0217580Y0125814D02*
X0248295Y0125814D01*
X0248295Y0125715D02*
X0217580Y0125715D01*
X0217580Y0125617D02*
X0248295Y0125617D01*
X0248234Y0125518D02*
X0217580Y0125518D01*
X0217580Y0125420D02*
X0247989Y0125420D01*
X0247745Y0125321D02*
X0217580Y0125321D01*
X0217580Y0125223D02*
X0247500Y0125223D01*
X0247255Y0125124D02*
X0217580Y0125124D01*
X0217581Y0125026D02*
X0247010Y0125026D01*
X0246766Y0124927D02*
X0217581Y0124927D01*
X0217581Y0124829D02*
X0246521Y0124829D01*
X0246276Y0124730D02*
X0217581Y0124730D01*
X0217581Y0124632D02*
X0246031Y0124632D01*
X0245786Y0124533D02*
X0217581Y0124533D01*
X0217581Y0124435D02*
X0245542Y0124435D01*
X0245297Y0124336D02*
X0217581Y0124336D01*
X0217581Y0124238D02*
X0245052Y0124238D01*
X0244807Y0124139D02*
X0217582Y0124139D01*
X0217582Y0124041D02*
X0244563Y0124041D01*
X0244318Y0123942D02*
X0217582Y0123942D01*
X0217582Y0123844D02*
X0244073Y0123844D01*
X0243828Y0123745D02*
X0217582Y0123745D01*
X0217582Y0123647D02*
X0243583Y0123647D01*
X0243339Y0123548D02*
X0217582Y0123548D01*
X0217582Y0123450D02*
X0243094Y0123450D01*
X0242849Y0123351D02*
X0217582Y0123351D01*
X0217583Y0123253D02*
X0242604Y0123253D01*
X0242360Y0123154D02*
X0217583Y0123154D01*
X0217583Y0123056D02*
X0242115Y0123056D01*
X0241870Y0122957D02*
X0217583Y0122957D01*
X0217583Y0122859D02*
X0241625Y0122859D01*
X0241380Y0122760D02*
X0217583Y0122760D01*
X0217583Y0122662D02*
X0241136Y0122662D01*
X0240891Y0122563D02*
X0225776Y0122563D01*
X0225493Y0122563D02*
X0217583Y0122563D01*
X0217583Y0122465D02*
X0225200Y0122465D01*
X0224906Y0122366D02*
X0217584Y0122366D01*
X0217584Y0122268D02*
X0224612Y0122268D01*
X0224318Y0122169D02*
X0217584Y0122169D01*
X0217584Y0122071D02*
X0224025Y0122071D01*
X0223731Y0121972D02*
X0217584Y0121972D01*
X0217584Y0121874D02*
X0223437Y0121874D01*
X0223144Y0121775D02*
X0217584Y0121775D01*
X0217584Y0121677D02*
X0222850Y0121677D01*
X0222556Y0121578D02*
X0217584Y0121578D01*
X0217585Y0121479D02*
X0222262Y0121479D01*
X0221969Y0121381D02*
X0217585Y0121381D01*
X0217585Y0121282D02*
X0221675Y0121282D01*
X0221381Y0121184D02*
X0217585Y0121184D01*
X0217585Y0121085D02*
X0221088Y0121085D01*
X0220794Y0120987D02*
X0217585Y0120987D01*
X0217585Y0120888D02*
X0220500Y0120888D01*
X0220207Y0120790D02*
X0217585Y0120790D01*
X0217585Y0120691D02*
X0219913Y0120691D01*
X0219619Y0120593D02*
X0217586Y0120593D01*
X0217586Y0120494D02*
X0219325Y0120494D01*
X0219032Y0120396D02*
X0217586Y0120396D01*
X0217586Y0120297D02*
X0218738Y0120297D01*
X0218444Y0120199D02*
X0217586Y0120199D01*
X0217586Y0120100D02*
X0218151Y0120100D01*
X0217857Y0120002D02*
X0217586Y0120002D01*
X0226064Y0122465D02*
X0240646Y0122465D01*
X0240401Y0122366D02*
X0226352Y0122366D01*
X0226639Y0122268D02*
X0240157Y0122268D01*
X0239912Y0122169D02*
X0226927Y0122169D01*
X0227214Y0122071D02*
X0239667Y0122071D01*
X0239422Y0121972D02*
X0227502Y0121972D01*
X0227789Y0121874D02*
X0239177Y0121874D01*
X0238933Y0121775D02*
X0228077Y0121775D01*
X0228365Y0121677D02*
X0238688Y0121677D01*
X0238443Y0121578D02*
X0228652Y0121578D01*
X0228940Y0121479D02*
X0238198Y0121479D01*
X0237953Y0121381D02*
X0229227Y0121381D01*
X0229515Y0121282D02*
X0237709Y0121282D01*
X0237464Y0121184D02*
X0229802Y0121184D01*
X0230090Y0121085D02*
X0237219Y0121085D01*
X0236974Y0120987D02*
X0230378Y0120987D01*
X0230665Y0120888D02*
X0236730Y0120888D01*
X0236485Y0120790D02*
X0230953Y0120790D01*
X0231240Y0120691D02*
X0236240Y0120691D01*
X0235995Y0120593D02*
X0231528Y0120593D01*
X0231816Y0120494D02*
X0235750Y0120494D01*
X0235506Y0120396D02*
X0232103Y0120396D01*
X0232391Y0120297D02*
X0235261Y0120297D01*
X0235016Y0120199D02*
X0232678Y0120199D01*
X0232966Y0120100D02*
X0234771Y0120100D01*
X0234527Y0120002D02*
X0233253Y0120002D01*
X0233541Y0119903D02*
X0234282Y0119903D01*
X0234037Y0119805D02*
X0233735Y0119805D01*
X0264582Y0119706D02*
X0297412Y0119706D01*
X0297412Y0119608D02*
X0264582Y0119608D01*
X0264582Y0119509D02*
X0297412Y0119509D01*
X0297412Y0119411D02*
X0264582Y0119411D01*
X0264582Y0119312D02*
X0297412Y0119312D01*
X0297412Y0119214D02*
X0264582Y0119214D01*
X0264582Y0119115D02*
X0297412Y0119115D01*
X0297412Y0119017D02*
X0264581Y0119017D01*
X0264581Y0118918D02*
X0297412Y0118918D01*
X0297412Y0118820D02*
X0264581Y0118820D01*
X0264581Y0118721D02*
X0297412Y0118721D01*
X0297412Y0118623D02*
X0264581Y0118623D01*
X0264581Y0118524D02*
X0297412Y0118524D01*
X0297412Y0118426D02*
X0264580Y0118426D01*
X0264580Y0118327D02*
X0297412Y0118327D01*
X0297411Y0118229D02*
X0264580Y0118229D01*
X0264580Y0118130D02*
X0297411Y0118130D01*
X0297411Y0118032D02*
X0264580Y0118032D01*
X0264580Y0117933D02*
X0297411Y0117933D01*
X0297411Y0117835D02*
X0264580Y0117835D01*
X0264579Y0117736D02*
X0297411Y0117736D01*
X0297411Y0117638D02*
X0264579Y0117638D01*
X0264579Y0117539D02*
X0297411Y0117539D01*
X0297411Y0117441D02*
X0264579Y0117441D01*
X0264579Y0117342D02*
X0297411Y0117342D01*
X0297411Y0117244D02*
X0264579Y0117244D01*
X0264579Y0117145D02*
X0297411Y0117145D01*
X0297411Y0117046D02*
X0264578Y0117046D01*
X0264578Y0116948D02*
X0297411Y0116948D01*
X0297411Y0116849D02*
X0264578Y0116849D01*
X0264578Y0116751D02*
X0297411Y0116751D01*
X0297411Y0116652D02*
X0264578Y0116652D01*
X0264578Y0116554D02*
X0297411Y0116554D01*
X0297411Y0116455D02*
X0264577Y0116455D01*
X0264577Y0116357D02*
X0297411Y0116357D01*
X0297411Y0116258D02*
X0264577Y0116258D01*
X0264577Y0116160D02*
X0297411Y0116160D01*
X0297411Y0116061D02*
X0264577Y0116061D01*
X0264577Y0115963D02*
X0297411Y0115963D01*
X0297411Y0115864D02*
X0264577Y0115864D01*
X0264576Y0115766D02*
X0297411Y0115766D01*
X0297411Y0115667D02*
X0264576Y0115667D01*
X0264576Y0115569D02*
X0297410Y0115569D01*
X0297410Y0115470D02*
X0264576Y0115470D01*
X0264576Y0115372D02*
X0297410Y0115372D01*
X0297410Y0115273D02*
X0264576Y0115273D01*
X0264575Y0115175D02*
X0297410Y0115175D01*
X0297410Y0115076D02*
X0264575Y0115076D01*
X0264575Y0114978D02*
X0297410Y0114978D01*
X0297410Y0114879D02*
X0264575Y0114879D01*
X0264575Y0114781D02*
X0297410Y0114781D01*
X0297410Y0114682D02*
X0264575Y0114682D01*
X0264575Y0114584D02*
X0297410Y0114584D01*
X0297410Y0114485D02*
X0264574Y0114485D01*
X0264574Y0114387D02*
X0297410Y0114387D01*
X0297410Y0114288D02*
X0264574Y0114288D01*
X0264574Y0114190D02*
X0297410Y0114190D01*
X0297410Y0114091D02*
X0264574Y0114091D01*
X0264574Y0113993D02*
X0297410Y0113993D01*
X0297410Y0113894D02*
X0264574Y0113894D01*
X0264573Y0113796D02*
X0297410Y0113796D01*
X0297410Y0113697D02*
X0264573Y0113697D01*
X0264573Y0113599D02*
X0297410Y0113599D01*
X0297410Y0113500D02*
X0264573Y0113500D01*
X0264573Y0113402D02*
X0297410Y0113402D01*
X0297410Y0113303D02*
X0264573Y0113303D01*
X0264572Y0113205D02*
X0297410Y0113205D01*
X0297410Y0113106D02*
X0264572Y0113106D01*
X0264572Y0113008D02*
X0297409Y0113008D01*
X0297409Y0112909D02*
X0264572Y0112909D01*
X0264572Y0112810D02*
X0297409Y0112810D01*
X0297409Y0112712D02*
X0264572Y0112712D01*
X0264572Y0112613D02*
X0297409Y0112613D01*
X0297409Y0112515D02*
X0264571Y0112515D01*
X0264571Y0112416D02*
X0297409Y0112416D01*
X0297409Y0112318D02*
X0264571Y0112318D01*
X0264571Y0112219D02*
X0297409Y0112219D01*
X0297409Y0112121D02*
X0264571Y0112121D01*
X0264571Y0112022D02*
X0297409Y0112022D01*
X0297409Y0111924D02*
X0264571Y0111924D01*
X0264570Y0111825D02*
X0297409Y0111825D01*
X0297409Y0111727D02*
X0264570Y0111727D01*
X0264570Y0111628D02*
X0297409Y0111628D01*
X0297409Y0111530D02*
X0264570Y0111530D01*
X0264570Y0111431D02*
X0297409Y0111431D01*
X0297409Y0111333D02*
X0264570Y0111333D01*
X0264569Y0111234D02*
X0297409Y0111234D01*
X0297409Y0111136D02*
X0264569Y0111136D01*
X0264569Y0111037D02*
X0297409Y0111037D01*
X0297409Y0110939D02*
X0264569Y0110939D01*
X0264569Y0110840D02*
X0297409Y0110840D01*
X0297409Y0110742D02*
X0264569Y0110742D01*
X0264569Y0110643D02*
X0297409Y0110643D01*
X0297409Y0110545D02*
X0264568Y0110545D01*
X0264568Y0110446D02*
X0297409Y0110446D01*
X0297408Y0110348D02*
X0264568Y0110348D01*
X0264568Y0110249D02*
X0297408Y0110249D01*
X0297408Y0110151D02*
X0264568Y0110151D01*
X0264568Y0110052D02*
X0297408Y0110052D01*
X0297408Y0109954D02*
X0264568Y0109954D01*
X0264567Y0109934D02*
X0297404Y0098959D01*
X0297424Y0151734D01*
X0293614Y0150264D01*
X0264609Y0137269D01*
X0264567Y0109934D01*
X0264803Y0109855D02*
X0297408Y0109855D01*
X0297408Y0109757D02*
X0265097Y0109757D01*
X0265392Y0109658D02*
X0297408Y0109658D01*
X0297408Y0109560D02*
X0265687Y0109560D01*
X0265982Y0109461D02*
X0297408Y0109461D01*
X0297408Y0109363D02*
X0266276Y0109363D01*
X0266571Y0109264D02*
X0297408Y0109264D01*
X0297408Y0109166D02*
X0266866Y0109166D01*
X0267161Y0109067D02*
X0297408Y0109067D01*
X0297408Y0108969D02*
X0267455Y0108969D01*
X0267750Y0108870D02*
X0297408Y0108870D01*
X0297408Y0108772D02*
X0268045Y0108772D01*
X0268339Y0108673D02*
X0297408Y0108673D01*
X0297408Y0108575D02*
X0268634Y0108575D01*
X0268929Y0108476D02*
X0297408Y0108476D01*
X0297408Y0108377D02*
X0269224Y0108377D01*
X0269518Y0108279D02*
X0297408Y0108279D01*
X0297408Y0108180D02*
X0269813Y0108180D01*
X0270108Y0108082D02*
X0297408Y0108082D01*
X0297408Y0107983D02*
X0270403Y0107983D01*
X0270697Y0107885D02*
X0297408Y0107885D01*
X0297408Y0107786D02*
X0270992Y0107786D01*
X0271287Y0107688D02*
X0297407Y0107688D01*
X0297407Y0107589D02*
X0271582Y0107589D01*
X0271876Y0107491D02*
X0297407Y0107491D01*
X0297407Y0107392D02*
X0272171Y0107392D01*
X0272466Y0107294D02*
X0297407Y0107294D01*
X0297407Y0107195D02*
X0272761Y0107195D01*
X0273055Y0107097D02*
X0297407Y0107097D01*
X0297407Y0106998D02*
X0273350Y0106998D01*
X0273645Y0106900D02*
X0297407Y0106900D01*
X0297407Y0106801D02*
X0273939Y0106801D01*
X0274234Y0106703D02*
X0297407Y0106703D01*
X0297407Y0106604D02*
X0274529Y0106604D01*
X0274824Y0106506D02*
X0297407Y0106506D01*
X0297407Y0106407D02*
X0275118Y0106407D01*
X0275413Y0106309D02*
X0297407Y0106309D01*
X0297407Y0106210D02*
X0275708Y0106210D01*
X0276003Y0106112D02*
X0297407Y0106112D01*
X0297407Y0106013D02*
X0276297Y0106013D01*
X0276592Y0105915D02*
X0297407Y0105915D01*
X0297407Y0105816D02*
X0276887Y0105816D01*
X0277182Y0105718D02*
X0297407Y0105718D01*
X0297407Y0105619D02*
X0277476Y0105619D01*
X0277771Y0105521D02*
X0297407Y0105521D01*
X0297407Y0105422D02*
X0278066Y0105422D01*
X0278361Y0105324D02*
X0297407Y0105324D01*
X0297407Y0105225D02*
X0278655Y0105225D01*
X0278950Y0105127D02*
X0297406Y0105127D01*
X0297406Y0105028D02*
X0279245Y0105028D01*
X0279540Y0104930D02*
X0297406Y0104930D01*
X0297406Y0104831D02*
X0279834Y0104831D01*
X0280129Y0104733D02*
X0297406Y0104733D01*
X0297406Y0104634D02*
X0280424Y0104634D01*
X0280718Y0104536D02*
X0297406Y0104536D01*
X0297406Y0104437D02*
X0281013Y0104437D01*
X0281308Y0104339D02*
X0297406Y0104339D01*
X0297406Y0104240D02*
X0281603Y0104240D01*
X0281897Y0104141D02*
X0297406Y0104141D01*
X0297406Y0104043D02*
X0282192Y0104043D01*
X0282487Y0103944D02*
X0297406Y0103944D01*
X0297406Y0103846D02*
X0282782Y0103846D01*
X0283076Y0103747D02*
X0297406Y0103747D01*
X0297406Y0103649D02*
X0283371Y0103649D01*
X0283666Y0103550D02*
X0297406Y0103550D01*
X0297406Y0103452D02*
X0283961Y0103452D01*
X0284255Y0103353D02*
X0297406Y0103353D01*
X0297406Y0103255D02*
X0284550Y0103255D01*
X0284845Y0103156D02*
X0297406Y0103156D01*
X0297406Y0103058D02*
X0285140Y0103058D01*
X0285434Y0102959D02*
X0297406Y0102959D01*
X0297406Y0102861D02*
X0285729Y0102861D01*
X0286024Y0102762D02*
X0297406Y0102762D01*
X0297406Y0102664D02*
X0286318Y0102664D01*
X0286613Y0102565D02*
X0297406Y0102565D01*
X0297405Y0102467D02*
X0286908Y0102467D01*
X0287203Y0102368D02*
X0297405Y0102368D01*
X0297405Y0102270D02*
X0287497Y0102270D01*
X0287792Y0102171D02*
X0297405Y0102171D01*
X0297405Y0102073D02*
X0288087Y0102073D01*
X0288382Y0101974D02*
X0297405Y0101974D01*
X0297405Y0101876D02*
X0288676Y0101876D01*
X0288971Y0101777D02*
X0297405Y0101777D01*
X0297405Y0101679D02*
X0289266Y0101679D01*
X0289561Y0101580D02*
X0297405Y0101580D01*
X0297405Y0101482D02*
X0289855Y0101482D01*
X0290150Y0101383D02*
X0297405Y0101383D01*
X0297405Y0101285D02*
X0290445Y0101285D01*
X0290740Y0101186D02*
X0297405Y0101186D01*
X0297405Y0101088D02*
X0291034Y0101088D01*
X0291329Y0100989D02*
X0297405Y0100989D01*
X0297405Y0100891D02*
X0291624Y0100891D01*
X0291918Y0100792D02*
X0297405Y0100792D01*
X0297405Y0100694D02*
X0292213Y0100694D01*
X0292508Y0100595D02*
X0297405Y0100595D01*
X0297405Y0100497D02*
X0292803Y0100497D01*
X0293097Y0100398D02*
X0297405Y0100398D01*
X0297405Y0100300D02*
X0293392Y0100300D01*
X0293687Y0100201D02*
X0297405Y0100201D01*
X0297405Y0100103D02*
X0293982Y0100103D01*
X0294276Y0100004D02*
X0297405Y0100004D01*
X0297405Y0099906D02*
X0294571Y0099906D01*
X0294866Y0099807D02*
X0297404Y0099807D01*
X0297404Y0099708D02*
X0295161Y0099708D01*
X0295455Y0099610D02*
X0297404Y0099610D01*
X0297404Y0099511D02*
X0295750Y0099511D01*
X0296045Y0099413D02*
X0297404Y0099413D01*
X0297404Y0099314D02*
X0296340Y0099314D01*
X0296634Y0099216D02*
X0297404Y0099216D01*
X0297404Y0099117D02*
X0296929Y0099117D01*
X0297224Y0099019D02*
X0297404Y0099019D01*
X0297550Y0093458D02*
X0292821Y0091938D01*
X0263902Y0081976D01*
X0263960Y0053722D01*
X0297513Y0039372D01*
X0297550Y0093458D01*
X0297550Y0093404D02*
X0297380Y0093404D01*
X0297550Y0093305D02*
X0297074Y0093305D01*
X0296767Y0093207D02*
X0297549Y0093207D01*
X0297549Y0093108D02*
X0296461Y0093108D01*
X0296154Y0093010D02*
X0297549Y0093010D01*
X0297549Y0092911D02*
X0295848Y0092911D01*
X0295541Y0092813D02*
X0297549Y0092813D01*
X0297549Y0092714D02*
X0295235Y0092714D01*
X0294928Y0092616D02*
X0297549Y0092616D01*
X0297549Y0092517D02*
X0294622Y0092517D01*
X0294315Y0092419D02*
X0297549Y0092419D01*
X0297549Y0092320D02*
X0294009Y0092320D01*
X0293702Y0092222D02*
X0297549Y0092222D01*
X0297549Y0092123D02*
X0293395Y0092123D01*
X0293089Y0092025D02*
X0297549Y0092025D01*
X0297549Y0091926D02*
X0292785Y0091926D01*
X0292499Y0091828D02*
X0297549Y0091828D01*
X0297548Y0091729D02*
X0292213Y0091729D01*
X0291927Y0091631D02*
X0297548Y0091631D01*
X0297548Y0091532D02*
X0291641Y0091532D01*
X0291355Y0091434D02*
X0297548Y0091434D01*
X0297548Y0091335D02*
X0291069Y0091335D01*
X0290783Y0091237D02*
X0297548Y0091237D01*
X0297548Y0091138D02*
X0290497Y0091138D01*
X0290211Y0091039D02*
X0297548Y0091039D01*
X0297548Y0090941D02*
X0289926Y0090941D01*
X0289640Y0090842D02*
X0297548Y0090842D01*
X0297548Y0090744D02*
X0289354Y0090744D01*
X0289068Y0090645D02*
X0297548Y0090645D01*
X0297548Y0090547D02*
X0288782Y0090547D01*
X0288496Y0090448D02*
X0297548Y0090448D01*
X0297548Y0090350D02*
X0288210Y0090350D01*
X0287924Y0090251D02*
X0297547Y0090251D01*
X0297547Y0090153D02*
X0287638Y0090153D01*
X0287352Y0090054D02*
X0297547Y0090054D01*
X0297547Y0089956D02*
X0287066Y0089956D01*
X0286780Y0089857D02*
X0297547Y0089857D01*
X0297547Y0089759D02*
X0286494Y0089759D01*
X0286208Y0089660D02*
X0297547Y0089660D01*
X0297547Y0089562D02*
X0285922Y0089562D01*
X0285636Y0089463D02*
X0297547Y0089463D01*
X0297547Y0089365D02*
X0285350Y0089365D01*
X0285064Y0089266D02*
X0297547Y0089266D01*
X0297547Y0089168D02*
X0284778Y0089168D01*
X0284492Y0089069D02*
X0297547Y0089069D01*
X0297547Y0088971D02*
X0284207Y0088971D01*
X0283921Y0088872D02*
X0297547Y0088872D01*
X0297546Y0088774D02*
X0283635Y0088774D01*
X0283349Y0088675D02*
X0297546Y0088675D01*
X0297546Y0088577D02*
X0283063Y0088577D01*
X0282777Y0088478D02*
X0297546Y0088478D01*
X0297546Y0088380D02*
X0282491Y0088380D01*
X0282205Y0088281D02*
X0297546Y0088281D01*
X0297546Y0088183D02*
X0281919Y0088183D01*
X0281633Y0088084D02*
X0297546Y0088084D01*
X0297546Y0087986D02*
X0281347Y0087986D01*
X0281061Y0087887D02*
X0297546Y0087887D01*
X0297546Y0087789D02*
X0280775Y0087789D01*
X0280489Y0087690D02*
X0297546Y0087690D01*
X0297546Y0087592D02*
X0280203Y0087592D01*
X0279917Y0087493D02*
X0297546Y0087493D01*
X0297546Y0087395D02*
X0279631Y0087395D01*
X0279345Y0087296D02*
X0297545Y0087296D01*
X0297545Y0087198D02*
X0279059Y0087198D01*
X0278774Y0087099D02*
X0297545Y0087099D01*
X0297545Y0087001D02*
X0278488Y0087001D01*
X0278202Y0086902D02*
X0297545Y0086902D01*
X0297545Y0086804D02*
X0277916Y0086804D01*
X0277630Y0086705D02*
X0297545Y0086705D01*
X0297545Y0086606D02*
X0277344Y0086606D01*
X0277058Y0086508D02*
X0297545Y0086508D01*
X0297545Y0086409D02*
X0276772Y0086409D01*
X0276486Y0086311D02*
X0297545Y0086311D01*
X0297545Y0086212D02*
X0276200Y0086212D01*
X0275914Y0086114D02*
X0297545Y0086114D01*
X0297545Y0086015D02*
X0275628Y0086015D01*
X0275342Y0085917D02*
X0297545Y0085917D01*
X0297544Y0085818D02*
X0275056Y0085818D01*
X0274770Y0085720D02*
X0297544Y0085720D01*
X0297544Y0085621D02*
X0274484Y0085621D01*
X0274198Y0085523D02*
X0297544Y0085523D01*
X0297544Y0085424D02*
X0273912Y0085424D01*
X0273626Y0085326D02*
X0297544Y0085326D01*
X0297544Y0085227D02*
X0273341Y0085227D01*
X0273055Y0085129D02*
X0297544Y0085129D01*
X0297544Y0085030D02*
X0272769Y0085030D01*
X0272483Y0084932D02*
X0297544Y0084932D01*
X0297544Y0084833D02*
X0272197Y0084833D01*
X0271911Y0084735D02*
X0297544Y0084735D01*
X0297544Y0084636D02*
X0271625Y0084636D01*
X0271339Y0084538D02*
X0297544Y0084538D01*
X0297544Y0084439D02*
X0271053Y0084439D01*
X0270767Y0084341D02*
X0297543Y0084341D01*
X0297543Y0084242D02*
X0270481Y0084242D01*
X0270195Y0084144D02*
X0297543Y0084144D01*
X0297543Y0084045D02*
X0269909Y0084045D01*
X0269623Y0083947D02*
X0297543Y0083947D01*
X0297543Y0083848D02*
X0269337Y0083848D01*
X0269051Y0083750D02*
X0297543Y0083750D01*
X0297543Y0083651D02*
X0268765Y0083651D01*
X0268479Y0083553D02*
X0297543Y0083553D01*
X0297543Y0083454D02*
X0268193Y0083454D01*
X0267908Y0083356D02*
X0297543Y0083356D01*
X0297543Y0083257D02*
X0267622Y0083257D01*
X0267336Y0083159D02*
X0297543Y0083159D01*
X0297543Y0083060D02*
X0267050Y0083060D01*
X0266764Y0082962D02*
X0297542Y0082962D01*
X0297542Y0082863D02*
X0266478Y0082863D01*
X0266192Y0082765D02*
X0297542Y0082765D01*
X0297542Y0082666D02*
X0265906Y0082666D01*
X0265620Y0082568D02*
X0297542Y0082568D01*
X0297542Y0082469D02*
X0265334Y0082469D01*
X0265048Y0082370D02*
X0297542Y0082370D01*
X0297542Y0082272D02*
X0264762Y0082272D01*
X0264476Y0082173D02*
X0297542Y0082173D01*
X0297542Y0082075D02*
X0264190Y0082075D01*
X0263904Y0081976D02*
X0297542Y0081976D01*
X0297542Y0081878D02*
X0263902Y0081878D01*
X0263903Y0081779D02*
X0297542Y0081779D01*
X0297542Y0081681D02*
X0263903Y0081681D01*
X0263903Y0081582D02*
X0297542Y0081582D01*
X0297541Y0081484D02*
X0263903Y0081484D01*
X0263903Y0081385D02*
X0297541Y0081385D01*
X0297541Y0081287D02*
X0263904Y0081287D01*
X0263904Y0081188D02*
X0297541Y0081188D01*
X0297541Y0081090D02*
X0263904Y0081090D01*
X0263904Y0080991D02*
X0297541Y0080991D01*
X0297541Y0080893D02*
X0263904Y0080893D01*
X0263905Y0080794D02*
X0297541Y0080794D01*
X0297541Y0080696D02*
X0263905Y0080696D01*
X0263905Y0080597D02*
X0297541Y0080597D01*
X0297541Y0080499D02*
X0263905Y0080499D01*
X0263905Y0080400D02*
X0297541Y0080400D01*
X0297541Y0080302D02*
X0263906Y0080302D01*
X0263906Y0080203D02*
X0297541Y0080203D01*
X0297541Y0080105D02*
X0263906Y0080105D01*
X0263906Y0080006D02*
X0297540Y0080006D01*
X0297540Y0079908D02*
X0263906Y0079908D01*
X0263907Y0079809D02*
X0297540Y0079809D01*
X0297540Y0079711D02*
X0263907Y0079711D01*
X0263907Y0079612D02*
X0297540Y0079612D01*
X0297540Y0079514D02*
X0263907Y0079514D01*
X0263907Y0079415D02*
X0297540Y0079415D01*
X0297540Y0079317D02*
X0263908Y0079317D01*
X0263908Y0079218D02*
X0297540Y0079218D01*
X0297540Y0079120D02*
X0263908Y0079120D01*
X0263908Y0079021D02*
X0297540Y0079021D01*
X0297540Y0078923D02*
X0263908Y0078923D01*
X0263909Y0078824D02*
X0297540Y0078824D01*
X0297540Y0078726D02*
X0263909Y0078726D01*
X0263909Y0078627D02*
X0297540Y0078627D01*
X0297539Y0078529D02*
X0263909Y0078529D01*
X0263909Y0078430D02*
X0297539Y0078430D01*
X0297539Y0078332D02*
X0263910Y0078332D01*
X0263910Y0078233D02*
X0297539Y0078233D01*
X0297539Y0078135D02*
X0263910Y0078135D01*
X0263910Y0078036D02*
X0297539Y0078036D01*
X0297539Y0077937D02*
X0263910Y0077937D01*
X0263911Y0077839D02*
X0297539Y0077839D01*
X0297539Y0077740D02*
X0263911Y0077740D01*
X0263911Y0077642D02*
X0297539Y0077642D01*
X0297539Y0077543D02*
X0263911Y0077543D01*
X0263911Y0077445D02*
X0297539Y0077445D01*
X0297539Y0077346D02*
X0263912Y0077346D01*
X0263912Y0077248D02*
X0297539Y0077248D01*
X0297539Y0077149D02*
X0263912Y0077149D01*
X0263912Y0077051D02*
X0297538Y0077051D01*
X0297538Y0076952D02*
X0263912Y0076952D01*
X0263913Y0076854D02*
X0297538Y0076854D01*
X0297538Y0076755D02*
X0263913Y0076755D01*
X0263913Y0076657D02*
X0297538Y0076657D01*
X0297538Y0076558D02*
X0263913Y0076558D01*
X0263913Y0076460D02*
X0297538Y0076460D01*
X0297538Y0076361D02*
X0263914Y0076361D01*
X0263914Y0076263D02*
X0297538Y0076263D01*
X0297538Y0076164D02*
X0263914Y0076164D01*
X0263914Y0076066D02*
X0297538Y0076066D01*
X0297538Y0075967D02*
X0263914Y0075967D01*
X0263915Y0075869D02*
X0297538Y0075869D01*
X0297538Y0075770D02*
X0263915Y0075770D01*
X0263915Y0075672D02*
X0297538Y0075672D01*
X0297537Y0075573D02*
X0263915Y0075573D01*
X0263915Y0075475D02*
X0297537Y0075475D01*
X0297537Y0075376D02*
X0263916Y0075376D01*
X0263916Y0075278D02*
X0297537Y0075278D01*
X0297537Y0075179D02*
X0263916Y0075179D01*
X0263916Y0075081D02*
X0297537Y0075081D01*
X0297537Y0074982D02*
X0263916Y0074982D01*
X0263917Y0074884D02*
X0297537Y0074884D01*
X0297537Y0074785D02*
X0263917Y0074785D01*
X0263917Y0074687D02*
X0297537Y0074687D01*
X0297537Y0074588D02*
X0263917Y0074588D01*
X0263917Y0074490D02*
X0297537Y0074490D01*
X0297537Y0074391D02*
X0263918Y0074391D01*
X0263918Y0074293D02*
X0297537Y0074293D01*
X0297537Y0074194D02*
X0263918Y0074194D01*
X0263918Y0074096D02*
X0297536Y0074096D01*
X0297536Y0073997D02*
X0263918Y0073997D01*
X0263919Y0073899D02*
X0297536Y0073899D01*
X0297536Y0073800D02*
X0263919Y0073800D01*
X0263919Y0073702D02*
X0297536Y0073702D01*
X0297536Y0073603D02*
X0263919Y0073603D01*
X0263919Y0073504D02*
X0297536Y0073504D01*
X0297536Y0073406D02*
X0263920Y0073406D01*
X0263920Y0073307D02*
X0297536Y0073307D01*
X0297536Y0073209D02*
X0263920Y0073209D01*
X0263920Y0073110D02*
X0297536Y0073110D01*
X0297536Y0073012D02*
X0263920Y0073012D01*
X0263921Y0072913D02*
X0297536Y0072913D01*
X0297536Y0072815D02*
X0263921Y0072815D01*
X0263921Y0072716D02*
X0297536Y0072716D01*
X0297535Y0072618D02*
X0263921Y0072618D01*
X0263921Y0072519D02*
X0297535Y0072519D01*
X0297535Y0072421D02*
X0263922Y0072421D01*
X0263922Y0072322D02*
X0297535Y0072322D01*
X0297535Y0072224D02*
X0263922Y0072224D01*
X0263922Y0072125D02*
X0297535Y0072125D01*
X0297535Y0072027D02*
X0263922Y0072027D01*
X0263923Y0071928D02*
X0297535Y0071928D01*
X0297535Y0071830D02*
X0263923Y0071830D01*
X0263923Y0071731D02*
X0297535Y0071731D01*
X0297535Y0071633D02*
X0263923Y0071633D01*
X0263923Y0071534D02*
X0297535Y0071534D01*
X0297535Y0071436D02*
X0263924Y0071436D01*
X0263924Y0071337D02*
X0297535Y0071337D01*
X0297535Y0071239D02*
X0263924Y0071239D01*
X0263924Y0071140D02*
X0297534Y0071140D01*
X0297534Y0071042D02*
X0263924Y0071042D01*
X0263925Y0070943D02*
X0297534Y0070943D01*
X0297534Y0070845D02*
X0263925Y0070845D01*
X0263925Y0070746D02*
X0297534Y0070746D01*
X0297534Y0070648D02*
X0263925Y0070648D01*
X0263925Y0070549D02*
X0297534Y0070549D01*
X0297534Y0070451D02*
X0263926Y0070451D01*
X0263926Y0070352D02*
X0297534Y0070352D01*
X0297534Y0070254D02*
X0263926Y0070254D01*
X0263926Y0070155D02*
X0297534Y0070155D01*
X0297534Y0070057D02*
X0263926Y0070057D01*
X0263927Y0069958D02*
X0297534Y0069958D01*
X0297534Y0069860D02*
X0263927Y0069860D01*
X0263927Y0069761D02*
X0297534Y0069761D01*
X0297533Y0069663D02*
X0263927Y0069663D01*
X0263927Y0069564D02*
X0297533Y0069564D01*
X0297533Y0069466D02*
X0263928Y0069466D01*
X0263928Y0069367D02*
X0297533Y0069367D01*
X0297533Y0069268D02*
X0263928Y0069268D01*
X0263928Y0069170D02*
X0297533Y0069170D01*
X0297533Y0069071D02*
X0263928Y0069071D01*
X0263929Y0068973D02*
X0297533Y0068973D01*
X0297533Y0068874D02*
X0263929Y0068874D01*
X0263929Y0068776D02*
X0297533Y0068776D01*
X0297533Y0068677D02*
X0263929Y0068677D01*
X0263929Y0068579D02*
X0297533Y0068579D01*
X0297533Y0068480D02*
X0263930Y0068480D01*
X0263930Y0068382D02*
X0297533Y0068382D01*
X0297532Y0068283D02*
X0263930Y0068283D01*
X0263930Y0068185D02*
X0297532Y0068185D01*
X0297532Y0068086D02*
X0263930Y0068086D01*
X0263931Y0067988D02*
X0297532Y0067988D01*
X0297532Y0067889D02*
X0263931Y0067889D01*
X0263931Y0067791D02*
X0297532Y0067791D01*
X0297532Y0067692D02*
X0263931Y0067692D01*
X0263931Y0067594D02*
X0297532Y0067594D01*
X0297532Y0067495D02*
X0263932Y0067495D01*
X0263932Y0067397D02*
X0297532Y0067397D01*
X0297532Y0067298D02*
X0263932Y0067298D01*
X0263932Y0067200D02*
X0297532Y0067200D01*
X0297532Y0067101D02*
X0263932Y0067101D01*
X0263933Y0067003D02*
X0297532Y0067003D01*
X0297532Y0066904D02*
X0263933Y0066904D01*
X0263933Y0066806D02*
X0297531Y0066806D01*
X0297531Y0066707D02*
X0263933Y0066707D01*
X0263934Y0066609D02*
X0297531Y0066609D01*
X0297531Y0066510D02*
X0263934Y0066510D01*
X0263934Y0066412D02*
X0297531Y0066412D01*
X0297531Y0066313D02*
X0263934Y0066313D01*
X0263934Y0066215D02*
X0297531Y0066215D01*
X0297531Y0066116D02*
X0263934Y0066116D01*
X0263935Y0066018D02*
X0297531Y0066018D01*
X0297531Y0065919D02*
X0263935Y0065919D01*
X0263935Y0065821D02*
X0297531Y0065821D01*
X0297531Y0065722D02*
X0263935Y0065722D01*
X0263936Y0065624D02*
X0297531Y0065624D01*
X0297531Y0065525D02*
X0263936Y0065525D01*
X0263936Y0065427D02*
X0297531Y0065427D01*
X0297530Y0065328D02*
X0263936Y0065328D01*
X0263936Y0065230D02*
X0297530Y0065230D01*
X0297530Y0065131D02*
X0263937Y0065131D01*
X0263937Y0065033D02*
X0297530Y0065033D01*
X0297530Y0064934D02*
X0263937Y0064934D01*
X0263937Y0064835D02*
X0297530Y0064835D01*
X0297530Y0064737D02*
X0263937Y0064737D01*
X0263938Y0064638D02*
X0297530Y0064638D01*
X0297530Y0064540D02*
X0263938Y0064540D01*
X0263938Y0064441D02*
X0297530Y0064441D01*
X0297530Y0064343D02*
X0263938Y0064343D01*
X0263938Y0064244D02*
X0297530Y0064244D01*
X0297530Y0064146D02*
X0263939Y0064146D01*
X0263939Y0064047D02*
X0297530Y0064047D01*
X0297530Y0063949D02*
X0263939Y0063949D01*
X0263939Y0063850D02*
X0297529Y0063850D01*
X0297529Y0063752D02*
X0263939Y0063752D01*
X0263940Y0063653D02*
X0297529Y0063653D01*
X0297529Y0063555D02*
X0263940Y0063555D01*
X0263940Y0063456D02*
X0297529Y0063456D01*
X0297529Y0063358D02*
X0263940Y0063358D01*
X0263940Y0063259D02*
X0297529Y0063259D01*
X0297529Y0063161D02*
X0263941Y0063161D01*
X0263941Y0063062D02*
X0297529Y0063062D01*
X0297529Y0062964D02*
X0263941Y0062964D01*
X0263941Y0062865D02*
X0297529Y0062865D01*
X0297529Y0062767D02*
X0263941Y0062767D01*
X0263942Y0062668D02*
X0297529Y0062668D01*
X0297529Y0062570D02*
X0263942Y0062570D01*
X0263942Y0062471D02*
X0297529Y0062471D01*
X0297528Y0062373D02*
X0263942Y0062373D01*
X0263942Y0062274D02*
X0297528Y0062274D01*
X0297528Y0062176D02*
X0263943Y0062176D01*
X0263943Y0062077D02*
X0297528Y0062077D01*
X0297528Y0061979D02*
X0263943Y0061979D01*
X0263943Y0061880D02*
X0297528Y0061880D01*
X0297528Y0061782D02*
X0263943Y0061782D01*
X0263944Y0061683D02*
X0297528Y0061683D01*
X0297528Y0061585D02*
X0263944Y0061585D01*
X0263944Y0061486D02*
X0297528Y0061486D01*
X0297528Y0061388D02*
X0263944Y0061388D01*
X0263944Y0061289D02*
X0297528Y0061289D01*
X0297528Y0061191D02*
X0263945Y0061191D01*
X0263945Y0061092D02*
X0297528Y0061092D01*
X0297528Y0060994D02*
X0263945Y0060994D01*
X0263945Y0060895D02*
X0297527Y0060895D01*
X0297527Y0060797D02*
X0263945Y0060797D01*
X0263946Y0060698D02*
X0297527Y0060698D01*
X0297527Y0060599D02*
X0263946Y0060599D01*
X0263946Y0060501D02*
X0297527Y0060501D01*
X0297527Y0060402D02*
X0263946Y0060402D01*
X0263946Y0060304D02*
X0297527Y0060304D01*
X0297527Y0060205D02*
X0263947Y0060205D01*
X0263947Y0060107D02*
X0297527Y0060107D01*
X0297527Y0060008D02*
X0263947Y0060008D01*
X0263947Y0059910D02*
X0297527Y0059910D01*
X0297527Y0059811D02*
X0263947Y0059811D01*
X0263948Y0059713D02*
X0297527Y0059713D01*
X0297527Y0059614D02*
X0263948Y0059614D01*
X0263948Y0059516D02*
X0297527Y0059516D01*
X0297526Y0059417D02*
X0263948Y0059417D01*
X0263948Y0059319D02*
X0297526Y0059319D01*
X0297526Y0059220D02*
X0263949Y0059220D01*
X0263949Y0059122D02*
X0297526Y0059122D01*
X0297526Y0059023D02*
X0263949Y0059023D01*
X0263949Y0058925D02*
X0297526Y0058925D01*
X0297526Y0058826D02*
X0263949Y0058826D01*
X0263950Y0058728D02*
X0297526Y0058728D01*
X0297526Y0058629D02*
X0263950Y0058629D01*
X0263950Y0058531D02*
X0297526Y0058531D01*
X0297526Y0058432D02*
X0263950Y0058432D01*
X0263950Y0058334D02*
X0297526Y0058334D01*
X0297526Y0058235D02*
X0263951Y0058235D01*
X0263951Y0058137D02*
X0297526Y0058137D01*
X0297526Y0058038D02*
X0263951Y0058038D01*
X0263951Y0057940D02*
X0297525Y0057940D01*
X0297525Y0057841D02*
X0263951Y0057841D01*
X0263952Y0057743D02*
X0297525Y0057743D01*
X0297525Y0057644D02*
X0263952Y0057644D01*
X0263952Y0057546D02*
X0297525Y0057546D01*
X0297525Y0057447D02*
X0263952Y0057447D01*
X0263952Y0057349D02*
X0297525Y0057349D01*
X0297525Y0057250D02*
X0263953Y0057250D01*
X0263953Y0057152D02*
X0297525Y0057152D01*
X0297525Y0057053D02*
X0263953Y0057053D01*
X0263953Y0056955D02*
X0297525Y0056955D01*
X0297525Y0056856D02*
X0263953Y0056856D01*
X0263954Y0056758D02*
X0297525Y0056758D01*
X0297525Y0056659D02*
X0263954Y0056659D01*
X0263954Y0056561D02*
X0297525Y0056561D01*
X0297524Y0056462D02*
X0263954Y0056462D01*
X0263954Y0056364D02*
X0297524Y0056364D01*
X0297524Y0056265D02*
X0263955Y0056265D01*
X0263955Y0056166D02*
X0297524Y0056166D01*
X0297524Y0056068D02*
X0263955Y0056068D01*
X0263955Y0055969D02*
X0297524Y0055969D01*
X0297524Y0055871D02*
X0263955Y0055871D01*
X0263956Y0055772D02*
X0297524Y0055772D01*
X0297524Y0055674D02*
X0263956Y0055674D01*
X0263956Y0055575D02*
X0297524Y0055575D01*
X0297524Y0055477D02*
X0263956Y0055477D01*
X0263956Y0055378D02*
X0297524Y0055378D01*
X0297524Y0055280D02*
X0263957Y0055280D01*
X0263957Y0055181D02*
X0297524Y0055181D01*
X0297523Y0055083D02*
X0263957Y0055083D01*
X0263957Y0054984D02*
X0297523Y0054984D01*
X0297523Y0054886D02*
X0263957Y0054886D01*
X0263958Y0054787D02*
X0297523Y0054787D01*
X0297523Y0054689D02*
X0263958Y0054689D01*
X0263958Y0054590D02*
X0297523Y0054590D01*
X0297523Y0054492D02*
X0263958Y0054492D01*
X0263958Y0054393D02*
X0297523Y0054393D01*
X0297523Y0054295D02*
X0263959Y0054295D01*
X0263959Y0054196D02*
X0297523Y0054196D01*
X0297523Y0054098D02*
X0263959Y0054098D01*
X0263959Y0053999D02*
X0297523Y0053999D01*
X0297523Y0053901D02*
X0263959Y0053901D01*
X0263960Y0053802D02*
X0297523Y0053802D01*
X0297523Y0053704D02*
X0264003Y0053704D01*
X0264234Y0053605D02*
X0297523Y0053605D01*
X0297522Y0053507D02*
X0264464Y0053507D01*
X0264694Y0053408D02*
X0297522Y0053408D01*
X0297522Y0053310D02*
X0264925Y0053310D01*
X0265155Y0053211D02*
X0297522Y0053211D01*
X0297522Y0053113D02*
X0265385Y0053113D01*
X0265616Y0053014D02*
X0297522Y0053014D01*
X0297522Y0052916D02*
X0265846Y0052916D01*
X0266076Y0052817D02*
X0297522Y0052817D01*
X0297522Y0052719D02*
X0266307Y0052719D01*
X0266537Y0052620D02*
X0297522Y0052620D01*
X0297522Y0052522D02*
X0266767Y0052522D01*
X0266998Y0052423D02*
X0297522Y0052423D01*
X0297522Y0052325D02*
X0267228Y0052325D01*
X0267458Y0052226D02*
X0297522Y0052226D01*
X0297521Y0052128D02*
X0267689Y0052128D01*
X0267919Y0052029D02*
X0297521Y0052029D01*
X0297521Y0051930D02*
X0268149Y0051930D01*
X0268380Y0051832D02*
X0297521Y0051832D01*
X0297521Y0051733D02*
X0268610Y0051733D01*
X0268840Y0051635D02*
X0297521Y0051635D01*
X0297521Y0051536D02*
X0269071Y0051536D01*
X0269301Y0051438D02*
X0297521Y0051438D01*
X0297521Y0051339D02*
X0269531Y0051339D01*
X0269762Y0051241D02*
X0297521Y0051241D01*
X0297521Y0051142D02*
X0269992Y0051142D01*
X0270222Y0051044D02*
X0297521Y0051044D01*
X0297521Y0050945D02*
X0270453Y0050945D01*
X0270683Y0050847D02*
X0297521Y0050847D01*
X0297521Y0050748D02*
X0270913Y0050748D01*
X0271144Y0050650D02*
X0297520Y0050650D01*
X0297520Y0050551D02*
X0271374Y0050551D01*
X0271604Y0050453D02*
X0297520Y0050453D01*
X0297520Y0050354D02*
X0271835Y0050354D01*
X0272065Y0050256D02*
X0297520Y0050256D01*
X0297520Y0050157D02*
X0272295Y0050157D01*
X0272526Y0050059D02*
X0297520Y0050059D01*
X0297520Y0049960D02*
X0272756Y0049960D01*
X0272986Y0049862D02*
X0297520Y0049862D01*
X0297520Y0049763D02*
X0273217Y0049763D01*
X0273447Y0049665D02*
X0297520Y0049665D01*
X0297520Y0049566D02*
X0273677Y0049566D01*
X0273908Y0049468D02*
X0297520Y0049468D01*
X0297520Y0049369D02*
X0274138Y0049369D01*
X0274368Y0049271D02*
X0297520Y0049271D01*
X0297519Y0049172D02*
X0274599Y0049172D01*
X0274829Y0049074D02*
X0297519Y0049074D01*
X0297519Y0048975D02*
X0275059Y0048975D01*
X0275290Y0048877D02*
X0297519Y0048877D01*
X0297519Y0048778D02*
X0275520Y0048778D01*
X0275750Y0048680D02*
X0297519Y0048680D01*
X0297519Y0048581D02*
X0275981Y0048581D01*
X0276211Y0048483D02*
X0297519Y0048483D01*
X0297519Y0048384D02*
X0276441Y0048384D01*
X0276672Y0048286D02*
X0297519Y0048286D01*
X0297519Y0048187D02*
X0276902Y0048187D01*
X0277132Y0048089D02*
X0297519Y0048089D01*
X0297519Y0047990D02*
X0277363Y0047990D01*
X0277593Y0047892D02*
X0297519Y0047892D01*
X0297519Y0047793D02*
X0277823Y0047793D01*
X0278053Y0047695D02*
X0297518Y0047695D01*
X0297518Y0047596D02*
X0278284Y0047596D01*
X0278514Y0047497D02*
X0297518Y0047497D01*
X0297518Y0047399D02*
X0278745Y0047399D01*
X0278975Y0047300D02*
X0297518Y0047300D01*
X0297518Y0047202D02*
X0279205Y0047202D01*
X0279435Y0047103D02*
X0297518Y0047103D01*
X0297518Y0047005D02*
X0279666Y0047005D01*
X0279896Y0046906D02*
X0297518Y0046906D01*
X0297518Y0046808D02*
X0280126Y0046808D01*
X0280357Y0046709D02*
X0297518Y0046709D01*
X0297518Y0046611D02*
X0280587Y0046611D01*
X0280817Y0046512D02*
X0297518Y0046512D01*
X0297518Y0046414D02*
X0281048Y0046414D01*
X0281278Y0046315D02*
X0297518Y0046315D01*
X0297517Y0046217D02*
X0281508Y0046217D01*
X0281739Y0046118D02*
X0297517Y0046118D01*
X0297517Y0046020D02*
X0281969Y0046020D01*
X0282199Y0045921D02*
X0297517Y0045921D01*
X0297517Y0045823D02*
X0282430Y0045823D01*
X0282660Y0045724D02*
X0297517Y0045724D01*
X0297517Y0045626D02*
X0282890Y0045626D01*
X0283121Y0045527D02*
X0297517Y0045527D01*
X0297517Y0045429D02*
X0283351Y0045429D01*
X0283581Y0045330D02*
X0297517Y0045330D01*
X0297517Y0045232D02*
X0283812Y0045232D01*
X0284042Y0045133D02*
X0297517Y0045133D01*
X0297517Y0045035D02*
X0284272Y0045035D01*
X0284503Y0044936D02*
X0297517Y0044936D01*
X0297517Y0044838D02*
X0284733Y0044838D01*
X0284963Y0044739D02*
X0297516Y0044739D01*
X0297516Y0044641D02*
X0285194Y0044641D01*
X0285424Y0044542D02*
X0297516Y0044542D01*
X0297516Y0044444D02*
X0285654Y0044444D01*
X0285885Y0044345D02*
X0297516Y0044345D01*
X0297516Y0044247D02*
X0286115Y0044247D01*
X0286345Y0044148D02*
X0297516Y0044148D01*
X0297516Y0044050D02*
X0286576Y0044050D01*
X0286806Y0043951D02*
X0297516Y0043951D01*
X0297516Y0043853D02*
X0287036Y0043853D01*
X0287267Y0043754D02*
X0297516Y0043754D01*
X0297516Y0043656D02*
X0287497Y0043656D01*
X0287727Y0043557D02*
X0297516Y0043557D01*
X0297516Y0043459D02*
X0287958Y0043459D01*
X0288188Y0043360D02*
X0297516Y0043360D01*
X0297515Y0043262D02*
X0288418Y0043262D01*
X0288649Y0043163D02*
X0297515Y0043163D01*
X0297515Y0043064D02*
X0288879Y0043064D01*
X0289109Y0042966D02*
X0297515Y0042966D01*
X0297515Y0042867D02*
X0289340Y0042867D01*
X0289570Y0042769D02*
X0297515Y0042769D01*
X0297515Y0042670D02*
X0289800Y0042670D01*
X0290031Y0042572D02*
X0297515Y0042572D01*
X0297515Y0042473D02*
X0290261Y0042473D01*
X0290491Y0042375D02*
X0297515Y0042375D01*
X0297515Y0042276D02*
X0290722Y0042276D01*
X0290952Y0042178D02*
X0297515Y0042178D01*
X0297515Y0042079D02*
X0291182Y0042079D01*
X0291413Y0041981D02*
X0297515Y0041981D01*
X0297515Y0041882D02*
X0291643Y0041882D01*
X0291873Y0041784D02*
X0297514Y0041784D01*
X0297514Y0041685D02*
X0292104Y0041685D01*
X0292334Y0041587D02*
X0297514Y0041587D01*
X0297514Y0041488D02*
X0292564Y0041488D01*
X0292795Y0041390D02*
X0297514Y0041390D01*
X0297514Y0041291D02*
X0293025Y0041291D01*
X0293255Y0041193D02*
X0297514Y0041193D01*
X0297514Y0041094D02*
X0293486Y0041094D01*
X0293716Y0040996D02*
X0297514Y0040996D01*
X0297514Y0040897D02*
X0293946Y0040897D01*
X0294177Y0040799D02*
X0297514Y0040799D01*
X0297514Y0040700D02*
X0294407Y0040700D01*
X0294637Y0040602D02*
X0297514Y0040602D01*
X0297514Y0040503D02*
X0294868Y0040503D01*
X0295098Y0040405D02*
X0297514Y0040405D01*
X0297513Y0040306D02*
X0295328Y0040306D01*
X0295559Y0040208D02*
X0297513Y0040208D01*
X0297513Y0040109D02*
X0295789Y0040109D01*
X0296019Y0040011D02*
X0297513Y0040011D01*
X0297513Y0039912D02*
X0296250Y0039912D01*
X0296480Y0039814D02*
X0297513Y0039814D01*
X0297513Y0039715D02*
X0296710Y0039715D01*
X0296941Y0039617D02*
X0297513Y0039617D01*
X0297513Y0039518D02*
X0297171Y0039518D01*
X0297401Y0039420D02*
X0297513Y0039420D01*
X0217151Y0047037D02*
X0217186Y0071228D01*
X0208850Y0067905D01*
X0208855Y0067903D01*
X0208880Y0050163D01*
X0185992Y0041521D01*
X0186024Y0035589D01*
X0217151Y0047037D01*
X0217151Y0047103D02*
X0200776Y0047103D01*
X0200515Y0047005D02*
X0217062Y0047005D01*
X0217151Y0047202D02*
X0201037Y0047202D01*
X0201298Y0047300D02*
X0217151Y0047300D01*
X0217151Y0047399D02*
X0201559Y0047399D01*
X0201820Y0047497D02*
X0217151Y0047497D01*
X0217151Y0047596D02*
X0202081Y0047596D01*
X0202342Y0047695D02*
X0217152Y0047695D01*
X0217152Y0047793D02*
X0202603Y0047793D01*
X0202864Y0047892D02*
X0217152Y0047892D01*
X0217152Y0047990D02*
X0203124Y0047990D01*
X0203385Y0048089D02*
X0217152Y0048089D01*
X0217152Y0048187D02*
X0203646Y0048187D01*
X0203907Y0048286D02*
X0217152Y0048286D01*
X0217153Y0048384D02*
X0204168Y0048384D01*
X0204429Y0048483D02*
X0217153Y0048483D01*
X0217153Y0048581D02*
X0204690Y0048581D01*
X0204951Y0048680D02*
X0217153Y0048680D01*
X0217153Y0048778D02*
X0205212Y0048778D01*
X0205473Y0048877D02*
X0217153Y0048877D01*
X0217153Y0048975D02*
X0205734Y0048975D01*
X0205994Y0049074D02*
X0217154Y0049074D01*
X0217154Y0049172D02*
X0206255Y0049172D01*
X0206516Y0049271D02*
X0217154Y0049271D01*
X0217154Y0049369D02*
X0206777Y0049369D01*
X0207038Y0049468D02*
X0217154Y0049468D01*
X0217154Y0049566D02*
X0207299Y0049566D01*
X0207560Y0049665D02*
X0217154Y0049665D01*
X0217155Y0049763D02*
X0207821Y0049763D01*
X0208082Y0049862D02*
X0217155Y0049862D01*
X0217155Y0049960D02*
X0208343Y0049960D01*
X0208603Y0050059D02*
X0217155Y0050059D01*
X0217155Y0050157D02*
X0208864Y0050157D01*
X0208880Y0050256D02*
X0217155Y0050256D01*
X0217155Y0050354D02*
X0208880Y0050354D01*
X0208879Y0050453D02*
X0217156Y0050453D01*
X0217156Y0050551D02*
X0208879Y0050551D01*
X0208879Y0050650D02*
X0217156Y0050650D01*
X0217156Y0050748D02*
X0208879Y0050748D01*
X0208879Y0050847D02*
X0217156Y0050847D01*
X0217156Y0050945D02*
X0208879Y0050945D01*
X0208879Y0051044D02*
X0217156Y0051044D01*
X0217157Y0051142D02*
X0208879Y0051142D01*
X0208878Y0051241D02*
X0217157Y0051241D01*
X0217157Y0051339D02*
X0208878Y0051339D01*
X0208878Y0051438D02*
X0217157Y0051438D01*
X0217157Y0051536D02*
X0208878Y0051536D01*
X0208878Y0051635D02*
X0217157Y0051635D01*
X0217157Y0051733D02*
X0208878Y0051733D01*
X0208878Y0051832D02*
X0217158Y0051832D01*
X0217158Y0051930D02*
X0208877Y0051930D01*
X0208877Y0052029D02*
X0217158Y0052029D01*
X0217158Y0052128D02*
X0208877Y0052128D01*
X0208877Y0052226D02*
X0217158Y0052226D01*
X0217158Y0052325D02*
X0208877Y0052325D01*
X0208877Y0052423D02*
X0217158Y0052423D01*
X0217159Y0052522D02*
X0208877Y0052522D01*
X0208876Y0052620D02*
X0217159Y0052620D01*
X0217159Y0052719D02*
X0208876Y0052719D01*
X0208876Y0052817D02*
X0217159Y0052817D01*
X0217159Y0052916D02*
X0208876Y0052916D01*
X0208876Y0053014D02*
X0217159Y0053014D01*
X0217159Y0053113D02*
X0208876Y0053113D01*
X0208876Y0053211D02*
X0217160Y0053211D01*
X0217160Y0053310D02*
X0208875Y0053310D01*
X0208875Y0053408D02*
X0217160Y0053408D01*
X0217160Y0053507D02*
X0208875Y0053507D01*
X0208875Y0053605D02*
X0217160Y0053605D01*
X0217160Y0053704D02*
X0208875Y0053704D01*
X0208875Y0053802D02*
X0217160Y0053802D01*
X0217161Y0053901D02*
X0208875Y0053901D01*
X0208875Y0053999D02*
X0217161Y0053999D01*
X0217161Y0054098D02*
X0208874Y0054098D01*
X0208874Y0054196D02*
X0217161Y0054196D01*
X0217161Y0054295D02*
X0208874Y0054295D01*
X0208874Y0054393D02*
X0217161Y0054393D01*
X0217161Y0054492D02*
X0208874Y0054492D01*
X0208874Y0054590D02*
X0217162Y0054590D01*
X0217162Y0054689D02*
X0208874Y0054689D01*
X0208873Y0054787D02*
X0217162Y0054787D01*
X0217162Y0054886D02*
X0208873Y0054886D01*
X0208873Y0054984D02*
X0217162Y0054984D01*
X0217162Y0055083D02*
X0208873Y0055083D01*
X0208873Y0055181D02*
X0217162Y0055181D01*
X0217163Y0055280D02*
X0208873Y0055280D01*
X0208873Y0055378D02*
X0217163Y0055378D01*
X0217163Y0055477D02*
X0208872Y0055477D01*
X0208872Y0055575D02*
X0217163Y0055575D01*
X0217163Y0055674D02*
X0208872Y0055674D01*
X0208872Y0055772D02*
X0217163Y0055772D01*
X0217163Y0055871D02*
X0208872Y0055871D01*
X0208872Y0055969D02*
X0217164Y0055969D01*
X0217164Y0056068D02*
X0208872Y0056068D01*
X0208871Y0056166D02*
X0217164Y0056166D01*
X0217164Y0056265D02*
X0208871Y0056265D01*
X0208871Y0056364D02*
X0217164Y0056364D01*
X0217164Y0056462D02*
X0208871Y0056462D01*
X0208871Y0056561D02*
X0217164Y0056561D01*
X0217165Y0056659D02*
X0208871Y0056659D01*
X0208871Y0056758D02*
X0217165Y0056758D01*
X0217165Y0056856D02*
X0208870Y0056856D01*
X0208870Y0056955D02*
X0217165Y0056955D01*
X0217165Y0057053D02*
X0208870Y0057053D01*
X0208870Y0057152D02*
X0217165Y0057152D01*
X0217165Y0057250D02*
X0208870Y0057250D01*
X0208870Y0057349D02*
X0217166Y0057349D01*
X0217166Y0057447D02*
X0208870Y0057447D01*
X0208870Y0057546D02*
X0217166Y0057546D01*
X0217166Y0057644D02*
X0208869Y0057644D01*
X0208869Y0057743D02*
X0217166Y0057743D01*
X0217166Y0057841D02*
X0208869Y0057841D01*
X0208869Y0057940D02*
X0217166Y0057940D01*
X0217167Y0058038D02*
X0208869Y0058038D01*
X0208869Y0058137D02*
X0217167Y0058137D01*
X0217167Y0058235D02*
X0208869Y0058235D01*
X0208868Y0058334D02*
X0217167Y0058334D01*
X0217167Y0058432D02*
X0208868Y0058432D01*
X0208868Y0058531D02*
X0217167Y0058531D01*
X0217167Y0058629D02*
X0208868Y0058629D01*
X0208868Y0058728D02*
X0217168Y0058728D01*
X0217168Y0058826D02*
X0208868Y0058826D01*
X0208868Y0058925D02*
X0217168Y0058925D01*
X0217168Y0059023D02*
X0208867Y0059023D01*
X0208867Y0059122D02*
X0217168Y0059122D01*
X0217168Y0059220D02*
X0208867Y0059220D01*
X0208867Y0059319D02*
X0217168Y0059319D01*
X0217169Y0059417D02*
X0208867Y0059417D01*
X0208867Y0059516D02*
X0217169Y0059516D01*
X0217169Y0059614D02*
X0208867Y0059614D01*
X0208866Y0059713D02*
X0217169Y0059713D01*
X0217169Y0059811D02*
X0208866Y0059811D01*
X0208866Y0059910D02*
X0217169Y0059910D01*
X0217169Y0060008D02*
X0208866Y0060008D01*
X0208866Y0060107D02*
X0217170Y0060107D01*
X0217170Y0060205D02*
X0208866Y0060205D01*
X0208866Y0060304D02*
X0217170Y0060304D01*
X0217170Y0060402D02*
X0208866Y0060402D01*
X0208865Y0060501D02*
X0217170Y0060501D01*
X0217170Y0060599D02*
X0208865Y0060599D01*
X0208865Y0060698D02*
X0217170Y0060698D01*
X0217171Y0060797D02*
X0208865Y0060797D01*
X0208865Y0060895D02*
X0217171Y0060895D01*
X0217171Y0060994D02*
X0208865Y0060994D01*
X0208865Y0061092D02*
X0217171Y0061092D01*
X0217171Y0061191D02*
X0208864Y0061191D01*
X0208864Y0061289D02*
X0217171Y0061289D01*
X0217171Y0061388D02*
X0208864Y0061388D01*
X0208864Y0061486D02*
X0217172Y0061486D01*
X0217172Y0061585D02*
X0208864Y0061585D01*
X0208864Y0061683D02*
X0217172Y0061683D01*
X0217172Y0061782D02*
X0208864Y0061782D01*
X0208863Y0061880D02*
X0217172Y0061880D01*
X0217172Y0061979D02*
X0208863Y0061979D01*
X0208863Y0062077D02*
X0217172Y0062077D01*
X0217173Y0062176D02*
X0208863Y0062176D01*
X0208863Y0062274D02*
X0217173Y0062274D01*
X0217173Y0062373D02*
X0208863Y0062373D01*
X0208863Y0062471D02*
X0217173Y0062471D01*
X0217173Y0062570D02*
X0208862Y0062570D01*
X0208862Y0062668D02*
X0217173Y0062668D01*
X0217173Y0062767D02*
X0208862Y0062767D01*
X0208862Y0062865D02*
X0217174Y0062865D01*
X0217174Y0062964D02*
X0208862Y0062964D01*
X0208862Y0063062D02*
X0217174Y0063062D01*
X0217174Y0063161D02*
X0208862Y0063161D01*
X0208862Y0063259D02*
X0217174Y0063259D01*
X0217174Y0063358D02*
X0208861Y0063358D01*
X0208861Y0063456D02*
X0217174Y0063456D01*
X0217175Y0063555D02*
X0208861Y0063555D01*
X0208861Y0063653D02*
X0217175Y0063653D01*
X0217175Y0063752D02*
X0208861Y0063752D01*
X0208861Y0063850D02*
X0217175Y0063850D01*
X0217175Y0063949D02*
X0208861Y0063949D01*
X0208860Y0064047D02*
X0217175Y0064047D01*
X0217175Y0064146D02*
X0208860Y0064146D01*
X0208860Y0064244D02*
X0217176Y0064244D01*
X0217176Y0064343D02*
X0208860Y0064343D01*
X0208860Y0064441D02*
X0217176Y0064441D01*
X0217176Y0064540D02*
X0208860Y0064540D01*
X0208860Y0064638D02*
X0217176Y0064638D01*
X0217176Y0064737D02*
X0208859Y0064737D01*
X0208859Y0064835D02*
X0217176Y0064835D01*
X0217177Y0064934D02*
X0208859Y0064934D01*
X0208859Y0065033D02*
X0217177Y0065033D01*
X0217177Y0065131D02*
X0208859Y0065131D01*
X0208859Y0065230D02*
X0217177Y0065230D01*
X0217177Y0065328D02*
X0208859Y0065328D01*
X0208858Y0065427D02*
X0217177Y0065427D01*
X0217177Y0065525D02*
X0208858Y0065525D01*
X0208858Y0065624D02*
X0217178Y0065624D01*
X0217178Y0065722D02*
X0208858Y0065722D01*
X0208858Y0065821D02*
X0217178Y0065821D01*
X0217178Y0065919D02*
X0208858Y0065919D01*
X0208858Y0066018D02*
X0217178Y0066018D01*
X0217178Y0066116D02*
X0208857Y0066116D01*
X0208857Y0066215D02*
X0217178Y0066215D01*
X0217179Y0066313D02*
X0208857Y0066313D01*
X0208857Y0066412D02*
X0217179Y0066412D01*
X0217179Y0066510D02*
X0208857Y0066510D01*
X0208857Y0066609D02*
X0217179Y0066609D01*
X0217179Y0066707D02*
X0208857Y0066707D01*
X0208857Y0066806D02*
X0217179Y0066806D01*
X0217179Y0066904D02*
X0208856Y0066904D01*
X0208856Y0067003D02*
X0217180Y0067003D01*
X0217180Y0067101D02*
X0208856Y0067101D01*
X0208856Y0067200D02*
X0217180Y0067200D01*
X0217180Y0067298D02*
X0208856Y0067298D01*
X0208856Y0067397D02*
X0217180Y0067397D01*
X0217180Y0067495D02*
X0208856Y0067495D01*
X0208855Y0067594D02*
X0217180Y0067594D01*
X0217181Y0067692D02*
X0208855Y0067692D01*
X0208855Y0067791D02*
X0217181Y0067791D01*
X0217181Y0067889D02*
X0208855Y0067889D01*
X0209058Y0067988D02*
X0217181Y0067988D01*
X0217181Y0068086D02*
X0209305Y0068086D01*
X0209552Y0068185D02*
X0217181Y0068185D01*
X0217181Y0068283D02*
X0209799Y0068283D01*
X0210046Y0068382D02*
X0217182Y0068382D01*
X0217182Y0068480D02*
X0210293Y0068480D01*
X0210540Y0068579D02*
X0217182Y0068579D01*
X0217182Y0068677D02*
X0210787Y0068677D01*
X0211034Y0068776D02*
X0217182Y0068776D01*
X0217182Y0068874D02*
X0211281Y0068874D01*
X0211529Y0068973D02*
X0217182Y0068973D01*
X0217183Y0069071D02*
X0211776Y0069071D01*
X0212023Y0069170D02*
X0217183Y0069170D01*
X0217183Y0069268D02*
X0212270Y0069268D01*
X0212517Y0069367D02*
X0217183Y0069367D01*
X0217183Y0069466D02*
X0212764Y0069466D01*
X0213011Y0069564D02*
X0217183Y0069564D01*
X0217183Y0069663D02*
X0213258Y0069663D01*
X0213505Y0069761D02*
X0217184Y0069761D01*
X0217184Y0069860D02*
X0213752Y0069860D01*
X0214000Y0069958D02*
X0217184Y0069958D01*
X0217184Y0070057D02*
X0214247Y0070057D01*
X0214494Y0070155D02*
X0217184Y0070155D01*
X0217184Y0070254D02*
X0214741Y0070254D01*
X0214988Y0070352D02*
X0217184Y0070352D01*
X0217185Y0070451D02*
X0215235Y0070451D01*
X0215482Y0070549D02*
X0217185Y0070549D01*
X0217185Y0070648D02*
X0215729Y0070648D01*
X0215976Y0070746D02*
X0217185Y0070746D01*
X0217185Y0070845D02*
X0216223Y0070845D01*
X0216471Y0070943D02*
X0217185Y0070943D01*
X0217185Y0071042D02*
X0216718Y0071042D01*
X0216965Y0071140D02*
X0217186Y0071140D01*
X0216795Y0046906D02*
X0200255Y0046906D01*
X0199994Y0046808D02*
X0216527Y0046808D01*
X0216259Y0046709D02*
X0199733Y0046709D01*
X0199472Y0046611D02*
X0215991Y0046611D01*
X0215723Y0046512D02*
X0199211Y0046512D01*
X0198950Y0046414D02*
X0215455Y0046414D01*
X0215188Y0046315D02*
X0198689Y0046315D01*
X0198428Y0046217D02*
X0214920Y0046217D01*
X0214652Y0046118D02*
X0198167Y0046118D01*
X0197906Y0046020D02*
X0214384Y0046020D01*
X0214116Y0045921D02*
X0197646Y0045921D01*
X0197385Y0045823D02*
X0213848Y0045823D01*
X0213581Y0045724D02*
X0197124Y0045724D01*
X0196863Y0045626D02*
X0213313Y0045626D01*
X0213045Y0045527D02*
X0196602Y0045527D01*
X0196341Y0045429D02*
X0212777Y0045429D01*
X0212509Y0045330D02*
X0196080Y0045330D01*
X0195819Y0045232D02*
X0212241Y0045232D01*
X0211973Y0045133D02*
X0195558Y0045133D01*
X0195297Y0045035D02*
X0211706Y0045035D01*
X0211438Y0044936D02*
X0195037Y0044936D01*
X0194776Y0044838D02*
X0211170Y0044838D01*
X0210902Y0044739D02*
X0194515Y0044739D01*
X0194254Y0044641D02*
X0210634Y0044641D01*
X0210366Y0044542D02*
X0193993Y0044542D01*
X0193732Y0044444D02*
X0210099Y0044444D01*
X0209831Y0044345D02*
X0193471Y0044345D01*
X0193210Y0044247D02*
X0209563Y0044247D01*
X0209295Y0044148D02*
X0192949Y0044148D01*
X0192688Y0044050D02*
X0209027Y0044050D01*
X0208759Y0043951D02*
X0192427Y0043951D01*
X0192167Y0043853D02*
X0208492Y0043853D01*
X0208224Y0043754D02*
X0191906Y0043754D01*
X0191645Y0043656D02*
X0207956Y0043656D01*
X0207688Y0043557D02*
X0191384Y0043557D01*
X0191123Y0043459D02*
X0207420Y0043459D01*
X0207152Y0043360D02*
X0190862Y0043360D01*
X0190601Y0043262D02*
X0206884Y0043262D01*
X0206617Y0043163D02*
X0190340Y0043163D01*
X0190079Y0043064D02*
X0206349Y0043064D01*
X0206081Y0042966D02*
X0189818Y0042966D01*
X0189558Y0042867D02*
X0205813Y0042867D01*
X0205545Y0042769D02*
X0189297Y0042769D01*
X0189036Y0042670D02*
X0205277Y0042670D01*
X0205010Y0042572D02*
X0188775Y0042572D01*
X0188514Y0042473D02*
X0204742Y0042473D01*
X0204474Y0042375D02*
X0188253Y0042375D01*
X0187992Y0042276D02*
X0204206Y0042276D01*
X0203938Y0042178D02*
X0187731Y0042178D01*
X0187470Y0042079D02*
X0203670Y0042079D01*
X0203403Y0041981D02*
X0187209Y0041981D01*
X0186949Y0041882D02*
X0203135Y0041882D01*
X0202867Y0041784D02*
X0186688Y0041784D01*
X0186427Y0041685D02*
X0202599Y0041685D01*
X0202331Y0041587D02*
X0186166Y0041587D01*
X0185992Y0041488D02*
X0202063Y0041488D01*
X0201795Y0041390D02*
X0185993Y0041390D01*
X0185993Y0041291D02*
X0201528Y0041291D01*
X0201260Y0041193D02*
X0185994Y0041193D01*
X0185994Y0041094D02*
X0200992Y0041094D01*
X0200724Y0040996D02*
X0185995Y0040996D01*
X0185995Y0040897D02*
X0200456Y0040897D01*
X0200188Y0040799D02*
X0185996Y0040799D01*
X0185996Y0040700D02*
X0199921Y0040700D01*
X0199653Y0040602D02*
X0185997Y0040602D01*
X0185997Y0040503D02*
X0199385Y0040503D01*
X0199117Y0040405D02*
X0185998Y0040405D01*
X0185998Y0040306D02*
X0198849Y0040306D01*
X0198581Y0040208D02*
X0185999Y0040208D01*
X0185999Y0040109D02*
X0198314Y0040109D01*
X0198046Y0040011D02*
X0186000Y0040011D01*
X0186001Y0039912D02*
X0197778Y0039912D01*
X0197510Y0039814D02*
X0186001Y0039814D01*
X0186002Y0039715D02*
X0197242Y0039715D01*
X0196974Y0039617D02*
X0186002Y0039617D01*
X0186003Y0039518D02*
X0196706Y0039518D01*
X0196439Y0039420D02*
X0186003Y0039420D01*
X0186004Y0039321D02*
X0196171Y0039321D01*
X0195903Y0039223D02*
X0186004Y0039223D01*
X0186005Y0039124D02*
X0195635Y0039124D01*
X0195367Y0039026D02*
X0186005Y0039026D01*
X0186006Y0038927D02*
X0195099Y0038927D01*
X0194832Y0038828D02*
X0186006Y0038828D01*
X0186007Y0038730D02*
X0194564Y0038730D01*
X0194296Y0038631D02*
X0186007Y0038631D01*
X0186008Y0038533D02*
X0194028Y0038533D01*
X0193760Y0038434D02*
X0186008Y0038434D01*
X0186009Y0038336D02*
X0193492Y0038336D01*
X0193225Y0038237D02*
X0186009Y0038237D01*
X0186010Y0038139D02*
X0192957Y0038139D01*
X0192689Y0038040D02*
X0186010Y0038040D01*
X0186011Y0037942D02*
X0192421Y0037942D01*
X0192153Y0037843D02*
X0186012Y0037843D01*
X0186012Y0037745D02*
X0191885Y0037745D01*
X0191617Y0037646D02*
X0186013Y0037646D01*
X0186013Y0037548D02*
X0191350Y0037548D01*
X0191082Y0037449D02*
X0186014Y0037449D01*
X0186014Y0037351D02*
X0190814Y0037351D01*
X0190546Y0037252D02*
X0186015Y0037252D01*
X0186015Y0037154D02*
X0190278Y0037154D01*
X0190010Y0037055D02*
X0186016Y0037055D01*
X0186016Y0036957D02*
X0189743Y0036957D01*
X0189475Y0036858D02*
X0186017Y0036858D01*
X0186017Y0036760D02*
X0189207Y0036760D01*
X0188939Y0036661D02*
X0186018Y0036661D01*
X0186018Y0036563D02*
X0188671Y0036563D01*
X0188403Y0036464D02*
X0186019Y0036464D01*
X0186019Y0036366D02*
X0188136Y0036366D01*
X0187868Y0036267D02*
X0186020Y0036267D01*
X0186020Y0036169D02*
X0187600Y0036169D01*
X0187332Y0036070D02*
X0186021Y0036070D01*
X0186022Y0035972D02*
X0187064Y0035972D01*
X0186796Y0035873D02*
X0186022Y0035873D01*
X0186023Y0035775D02*
X0186528Y0035775D01*
X0186261Y0035676D02*
X0186023Y0035676D01*
X0152868Y0047126D02*
X0152803Y0071965D01*
X0113616Y0057108D01*
X0111320Y0056254D01*
X0111339Y0044835D01*
X0119915Y0041638D01*
X0119913Y0035383D01*
X0152868Y0047126D01*
X0152804Y0047103D02*
X0111335Y0047103D01*
X0111335Y0047005D02*
X0152528Y0047005D01*
X0152252Y0046906D02*
X0111336Y0046906D01*
X0111336Y0046808D02*
X0151975Y0046808D01*
X0151699Y0046709D02*
X0111336Y0046709D01*
X0111336Y0046611D02*
X0151422Y0046611D01*
X0151146Y0046512D02*
X0111336Y0046512D01*
X0111336Y0046414D02*
X0150869Y0046414D01*
X0150593Y0046315D02*
X0111337Y0046315D01*
X0111337Y0046217D02*
X0150316Y0046217D01*
X0150040Y0046118D02*
X0111337Y0046118D01*
X0111337Y0046020D02*
X0149763Y0046020D01*
X0149487Y0045921D02*
X0111337Y0045921D01*
X0111337Y0045823D02*
X0149211Y0045823D01*
X0148934Y0045724D02*
X0111337Y0045724D01*
X0111338Y0045626D02*
X0148658Y0045626D01*
X0148381Y0045527D02*
X0111338Y0045527D01*
X0111338Y0045429D02*
X0148105Y0045429D01*
X0147828Y0045330D02*
X0111338Y0045330D01*
X0111338Y0045232D02*
X0147552Y0045232D01*
X0147275Y0045133D02*
X0111338Y0045133D01*
X0111339Y0045035D02*
X0146999Y0045035D01*
X0146723Y0044936D02*
X0111339Y0044936D01*
X0111339Y0044838D02*
X0146446Y0044838D01*
X0146170Y0044739D02*
X0111595Y0044739D01*
X0111860Y0044641D02*
X0145893Y0044641D01*
X0145617Y0044542D02*
X0112124Y0044542D01*
X0112388Y0044444D02*
X0145340Y0044444D01*
X0145064Y0044345D02*
X0112652Y0044345D01*
X0112917Y0044247D02*
X0144787Y0044247D01*
X0144511Y0044148D02*
X0113181Y0044148D01*
X0113445Y0044050D02*
X0144234Y0044050D01*
X0143958Y0043951D02*
X0113710Y0043951D01*
X0113974Y0043853D02*
X0143682Y0043853D01*
X0143405Y0043754D02*
X0114238Y0043754D01*
X0114502Y0043656D02*
X0143129Y0043656D01*
X0142852Y0043557D02*
X0114767Y0043557D01*
X0115031Y0043459D02*
X0142576Y0043459D01*
X0142299Y0043360D02*
X0115295Y0043360D01*
X0115560Y0043262D02*
X0142023Y0043262D01*
X0141746Y0043163D02*
X0115824Y0043163D01*
X0116088Y0043064D02*
X0141470Y0043064D01*
X0141194Y0042966D02*
X0116353Y0042966D01*
X0116617Y0042867D02*
X0140917Y0042867D01*
X0140641Y0042769D02*
X0116881Y0042769D01*
X0117145Y0042670D02*
X0140364Y0042670D01*
X0140088Y0042572D02*
X0117410Y0042572D01*
X0117674Y0042473D02*
X0139811Y0042473D01*
X0139535Y0042375D02*
X0117938Y0042375D01*
X0118203Y0042276D02*
X0139258Y0042276D01*
X0138982Y0042178D02*
X0118467Y0042178D01*
X0118731Y0042079D02*
X0138705Y0042079D01*
X0138429Y0041981D02*
X0118995Y0041981D01*
X0119260Y0041882D02*
X0138153Y0041882D01*
X0137876Y0041784D02*
X0119524Y0041784D01*
X0119788Y0041685D02*
X0137600Y0041685D01*
X0137323Y0041587D02*
X0119915Y0041587D01*
X0119915Y0041488D02*
X0137047Y0041488D01*
X0136770Y0041390D02*
X0119915Y0041390D01*
X0119915Y0041291D02*
X0136494Y0041291D01*
X0136217Y0041193D02*
X0119915Y0041193D01*
X0119915Y0041094D02*
X0135941Y0041094D01*
X0135665Y0040996D02*
X0119915Y0040996D01*
X0119915Y0040897D02*
X0135388Y0040897D01*
X0135112Y0040799D02*
X0119915Y0040799D01*
X0119915Y0040700D02*
X0134835Y0040700D01*
X0134559Y0040602D02*
X0119914Y0040602D01*
X0119914Y0040503D02*
X0134282Y0040503D01*
X0134006Y0040405D02*
X0119914Y0040405D01*
X0119914Y0040306D02*
X0133729Y0040306D01*
X0133453Y0040208D02*
X0119914Y0040208D01*
X0119914Y0040109D02*
X0133176Y0040109D01*
X0132900Y0040011D02*
X0119914Y0040011D01*
X0119914Y0039912D02*
X0132624Y0039912D01*
X0132347Y0039814D02*
X0119914Y0039814D01*
X0119914Y0039715D02*
X0132071Y0039715D01*
X0131794Y0039617D02*
X0119914Y0039617D01*
X0119914Y0039518D02*
X0131518Y0039518D01*
X0131241Y0039420D02*
X0119914Y0039420D01*
X0119914Y0039321D02*
X0130965Y0039321D01*
X0130688Y0039223D02*
X0119914Y0039223D01*
X0119914Y0039124D02*
X0130412Y0039124D01*
X0130136Y0039026D02*
X0119914Y0039026D01*
X0119914Y0038927D02*
X0129859Y0038927D01*
X0129583Y0038828D02*
X0119914Y0038828D01*
X0119914Y0038730D02*
X0129306Y0038730D01*
X0129030Y0038631D02*
X0119914Y0038631D01*
X0119914Y0038533D02*
X0128753Y0038533D01*
X0128477Y0038434D02*
X0119914Y0038434D01*
X0119914Y0038336D02*
X0128200Y0038336D01*
X0127924Y0038237D02*
X0119914Y0038237D01*
X0119914Y0038139D02*
X0127647Y0038139D01*
X0127371Y0038040D02*
X0119914Y0038040D01*
X0119914Y0037942D02*
X0127095Y0037942D01*
X0126818Y0037843D02*
X0119914Y0037843D01*
X0119914Y0037745D02*
X0126542Y0037745D01*
X0126265Y0037646D02*
X0119914Y0037646D01*
X0119914Y0037548D02*
X0125989Y0037548D01*
X0125712Y0037449D02*
X0119913Y0037449D01*
X0119913Y0037351D02*
X0125436Y0037351D01*
X0125159Y0037252D02*
X0119913Y0037252D01*
X0119913Y0037154D02*
X0124883Y0037154D01*
X0124607Y0037055D02*
X0119913Y0037055D01*
X0119913Y0036957D02*
X0124330Y0036957D01*
X0124054Y0036858D02*
X0119913Y0036858D01*
X0119913Y0036760D02*
X0123777Y0036760D01*
X0123501Y0036661D02*
X0119913Y0036661D01*
X0119913Y0036563D02*
X0123224Y0036563D01*
X0122948Y0036464D02*
X0119913Y0036464D01*
X0119913Y0036366D02*
X0122671Y0036366D01*
X0122395Y0036267D02*
X0119913Y0036267D01*
X0119913Y0036169D02*
X0122118Y0036169D01*
X0121842Y0036070D02*
X0119913Y0036070D01*
X0119913Y0035972D02*
X0121566Y0035972D01*
X0121289Y0035873D02*
X0119913Y0035873D01*
X0119913Y0035775D02*
X0121013Y0035775D01*
X0120736Y0035676D02*
X0119913Y0035676D01*
X0119913Y0035578D02*
X0120460Y0035578D01*
X0120183Y0035479D02*
X0119913Y0035479D01*
X0111335Y0047202D02*
X0152868Y0047202D01*
X0152868Y0047300D02*
X0111335Y0047300D01*
X0111335Y0047399D02*
X0152868Y0047399D01*
X0152867Y0047497D02*
X0111335Y0047497D01*
X0111334Y0047596D02*
X0152867Y0047596D01*
X0152867Y0047695D02*
X0111334Y0047695D01*
X0111334Y0047793D02*
X0152867Y0047793D01*
X0152866Y0047892D02*
X0111334Y0047892D01*
X0111334Y0047990D02*
X0152866Y0047990D01*
X0152866Y0048089D02*
X0111334Y0048089D01*
X0111334Y0048187D02*
X0152866Y0048187D01*
X0152865Y0048286D02*
X0111333Y0048286D01*
X0111333Y0048384D02*
X0152865Y0048384D01*
X0152865Y0048483D02*
X0111333Y0048483D01*
X0111333Y0048581D02*
X0152865Y0048581D01*
X0152864Y0048680D02*
X0111333Y0048680D01*
X0111333Y0048778D02*
X0152864Y0048778D01*
X0152864Y0048877D02*
X0111332Y0048877D01*
X0111332Y0048975D02*
X0152864Y0048975D01*
X0152863Y0049074D02*
X0111332Y0049074D01*
X0111332Y0049172D02*
X0152863Y0049172D01*
X0152863Y0049271D02*
X0111332Y0049271D01*
X0111332Y0049369D02*
X0152863Y0049369D01*
X0152862Y0049468D02*
X0111331Y0049468D01*
X0111331Y0049566D02*
X0152862Y0049566D01*
X0152862Y0049665D02*
X0111331Y0049665D01*
X0111331Y0049763D02*
X0152861Y0049763D01*
X0152861Y0049862D02*
X0111331Y0049862D01*
X0111331Y0049960D02*
X0152861Y0049960D01*
X0152861Y0050059D02*
X0111330Y0050059D01*
X0111330Y0050157D02*
X0152860Y0050157D01*
X0152860Y0050256D02*
X0111330Y0050256D01*
X0111330Y0050354D02*
X0152860Y0050354D01*
X0152860Y0050453D02*
X0111330Y0050453D01*
X0111330Y0050551D02*
X0152859Y0050551D01*
X0152859Y0050650D02*
X0111330Y0050650D01*
X0111329Y0050748D02*
X0152859Y0050748D01*
X0152859Y0050847D02*
X0111329Y0050847D01*
X0111329Y0050945D02*
X0152858Y0050945D01*
X0152858Y0051044D02*
X0111329Y0051044D01*
X0111329Y0051142D02*
X0152858Y0051142D01*
X0152858Y0051241D02*
X0111329Y0051241D01*
X0111328Y0051339D02*
X0152857Y0051339D01*
X0152857Y0051438D02*
X0111328Y0051438D01*
X0111328Y0051536D02*
X0152857Y0051536D01*
X0152857Y0051635D02*
X0111328Y0051635D01*
X0111328Y0051733D02*
X0152856Y0051733D01*
X0152856Y0051832D02*
X0111328Y0051832D01*
X0111327Y0051930D02*
X0152856Y0051930D01*
X0152855Y0052029D02*
X0111327Y0052029D01*
X0111327Y0052128D02*
X0152855Y0052128D01*
X0152855Y0052226D02*
X0111327Y0052226D01*
X0111327Y0052325D02*
X0152855Y0052325D01*
X0152854Y0052423D02*
X0111327Y0052423D01*
X0111327Y0052522D02*
X0152854Y0052522D01*
X0152854Y0052620D02*
X0111326Y0052620D01*
X0111326Y0052719D02*
X0152854Y0052719D01*
X0152853Y0052817D02*
X0111326Y0052817D01*
X0111326Y0052916D02*
X0152853Y0052916D01*
X0152853Y0053014D02*
X0111326Y0053014D01*
X0111326Y0053113D02*
X0152853Y0053113D01*
X0152852Y0053211D02*
X0111325Y0053211D01*
X0111325Y0053310D02*
X0152852Y0053310D01*
X0152852Y0053408D02*
X0111325Y0053408D01*
X0111325Y0053507D02*
X0152852Y0053507D01*
X0152851Y0053605D02*
X0111325Y0053605D01*
X0111325Y0053704D02*
X0152851Y0053704D01*
X0152851Y0053802D02*
X0111324Y0053802D01*
X0111324Y0053901D02*
X0152851Y0053901D01*
X0152850Y0053999D02*
X0111324Y0053999D01*
X0111324Y0054098D02*
X0152850Y0054098D01*
X0152850Y0054196D02*
X0111324Y0054196D01*
X0111324Y0054295D02*
X0152850Y0054295D01*
X0152849Y0054393D02*
X0111323Y0054393D01*
X0111323Y0054492D02*
X0152849Y0054492D01*
X0152849Y0054590D02*
X0111323Y0054590D01*
X0111323Y0054689D02*
X0152848Y0054689D01*
X0152848Y0054787D02*
X0111323Y0054787D01*
X0111323Y0054886D02*
X0152848Y0054886D01*
X0152848Y0054984D02*
X0111323Y0054984D01*
X0111322Y0055083D02*
X0152847Y0055083D01*
X0152847Y0055181D02*
X0111322Y0055181D01*
X0111322Y0055280D02*
X0152847Y0055280D01*
X0152847Y0055378D02*
X0111322Y0055378D01*
X0111322Y0055477D02*
X0152846Y0055477D01*
X0152846Y0055575D02*
X0111322Y0055575D01*
X0111321Y0055674D02*
X0152846Y0055674D01*
X0152846Y0055772D02*
X0111321Y0055772D01*
X0111321Y0055871D02*
X0152845Y0055871D01*
X0152845Y0055969D02*
X0111321Y0055969D01*
X0111321Y0056068D02*
X0152845Y0056068D01*
X0152845Y0056166D02*
X0111321Y0056166D01*
X0111350Y0056265D02*
X0152844Y0056265D01*
X0152844Y0056364D02*
X0111615Y0056364D01*
X0111880Y0056462D02*
X0152844Y0056462D01*
X0152844Y0056561D02*
X0112145Y0056561D01*
X0112410Y0056659D02*
X0152843Y0056659D01*
X0152843Y0056758D02*
X0112674Y0056758D01*
X0112939Y0056856D02*
X0152843Y0056856D01*
X0152842Y0056955D02*
X0113204Y0056955D01*
X0113469Y0057053D02*
X0152842Y0057053D01*
X0152842Y0057152D02*
X0113732Y0057152D01*
X0113991Y0057250D02*
X0152842Y0057250D01*
X0152841Y0057349D02*
X0114251Y0057349D01*
X0114511Y0057447D02*
X0152841Y0057447D01*
X0152841Y0057546D02*
X0114771Y0057546D01*
X0115031Y0057644D02*
X0152841Y0057644D01*
X0152840Y0057743D02*
X0115290Y0057743D01*
X0115550Y0057841D02*
X0152840Y0057841D01*
X0152840Y0057940D02*
X0115810Y0057940D01*
X0116070Y0058038D02*
X0152840Y0058038D01*
X0152839Y0058137D02*
X0116330Y0058137D01*
X0116590Y0058235D02*
X0152839Y0058235D01*
X0152839Y0058334D02*
X0116849Y0058334D01*
X0117109Y0058432D02*
X0152839Y0058432D01*
X0152838Y0058531D02*
X0117369Y0058531D01*
X0117629Y0058629D02*
X0152838Y0058629D01*
X0152838Y0058728D02*
X0117889Y0058728D01*
X0118149Y0058826D02*
X0152838Y0058826D01*
X0152837Y0058925D02*
X0118408Y0058925D01*
X0118668Y0059023D02*
X0152837Y0059023D01*
X0152837Y0059122D02*
X0118928Y0059122D01*
X0119188Y0059220D02*
X0152837Y0059220D01*
X0152836Y0059319D02*
X0119448Y0059319D01*
X0119708Y0059417D02*
X0152836Y0059417D01*
X0152836Y0059516D02*
X0119967Y0059516D01*
X0120227Y0059614D02*
X0152835Y0059614D01*
X0152835Y0059713D02*
X0120487Y0059713D01*
X0120747Y0059811D02*
X0152835Y0059811D01*
X0152835Y0059910D02*
X0121007Y0059910D01*
X0121266Y0060008D02*
X0152834Y0060008D01*
X0152834Y0060107D02*
X0121526Y0060107D01*
X0121786Y0060205D02*
X0152834Y0060205D01*
X0152834Y0060304D02*
X0122046Y0060304D01*
X0122306Y0060402D02*
X0152833Y0060402D01*
X0152833Y0060501D02*
X0122566Y0060501D01*
X0122825Y0060599D02*
X0152833Y0060599D01*
X0152833Y0060698D02*
X0123085Y0060698D01*
X0123345Y0060797D02*
X0152832Y0060797D01*
X0152832Y0060895D02*
X0123605Y0060895D01*
X0123865Y0060994D02*
X0152832Y0060994D01*
X0152832Y0061092D02*
X0124125Y0061092D01*
X0124384Y0061191D02*
X0152831Y0061191D01*
X0152831Y0061289D02*
X0124644Y0061289D01*
X0124904Y0061388D02*
X0152831Y0061388D01*
X0152831Y0061486D02*
X0125164Y0061486D01*
X0125424Y0061585D02*
X0152830Y0061585D01*
X0152830Y0061683D02*
X0125684Y0061683D01*
X0125943Y0061782D02*
X0152830Y0061782D01*
X0152830Y0061880D02*
X0126203Y0061880D01*
X0126463Y0061979D02*
X0152829Y0061979D01*
X0152829Y0062077D02*
X0126723Y0062077D01*
X0126983Y0062176D02*
X0152829Y0062176D01*
X0152828Y0062274D02*
X0127242Y0062274D01*
X0127502Y0062373D02*
X0152828Y0062373D01*
X0152828Y0062471D02*
X0127762Y0062471D01*
X0128022Y0062570D02*
X0152828Y0062570D01*
X0152827Y0062668D02*
X0128282Y0062668D01*
X0128542Y0062767D02*
X0152827Y0062767D01*
X0152827Y0062865D02*
X0128801Y0062865D01*
X0129061Y0062964D02*
X0152827Y0062964D01*
X0152826Y0063062D02*
X0129321Y0063062D01*
X0129581Y0063161D02*
X0152826Y0063161D01*
X0152826Y0063259D02*
X0129841Y0063259D01*
X0130101Y0063358D02*
X0152826Y0063358D01*
X0152825Y0063456D02*
X0130360Y0063456D01*
X0130620Y0063555D02*
X0152825Y0063555D01*
X0152825Y0063653D02*
X0130880Y0063653D01*
X0131140Y0063752D02*
X0152825Y0063752D01*
X0152824Y0063850D02*
X0131400Y0063850D01*
X0131659Y0063949D02*
X0152824Y0063949D01*
X0152824Y0064047D02*
X0131919Y0064047D01*
X0132179Y0064146D02*
X0152824Y0064146D01*
X0152823Y0064244D02*
X0132439Y0064244D01*
X0132699Y0064343D02*
X0152823Y0064343D01*
X0152823Y0064441D02*
X0132959Y0064441D01*
X0133218Y0064540D02*
X0152822Y0064540D01*
X0152822Y0064638D02*
X0133478Y0064638D01*
X0133738Y0064737D02*
X0152822Y0064737D01*
X0152822Y0064835D02*
X0133998Y0064835D01*
X0134258Y0064934D02*
X0152821Y0064934D01*
X0152821Y0065033D02*
X0134518Y0065033D01*
X0134777Y0065131D02*
X0152821Y0065131D01*
X0152821Y0065230D02*
X0135037Y0065230D01*
X0135297Y0065328D02*
X0152820Y0065328D01*
X0152820Y0065427D02*
X0135557Y0065427D01*
X0135817Y0065525D02*
X0152820Y0065525D01*
X0152820Y0065624D02*
X0136077Y0065624D01*
X0136336Y0065722D02*
X0152819Y0065722D01*
X0152819Y0065821D02*
X0136596Y0065821D01*
X0136856Y0065919D02*
X0152819Y0065919D01*
X0152819Y0066018D02*
X0137116Y0066018D01*
X0137376Y0066116D02*
X0152818Y0066116D01*
X0152818Y0066215D02*
X0137635Y0066215D01*
X0137895Y0066313D02*
X0152818Y0066313D01*
X0152818Y0066412D02*
X0138155Y0066412D01*
X0138415Y0066510D02*
X0152817Y0066510D01*
X0152817Y0066609D02*
X0138675Y0066609D01*
X0138935Y0066707D02*
X0152817Y0066707D01*
X0152816Y0066806D02*
X0139194Y0066806D01*
X0139454Y0066904D02*
X0152816Y0066904D01*
X0152816Y0067003D02*
X0139714Y0067003D01*
X0139974Y0067101D02*
X0152816Y0067101D01*
X0152815Y0067200D02*
X0140234Y0067200D01*
X0140494Y0067298D02*
X0152815Y0067298D01*
X0152815Y0067397D02*
X0140753Y0067397D01*
X0141013Y0067495D02*
X0152815Y0067495D01*
X0152814Y0067594D02*
X0141273Y0067594D01*
X0141533Y0067692D02*
X0152814Y0067692D01*
X0152814Y0067791D02*
X0141793Y0067791D01*
X0142053Y0067889D02*
X0152814Y0067889D01*
X0152813Y0067988D02*
X0142312Y0067988D01*
X0142572Y0068086D02*
X0152813Y0068086D01*
X0152813Y0068185D02*
X0142832Y0068185D01*
X0143092Y0068283D02*
X0152813Y0068283D01*
X0152812Y0068382D02*
X0143352Y0068382D01*
X0143611Y0068480D02*
X0152812Y0068480D01*
X0152812Y0068579D02*
X0143871Y0068579D01*
X0144131Y0068677D02*
X0152812Y0068677D01*
X0152811Y0068776D02*
X0144391Y0068776D01*
X0144651Y0068874D02*
X0152811Y0068874D01*
X0152811Y0068973D02*
X0144911Y0068973D01*
X0145170Y0069071D02*
X0152811Y0069071D01*
X0152810Y0069170D02*
X0145430Y0069170D01*
X0145690Y0069268D02*
X0152810Y0069268D01*
X0152810Y0069367D02*
X0145950Y0069367D01*
X0146210Y0069466D02*
X0152809Y0069466D01*
X0152809Y0069564D02*
X0146470Y0069564D01*
X0146729Y0069663D02*
X0152809Y0069663D01*
X0152809Y0069761D02*
X0146989Y0069761D01*
X0147249Y0069860D02*
X0152808Y0069860D01*
X0152808Y0069958D02*
X0147509Y0069958D01*
X0147769Y0070057D02*
X0152808Y0070057D01*
X0152808Y0070155D02*
X0148029Y0070155D01*
X0148288Y0070254D02*
X0152807Y0070254D01*
X0152807Y0070352D02*
X0148548Y0070352D01*
X0148808Y0070451D02*
X0152807Y0070451D01*
X0152807Y0070549D02*
X0149068Y0070549D01*
X0149328Y0070648D02*
X0152806Y0070648D01*
X0152806Y0070746D02*
X0149587Y0070746D01*
X0149847Y0070845D02*
X0152806Y0070845D01*
X0152806Y0070943D02*
X0150107Y0070943D01*
X0150367Y0071042D02*
X0152805Y0071042D01*
X0152805Y0071140D02*
X0150627Y0071140D01*
X0150887Y0071239D02*
X0152805Y0071239D01*
X0152805Y0071337D02*
X0151146Y0071337D01*
X0151406Y0071436D02*
X0152804Y0071436D01*
X0152804Y0071534D02*
X0151666Y0071534D01*
X0151926Y0071633D02*
X0152804Y0071633D01*
X0152804Y0071731D02*
X0152186Y0071731D01*
X0152446Y0071830D02*
X0152803Y0071830D01*
X0152803Y0071928D02*
X0152705Y0071928D01*
X0264583Y0119805D02*
X0297412Y0119805D01*
X0297412Y0119903D02*
X0264583Y0119903D01*
X0264583Y0120002D02*
X0297412Y0120002D01*
X0297412Y0120100D02*
X0264583Y0120100D01*
X0264583Y0120199D02*
X0297412Y0120199D01*
X0297412Y0120297D02*
X0264583Y0120297D01*
X0264583Y0120396D02*
X0297412Y0120396D01*
X0297412Y0120494D02*
X0264584Y0120494D01*
X0264584Y0120593D02*
X0297412Y0120593D01*
X0297412Y0120691D02*
X0264584Y0120691D01*
X0264584Y0120790D02*
X0297412Y0120790D01*
X0297413Y0120888D02*
X0264584Y0120888D01*
X0264584Y0120987D02*
X0297413Y0120987D01*
X0297413Y0121085D02*
X0264585Y0121085D01*
X0264585Y0121184D02*
X0297413Y0121184D01*
X0297413Y0121282D02*
X0264585Y0121282D01*
X0264585Y0121381D02*
X0297413Y0121381D01*
X0297413Y0121479D02*
X0264585Y0121479D01*
X0264585Y0121578D02*
X0297413Y0121578D01*
X0297413Y0121677D02*
X0264585Y0121677D01*
X0264586Y0121775D02*
X0297413Y0121775D01*
X0297413Y0121874D02*
X0264586Y0121874D01*
X0264586Y0121972D02*
X0297413Y0121972D01*
X0297413Y0122071D02*
X0264586Y0122071D01*
X0264586Y0122169D02*
X0297413Y0122169D01*
X0297413Y0122268D02*
X0264586Y0122268D01*
X0264586Y0122366D02*
X0297413Y0122366D01*
X0297413Y0122465D02*
X0264587Y0122465D01*
X0264587Y0122563D02*
X0297413Y0122563D01*
X0297413Y0122662D02*
X0264587Y0122662D01*
X0264587Y0122760D02*
X0297413Y0122760D01*
X0297413Y0122859D02*
X0264587Y0122859D01*
X0264587Y0122957D02*
X0297413Y0122957D01*
X0297413Y0123056D02*
X0264588Y0123056D01*
X0264588Y0123154D02*
X0297413Y0123154D01*
X0297413Y0123253D02*
X0264588Y0123253D01*
X0264588Y0123351D02*
X0297413Y0123351D01*
X0297413Y0123450D02*
X0264588Y0123450D01*
X0264588Y0123548D02*
X0297414Y0123548D01*
X0297414Y0123647D02*
X0264588Y0123647D01*
X0264589Y0123745D02*
X0297414Y0123745D01*
X0297414Y0123844D02*
X0264589Y0123844D01*
X0264589Y0123942D02*
X0297414Y0123942D01*
X0297414Y0124041D02*
X0264589Y0124041D01*
X0264589Y0124139D02*
X0297414Y0124139D01*
X0297414Y0124238D02*
X0264589Y0124238D01*
X0264590Y0124336D02*
X0297414Y0124336D01*
X0297414Y0124435D02*
X0264590Y0124435D01*
X0264590Y0124533D02*
X0297414Y0124533D01*
X0297414Y0124632D02*
X0264590Y0124632D01*
X0264590Y0124730D02*
X0297414Y0124730D01*
X0297414Y0124829D02*
X0264590Y0124829D01*
X0264590Y0124927D02*
X0297414Y0124927D01*
X0297414Y0125026D02*
X0264591Y0125026D01*
X0264591Y0125124D02*
X0297414Y0125124D01*
X0297414Y0125223D02*
X0264591Y0125223D01*
X0264591Y0125321D02*
X0297414Y0125321D01*
X0297414Y0125420D02*
X0264591Y0125420D01*
X0264591Y0125518D02*
X0297414Y0125518D01*
X0297414Y0125617D02*
X0264591Y0125617D01*
X0264592Y0125715D02*
X0297414Y0125715D01*
X0297414Y0125814D02*
X0264592Y0125814D01*
X0264592Y0125912D02*
X0297414Y0125912D01*
X0297414Y0126011D02*
X0264592Y0126011D01*
X0264592Y0126110D02*
X0297415Y0126110D01*
X0297415Y0126208D02*
X0264592Y0126208D01*
X0264593Y0126307D02*
X0297415Y0126307D01*
X0297415Y0126405D02*
X0264593Y0126405D01*
X0264593Y0126504D02*
X0297415Y0126504D01*
X0297415Y0126602D02*
X0264593Y0126602D01*
X0264593Y0126701D02*
X0297415Y0126701D01*
X0297415Y0126799D02*
X0264593Y0126799D01*
X0264593Y0126898D02*
X0297415Y0126898D01*
X0297415Y0126996D02*
X0264594Y0126996D01*
X0264594Y0127095D02*
X0297415Y0127095D01*
X0297415Y0127193D02*
X0264594Y0127193D01*
X0264594Y0127292D02*
X0297415Y0127292D01*
X0297415Y0127390D02*
X0264594Y0127390D01*
X0264594Y0127489D02*
X0297415Y0127489D01*
X0297415Y0127587D02*
X0264594Y0127587D01*
X0264595Y0127686D02*
X0297415Y0127686D01*
X0297415Y0127784D02*
X0264595Y0127784D01*
X0264595Y0127883D02*
X0297415Y0127883D01*
X0297415Y0127981D02*
X0264595Y0127981D01*
X0264595Y0128080D02*
X0297415Y0128080D01*
X0297415Y0128178D02*
X0264595Y0128178D01*
X0264596Y0128277D02*
X0297415Y0128277D01*
X0297415Y0128375D02*
X0264596Y0128375D01*
X0264596Y0128474D02*
X0297415Y0128474D01*
X0297415Y0128572D02*
X0264596Y0128572D01*
X0264596Y0128671D02*
X0297415Y0128671D01*
X0297416Y0128769D02*
X0264596Y0128769D01*
X0264596Y0128868D02*
X0297416Y0128868D01*
X0297416Y0128966D02*
X0264597Y0128966D01*
X0264597Y0129065D02*
X0297416Y0129065D01*
X0297416Y0129163D02*
X0264597Y0129163D01*
X0264597Y0129262D02*
X0297416Y0129262D01*
X0297416Y0129360D02*
X0264597Y0129360D01*
X0264597Y0129459D02*
X0297416Y0129459D01*
X0297416Y0129557D02*
X0264597Y0129557D01*
X0264598Y0129656D02*
X0297416Y0129656D01*
X0297416Y0129754D02*
X0264598Y0129754D01*
X0264598Y0129853D02*
X0297416Y0129853D01*
X0297416Y0129951D02*
X0264598Y0129951D01*
X0264598Y0130050D02*
X0297416Y0130050D01*
X0297416Y0130148D02*
X0264598Y0130148D01*
X0264599Y0130247D02*
X0297416Y0130247D01*
X0297416Y0130346D02*
X0264599Y0130346D01*
X0264599Y0130444D02*
X0297416Y0130444D01*
X0297416Y0130543D02*
X0264599Y0130543D01*
X0264599Y0130641D02*
X0297416Y0130641D01*
X0297416Y0130740D02*
X0264599Y0130740D01*
X0264599Y0130838D02*
X0297416Y0130838D01*
X0297416Y0130937D02*
X0264600Y0130937D01*
X0264600Y0131035D02*
X0297416Y0131035D01*
X0297416Y0131134D02*
X0264600Y0131134D01*
X0264600Y0131232D02*
X0297416Y0131232D01*
X0297416Y0131331D02*
X0264600Y0131331D01*
X0264600Y0131429D02*
X0297417Y0131429D01*
X0297417Y0131528D02*
X0264601Y0131528D01*
X0264601Y0131626D02*
X0297417Y0131626D01*
X0297417Y0131725D02*
X0264601Y0131725D01*
X0264601Y0131823D02*
X0297417Y0131823D01*
X0297417Y0131922D02*
X0264601Y0131922D01*
X0264601Y0132020D02*
X0297417Y0132020D01*
X0297417Y0132119D02*
X0264601Y0132119D01*
X0264602Y0132217D02*
X0297417Y0132217D01*
X0297417Y0132316D02*
X0264602Y0132316D01*
X0264602Y0132414D02*
X0297417Y0132414D01*
X0297417Y0132513D02*
X0264602Y0132513D01*
X0264602Y0132611D02*
X0297417Y0132611D01*
X0297417Y0132710D02*
X0264602Y0132710D01*
X0264602Y0132808D02*
X0297417Y0132808D01*
X0297417Y0132907D02*
X0264603Y0132907D01*
X0264603Y0133005D02*
X0297417Y0133005D01*
X0297417Y0133104D02*
X0264603Y0133104D01*
X0264603Y0133202D02*
X0297417Y0133202D01*
X0297417Y0133301D02*
X0264603Y0133301D01*
X0264603Y0133399D02*
X0297417Y0133399D01*
X0297417Y0133498D02*
X0264604Y0133498D01*
X0264604Y0133596D02*
X0297417Y0133596D01*
X0297417Y0133695D02*
X0264604Y0133695D01*
X0264604Y0133793D02*
X0297417Y0133793D01*
X0297417Y0133892D02*
X0264604Y0133892D01*
X0264604Y0133990D02*
X0297418Y0133990D01*
X0297418Y0134089D02*
X0264604Y0134089D01*
X0264605Y0134187D02*
X0297418Y0134187D01*
X0297418Y0134286D02*
X0264605Y0134286D01*
X0264605Y0134384D02*
X0297418Y0134384D01*
X0297418Y0134483D02*
X0264605Y0134483D01*
X0264605Y0134581D02*
X0297418Y0134581D01*
X0297418Y0134680D02*
X0264605Y0134680D01*
X0264605Y0134779D02*
X0297418Y0134779D01*
X0297418Y0134877D02*
X0264606Y0134877D01*
X0264606Y0134976D02*
X0297418Y0134976D01*
X0297418Y0135074D02*
X0264606Y0135074D01*
X0264606Y0135173D02*
X0297418Y0135173D01*
X0297418Y0135271D02*
X0264606Y0135271D01*
X0264606Y0135370D02*
X0297418Y0135370D01*
X0297418Y0135468D02*
X0264607Y0135468D01*
X0264607Y0135567D02*
X0297418Y0135567D01*
X0297418Y0135665D02*
X0264607Y0135665D01*
X0264607Y0135764D02*
X0297418Y0135764D01*
X0297418Y0135862D02*
X0264607Y0135862D01*
X0264607Y0135961D02*
X0297418Y0135961D01*
X0297418Y0136059D02*
X0264607Y0136059D01*
X0264608Y0136158D02*
X0297418Y0136158D01*
X0297418Y0136256D02*
X0264608Y0136256D01*
X0264608Y0136355D02*
X0297418Y0136355D01*
X0297418Y0136453D02*
X0264608Y0136453D01*
X0264608Y0136552D02*
X0297418Y0136552D01*
X0297419Y0136650D02*
X0264608Y0136650D01*
X0264608Y0136749D02*
X0297419Y0136749D01*
X0297419Y0136847D02*
X0264609Y0136847D01*
X0264609Y0136946D02*
X0297419Y0136946D01*
X0297419Y0137044D02*
X0264609Y0137044D01*
X0264609Y0137143D02*
X0297419Y0137143D01*
X0297419Y0137241D02*
X0264609Y0137241D01*
X0264768Y0137340D02*
X0297419Y0137340D01*
X0297419Y0137438D02*
X0264988Y0137438D01*
X0265208Y0137537D02*
X0297419Y0137537D01*
X0297419Y0137635D02*
X0265427Y0137635D01*
X0265647Y0137734D02*
X0297419Y0137734D01*
X0297419Y0137832D02*
X0265867Y0137832D01*
X0266087Y0137931D02*
X0297419Y0137931D01*
X0297419Y0138029D02*
X0266307Y0138029D01*
X0266527Y0138128D02*
X0297419Y0138128D01*
X0297419Y0138226D02*
X0266747Y0138226D01*
X0266966Y0138325D02*
X0297419Y0138325D01*
X0297419Y0138423D02*
X0267186Y0138423D01*
X0267406Y0138522D02*
X0297419Y0138522D01*
X0297419Y0138620D02*
X0267626Y0138620D01*
X0267846Y0138719D02*
X0297419Y0138719D01*
X0297419Y0138817D02*
X0268066Y0138817D01*
X0268286Y0138916D02*
X0297419Y0138916D01*
X0297419Y0139015D02*
X0268506Y0139015D01*
X0268725Y0139113D02*
X0297419Y0139113D01*
X0297420Y0139212D02*
X0268945Y0139212D01*
X0269165Y0139310D02*
X0297420Y0139310D01*
X0297420Y0139409D02*
X0269385Y0139409D01*
X0269605Y0139507D02*
X0297420Y0139507D01*
X0297420Y0139606D02*
X0269825Y0139606D01*
X0270045Y0139704D02*
X0297420Y0139704D01*
X0297420Y0139803D02*
X0270264Y0139803D01*
X0270484Y0139901D02*
X0297420Y0139901D01*
X0297420Y0140000D02*
X0270704Y0140000D01*
X0270924Y0140098D02*
X0297420Y0140098D01*
X0297420Y0140197D02*
X0271144Y0140197D01*
X0271364Y0140295D02*
X0297420Y0140295D01*
X0297420Y0140394D02*
X0271584Y0140394D01*
X0271803Y0140492D02*
X0297420Y0140492D01*
X0297420Y0140591D02*
X0272023Y0140591D01*
X0272243Y0140689D02*
X0297420Y0140689D01*
X0297420Y0140788D02*
X0272463Y0140788D01*
X0272683Y0140886D02*
X0297420Y0140886D01*
X0297420Y0140985D02*
X0272903Y0140985D01*
X0273123Y0141083D02*
X0297420Y0141083D01*
X0297420Y0141182D02*
X0273343Y0141182D01*
X0273562Y0141280D02*
X0297420Y0141280D01*
X0297420Y0141379D02*
X0273782Y0141379D01*
X0274002Y0141477D02*
X0297420Y0141477D01*
X0297420Y0141576D02*
X0274222Y0141576D01*
X0274442Y0141674D02*
X0297420Y0141674D01*
X0297420Y0141773D02*
X0274662Y0141773D01*
X0274882Y0141871D02*
X0297421Y0141871D01*
X0297421Y0141970D02*
X0275101Y0141970D01*
X0275321Y0142068D02*
X0297421Y0142068D01*
X0297421Y0142167D02*
X0275541Y0142167D01*
X0275761Y0142265D02*
X0297421Y0142265D01*
X0297421Y0142364D02*
X0275981Y0142364D01*
X0276201Y0142462D02*
X0297421Y0142462D01*
X0297421Y0142561D02*
X0276421Y0142561D01*
X0276641Y0142659D02*
X0297421Y0142659D01*
X0297421Y0142758D02*
X0276860Y0142758D01*
X0277080Y0142856D02*
X0297421Y0142856D01*
X0297421Y0142955D02*
X0277300Y0142955D01*
X0277520Y0143053D02*
X0297421Y0143053D01*
X0297421Y0143152D02*
X0277740Y0143152D01*
X0277960Y0143250D02*
X0297421Y0143250D01*
X0297421Y0143349D02*
X0278180Y0143349D01*
X0278399Y0143448D02*
X0297421Y0143448D01*
X0297421Y0143546D02*
X0278619Y0143546D01*
X0278839Y0143645D02*
X0297421Y0143645D01*
X0297421Y0143743D02*
X0279059Y0143743D01*
X0279279Y0143842D02*
X0297421Y0143842D01*
X0297421Y0143940D02*
X0279499Y0143940D01*
X0279719Y0144039D02*
X0297421Y0144039D01*
X0297421Y0144137D02*
X0279938Y0144137D01*
X0280158Y0144236D02*
X0297421Y0144236D01*
X0297421Y0144334D02*
X0280378Y0144334D01*
X0280598Y0144433D02*
X0297421Y0144433D01*
X0297422Y0144531D02*
X0280818Y0144531D01*
X0281038Y0144630D02*
X0297422Y0144630D01*
X0297422Y0144728D02*
X0281258Y0144728D01*
X0281478Y0144827D02*
X0297422Y0144827D01*
X0297422Y0144925D02*
X0281697Y0144925D01*
X0281917Y0145024D02*
X0297422Y0145024D01*
X0297422Y0145122D02*
X0282137Y0145122D01*
X0282357Y0145221D02*
X0297422Y0145221D01*
X0297422Y0145319D02*
X0282577Y0145319D01*
X0282797Y0145418D02*
X0297422Y0145418D01*
X0297422Y0145516D02*
X0283017Y0145516D01*
X0283236Y0145615D02*
X0297422Y0145615D01*
X0297422Y0145713D02*
X0283456Y0145713D01*
X0283676Y0145812D02*
X0297422Y0145812D01*
X0297422Y0145910D02*
X0283896Y0145910D01*
X0284116Y0146009D02*
X0297422Y0146009D01*
X0297422Y0146107D02*
X0284336Y0146107D01*
X0284556Y0146206D02*
X0297422Y0146206D01*
X0297422Y0146304D02*
X0284776Y0146304D01*
X0284995Y0146403D02*
X0297422Y0146403D01*
X0297422Y0146501D02*
X0285215Y0146501D01*
X0285435Y0146600D02*
X0297422Y0146600D01*
X0297422Y0146698D02*
X0285655Y0146698D01*
X0285875Y0146797D02*
X0297422Y0146797D01*
X0297422Y0146895D02*
X0286095Y0146895D01*
X0286315Y0146994D02*
X0297422Y0146994D01*
X0297423Y0147092D02*
X0286534Y0147092D01*
X0286754Y0147191D02*
X0297423Y0147191D01*
X0297423Y0147289D02*
X0286974Y0147289D01*
X0287194Y0147388D02*
X0297423Y0147388D01*
X0297423Y0147486D02*
X0287414Y0147486D01*
X0287634Y0147585D02*
X0297423Y0147585D01*
X0297423Y0147684D02*
X0287854Y0147684D01*
X0288074Y0147782D02*
X0297423Y0147782D01*
X0297423Y0147881D02*
X0288293Y0147881D01*
X0288513Y0147979D02*
X0297423Y0147979D01*
X0297423Y0148078D02*
X0288733Y0148078D01*
X0288953Y0148176D02*
X0297423Y0148176D01*
X0297423Y0148275D02*
X0289173Y0148275D01*
X0289393Y0148373D02*
X0297423Y0148373D01*
X0297423Y0148472D02*
X0289613Y0148472D01*
X0289832Y0148570D02*
X0297423Y0148570D01*
X0297423Y0148669D02*
X0290052Y0148669D01*
X0290272Y0148767D02*
X0297423Y0148767D01*
X0297423Y0148866D02*
X0290492Y0148866D01*
X0290712Y0148964D02*
X0297423Y0148964D01*
X0297423Y0149063D02*
X0290932Y0149063D01*
X0291152Y0149161D02*
X0297423Y0149161D01*
X0297423Y0149260D02*
X0291371Y0149260D01*
X0291591Y0149358D02*
X0297423Y0149358D01*
X0297423Y0149457D02*
X0291811Y0149457D01*
X0292031Y0149555D02*
X0297423Y0149555D01*
X0297423Y0149654D02*
X0292251Y0149654D01*
X0292471Y0149752D02*
X0297424Y0149752D01*
X0297424Y0149851D02*
X0292691Y0149851D01*
X0292911Y0149949D02*
X0297424Y0149949D01*
X0297424Y0150048D02*
X0293130Y0150048D01*
X0293350Y0150146D02*
X0297424Y0150146D01*
X0297424Y0150245D02*
X0293570Y0150245D01*
X0293819Y0150343D02*
X0297424Y0150343D01*
X0297424Y0150442D02*
X0294074Y0150442D01*
X0294329Y0150540D02*
X0297424Y0150540D01*
X0297424Y0150639D02*
X0294585Y0150639D01*
X0294840Y0150737D02*
X0297424Y0150737D01*
X0297424Y0150836D02*
X0295095Y0150836D01*
X0295351Y0150934D02*
X0297424Y0150934D01*
X0297424Y0151033D02*
X0295606Y0151033D01*
X0295862Y0151131D02*
X0297424Y0151131D01*
X0297424Y0151230D02*
X0296117Y0151230D01*
X0296372Y0151328D02*
X0297424Y0151328D01*
X0297424Y0151427D02*
X0296628Y0151427D01*
X0296883Y0151525D02*
X0297424Y0151525D01*
X0297424Y0151624D02*
X0297138Y0151624D01*
X0297394Y0151722D02*
X0297424Y0151722D01*
X0248287Y0151722D02*
X0235046Y0151722D01*
X0234805Y0151624D02*
X0248287Y0151624D01*
X0248287Y0151525D02*
X0234564Y0151525D01*
X0234324Y0151427D02*
X0248287Y0151427D01*
X0248287Y0151328D02*
X0234083Y0151328D01*
X0233842Y0151230D02*
X0248288Y0151230D01*
X0248288Y0151131D02*
X0233601Y0151131D01*
X0233361Y0151033D02*
X0248288Y0151033D01*
X0248288Y0150934D02*
X0233120Y0150934D01*
X0232879Y0150836D02*
X0248288Y0150836D01*
X0248288Y0150737D02*
X0232638Y0150737D01*
X0232397Y0150639D02*
X0248288Y0150639D01*
X0248288Y0150540D02*
X0232157Y0150540D01*
X0231916Y0150442D02*
X0248288Y0150442D01*
X0248288Y0150343D02*
X0231675Y0150343D01*
X0231434Y0150245D02*
X0248288Y0150245D01*
X0248288Y0150146D02*
X0231193Y0150146D01*
X0230953Y0150048D02*
X0248288Y0150048D01*
X0248288Y0149949D02*
X0230712Y0149949D01*
X0230471Y0149851D02*
X0248288Y0149851D01*
X0248288Y0149752D02*
X0230230Y0149752D01*
X0229989Y0149654D02*
X0248288Y0149654D01*
X0248288Y0149555D02*
X0229749Y0149555D01*
X0229508Y0149457D02*
X0248288Y0149457D01*
X0248288Y0149358D02*
X0229267Y0149358D01*
X0229026Y0149260D02*
X0248288Y0149260D01*
X0248288Y0149161D02*
X0228786Y0149161D01*
X0228545Y0149063D02*
X0248288Y0149063D01*
X0248288Y0148964D02*
X0228304Y0148964D01*
X0228063Y0148866D02*
X0248288Y0148866D01*
X0248288Y0148767D02*
X0227822Y0148767D01*
X0227582Y0148669D02*
X0248288Y0148669D01*
X0248288Y0148570D02*
X0227341Y0148570D01*
X0227100Y0148472D02*
X0248288Y0148472D01*
X0248288Y0148373D02*
X0226859Y0148373D01*
X0226618Y0148275D02*
X0248288Y0148275D01*
X0248288Y0148176D02*
X0226378Y0148176D01*
X0226137Y0148078D02*
X0248288Y0148078D01*
X0248288Y0147979D02*
X0225896Y0147979D01*
X0225655Y0147881D02*
X0248288Y0147881D01*
X0248289Y0147782D02*
X0225414Y0147782D01*
X0225174Y0147684D02*
X0248289Y0147684D01*
X0248289Y0147585D02*
X0224933Y0147585D01*
X0224692Y0147486D02*
X0248289Y0147486D01*
X0248289Y0147388D02*
X0224451Y0147388D01*
X0224210Y0147289D02*
X0248289Y0147289D01*
X0248289Y0147191D02*
X0223970Y0147191D01*
X0223729Y0147092D02*
X0248289Y0147092D01*
X0248289Y0146994D02*
X0223488Y0146994D01*
X0223247Y0146895D02*
X0248289Y0146895D01*
X0248289Y0146797D02*
X0223007Y0146797D01*
X0222766Y0146698D02*
X0248289Y0146698D01*
X0248289Y0146600D02*
X0222525Y0146600D01*
X0222284Y0146501D02*
X0248289Y0146501D01*
X0248289Y0146403D02*
X0222043Y0146403D01*
X0221803Y0146304D02*
X0248289Y0146304D01*
X0248289Y0146206D02*
X0221562Y0146206D01*
X0221321Y0146107D02*
X0248289Y0146107D01*
X0248289Y0146009D02*
X0221080Y0146009D01*
X0220839Y0145910D02*
X0248289Y0145910D01*
X0248289Y0145812D02*
X0220599Y0145812D01*
X0220358Y0145713D02*
X0248289Y0145713D01*
X0248289Y0145615D02*
X0220117Y0145615D01*
X0219876Y0145516D02*
X0248289Y0145516D01*
X0248289Y0145418D02*
X0219635Y0145418D01*
X0219395Y0145319D02*
X0248289Y0145319D01*
X0248289Y0145221D02*
X0219154Y0145221D01*
X0218913Y0145122D02*
X0248289Y0145122D01*
X0248289Y0145024D02*
X0218672Y0145024D01*
X0218432Y0144925D02*
X0248289Y0144925D01*
X0248289Y0144827D02*
X0218191Y0144827D01*
X0217950Y0144728D02*
X0248289Y0144728D01*
X0248289Y0144630D02*
X0217709Y0144630D01*
X0235287Y0151821D02*
X0248287Y0151821D01*
X0248287Y0151919D02*
X0235528Y0151919D01*
X0235768Y0152018D02*
X0248287Y0152018D01*
X0248287Y0152117D02*
X0236009Y0152117D01*
X0236250Y0152215D02*
X0248287Y0152215D01*
X0248287Y0152314D02*
X0236491Y0152314D01*
X0236732Y0152412D02*
X0248287Y0152412D01*
X0248287Y0152511D02*
X0236972Y0152511D01*
X0237213Y0152609D02*
X0248287Y0152609D01*
X0248287Y0152708D02*
X0237454Y0152708D01*
X0237695Y0152806D02*
X0248287Y0152806D01*
X0248287Y0152905D02*
X0237936Y0152905D01*
X0238176Y0153003D02*
X0248287Y0153003D01*
X0248287Y0153102D02*
X0238417Y0153102D01*
X0238658Y0153200D02*
X0248287Y0153200D01*
X0248287Y0153299D02*
X0238899Y0153299D01*
X0239140Y0153397D02*
X0248287Y0153397D01*
X0248287Y0153496D02*
X0239380Y0153496D01*
X0239621Y0153594D02*
X0248287Y0153594D01*
X0248287Y0153693D02*
X0239862Y0153693D01*
X0240103Y0153791D02*
X0248287Y0153791D01*
X0248287Y0153890D02*
X0240343Y0153890D01*
X0240584Y0153988D02*
X0248287Y0153988D01*
X0248287Y0154087D02*
X0240825Y0154087D01*
X0241066Y0154185D02*
X0248287Y0154185D01*
X0248287Y0154284D02*
X0241307Y0154284D01*
X0241547Y0154382D02*
X0248287Y0154382D01*
X0248287Y0154481D02*
X0241788Y0154481D01*
X0242029Y0154579D02*
X0248287Y0154579D01*
X0248286Y0154678D02*
X0242270Y0154678D01*
X0242511Y0154776D02*
X0248286Y0154776D01*
X0248286Y0154875D02*
X0242751Y0154875D01*
X0242992Y0154973D02*
X0248286Y0154973D01*
X0248286Y0155072D02*
X0243233Y0155072D01*
X0243474Y0155170D02*
X0248286Y0155170D01*
X0248286Y0155269D02*
X0243715Y0155269D01*
X0243955Y0155367D02*
X0248286Y0155367D01*
X0248286Y0155466D02*
X0244196Y0155466D01*
X0244437Y0155564D02*
X0248286Y0155564D01*
X0248286Y0155663D02*
X0244678Y0155663D01*
X0244918Y0155761D02*
X0248286Y0155761D01*
X0248286Y0155860D02*
X0245159Y0155860D01*
X0245400Y0155958D02*
X0248286Y0155958D01*
X0248286Y0156057D02*
X0245641Y0156057D01*
X0245882Y0156155D02*
X0248286Y0156155D01*
X0248286Y0156254D02*
X0246122Y0156254D01*
X0246363Y0156352D02*
X0248286Y0156352D01*
X0248286Y0156451D02*
X0246604Y0156451D01*
X0246845Y0156550D02*
X0248286Y0156550D01*
X0248286Y0156648D02*
X0247086Y0156648D01*
X0247326Y0156747D02*
X0248286Y0156747D01*
X0248286Y0156845D02*
X0247567Y0156845D01*
X0247808Y0156944D02*
X0248286Y0156944D01*
X0248286Y0157042D02*
X0248049Y0157042D01*
D12*
G36*
X0084003Y0099692D02*
X0084054Y0105491D01*
X0092963Y0105414D01*
X0092912Y0099615D01*
X0084003Y0099692D01*
G37*
G36*
X0083883Y0085874D02*
X0083934Y0091673D01*
X0092843Y0091596D01*
X0092792Y0085797D01*
X0083883Y0085874D01*
G37*
D13*
G36*
X0060339Y0169724D02*
X0065861Y0169782D01*
X0065927Y0163472D01*
X0060405Y0163414D01*
X0060339Y0169724D01*
G37*
G36*
X0048529Y0169600D02*
X0054051Y0169658D01*
X0054117Y0163348D01*
X0048595Y0163290D01*
X0048529Y0169600D01*
G37*
G36*
X0245063Y0162857D02*
X0239541Y0162780D01*
X0239453Y0169091D01*
X0244975Y0169168D01*
X0245063Y0162857D01*
G37*
G36*
X0256872Y0163022D02*
X0251350Y0162945D01*
X0251262Y0169256D01*
X0256784Y0169333D01*
X0256872Y0163022D01*
G37*
D14*
X0221359Y0102195D03*
X0213091Y0098454D03*
X0221359Y0094714D03*
D15*
G36*
X0180375Y0087346D02*
X0174913Y0089620D01*
X0177641Y0096172D01*
X0183103Y0093898D01*
X0180375Y0087346D01*
G37*
G36*
X0173469Y0090220D02*
X0168007Y0092494D01*
X0170735Y0099046D01*
X0176197Y0096772D01*
X0173469Y0090220D01*
G37*
G36*
X0164382Y0139201D02*
X0169820Y0141532D01*
X0172616Y0135009D01*
X0167178Y0132678D01*
X0164382Y0139201D01*
G37*
G36*
X0171258Y0142147D02*
X0176696Y0144478D01*
X0179492Y0137955D01*
X0174054Y0135624D01*
X0171258Y0142147D01*
G37*
G36*
X0135585Y0143286D02*
X0141019Y0140946D01*
X0138211Y0134428D01*
X0132777Y0136768D01*
X0135585Y0143286D01*
G37*
G36*
X0128715Y0146245D02*
X0134149Y0143905D01*
X0131341Y0137387D01*
X0125907Y0139727D01*
X0128715Y0146245D01*
G37*
D16*
X0141657Y0111131D03*
X0141657Y0106131D03*
X0141657Y0101131D03*
X0141657Y0096131D03*
X0141657Y0091131D03*
X0141657Y0086131D03*
X0141657Y0081131D03*
X0163704Y0081131D03*
X0163704Y0086131D03*
X0163704Y0091131D03*
X0163704Y0096131D03*
X0163704Y0101131D03*
X0163704Y0106131D03*
X0163704Y0111131D03*
D17*
X0281394Y0124699D03*
X0281537Y0067175D03*
X0028696Y0067095D03*
X0028101Y0124812D03*
D18*
X0029859Y0100283D03*
X0029859Y0092409D03*
X0276620Y0092218D03*
X0276620Y0100092D03*
D19*
X0247715Y0114291D03*
X0217474Y0119553D03*
X0186061Y0105976D03*
X0152639Y0118539D03*
X0152884Y0090214D03*
X0153030Y0081208D03*
X0152901Y0073133D03*
X0119675Y0084709D03*
X0088175Y0075514D03*
X0153028Y0046978D03*
M02*
