G75*
%MOIN*%
%OFA0B0*%
%FSLAX25Y25*%
%IPPOS*%
%LPD*%
%AMOC8*
5,1,8,0,0,1.08239X$1,22.5*
%
%ADD10C,0.00394*%
%ADD11C,0.07087*%
%ADD12C,0.21500*%
%ADD13C,0.05543*%
%ADD14C,0.01600*%
%ADD15C,0.03200*%
%ADD16C,0.02400*%
%ADD17C,0.01200*%
%ADD18C,0.01000*%
D10*
X0013386Y0013511D02*
X0297323Y0013511D01*
X0297323Y0178511D01*
X0013386Y0178511D01*
X0013386Y0013511D01*
D11*
X0143205Y0021923D03*
X0153301Y0021943D03*
X0163142Y0021926D03*
X0163002Y0032027D03*
X0153102Y0031969D03*
X0143189Y0031831D03*
D12*
X0028696Y0067095D03*
X0028101Y0124812D03*
X0281394Y0124699D03*
X0281537Y0067175D03*
D13*
X0276620Y0092218D03*
X0276620Y0100092D03*
X0029859Y0100283D03*
X0029859Y0092409D03*
D14*
X0053980Y0082691D01*
X0057051Y0083626D01*
X0084559Y0073209D01*
X0088296Y0074655D01*
X0088175Y0076095D01*
X0088175Y0075514D01*
X0087983Y0074255D02*
X0015383Y0074255D01*
X0015383Y0075853D02*
X0091908Y0075853D01*
X0095833Y0077452D02*
X0015383Y0077452D01*
X0015383Y0079050D02*
X0099757Y0079050D01*
X0103682Y0080649D02*
X0015383Y0080649D01*
X0015383Y0082247D02*
X0107606Y0082247D01*
X0111531Y0083846D02*
X0015383Y0083846D01*
X0015383Y0085444D02*
X0115455Y0085444D01*
X0116470Y0085857D02*
X0116792Y0086635D01*
X0117749Y0087591D01*
X0118998Y0088109D01*
X0120351Y0088109D01*
X0121600Y0087591D01*
X0122557Y0086635D01*
X0123074Y0085385D01*
X0123074Y0084033D01*
X0122557Y0082783D01*
X0121600Y0081827D01*
X0120351Y0081309D01*
X0118998Y0081309D01*
X0118517Y0081508D01*
X0094667Y0071794D01*
X0097180Y0070825D01*
X0097218Y0070825D01*
X0097625Y0070654D01*
X0098037Y0070495D01*
X0098064Y0070469D01*
X0098098Y0070455D01*
X0098408Y0070141D01*
X0098728Y0069837D01*
X0098743Y0069803D01*
X0098770Y0069776D01*
X0098936Y0069368D01*
X0099115Y0068964D01*
X0099116Y0068927D01*
X0099130Y0068892D01*
X0099128Y0068451D01*
X0099139Y0068009D01*
X0099126Y0067975D01*
X0099101Y0063190D01*
X0111740Y0058646D01*
X0111799Y0058646D01*
X0112187Y0058485D01*
X0112582Y0058343D01*
X0112626Y0058303D01*
X0112681Y0058280D01*
X0112978Y0057984D01*
X0113289Y0057701D01*
X0113314Y0057647D01*
X0113356Y0057605D01*
X0113517Y0057217D01*
X0113696Y0056837D01*
X0113698Y0056778D01*
X0113721Y0056723D01*
X0113721Y0056303D01*
X0113741Y0055884D01*
X0113721Y0055828D01*
X0113717Y0046258D01*
X0120333Y0043586D01*
X0120335Y0043586D01*
X0120775Y0043407D01*
X0121216Y0043229D01*
X0121217Y0043228D01*
X0121220Y0043227D01*
X0121559Y0042892D01*
X0121897Y0042560D01*
X0121898Y0042558D01*
X0121900Y0042556D01*
X0122085Y0042116D01*
X0122270Y0041682D01*
X0122270Y0041679D01*
X0122271Y0041676D01*
X0122274Y0041201D01*
X0122278Y0040727D01*
X0122277Y0040724D01*
X0122338Y0031604D01*
X0125447Y0032795D01*
X0125512Y0032849D01*
X0125891Y0032965D01*
X0126260Y0033106D01*
X0126344Y0033104D01*
X0126425Y0033129D01*
X0126819Y0033091D01*
X0127214Y0033081D01*
X0127292Y0033046D01*
X0127376Y0033038D01*
X0127725Y0032853D01*
X0128086Y0032692D01*
X0128144Y0032630D01*
X0140043Y0026317D01*
X0140178Y0026452D01*
X0142142Y0027266D01*
X0144268Y0027266D01*
X0145783Y0026638D01*
X0145741Y0027217D01*
X0145800Y0027285D01*
X0145758Y0036811D01*
X0145655Y0037060D01*
X0145655Y0066025D01*
X0145254Y0066382D01*
X0145180Y0066413D01*
X0144899Y0066698D01*
X0144601Y0066963D01*
X0144566Y0067036D01*
X0144510Y0067093D01*
X0144359Y0067463D01*
X0144185Y0067823D01*
X0144181Y0067903D01*
X0144151Y0067977D01*
X0144153Y0068377D01*
X0144130Y0068776D01*
X0144157Y0068852D01*
X0144258Y0083314D01*
X0144238Y0083725D01*
X0144261Y0083789D01*
X0144261Y0083857D01*
X0144421Y0084236D01*
X0144561Y0084623D01*
X0144606Y0084674D01*
X0144633Y0084736D01*
X0144926Y0085025D01*
X0149484Y0090041D01*
X0149484Y0090891D01*
X0150002Y0092140D01*
X0150958Y0093097D01*
X0152208Y0093614D01*
X0153560Y0093614D01*
X0154810Y0093097D01*
X0155766Y0092140D01*
X0156284Y0090891D01*
X0156284Y0089538D01*
X0155766Y0088288D01*
X0154810Y0087332D01*
X0153560Y0086814D01*
X0153037Y0086814D01*
X0149051Y0082428D01*
X0148961Y0069508D01*
X0149365Y0069148D01*
X0149431Y0069121D01*
X0149720Y0068832D01*
X0150024Y0068561D01*
X0150056Y0068496D01*
X0150106Y0068446D01*
X0150262Y0068068D01*
X0150440Y0067701D01*
X0150444Y0067630D01*
X0150471Y0067563D01*
X0150471Y0067155D01*
X0150495Y0066748D01*
X0150471Y0066680D01*
X0150471Y0066609D01*
X0150455Y0066568D01*
X0150455Y0054056D01*
X0150527Y0054093D01*
X0150504Y0070721D01*
X0150018Y0071207D01*
X0149501Y0072457D01*
X0149501Y0073809D01*
X0150018Y0075059D01*
X0150975Y0076015D01*
X0152224Y0076533D01*
X0153577Y0076533D01*
X0154827Y0076015D01*
X0155783Y0075059D01*
X0156301Y0073809D01*
X0156301Y0072457D01*
X0155783Y0071207D01*
X0155304Y0070728D01*
X0155329Y0053035D01*
X0155375Y0052840D01*
X0155330Y0052562D01*
X0155330Y0052404D01*
X0155336Y0052325D01*
X0155330Y0052307D01*
X0155330Y0052282D01*
X0155292Y0052189D01*
X0155245Y0052045D01*
X0155197Y0051754D01*
X0155099Y0051595D01*
X0155041Y0051417D01*
X0154850Y0051193D01*
X0154695Y0050942D01*
X0154543Y0050833D01*
X0154421Y0050691D01*
X0154159Y0050557D01*
X0153919Y0050385D01*
X0153772Y0050350D01*
X0154954Y0049860D01*
X0155566Y0049249D01*
X0163785Y0046268D01*
X0163886Y0046266D01*
X0164343Y0046065D01*
X0164812Y0045895D01*
X0164887Y0045827D01*
X0164979Y0045787D01*
X0165325Y0045427D01*
X0165693Y0045090D01*
X0165736Y0044999D01*
X0165806Y0044926D01*
X0165987Y0044461D01*
X0166199Y0044009D01*
X0166203Y0043908D01*
X0166240Y0043815D01*
X0166230Y0043315D01*
X0166252Y0042816D01*
X0166218Y0042722D01*
X0166093Y0036493D01*
X0167532Y0035053D01*
X0168346Y0033089D01*
X0168346Y0030964D01*
X0167532Y0029000D01*
X0166029Y0027497D01*
X0164842Y0027005D01*
X0166168Y0026456D01*
X0167106Y0025518D01*
X0183559Y0030090D01*
X0183594Y0041015D01*
X0183590Y0041025D01*
X0183596Y0041491D01*
X0183598Y0041959D01*
X0183602Y0041969D01*
X0183602Y0041980D01*
X0183785Y0042408D01*
X0183966Y0042840D01*
X0183973Y0042848D01*
X0183978Y0042857D01*
X0184312Y0043184D01*
X0184643Y0043513D01*
X0184653Y0043517D01*
X0184661Y0043525D01*
X0185095Y0043698D01*
X0185526Y0043875D01*
X0185537Y0043875D01*
X0192111Y0046507D01*
X0192075Y0054946D01*
X0159330Y0067975D01*
X0159288Y0067976D01*
X0158888Y0068151D01*
X0158483Y0068312D01*
X0158452Y0068342D01*
X0158413Y0068359D01*
X0158111Y0068674D01*
X0157798Y0068978D01*
X0157782Y0069017D01*
X0157752Y0069048D01*
X0157593Y0069454D01*
X0157421Y0069855D01*
X0157420Y0069897D01*
X0157405Y0069937D01*
X0157414Y0070373D01*
X0157407Y0070809D01*
X0157423Y0070849D01*
X0157533Y0076247D01*
X0155016Y0078385D01*
X0154956Y0078325D01*
X0153706Y0077808D01*
X0152354Y0077808D01*
X0151104Y0078325D01*
X0150148Y0079282D01*
X0149630Y0080532D01*
X0149630Y0081884D01*
X0150148Y0083134D01*
X0151104Y0084090D01*
X0152354Y0084608D01*
X0153706Y0084608D01*
X0154956Y0084090D01*
X0155316Y0083731D01*
X0155550Y0083750D01*
X0155588Y0083737D01*
X0155627Y0083739D01*
X0156041Y0083592D01*
X0156459Y0083457D01*
X0156489Y0083431D01*
X0156526Y0083418D01*
X0156852Y0083123D01*
X0161241Y0079395D01*
X0161357Y0079345D01*
X0161603Y0079089D01*
X0161873Y0078859D01*
X0161931Y0078747D01*
X0162018Y0078656D01*
X0162147Y0078325D01*
X0162309Y0078009D01*
X0162319Y0077884D01*
X0162365Y0077767D01*
X0162358Y0077412D01*
X0162387Y0077058D01*
X0162348Y0076938D01*
X0162247Y0071980D01*
X0194923Y0058979D01*
X0194935Y0058979D01*
X0195367Y0058802D01*
X0195799Y0058630D01*
X0195808Y0058622D01*
X0195819Y0058617D01*
X0196150Y0058289D01*
X0196483Y0057965D01*
X0196488Y0057953D01*
X0196497Y0057945D01*
X0196677Y0057515D01*
X0196861Y0057088D01*
X0196861Y0057075D01*
X0196866Y0057064D01*
X0196868Y0056599D01*
X0196874Y0056133D01*
X0196870Y0056122D01*
X0196915Y0045353D01*
X0196923Y0045334D01*
X0196917Y0044877D01*
X0196919Y0044418D01*
X0196912Y0044400D01*
X0196912Y0044380D01*
X0196732Y0043959D01*
X0196558Y0043535D01*
X0196544Y0043520D01*
X0196536Y0043502D01*
X0196208Y0043182D01*
X0195886Y0042857D01*
X0195867Y0042849D01*
X0195853Y0042835D01*
X0195427Y0042665D01*
X0195005Y0042488D01*
X0194985Y0042488D01*
X0188391Y0039847D01*
X0188354Y0028588D01*
X0188393Y0028447D01*
X0188352Y0028114D01*
X0188351Y0027779D01*
X0188295Y0027644D01*
X0188277Y0027499D01*
X0188112Y0027207D01*
X0187983Y0026898D01*
X0187879Y0026795D01*
X0187807Y0026668D01*
X0187543Y0026461D01*
X0187306Y0026225D01*
X0187171Y0026170D01*
X0187055Y0026080D01*
X0186732Y0025990D01*
X0186422Y0025863D01*
X0186276Y0025863D01*
X0168485Y0020920D01*
X0168485Y0020863D01*
X0167671Y0018899D01*
X0166168Y0017396D01*
X0164204Y0016583D01*
X0162079Y0016583D01*
X0160115Y0017396D01*
X0158612Y0018899D01*
X0158217Y0019851D01*
X0157830Y0018917D01*
X0156327Y0017414D01*
X0154363Y0016600D01*
X0152238Y0016600D01*
X0150274Y0017414D01*
X0148771Y0018917D01*
X0148257Y0020157D01*
X0147735Y0018896D01*
X0146232Y0017393D01*
X0144268Y0016579D01*
X0142142Y0016579D01*
X0140178Y0017393D01*
X0138675Y0018896D01*
X0137862Y0020860D01*
X0137862Y0022041D01*
X0126512Y0028063D01*
X0120857Y0025897D01*
X0120454Y0025727D01*
X0120412Y0025726D01*
X0120374Y0025712D01*
X0119937Y0025723D01*
X0119499Y0025720D01*
X0119461Y0025736D01*
X0119419Y0025737D01*
X0119020Y0025915D01*
X0118615Y0026080D01*
X0118585Y0026109D01*
X0118547Y0026126D01*
X0118246Y0026443D01*
X0117935Y0026750D01*
X0117919Y0026789D01*
X0117890Y0026819D01*
X0117734Y0027227D01*
X0117564Y0027630D01*
X0117564Y0027672D01*
X0117549Y0027711D01*
X0117561Y0028148D01*
X0117485Y0039560D01*
X0110850Y0042239D01*
X0110839Y0042239D01*
X0110408Y0042418D01*
X0109976Y0042592D01*
X0109967Y0042601D01*
X0109957Y0042605D01*
X0109627Y0042935D01*
X0109294Y0043262D01*
X0109290Y0043272D01*
X0109282Y0043280D01*
X0109104Y0043711D01*
X0108921Y0044140D01*
X0108921Y0044152D01*
X0108917Y0044162D01*
X0108917Y0044628D01*
X0108913Y0045095D01*
X0108917Y0045106D01*
X0108920Y0054559D01*
X0096268Y0059108D01*
X0096203Y0059109D01*
X0095821Y0059269D01*
X0095431Y0059409D01*
X0095383Y0059453D01*
X0095322Y0059478D01*
X0095031Y0059773D01*
X0094725Y0060051D01*
X0094697Y0060111D01*
X0094651Y0060157D01*
X0094494Y0060540D01*
X0094318Y0060915D01*
X0094315Y0060980D01*
X0094290Y0061041D01*
X0094292Y0061455D01*
X0094272Y0061869D01*
X0094295Y0061930D01*
X0094320Y0066783D01*
X0087700Y0069335D01*
X0087662Y0069335D01*
X0087256Y0069506D01*
X0086845Y0069665D01*
X0086817Y0069691D01*
X0086782Y0069706D01*
X0086472Y0070019D01*
X0086153Y0070323D01*
X0086138Y0070358D01*
X0086111Y0070385D01*
X0085945Y0070793D01*
X0085766Y0071195D01*
X0085765Y0071234D01*
X0085751Y0071269D01*
X0085753Y0071710D01*
X0085742Y0072150D01*
X0085756Y0072186D01*
X0085756Y0072224D01*
X0085927Y0072630D01*
X0086086Y0073041D01*
X0086112Y0073069D01*
X0086127Y0073104D01*
X0086440Y0073413D01*
X0086744Y0073733D01*
X0086779Y0073748D01*
X0086806Y0073775D01*
X0087214Y0073941D01*
X0087617Y0074120D01*
X0087655Y0074121D01*
X0116470Y0085857D01*
X0117200Y0087043D02*
X0015383Y0087043D01*
X0015383Y0088641D02*
X0148211Y0088641D01*
X0149484Y0090240D02*
X0015383Y0090240D01*
X0015383Y0091838D02*
X0149876Y0091838D01*
X0151778Y0093437D02*
X0015383Y0093437D01*
X0015383Y0095035D02*
X0272972Y0095035D01*
X0272744Y0094808D02*
X0272048Y0093128D01*
X0272048Y0091309D01*
X0272744Y0089629D01*
X0274030Y0088343D01*
X0275711Y0087647D01*
X0277529Y0087647D01*
X0279210Y0088343D01*
X0280496Y0089629D01*
X0281192Y0091309D01*
X0281192Y0093128D01*
X0280496Y0094808D01*
X0279210Y0096094D01*
X0279062Y0096155D01*
X0279210Y0096217D01*
X0280496Y0097503D01*
X0281192Y0099183D01*
X0281192Y0101002D01*
X0280496Y0102682D01*
X0279210Y0103968D01*
X0277529Y0104664D01*
X0275711Y0104664D01*
X0274030Y0103968D01*
X0272744Y0102682D01*
X0272048Y0101002D01*
X0272048Y0099183D01*
X0272744Y0097503D01*
X0274030Y0096217D01*
X0274179Y0096155D01*
X0274030Y0096094D01*
X0272744Y0094808D01*
X0272176Y0093437D02*
X0153989Y0093437D01*
X0155891Y0091838D02*
X0272048Y0091838D01*
X0272491Y0090240D02*
X0156284Y0090240D01*
X0155912Y0088641D02*
X0273732Y0088641D01*
X0279508Y0088641D02*
X0295326Y0088641D01*
X0295326Y0087043D02*
X0154111Y0087043D01*
X0151792Y0085444D02*
X0295326Y0085444D01*
X0295326Y0083846D02*
X0155201Y0083846D01*
X0157884Y0082247D02*
X0295326Y0082247D01*
X0295326Y0080649D02*
X0159766Y0080649D01*
X0161648Y0079050D02*
X0277365Y0079050D01*
X0276692Y0078870D02*
X0273831Y0077218D01*
X0271494Y0074881D01*
X0269842Y0072019D01*
X0268987Y0068827D01*
X0268987Y0065523D01*
X0269842Y0062331D01*
X0271494Y0059469D01*
X0273831Y0057133D01*
X0276692Y0055480D01*
X0279884Y0054625D01*
X0283189Y0054625D01*
X0286381Y0055480D01*
X0289242Y0057133D01*
X0291579Y0059469D01*
X0293231Y0062331D01*
X0294086Y0065523D01*
X0294086Y0068827D01*
X0293231Y0072019D01*
X0291579Y0074881D01*
X0289242Y0077218D01*
X0286381Y0078870D01*
X0283189Y0079725D01*
X0279884Y0079725D01*
X0276692Y0078870D01*
X0274236Y0077452D02*
X0162359Y0077452D01*
X0162326Y0075853D02*
X0272466Y0075853D01*
X0271132Y0074255D02*
X0162294Y0074255D01*
X0162261Y0072656D02*
X0270209Y0072656D01*
X0269584Y0071057D02*
X0164567Y0071057D01*
X0159618Y0067860D02*
X0155308Y0067860D01*
X0155310Y0066262D02*
X0163636Y0066262D01*
X0167653Y0064663D02*
X0155313Y0064663D01*
X0155315Y0063065D02*
X0171670Y0063065D01*
X0175688Y0061466D02*
X0155317Y0061466D01*
X0155319Y0059868D02*
X0179705Y0059868D01*
X0183722Y0058269D02*
X0155322Y0058269D01*
X0155324Y0056671D02*
X0187740Y0056671D01*
X0191757Y0055072D02*
X0155326Y0055072D01*
X0155328Y0053474D02*
X0192081Y0053474D01*
X0192088Y0051875D02*
X0155217Y0051875D01*
X0153948Y0050277D02*
X0192095Y0050277D01*
X0192101Y0048678D02*
X0157138Y0048678D01*
X0161546Y0047080D02*
X0192108Y0047080D01*
X0189548Y0045481D02*
X0165272Y0045481D01*
X0166213Y0043883D02*
X0185556Y0043883D01*
X0183732Y0042284D02*
X0166209Y0042284D01*
X0166177Y0040686D02*
X0183593Y0040686D01*
X0183588Y0039087D02*
X0166145Y0039087D01*
X0166113Y0037489D02*
X0183583Y0037489D01*
X0183578Y0035890D02*
X0166695Y0035890D01*
X0167848Y0034292D02*
X0183573Y0034292D01*
X0183567Y0032693D02*
X0168346Y0032693D01*
X0168346Y0031095D02*
X0183562Y0031095D01*
X0181422Y0029496D02*
X0167738Y0029496D01*
X0166430Y0027898D02*
X0175669Y0027898D01*
X0176339Y0023102D02*
X0295326Y0023102D01*
X0295326Y0021504D02*
X0170586Y0021504D01*
X0168088Y0019905D02*
X0295326Y0019905D01*
X0295326Y0018307D02*
X0167079Y0018307D01*
X0164507Y0016708D02*
X0295326Y0016708D01*
X0295326Y0015508D02*
X0015383Y0015508D01*
X0015383Y0176514D01*
X0295326Y0176514D01*
X0295326Y0015508D01*
X0295326Y0024701D02*
X0182092Y0024701D01*
X0187380Y0026299D02*
X0295326Y0026299D01*
X0295326Y0027898D02*
X0188352Y0027898D01*
X0188357Y0029496D02*
X0295326Y0029496D01*
X0295326Y0031095D02*
X0188362Y0031095D01*
X0188367Y0032693D02*
X0295326Y0032693D01*
X0295326Y0034292D02*
X0188373Y0034292D01*
X0188378Y0035890D02*
X0295326Y0035890D01*
X0295326Y0037489D02*
X0188383Y0037489D01*
X0188388Y0039087D02*
X0295326Y0039087D01*
X0295326Y0040686D02*
X0190484Y0040686D01*
X0194477Y0042284D02*
X0295326Y0042284D01*
X0295326Y0043883D02*
X0196700Y0043883D01*
X0196915Y0045481D02*
X0295326Y0045481D01*
X0295326Y0047080D02*
X0196908Y0047080D01*
X0196901Y0048678D02*
X0295326Y0048678D01*
X0295326Y0050277D02*
X0196895Y0050277D01*
X0196888Y0051875D02*
X0295326Y0051875D01*
X0295326Y0053474D02*
X0196881Y0053474D01*
X0196874Y0055072D02*
X0278215Y0055072D01*
X0274630Y0056671D02*
X0196868Y0056671D01*
X0196170Y0058269D02*
X0272694Y0058269D01*
X0271264Y0059868D02*
X0192688Y0059868D01*
X0188671Y0061466D02*
X0270341Y0061466D01*
X0269645Y0063065D02*
X0184653Y0063065D01*
X0180636Y0064663D02*
X0269217Y0064663D01*
X0268987Y0066262D02*
X0176619Y0066262D01*
X0172601Y0067860D02*
X0268987Y0067860D01*
X0269156Y0069459D02*
X0168584Y0069459D01*
X0157591Y0069459D02*
X0155306Y0069459D01*
X0155634Y0071057D02*
X0157427Y0071057D01*
X0157460Y0072656D02*
X0156301Y0072656D01*
X0156116Y0074255D02*
X0157493Y0074255D01*
X0157525Y0075853D02*
X0154989Y0075853D01*
X0156115Y0077452D02*
X0149017Y0077452D01*
X0149028Y0079050D02*
X0150379Y0079050D01*
X0149630Y0080649D02*
X0149039Y0080649D01*
X0149050Y0082247D02*
X0149780Y0082247D01*
X0150339Y0083846D02*
X0150859Y0083846D01*
X0146759Y0087043D02*
X0122149Y0087043D01*
X0123050Y0085444D02*
X0145306Y0085444D01*
X0144261Y0083846D02*
X0122997Y0083846D01*
X0122021Y0082247D02*
X0144250Y0082247D01*
X0144239Y0080649D02*
X0116406Y0080649D01*
X0112482Y0079050D02*
X0144228Y0079050D01*
X0144217Y0077452D02*
X0108557Y0077452D01*
X0104633Y0075853D02*
X0144205Y0075853D01*
X0144194Y0074255D02*
X0100708Y0074255D01*
X0096784Y0072656D02*
X0144183Y0072656D01*
X0144172Y0071057D02*
X0096577Y0071057D01*
X0098899Y0069459D02*
X0144161Y0069459D01*
X0144183Y0067860D02*
X0099125Y0067860D01*
X0099117Y0066262D02*
X0145388Y0066262D01*
X0145655Y0064663D02*
X0099109Y0064663D01*
X0099450Y0063065D02*
X0145655Y0063065D01*
X0145655Y0061466D02*
X0103896Y0061466D01*
X0098601Y0058269D02*
X0015383Y0058269D01*
X0015383Y0056671D02*
X0103047Y0056671D01*
X0107493Y0055072D02*
X0015383Y0055072D01*
X0015383Y0053474D02*
X0108920Y0053474D01*
X0108919Y0051875D02*
X0015383Y0051875D01*
X0015383Y0050277D02*
X0108919Y0050277D01*
X0108918Y0048678D02*
X0015383Y0048678D01*
X0015383Y0047080D02*
X0108918Y0047080D01*
X0108917Y0045481D02*
X0015383Y0045481D01*
X0015383Y0043883D02*
X0109031Y0043883D01*
X0110730Y0042284D02*
X0015383Y0042284D01*
X0015383Y0040686D02*
X0114696Y0040686D01*
X0117488Y0039087D02*
X0015383Y0039087D01*
X0015383Y0037489D02*
X0117499Y0037489D01*
X0117509Y0035890D02*
X0015383Y0035890D01*
X0015383Y0034292D02*
X0117520Y0034292D01*
X0117530Y0032693D02*
X0015383Y0032693D01*
X0015383Y0031095D02*
X0117541Y0031095D01*
X0117552Y0029496D02*
X0015383Y0029496D01*
X0015383Y0027898D02*
X0117554Y0027898D01*
X0118383Y0026299D02*
X0015383Y0026299D01*
X0015383Y0024701D02*
X0132848Y0024701D01*
X0129836Y0026299D02*
X0121908Y0026299D01*
X0126081Y0027898D02*
X0126823Y0027898D01*
X0131039Y0031095D02*
X0145783Y0031095D01*
X0145776Y0032693D02*
X0128083Y0032693D01*
X0125182Y0032693D02*
X0122331Y0032693D01*
X0122320Y0034292D02*
X0145769Y0034292D01*
X0145762Y0035890D02*
X0122309Y0035890D01*
X0122299Y0037489D02*
X0145655Y0037489D01*
X0145655Y0039087D02*
X0122288Y0039087D01*
X0122277Y0040686D02*
X0145655Y0040686D01*
X0145655Y0042284D02*
X0122014Y0042284D01*
X0119598Y0043883D02*
X0145655Y0043883D01*
X0145655Y0045481D02*
X0115640Y0045481D01*
X0113718Y0047080D02*
X0145655Y0047080D01*
X0145655Y0048678D02*
X0113718Y0048678D01*
X0113719Y0050277D02*
X0145655Y0050277D01*
X0145655Y0051875D02*
X0113719Y0051875D01*
X0113720Y0053474D02*
X0145655Y0053474D01*
X0145655Y0055072D02*
X0113720Y0055072D01*
X0113721Y0056671D02*
X0145655Y0056671D01*
X0145655Y0058269D02*
X0112692Y0058269D01*
X0108342Y0059868D02*
X0145655Y0059868D01*
X0150455Y0059868D02*
X0150519Y0059868D01*
X0150517Y0061466D02*
X0150455Y0061466D01*
X0150455Y0063065D02*
X0150515Y0063065D01*
X0150513Y0064663D02*
X0150455Y0064663D01*
X0150455Y0066262D02*
X0150510Y0066262D01*
X0150508Y0067860D02*
X0150363Y0067860D01*
X0150506Y0069459D02*
X0149016Y0069459D01*
X0148972Y0071057D02*
X0150168Y0071057D01*
X0149501Y0072656D02*
X0148983Y0072656D01*
X0148994Y0074255D02*
X0149685Y0074255D01*
X0149006Y0075853D02*
X0150812Y0075853D01*
X0150522Y0058269D02*
X0150455Y0058269D01*
X0150455Y0056671D02*
X0150524Y0056671D01*
X0150526Y0055072D02*
X0150455Y0055072D01*
X0145790Y0029496D02*
X0134051Y0029496D01*
X0137064Y0027898D02*
X0145797Y0027898D01*
X0137862Y0021504D02*
X0015383Y0021504D01*
X0015383Y0023102D02*
X0135861Y0023102D01*
X0138257Y0019905D02*
X0015383Y0019905D01*
X0015383Y0018307D02*
X0139264Y0018307D01*
X0141831Y0016708D02*
X0015383Y0016708D01*
X0015383Y0059868D02*
X0094926Y0059868D01*
X0094292Y0061466D02*
X0015383Y0061466D01*
X0015383Y0063065D02*
X0094300Y0063065D01*
X0094309Y0064663D02*
X0015383Y0064663D01*
X0015383Y0066262D02*
X0094317Y0066262D01*
X0091525Y0067860D02*
X0015383Y0067860D01*
X0015383Y0069459D02*
X0087368Y0069459D01*
X0085827Y0071057D02*
X0015383Y0071057D01*
X0015383Y0072656D02*
X0085937Y0072656D01*
X0033734Y0097694D02*
X0034430Y0099374D01*
X0034430Y0101193D01*
X0033734Y0102873D01*
X0032448Y0104159D01*
X0030768Y0104855D01*
X0028949Y0104855D01*
X0027269Y0104159D01*
X0025983Y0102873D01*
X0025287Y0101193D01*
X0025287Y0099374D01*
X0025983Y0097694D01*
X0027269Y0096408D01*
X0028949Y0095712D01*
X0030768Y0095712D01*
X0032448Y0096408D01*
X0033734Y0097694D01*
X0033957Y0098232D02*
X0272442Y0098232D01*
X0272048Y0099831D02*
X0034430Y0099831D01*
X0034332Y0101429D02*
X0272226Y0101429D01*
X0273090Y0103028D02*
X0187828Y0103028D01*
X0187987Y0103094D02*
X0188943Y0104050D01*
X0189461Y0105300D01*
X0189461Y0106652D01*
X0188943Y0107902D01*
X0187987Y0108858D01*
X0186737Y0109376D01*
X0185384Y0109376D01*
X0184468Y0108996D01*
X0155647Y0120162D01*
X0155521Y0120465D01*
X0154565Y0121421D01*
X0153315Y0121939D01*
X0151963Y0121939D01*
X0150713Y0121421D01*
X0149756Y0120465D01*
X0149239Y0119215D01*
X0149239Y0117862D01*
X0149756Y0116613D01*
X0150713Y0115656D01*
X0151963Y0115139D01*
X0153315Y0115139D01*
X0153751Y0115320D01*
X0183392Y0103836D01*
X0184135Y0103094D01*
X0185384Y0102576D01*
X0186737Y0102576D01*
X0187987Y0103094D01*
X0189182Y0104626D02*
X0275620Y0104626D01*
X0277621Y0104626D02*
X0295326Y0104626D01*
X0295326Y0103028D02*
X0280150Y0103028D01*
X0281015Y0101429D02*
X0295326Y0101429D01*
X0295326Y0099831D02*
X0281192Y0099831D01*
X0280798Y0098232D02*
X0295326Y0098232D01*
X0295326Y0096634D02*
X0279627Y0096634D01*
X0280269Y0095035D02*
X0295326Y0095035D01*
X0295326Y0093437D02*
X0281064Y0093437D01*
X0281192Y0091838D02*
X0295326Y0091838D01*
X0295326Y0090240D02*
X0280749Y0090240D01*
X0273613Y0096634D02*
X0032674Y0096634D01*
X0027043Y0096634D02*
X0015383Y0096634D01*
X0015383Y0098232D02*
X0025760Y0098232D01*
X0025287Y0099831D02*
X0015383Y0099831D01*
X0015383Y0101429D02*
X0025385Y0101429D01*
X0026138Y0103028D02*
X0015383Y0103028D01*
X0015383Y0104626D02*
X0028397Y0104626D01*
X0031320Y0104626D02*
X0181353Y0104626D01*
X0184294Y0103028D02*
X0033579Y0103028D01*
X0031086Y0112619D02*
X0160723Y0112619D01*
X0164849Y0111020D02*
X0015383Y0111020D01*
X0015383Y0109422D02*
X0168975Y0109422D01*
X0173101Y0107823D02*
X0015383Y0107823D01*
X0015383Y0106225D02*
X0177227Y0106225D01*
X0179243Y0111020D02*
X0246727Y0111020D01*
X0247038Y0110891D02*
X0248391Y0110891D01*
X0249641Y0111409D01*
X0250597Y0112365D01*
X0251115Y0113615D01*
X0251115Y0114968D01*
X0250597Y0116217D01*
X0249641Y0117174D01*
X0248391Y0117691D01*
X0247038Y0117691D01*
X0246545Y0117487D01*
X0226870Y0124673D01*
X0226548Y0124837D01*
X0226389Y0124849D01*
X0226239Y0124904D01*
X0225877Y0124889D01*
X0225516Y0124916D01*
X0225365Y0124867D01*
X0225205Y0124860D01*
X0224877Y0124707D01*
X0218749Y0122705D01*
X0218150Y0122953D01*
X0216797Y0122953D01*
X0215548Y0122435D01*
X0214591Y0121479D01*
X0214074Y0120229D01*
X0214074Y0118877D01*
X0214591Y0117627D01*
X0215548Y0116671D01*
X0216797Y0116153D01*
X0218150Y0116153D01*
X0219400Y0116671D01*
X0220356Y0117627D01*
X0220420Y0117780D01*
X0225785Y0119534D01*
X0244729Y0112614D01*
X0244832Y0112365D01*
X0245789Y0111409D01*
X0247038Y0110891D01*
X0248702Y0111020D02*
X0295326Y0111020D01*
X0295326Y0109422D02*
X0183369Y0109422D01*
X0186086Y0105581D02*
X0152639Y0118539D01*
X0149424Y0117414D02*
X0038322Y0117414D01*
X0038144Y0117106D02*
X0039796Y0119968D01*
X0040651Y0123160D01*
X0040651Y0126464D01*
X0039796Y0129656D01*
X0038144Y0132518D01*
X0035807Y0134854D01*
X0032945Y0136507D01*
X0029753Y0137362D01*
X0026449Y0137362D01*
X0023257Y0136507D01*
X0020395Y0134854D01*
X0018059Y0132518D01*
X0016406Y0129656D01*
X0015551Y0126464D01*
X0015551Y0123160D01*
X0016406Y0119968D01*
X0018059Y0117106D01*
X0020395Y0114769D01*
X0023257Y0113117D01*
X0026449Y0112262D01*
X0029753Y0112262D01*
X0032945Y0113117D01*
X0035807Y0114769D01*
X0038144Y0117106D01*
X0036853Y0115816D02*
X0150553Y0115816D01*
X0149239Y0119013D02*
X0039245Y0119013D01*
X0039968Y0120611D02*
X0149903Y0120611D01*
X0155375Y0120611D02*
X0214232Y0120611D01*
X0214074Y0119013D02*
X0158612Y0119013D01*
X0162739Y0117414D02*
X0214804Y0117414D01*
X0217474Y0119553D02*
X0225832Y0122284D01*
X0247715Y0114291D01*
X0251115Y0114217D02*
X0274448Y0114217D01*
X0273688Y0114656D02*
X0276550Y0113004D01*
X0279742Y0112149D01*
X0283046Y0112149D01*
X0286238Y0113004D01*
X0289100Y0114656D01*
X0291436Y0116993D01*
X0293089Y0119854D01*
X0293944Y0123046D01*
X0293944Y0126351D01*
X0293089Y0129543D01*
X0291436Y0132404D01*
X0289100Y0134741D01*
X0286238Y0136393D01*
X0283046Y0137248D01*
X0279742Y0137248D01*
X0276550Y0136393D01*
X0273688Y0134741D01*
X0271351Y0132404D01*
X0269699Y0129543D01*
X0268844Y0126351D01*
X0268844Y0123046D01*
X0269699Y0119854D01*
X0271351Y0116993D01*
X0273688Y0114656D01*
X0272528Y0115816D02*
X0250763Y0115816D01*
X0249060Y0117414D02*
X0271108Y0117414D01*
X0270185Y0119013D02*
X0242367Y0119013D01*
X0237990Y0120611D02*
X0269496Y0120611D01*
X0269068Y0122210D02*
X0233614Y0122210D01*
X0229238Y0123808D02*
X0268844Y0123808D01*
X0268844Y0125407D02*
X0040651Y0125407D01*
X0040651Y0123808D02*
X0222126Y0123808D01*
X0215322Y0122210D02*
X0040397Y0122210D01*
X0040506Y0127005D02*
X0269019Y0127005D01*
X0269448Y0128604D02*
X0040078Y0128604D01*
X0039480Y0130202D02*
X0270080Y0130202D01*
X0271003Y0131801D02*
X0038557Y0131801D01*
X0037262Y0133399D02*
X0272346Y0133399D01*
X0274133Y0134998D02*
X0035558Y0134998D01*
X0032610Y0136596D02*
X0277308Y0136596D01*
X0285480Y0136596D02*
X0295326Y0136596D01*
X0295326Y0134998D02*
X0288655Y0134998D01*
X0290441Y0133399D02*
X0295326Y0133399D01*
X0295326Y0131801D02*
X0291785Y0131801D01*
X0292708Y0130202D02*
X0295326Y0130202D01*
X0295326Y0128604D02*
X0293340Y0128604D01*
X0293768Y0127005D02*
X0295326Y0127005D01*
X0295326Y0125407D02*
X0293944Y0125407D01*
X0293944Y0123808D02*
X0295326Y0123808D01*
X0295326Y0122210D02*
X0293720Y0122210D01*
X0293291Y0120611D02*
X0295326Y0120611D01*
X0295326Y0119013D02*
X0292603Y0119013D01*
X0291680Y0117414D02*
X0295326Y0117414D01*
X0295326Y0115816D02*
X0290259Y0115816D01*
X0288340Y0114217D02*
X0295326Y0114217D01*
X0295326Y0112619D02*
X0284801Y0112619D01*
X0277986Y0112619D02*
X0250702Y0112619D01*
X0244716Y0112619D02*
X0175117Y0112619D01*
X0170991Y0114217D02*
X0240339Y0114217D01*
X0235963Y0115816D02*
X0166865Y0115816D01*
X0156596Y0114217D02*
X0034851Y0114217D01*
X0025116Y0112619D02*
X0015383Y0112619D01*
X0015383Y0114217D02*
X0021351Y0114217D01*
X0019349Y0115816D02*
X0015383Y0115816D01*
X0015383Y0117414D02*
X0017881Y0117414D01*
X0016958Y0119013D02*
X0015383Y0119013D01*
X0015383Y0120611D02*
X0016234Y0120611D01*
X0015806Y0122210D02*
X0015383Y0122210D01*
X0015383Y0123808D02*
X0015551Y0123808D01*
X0015551Y0125407D02*
X0015383Y0125407D01*
X0015383Y0127005D02*
X0015696Y0127005D01*
X0015383Y0128604D02*
X0016124Y0128604D01*
X0016722Y0130202D02*
X0015383Y0130202D01*
X0015383Y0131801D02*
X0017645Y0131801D01*
X0018940Y0133399D02*
X0015383Y0133399D01*
X0015383Y0134998D02*
X0020644Y0134998D01*
X0023593Y0136596D02*
X0015383Y0136596D01*
X0015383Y0138195D02*
X0295326Y0138195D01*
X0295326Y0139793D02*
X0015383Y0139793D01*
X0015383Y0141392D02*
X0295326Y0141392D01*
X0295326Y0142991D02*
X0015383Y0142991D01*
X0015383Y0144589D02*
X0295326Y0144589D01*
X0295326Y0146188D02*
X0015383Y0146188D01*
X0015383Y0147786D02*
X0295326Y0147786D01*
X0295326Y0149385D02*
X0015383Y0149385D01*
X0015383Y0150983D02*
X0295326Y0150983D01*
X0295326Y0152582D02*
X0015383Y0152582D01*
X0015383Y0154180D02*
X0295326Y0154180D01*
X0295326Y0155779D02*
X0015383Y0155779D01*
X0015383Y0157377D02*
X0295326Y0157377D01*
X0295326Y0158976D02*
X0015383Y0158976D01*
X0015383Y0160574D02*
X0295326Y0160574D01*
X0295326Y0162173D02*
X0015383Y0162173D01*
X0015383Y0163771D02*
X0295326Y0163771D01*
X0295326Y0165370D02*
X0015383Y0165370D01*
X0015383Y0166968D02*
X0295326Y0166968D01*
X0295326Y0168567D02*
X0015383Y0168567D01*
X0015383Y0170165D02*
X0295326Y0170165D01*
X0295326Y0171764D02*
X0015383Y0171764D01*
X0015383Y0173362D02*
X0295326Y0173362D01*
X0295326Y0174961D02*
X0015383Y0174961D01*
X0188976Y0107823D02*
X0295326Y0107823D01*
X0295326Y0106225D02*
X0189461Y0106225D01*
X0220143Y0117414D02*
X0231587Y0117414D01*
X0227211Y0119013D02*
X0224192Y0119013D01*
X0285708Y0079050D02*
X0295326Y0079050D01*
X0295326Y0077452D02*
X0288837Y0077452D01*
X0290607Y0075853D02*
X0295326Y0075853D01*
X0295326Y0074255D02*
X0291941Y0074255D01*
X0292864Y0072656D02*
X0295326Y0072656D01*
X0295326Y0071057D02*
X0293489Y0071057D01*
X0293917Y0069459D02*
X0295326Y0069459D01*
X0295326Y0067860D02*
X0294086Y0067860D01*
X0294086Y0066262D02*
X0295326Y0066262D01*
X0295326Y0064663D02*
X0293856Y0064663D01*
X0293428Y0063065D02*
X0295326Y0063065D01*
X0295326Y0061466D02*
X0292732Y0061466D01*
X0291809Y0059868D02*
X0295326Y0059868D01*
X0295326Y0058269D02*
X0290379Y0058269D01*
X0288443Y0056671D02*
X0295326Y0056671D01*
X0295326Y0055072D02*
X0284858Y0055072D01*
X0169916Y0026299D02*
X0166325Y0026299D01*
X0159205Y0018307D02*
X0157220Y0018307D01*
X0154624Y0016708D02*
X0161776Y0016708D01*
X0151977Y0016708D02*
X0144579Y0016708D01*
X0147145Y0018307D02*
X0149381Y0018307D01*
X0148361Y0019905D02*
X0148153Y0019905D01*
D15*
X0153028Y0046978D03*
X0152901Y0073133D03*
X0153030Y0081208D03*
X0152884Y0090214D03*
X0119675Y0084709D03*
X0088175Y0075514D03*
X0152639Y0118539D03*
X0186061Y0105976D03*
X0217474Y0119553D03*
X0247715Y0114291D03*
D16*
X0163229Y0043278D02*
X0153028Y0046978D01*
X0163229Y0043278D02*
X0163002Y0032027D01*
D17*
X0153102Y0031969D02*
X0153135Y0040916D01*
X0150149Y0041818D01*
X0149983Y0041818D01*
X0149983Y0051121D01*
X0152906Y0052612D01*
X0152929Y0052756D01*
X0152901Y0073133D01*
X0159814Y0070366D02*
X0159956Y0077338D01*
X0155269Y0081319D01*
X0153030Y0081208D01*
X0146658Y0083363D02*
X0152884Y0090214D01*
X0146658Y0083363D02*
X0146554Y0068438D01*
X0148072Y0067086D01*
X0148055Y0067086D01*
X0148055Y0037538D01*
X0152646Y0034495D02*
X0153102Y0031969D01*
X0143205Y0021923D02*
X0126673Y0030694D01*
X0119961Y0028123D01*
X0119874Y0041183D01*
X0111317Y0044639D01*
X0111321Y0056246D01*
X0096692Y0061506D01*
X0096728Y0068427D01*
X0088153Y0071732D01*
X0119442Y0084477D01*
X0119675Y0084709D01*
X0159814Y0070366D02*
X0194468Y0056577D01*
X0194517Y0044886D01*
X0185996Y0041474D01*
X0185953Y0028264D01*
X0163142Y0021926D01*
D18*
X0153301Y0021943D02*
X0148104Y0026434D01*
X0148055Y0037538D01*
M02*
