G75*
%MOIN*%
%OFA0B0*%
%FSLAX25Y25*%
%IPPOS*%
%LPD*%
%AMOC8*
5,1,8,0,0,1.08239X$1,22.5*
%
%ADD10C,0.00394*%
%ADD11C,0.07087*%
%ADD12C,0.21500*%
%ADD13C,0.05543*%
%ADD14C,0.01600*%
%ADD15C,0.03200*%
%ADD16C,0.01200*%
%ADD17C,0.01000*%
D10*
X0013386Y0013511D02*
X0297323Y0013511D01*
X0297323Y0178511D01*
X0013386Y0178511D01*
X0013386Y0013511D01*
D11*
X0143205Y0021923D03*
X0153301Y0021943D03*
X0163142Y0021926D03*
X0163002Y0032027D03*
X0153102Y0031969D03*
X0143189Y0031831D03*
D12*
X0028696Y0067095D03*
X0028101Y0124812D03*
X0281394Y0124699D03*
X0281537Y0067175D03*
D13*
X0276620Y0092218D03*
X0276620Y0100092D03*
X0029859Y0100283D03*
X0029859Y0092409D03*
D14*
X0053980Y0082691D01*
X0057051Y0083626D01*
X0084559Y0073209D01*
X0088296Y0074655D01*
X0088386Y0082343D01*
X0088386Y0081762D01*
X0091908Y0075853D02*
X0015383Y0075853D01*
X0015383Y0074255D02*
X0087984Y0074255D01*
X0087655Y0074121D02*
X0087617Y0074120D01*
X0087214Y0073941D01*
X0086806Y0073775D01*
X0086779Y0073748D01*
X0086744Y0073733D01*
X0086440Y0073413D01*
X0086127Y0073104D01*
X0086112Y0073069D01*
X0086086Y0073041D01*
X0085927Y0072630D01*
X0085756Y0072224D01*
X0085756Y0072186D01*
X0085742Y0072150D01*
X0085753Y0071710D01*
X0085751Y0071269D01*
X0085765Y0071234D01*
X0085766Y0071195D01*
X0085945Y0070793D01*
X0086111Y0070385D01*
X0086138Y0070358D01*
X0086153Y0070323D01*
X0086472Y0070019D01*
X0086782Y0069706D01*
X0086817Y0069691D01*
X0086845Y0069665D01*
X0087256Y0069506D01*
X0087662Y0069335D01*
X0087700Y0069335D01*
X0094320Y0066783D01*
X0094295Y0061930D01*
X0094272Y0061869D01*
X0094292Y0061455D01*
X0094290Y0061041D01*
X0094315Y0060980D01*
X0094318Y0060915D01*
X0094494Y0060540D01*
X0094651Y0060157D01*
X0094697Y0060111D01*
X0094725Y0060051D01*
X0095031Y0059773D01*
X0095322Y0059478D01*
X0095383Y0059453D01*
X0095431Y0059409D01*
X0095821Y0059269D01*
X0096203Y0059109D01*
X0096268Y0059108D01*
X0108920Y0054559D01*
X0108917Y0045106D01*
X0108913Y0045095D01*
X0108917Y0044628D01*
X0108917Y0044162D01*
X0108921Y0044152D01*
X0108921Y0044140D01*
X0109104Y0043711D01*
X0109282Y0043280D01*
X0109290Y0043272D01*
X0109294Y0043262D01*
X0109627Y0042935D01*
X0109957Y0042605D01*
X0109967Y0042601D01*
X0109976Y0042592D01*
X0110408Y0042418D01*
X0110839Y0042239D01*
X0110850Y0042239D01*
X0117485Y0039560D01*
X0117561Y0028148D01*
X0117549Y0027711D01*
X0117564Y0027672D01*
X0117564Y0027630D01*
X0117734Y0027227D01*
X0117890Y0026819D01*
X0117919Y0026789D01*
X0117935Y0026750D01*
X0118246Y0026443D01*
X0118547Y0026126D01*
X0118585Y0026109D01*
X0118615Y0026080D01*
X0119020Y0025915D01*
X0119419Y0025737D01*
X0119461Y0025736D01*
X0119499Y0025720D01*
X0119937Y0025723D01*
X0120374Y0025712D01*
X0120412Y0025726D01*
X0120454Y0025727D01*
X0120857Y0025897D01*
X0126512Y0028063D01*
X0137862Y0022041D01*
X0137862Y0020860D01*
X0138675Y0018896D01*
X0140178Y0017393D01*
X0142142Y0016579D01*
X0144268Y0016579D01*
X0146232Y0017393D01*
X0147735Y0018896D01*
X0148257Y0020157D01*
X0148771Y0018917D01*
X0150274Y0017414D01*
X0152238Y0016600D01*
X0154363Y0016600D01*
X0156327Y0017414D01*
X0157830Y0018917D01*
X0158217Y0019851D01*
X0158612Y0018899D01*
X0160115Y0017396D01*
X0162079Y0016583D01*
X0164204Y0016583D01*
X0166168Y0017396D01*
X0167671Y0018899D01*
X0168485Y0020863D01*
X0168485Y0020920D01*
X0186276Y0025863D01*
X0186422Y0025863D01*
X0186732Y0025990D01*
X0187055Y0026080D01*
X0187171Y0026170D01*
X0187306Y0026225D01*
X0187543Y0026461D01*
X0187807Y0026668D01*
X0187879Y0026795D01*
X0187983Y0026898D01*
X0188112Y0027207D01*
X0188277Y0027499D01*
X0188295Y0027644D01*
X0188351Y0027779D01*
X0188352Y0028114D01*
X0188393Y0028447D01*
X0188354Y0028588D01*
X0188391Y0039847D01*
X0194985Y0042488D01*
X0195005Y0042488D01*
X0195427Y0042665D01*
X0195853Y0042835D01*
X0195867Y0042849D01*
X0195886Y0042857D01*
X0196208Y0043182D01*
X0196536Y0043502D01*
X0196544Y0043520D01*
X0196558Y0043535D01*
X0196732Y0043959D01*
X0196912Y0044380D01*
X0196912Y0044400D01*
X0196919Y0044418D01*
X0196917Y0044877D01*
X0196923Y0045334D01*
X0196915Y0045353D01*
X0196870Y0056122D01*
X0196874Y0056133D01*
X0196868Y0056599D01*
X0196866Y0057064D01*
X0196861Y0057075D01*
X0196861Y0057088D01*
X0196677Y0057515D01*
X0196497Y0057945D01*
X0196488Y0057953D01*
X0196483Y0057965D01*
X0196150Y0058289D01*
X0195819Y0058617D01*
X0195808Y0058622D01*
X0195799Y0058630D01*
X0195367Y0058802D01*
X0194935Y0058979D01*
X0194923Y0058979D01*
X0162247Y0071980D01*
X0162348Y0076938D01*
X0162387Y0077058D01*
X0162358Y0077412D01*
X0162365Y0077767D01*
X0162319Y0077884D01*
X0162309Y0078009D01*
X0162147Y0078325D01*
X0162018Y0078656D01*
X0161931Y0078747D01*
X0161873Y0078859D01*
X0161603Y0079089D01*
X0161357Y0079345D01*
X0161241Y0079395D01*
X0158186Y0081990D01*
X0157725Y0083103D01*
X0156769Y0084059D01*
X0155519Y0084577D01*
X0154167Y0084577D01*
X0152917Y0084059D01*
X0151961Y0083103D01*
X0151443Y0081853D01*
X0151443Y0080500D01*
X0151961Y0079251D01*
X0152917Y0078294D01*
X0154167Y0077777D01*
X0155519Y0077777D01*
X0155663Y0077836D01*
X0157533Y0076247D01*
X0157423Y0070849D01*
X0157407Y0070809D01*
X0157414Y0070373D01*
X0157405Y0069937D01*
X0157420Y0069897D01*
X0157421Y0069855D01*
X0157593Y0069454D01*
X0157752Y0069048D01*
X0157782Y0069017D01*
X0157798Y0068978D01*
X0158111Y0068674D01*
X0158413Y0068359D01*
X0158452Y0068342D01*
X0158483Y0068312D01*
X0158888Y0068151D01*
X0159288Y0067976D01*
X0159330Y0067975D01*
X0192075Y0054946D01*
X0192111Y0046507D01*
X0185537Y0043875D01*
X0185526Y0043875D01*
X0185095Y0043698D01*
X0184661Y0043525D01*
X0184653Y0043517D01*
X0184643Y0043513D01*
X0184312Y0043184D01*
X0183978Y0042857D01*
X0183973Y0042848D01*
X0183966Y0042840D01*
X0183785Y0042408D01*
X0183602Y0041980D01*
X0183602Y0041969D01*
X0183598Y0041959D01*
X0183596Y0041491D01*
X0183590Y0041025D01*
X0183594Y0041015D01*
X0183559Y0030090D01*
X0167106Y0025518D01*
X0166168Y0026456D01*
X0164842Y0027005D01*
X0166029Y0027497D01*
X0167532Y0029000D01*
X0168346Y0030964D01*
X0168346Y0033089D01*
X0167532Y0035053D01*
X0166029Y0036556D01*
X0165347Y0036839D01*
X0165301Y0040857D01*
X0165999Y0041555D01*
X0166517Y0042804D01*
X0166517Y0044157D01*
X0165999Y0045406D01*
X0165043Y0046363D01*
X0163793Y0046881D01*
X0162440Y0046881D01*
X0161191Y0046363D01*
X0160234Y0045406D01*
X0159717Y0044157D01*
X0159717Y0042804D01*
X0160234Y0041555D01*
X0160496Y0041293D01*
X0160548Y0036793D01*
X0159976Y0036556D01*
X0158473Y0035053D01*
X0158040Y0034010D01*
X0157632Y0034995D01*
X0156129Y0036498D01*
X0155052Y0036944D01*
X0155145Y0070784D01*
X0155634Y0071273D01*
X0156151Y0072523D01*
X0156151Y0073876D01*
X0155634Y0075125D01*
X0154677Y0076082D01*
X0153428Y0076599D01*
X0152075Y0076599D01*
X0151048Y0076174D01*
X0151048Y0083983D01*
X0151531Y0084465D01*
X0152048Y0085715D01*
X0152048Y0087067D01*
X0151531Y0088317D01*
X0150574Y0089273D01*
X0149324Y0089791D01*
X0147972Y0089791D01*
X0146722Y0089273D01*
X0145766Y0088317D01*
X0145248Y0087067D01*
X0145248Y0085715D01*
X0145766Y0084465D01*
X0146248Y0083983D01*
X0146248Y0073056D01*
X0146183Y0072898D01*
X0146183Y0072734D01*
X0146141Y0072575D01*
X0146183Y0072261D01*
X0146183Y0071943D01*
X0146245Y0071791D01*
X0146267Y0071629D01*
X0146427Y0071354D01*
X0146548Y0071061D01*
X0146664Y0070945D01*
X0146746Y0070803D01*
X0146999Y0070610D01*
X0147223Y0070386D01*
X0147375Y0070323D01*
X0147525Y0070208D01*
X0147525Y0036701D01*
X0147287Y0036485D01*
X0147233Y0036485D01*
X0146587Y0035849D01*
X0145916Y0035240D01*
X0145913Y0035187D01*
X0145875Y0035149D01*
X0145868Y0034243D01*
X0145824Y0033337D01*
X0145860Y0033297D01*
X0145811Y0027298D01*
X0145741Y0027217D01*
X0145783Y0026638D01*
X0144268Y0027266D01*
X0142142Y0027266D01*
X0140178Y0026452D01*
X0140043Y0026317D01*
X0128145Y0032630D01*
X0128086Y0032692D01*
X0127725Y0032853D01*
X0127376Y0033038D01*
X0127292Y0033046D01*
X0127214Y0033081D01*
X0126819Y0033091D01*
X0126425Y0033129D01*
X0126344Y0033104D01*
X0126260Y0033106D01*
X0125891Y0032965D01*
X0125512Y0032849D01*
X0125447Y0032795D01*
X0122338Y0031604D01*
X0122277Y0040724D01*
X0122278Y0040727D01*
X0122274Y0041201D01*
X0122271Y0041676D01*
X0122270Y0041679D01*
X0122270Y0041682D01*
X0122085Y0042116D01*
X0121900Y0042556D01*
X0121898Y0042558D01*
X0121897Y0042560D01*
X0121559Y0042892D01*
X0121220Y0043227D01*
X0121217Y0043228D01*
X0121216Y0043229D01*
X0120775Y0043407D01*
X0120335Y0043586D01*
X0120333Y0043586D01*
X0113717Y0046258D01*
X0113721Y0055828D01*
X0113741Y0055884D01*
X0113721Y0056303D01*
X0113721Y0056723D01*
X0113698Y0056778D01*
X0113696Y0056837D01*
X0113517Y0057217D01*
X0113356Y0057605D01*
X0113314Y0057647D01*
X0113289Y0057701D01*
X0112978Y0057984D01*
X0112681Y0058280D01*
X0112626Y0058303D01*
X0112582Y0058343D01*
X0112187Y0058485D01*
X0111799Y0058646D01*
X0111740Y0058646D01*
X0099101Y0063190D01*
X0099126Y0067975D01*
X0099139Y0068009D01*
X0099128Y0068451D01*
X0099130Y0068892D01*
X0099116Y0068927D01*
X0099115Y0068964D01*
X0098936Y0069367D01*
X0098770Y0069776D01*
X0098743Y0069803D01*
X0098728Y0069837D01*
X0098408Y0070141D01*
X0098098Y0070455D01*
X0098064Y0070469D01*
X0098037Y0070495D01*
X0097625Y0070654D01*
X0097218Y0070825D01*
X0097180Y0070825D01*
X0094667Y0071794D01*
X0118517Y0081508D01*
X0118998Y0081309D01*
X0120351Y0081309D01*
X0121600Y0081827D01*
X0122557Y0082783D01*
X0123074Y0084033D01*
X0123074Y0085385D01*
X0122557Y0086635D01*
X0121600Y0087591D01*
X0120351Y0088109D01*
X0118998Y0088109D01*
X0117749Y0087591D01*
X0116792Y0086635D01*
X0116470Y0085857D01*
X0087655Y0074121D01*
X0085937Y0072656D02*
X0015383Y0072656D01*
X0015383Y0071057D02*
X0085827Y0071057D01*
X0087368Y0069459D02*
X0015383Y0069459D01*
X0015383Y0067860D02*
X0091525Y0067860D01*
X0094317Y0066262D02*
X0015383Y0066262D01*
X0015383Y0064663D02*
X0094309Y0064663D01*
X0094300Y0063065D02*
X0015383Y0063065D01*
X0015383Y0061466D02*
X0094292Y0061466D01*
X0094926Y0059868D02*
X0015383Y0059868D01*
X0015383Y0058269D02*
X0098601Y0058269D01*
X0103047Y0056671D02*
X0015383Y0056671D01*
X0015383Y0055072D02*
X0107493Y0055072D01*
X0108920Y0053474D02*
X0015383Y0053474D01*
X0015383Y0051875D02*
X0108919Y0051875D01*
X0108919Y0050277D02*
X0015383Y0050277D01*
X0015383Y0048678D02*
X0108918Y0048678D01*
X0108918Y0047080D02*
X0015383Y0047080D01*
X0015383Y0045481D02*
X0108917Y0045481D01*
X0109031Y0043883D02*
X0015383Y0043883D01*
X0015383Y0042284D02*
X0110730Y0042284D01*
X0114696Y0040686D02*
X0015383Y0040686D01*
X0015383Y0039087D02*
X0117488Y0039087D01*
X0117499Y0037489D02*
X0015383Y0037489D01*
X0015383Y0035890D02*
X0117509Y0035890D01*
X0117520Y0034292D02*
X0015383Y0034292D01*
X0015383Y0032693D02*
X0117530Y0032693D01*
X0117541Y0031095D02*
X0015383Y0031095D01*
X0015383Y0029496D02*
X0117552Y0029496D01*
X0117554Y0027898D02*
X0015383Y0027898D01*
X0015383Y0026299D02*
X0118383Y0026299D01*
X0121908Y0026299D02*
X0129836Y0026299D01*
X0132849Y0024701D02*
X0015383Y0024701D01*
X0015383Y0023102D02*
X0135861Y0023102D01*
X0137862Y0021504D02*
X0015383Y0021504D01*
X0015383Y0019905D02*
X0138257Y0019905D01*
X0139264Y0018307D02*
X0015383Y0018307D01*
X0015383Y0016708D02*
X0141831Y0016708D01*
X0144579Y0016708D02*
X0151977Y0016708D01*
X0154624Y0016708D02*
X0161776Y0016708D01*
X0164507Y0016708D02*
X0295326Y0016708D01*
X0295326Y0015508D02*
X0015383Y0015508D01*
X0015383Y0176514D01*
X0295326Y0176514D01*
X0295326Y0015508D01*
X0295326Y0018307D02*
X0167079Y0018307D01*
X0168088Y0019905D02*
X0295326Y0019905D01*
X0295326Y0021504D02*
X0170586Y0021504D01*
X0169916Y0026299D02*
X0166325Y0026299D01*
X0166430Y0027898D02*
X0175669Y0027898D01*
X0176339Y0023102D02*
X0295326Y0023102D01*
X0295326Y0024701D02*
X0182092Y0024701D01*
X0187380Y0026299D02*
X0295326Y0026299D01*
X0295326Y0027898D02*
X0188352Y0027898D01*
X0188357Y0029496D02*
X0295326Y0029496D01*
X0295326Y0031095D02*
X0188362Y0031095D01*
X0188367Y0032693D02*
X0295326Y0032693D01*
X0295326Y0034292D02*
X0188373Y0034292D01*
X0188378Y0035890D02*
X0295326Y0035890D01*
X0295326Y0037489D02*
X0188383Y0037489D01*
X0188388Y0039087D02*
X0295326Y0039087D01*
X0295326Y0040686D02*
X0190484Y0040686D01*
X0194477Y0042284D02*
X0295326Y0042284D01*
X0295326Y0043883D02*
X0196700Y0043883D01*
X0196915Y0045481D02*
X0295326Y0045481D01*
X0295326Y0047080D02*
X0196908Y0047080D01*
X0196901Y0048678D02*
X0295326Y0048678D01*
X0295326Y0050277D02*
X0196895Y0050277D01*
X0196888Y0051875D02*
X0295326Y0051875D01*
X0295326Y0053474D02*
X0196881Y0053474D01*
X0196874Y0055072D02*
X0278215Y0055072D01*
X0276692Y0055480D02*
X0279884Y0054625D01*
X0283189Y0054625D01*
X0286381Y0055480D01*
X0289242Y0057133D01*
X0291579Y0059469D01*
X0293231Y0062331D01*
X0294086Y0065523D01*
X0294086Y0068827D01*
X0293231Y0072019D01*
X0291579Y0074881D01*
X0289242Y0077218D01*
X0286381Y0078870D01*
X0283189Y0079725D01*
X0279884Y0079725D01*
X0276692Y0078870D01*
X0273831Y0077218D01*
X0271494Y0074881D01*
X0269842Y0072019D01*
X0268987Y0068827D01*
X0268987Y0065523D01*
X0269842Y0062331D01*
X0271494Y0059469D01*
X0273831Y0057133D01*
X0276692Y0055480D01*
X0274630Y0056671D02*
X0196868Y0056671D01*
X0196170Y0058269D02*
X0272694Y0058269D01*
X0271264Y0059868D02*
X0192688Y0059868D01*
X0188671Y0061466D02*
X0270341Y0061466D01*
X0269645Y0063065D02*
X0184653Y0063065D01*
X0180636Y0064663D02*
X0269217Y0064663D01*
X0268987Y0066262D02*
X0176619Y0066262D01*
X0172601Y0067860D02*
X0268987Y0067860D01*
X0269156Y0069459D02*
X0168584Y0069459D01*
X0164567Y0071057D02*
X0269584Y0071057D01*
X0270209Y0072656D02*
X0162261Y0072656D01*
X0162294Y0074255D02*
X0271132Y0074255D01*
X0272466Y0075853D02*
X0162326Y0075853D01*
X0162359Y0077452D02*
X0274236Y0077452D01*
X0277365Y0079050D02*
X0161648Y0079050D01*
X0159766Y0080649D02*
X0295326Y0080649D01*
X0295326Y0082247D02*
X0158080Y0082247D01*
X0156982Y0083846D02*
X0295326Y0083846D01*
X0295326Y0085444D02*
X0151936Y0085444D01*
X0152048Y0087043D02*
X0295326Y0087043D01*
X0295326Y0088641D02*
X0279508Y0088641D01*
X0279210Y0088343D02*
X0280496Y0089629D01*
X0281192Y0091309D01*
X0281192Y0093128D01*
X0280496Y0094808D01*
X0279210Y0096094D01*
X0279062Y0096155D01*
X0279210Y0096217D01*
X0280496Y0097503D01*
X0281192Y0099183D01*
X0281192Y0101002D01*
X0280496Y0102682D01*
X0279210Y0103968D01*
X0277529Y0104664D01*
X0275711Y0104664D01*
X0274030Y0103968D01*
X0272744Y0102682D01*
X0272048Y0101002D01*
X0272048Y0099183D01*
X0272744Y0097503D01*
X0274030Y0096217D01*
X0274179Y0096155D01*
X0274030Y0096094D01*
X0272744Y0094808D01*
X0272048Y0093128D01*
X0272048Y0091309D01*
X0272744Y0089629D01*
X0274030Y0088343D01*
X0275711Y0087647D01*
X0277529Y0087647D01*
X0279210Y0088343D01*
X0280749Y0090240D02*
X0295326Y0090240D01*
X0295326Y0091838D02*
X0281192Y0091838D01*
X0281064Y0093437D02*
X0295326Y0093437D01*
X0295326Y0095035D02*
X0280269Y0095035D01*
X0279627Y0096634D02*
X0295326Y0096634D01*
X0295326Y0098232D02*
X0280798Y0098232D01*
X0281192Y0099831D02*
X0295326Y0099831D01*
X0295326Y0101429D02*
X0281015Y0101429D01*
X0280150Y0103028D02*
X0295326Y0103028D01*
X0295326Y0104626D02*
X0277621Y0104626D01*
X0275620Y0104626D02*
X0218727Y0104626D01*
X0219308Y0104867D02*
X0220264Y0105823D01*
X0220782Y0107073D01*
X0220782Y0108425D01*
X0220264Y0109675D01*
X0219861Y0110078D01*
X0219914Y0117463D01*
X0225813Y0119523D01*
X0244729Y0112614D01*
X0244832Y0112365D01*
X0245789Y0111409D01*
X0247038Y0110891D01*
X0248391Y0110891D01*
X0249641Y0111409D01*
X0250597Y0112365D01*
X0251115Y0113615D01*
X0251115Y0114968D01*
X0250597Y0116217D01*
X0249641Y0117174D01*
X0248391Y0117691D01*
X0247038Y0117691D01*
X0246545Y0117487D01*
X0226846Y0124682D01*
X0226496Y0124851D01*
X0226363Y0124858D01*
X0226239Y0124904D01*
X0225851Y0124887D01*
X0225463Y0124909D01*
X0225338Y0124866D01*
X0225205Y0124860D01*
X0224853Y0124696D01*
X0216895Y0121917D01*
X0216828Y0121917D01*
X0216409Y0121747D01*
X0215981Y0121598D01*
X0215931Y0121554D01*
X0215870Y0121528D01*
X0215547Y0121211D01*
X0215210Y0120909D01*
X0215181Y0120849D01*
X0215133Y0120802D01*
X0214957Y0120385D01*
X0214760Y0119978D01*
X0214756Y0119911D01*
X0214730Y0119850D01*
X0214727Y0119397D01*
X0214702Y0118945D01*
X0214724Y0118882D01*
X0214659Y0109835D01*
X0214499Y0109675D01*
X0213982Y0108425D01*
X0213982Y0107073D01*
X0214499Y0105823D01*
X0215456Y0104867D01*
X0216705Y0104349D01*
X0218058Y0104349D01*
X0219308Y0104867D01*
X0220430Y0106225D02*
X0295326Y0106225D01*
X0295326Y0107823D02*
X0220782Y0107823D01*
X0220369Y0109422D02*
X0295326Y0109422D01*
X0295326Y0111020D02*
X0248702Y0111020D01*
X0246727Y0111020D02*
X0219868Y0111020D01*
X0219879Y0112619D02*
X0244716Y0112619D01*
X0247715Y0114291D02*
X0225832Y0122284D01*
X0217327Y0119314D01*
X0217257Y0109517D01*
X0214394Y0109422D02*
X0183369Y0109422D01*
X0184468Y0108996D02*
X0155647Y0120162D01*
X0155521Y0120465D01*
X0154565Y0121421D01*
X0153315Y0121939D01*
X0151963Y0121939D01*
X0150713Y0121421D01*
X0149756Y0120465D01*
X0149239Y0119215D01*
X0149239Y0117862D01*
X0149756Y0116613D01*
X0150713Y0115656D01*
X0151963Y0115139D01*
X0153315Y0115139D01*
X0153751Y0115320D01*
X0183392Y0103836D01*
X0184135Y0103094D01*
X0185384Y0102576D01*
X0186737Y0102576D01*
X0187987Y0103094D01*
X0188943Y0104050D01*
X0189461Y0105300D01*
X0189461Y0106652D01*
X0188943Y0107902D01*
X0187987Y0108858D01*
X0186737Y0109376D01*
X0185384Y0109376D01*
X0184468Y0108996D01*
X0188976Y0107823D02*
X0213982Y0107823D01*
X0214333Y0106225D02*
X0189461Y0106225D01*
X0189182Y0104626D02*
X0216036Y0104626D01*
X0214668Y0111020D02*
X0179243Y0111020D01*
X0175117Y0112619D02*
X0214679Y0112619D01*
X0214690Y0114217D02*
X0170991Y0114217D01*
X0166865Y0115816D02*
X0214702Y0115816D01*
X0214713Y0117414D02*
X0162739Y0117414D01*
X0158612Y0119013D02*
X0214705Y0119013D01*
X0215052Y0120611D02*
X0155375Y0120611D01*
X0152639Y0118539D02*
X0186086Y0105581D01*
X0187828Y0103028D02*
X0273090Y0103028D01*
X0272226Y0101429D02*
X0034332Y0101429D01*
X0034430Y0101193D02*
X0033734Y0102873D01*
X0032448Y0104159D01*
X0030768Y0104855D01*
X0028949Y0104855D01*
X0027269Y0104159D01*
X0025983Y0102873D01*
X0025287Y0101193D01*
X0025287Y0099374D01*
X0025983Y0097694D01*
X0027269Y0096408D01*
X0028949Y0095712D01*
X0030768Y0095712D01*
X0032448Y0096408D01*
X0033734Y0097694D01*
X0034430Y0099374D01*
X0034430Y0101193D01*
X0034430Y0099831D02*
X0272048Y0099831D01*
X0272442Y0098232D02*
X0033957Y0098232D01*
X0032674Y0096634D02*
X0273613Y0096634D01*
X0272972Y0095035D02*
X0015383Y0095035D01*
X0015383Y0093437D02*
X0272176Y0093437D01*
X0272048Y0091838D02*
X0015383Y0091838D01*
X0015383Y0090240D02*
X0272491Y0090240D01*
X0273732Y0088641D02*
X0151206Y0088641D01*
X0146090Y0088641D02*
X0015383Y0088641D01*
X0015383Y0087043D02*
X0117200Y0087043D01*
X0115455Y0085444D02*
X0015383Y0085444D01*
X0015383Y0083846D02*
X0111531Y0083846D01*
X0107606Y0082247D02*
X0015383Y0082247D01*
X0015383Y0080649D02*
X0103682Y0080649D01*
X0099757Y0079050D02*
X0015383Y0079050D01*
X0015383Y0077452D02*
X0095833Y0077452D01*
X0100708Y0074255D02*
X0146248Y0074255D01*
X0146248Y0075853D02*
X0104633Y0075853D01*
X0108557Y0077452D02*
X0146248Y0077452D01*
X0146248Y0079050D02*
X0112482Y0079050D01*
X0116406Y0080649D02*
X0146248Y0080649D01*
X0146248Y0082247D02*
X0122021Y0082247D01*
X0122997Y0083846D02*
X0146248Y0083846D01*
X0145360Y0085444D02*
X0123050Y0085444D01*
X0122149Y0087043D02*
X0145248Y0087043D01*
X0151048Y0083846D02*
X0152704Y0083846D01*
X0151606Y0082247D02*
X0151048Y0082247D01*
X0151048Y0080649D02*
X0151443Y0080649D01*
X0151048Y0079050D02*
X0152161Y0079050D01*
X0151048Y0077452D02*
X0156115Y0077452D01*
X0154906Y0075853D02*
X0157525Y0075853D01*
X0157493Y0074255D02*
X0155994Y0074255D01*
X0156151Y0072656D02*
X0157460Y0072656D01*
X0157427Y0071057D02*
X0155418Y0071057D01*
X0155141Y0069459D02*
X0157591Y0069459D01*
X0159618Y0067860D02*
X0155137Y0067860D01*
X0155132Y0066262D02*
X0163636Y0066262D01*
X0167653Y0064663D02*
X0155128Y0064663D01*
X0155124Y0063065D02*
X0171670Y0063065D01*
X0175688Y0061466D02*
X0155119Y0061466D01*
X0155115Y0059868D02*
X0179705Y0059868D01*
X0183722Y0058269D02*
X0155111Y0058269D01*
X0155106Y0056671D02*
X0187740Y0056671D01*
X0191757Y0055072D02*
X0155102Y0055072D01*
X0155097Y0053474D02*
X0192081Y0053474D01*
X0192088Y0051875D02*
X0155093Y0051875D01*
X0155089Y0050277D02*
X0192095Y0050277D01*
X0192101Y0048678D02*
X0155084Y0048678D01*
X0155080Y0047080D02*
X0192108Y0047080D01*
X0189548Y0045481D02*
X0165924Y0045481D01*
X0166517Y0043883D02*
X0185556Y0043883D01*
X0183732Y0042284D02*
X0166301Y0042284D01*
X0165303Y0040686D02*
X0183593Y0040686D01*
X0183588Y0039087D02*
X0165322Y0039087D01*
X0165340Y0037489D02*
X0183583Y0037489D01*
X0183578Y0035890D02*
X0166695Y0035890D01*
X0167848Y0034292D02*
X0183573Y0034292D01*
X0183567Y0032693D02*
X0168346Y0032693D01*
X0168346Y0031095D02*
X0183562Y0031095D01*
X0181422Y0029496D02*
X0167738Y0029496D01*
X0159310Y0035890D02*
X0156737Y0035890D01*
X0157924Y0034292D02*
X0158157Y0034292D01*
X0160540Y0037489D02*
X0155054Y0037489D01*
X0155058Y0039087D02*
X0160521Y0039087D01*
X0160503Y0040686D02*
X0155063Y0040686D01*
X0155067Y0042284D02*
X0159932Y0042284D01*
X0159717Y0043883D02*
X0155071Y0043883D01*
X0155076Y0045481D02*
X0160309Y0045481D01*
X0147525Y0045481D02*
X0115640Y0045481D01*
X0113718Y0047080D02*
X0147525Y0047080D01*
X0147525Y0048678D02*
X0113718Y0048678D01*
X0113719Y0050277D02*
X0147525Y0050277D01*
X0147525Y0051875D02*
X0113719Y0051875D01*
X0113720Y0053474D02*
X0147525Y0053474D01*
X0147525Y0055072D02*
X0113720Y0055072D01*
X0113721Y0056671D02*
X0147525Y0056671D01*
X0147525Y0058269D02*
X0112692Y0058269D01*
X0108342Y0059868D02*
X0147525Y0059868D01*
X0147525Y0061466D02*
X0103896Y0061466D01*
X0099450Y0063065D02*
X0147525Y0063065D01*
X0147525Y0064663D02*
X0099109Y0064663D01*
X0099117Y0066262D02*
X0147525Y0066262D01*
X0147525Y0067860D02*
X0099125Y0067860D01*
X0098899Y0069459D02*
X0147525Y0069459D01*
X0146551Y0071057D02*
X0096577Y0071057D01*
X0096784Y0072656D02*
X0146162Y0072656D01*
X0147525Y0043883D02*
X0119598Y0043883D01*
X0122014Y0042284D02*
X0147525Y0042284D01*
X0147525Y0040686D02*
X0122277Y0040686D01*
X0122288Y0039087D02*
X0147525Y0039087D01*
X0147525Y0037489D02*
X0122299Y0037489D01*
X0122309Y0035890D02*
X0146628Y0035890D01*
X0145868Y0034292D02*
X0122320Y0034292D01*
X0122331Y0032693D02*
X0125182Y0032693D01*
X0128083Y0032693D02*
X0145855Y0032693D01*
X0145842Y0031095D02*
X0131039Y0031095D01*
X0134051Y0029496D02*
X0145829Y0029496D01*
X0145816Y0027898D02*
X0137064Y0027898D01*
X0126823Y0027898D02*
X0126081Y0027898D01*
X0147145Y0018307D02*
X0149381Y0018307D01*
X0148361Y0019905D02*
X0148153Y0019905D01*
X0157220Y0018307D02*
X0159205Y0018307D01*
X0284858Y0055072D02*
X0295326Y0055072D01*
X0295326Y0056671D02*
X0288443Y0056671D01*
X0290379Y0058269D02*
X0295326Y0058269D01*
X0295326Y0059868D02*
X0291809Y0059868D01*
X0292732Y0061466D02*
X0295326Y0061466D01*
X0295326Y0063065D02*
X0293428Y0063065D01*
X0293856Y0064663D02*
X0295326Y0064663D01*
X0295326Y0066262D02*
X0294086Y0066262D01*
X0294086Y0067860D02*
X0295326Y0067860D01*
X0295326Y0069459D02*
X0293917Y0069459D01*
X0293489Y0071057D02*
X0295326Y0071057D01*
X0295326Y0072656D02*
X0292864Y0072656D01*
X0291941Y0074255D02*
X0295326Y0074255D01*
X0295326Y0075853D02*
X0290607Y0075853D01*
X0288837Y0077452D02*
X0295326Y0077452D01*
X0295326Y0079050D02*
X0285708Y0079050D01*
X0283046Y0112149D02*
X0279742Y0112149D01*
X0276550Y0113004D01*
X0273688Y0114656D01*
X0271351Y0116993D01*
X0269699Y0119854D01*
X0268844Y0123046D01*
X0268844Y0126351D01*
X0269699Y0129543D01*
X0271351Y0132404D01*
X0273688Y0134741D01*
X0276550Y0136393D01*
X0279742Y0137248D01*
X0283046Y0137248D01*
X0286238Y0136393D01*
X0289100Y0134741D01*
X0291436Y0132404D01*
X0293089Y0129543D01*
X0293944Y0126351D01*
X0293944Y0123046D01*
X0293089Y0119854D01*
X0291436Y0116993D01*
X0289100Y0114656D01*
X0286238Y0113004D01*
X0283046Y0112149D01*
X0284801Y0112619D02*
X0295326Y0112619D01*
X0295326Y0114217D02*
X0288340Y0114217D01*
X0290259Y0115816D02*
X0295326Y0115816D01*
X0295326Y0117414D02*
X0291680Y0117414D01*
X0292603Y0119013D02*
X0295326Y0119013D01*
X0295326Y0120611D02*
X0293291Y0120611D01*
X0293720Y0122210D02*
X0295326Y0122210D01*
X0295326Y0123808D02*
X0293944Y0123808D01*
X0293944Y0125407D02*
X0295326Y0125407D01*
X0295326Y0127005D02*
X0293768Y0127005D01*
X0293340Y0128604D02*
X0295326Y0128604D01*
X0295326Y0130202D02*
X0292708Y0130202D01*
X0291785Y0131801D02*
X0295326Y0131801D01*
X0295326Y0133399D02*
X0290441Y0133399D01*
X0288655Y0134998D02*
X0295326Y0134998D01*
X0295326Y0136596D02*
X0285480Y0136596D01*
X0277308Y0136596D02*
X0032610Y0136596D01*
X0032945Y0136507D02*
X0029753Y0137362D01*
X0026449Y0137362D01*
X0023257Y0136507D01*
X0020395Y0134854D01*
X0018059Y0132518D01*
X0016406Y0129656D01*
X0015551Y0126464D01*
X0015551Y0123160D01*
X0016406Y0119968D01*
X0018059Y0117106D01*
X0020395Y0114769D01*
X0023257Y0113117D01*
X0026449Y0112262D01*
X0029753Y0112262D01*
X0032945Y0113117D01*
X0035807Y0114769D01*
X0038144Y0117106D01*
X0039796Y0119968D01*
X0040651Y0123160D01*
X0040651Y0126464D01*
X0039796Y0129656D01*
X0038144Y0132518D01*
X0035807Y0134854D01*
X0032945Y0136507D01*
X0035558Y0134998D02*
X0274133Y0134998D01*
X0272346Y0133399D02*
X0037262Y0133399D01*
X0038557Y0131801D02*
X0271003Y0131801D01*
X0270080Y0130202D02*
X0039480Y0130202D01*
X0040078Y0128604D02*
X0269448Y0128604D01*
X0269019Y0127005D02*
X0040506Y0127005D01*
X0040651Y0125407D02*
X0268844Y0125407D01*
X0268844Y0123808D02*
X0229238Y0123808D01*
X0233614Y0122210D02*
X0269068Y0122210D01*
X0269496Y0120611D02*
X0237990Y0120611D01*
X0242367Y0119013D02*
X0270185Y0119013D01*
X0271108Y0117414D02*
X0249060Y0117414D01*
X0250763Y0115816D02*
X0272528Y0115816D01*
X0274448Y0114217D02*
X0251115Y0114217D01*
X0250702Y0112619D02*
X0277986Y0112619D01*
X0240339Y0114217D02*
X0219890Y0114217D01*
X0219902Y0115816D02*
X0235963Y0115816D01*
X0231587Y0117414D02*
X0219913Y0117414D01*
X0224351Y0119013D02*
X0227211Y0119013D01*
X0222311Y0123808D02*
X0040651Y0123808D01*
X0040397Y0122210D02*
X0217733Y0122210D01*
X0184294Y0103028D02*
X0033579Y0103028D01*
X0031320Y0104626D02*
X0181353Y0104626D01*
X0177227Y0106225D02*
X0015383Y0106225D01*
X0015383Y0107823D02*
X0173101Y0107823D01*
X0168975Y0109422D02*
X0015383Y0109422D01*
X0015383Y0111020D02*
X0164849Y0111020D01*
X0160723Y0112619D02*
X0031086Y0112619D01*
X0034851Y0114217D02*
X0156596Y0114217D01*
X0150553Y0115816D02*
X0036853Y0115816D01*
X0038322Y0117414D02*
X0149424Y0117414D01*
X0149239Y0119013D02*
X0039245Y0119013D01*
X0039968Y0120611D02*
X0149903Y0120611D01*
X0028397Y0104626D02*
X0015383Y0104626D01*
X0015383Y0103028D02*
X0026138Y0103028D01*
X0025385Y0101429D02*
X0015383Y0101429D01*
X0015383Y0099831D02*
X0025287Y0099831D01*
X0025760Y0098232D02*
X0015383Y0098232D01*
X0015383Y0096634D02*
X0027043Y0096634D01*
X0025116Y0112619D02*
X0015383Y0112619D01*
X0015383Y0114217D02*
X0021351Y0114217D01*
X0019349Y0115816D02*
X0015383Y0115816D01*
X0015383Y0117414D02*
X0017881Y0117414D01*
X0016958Y0119013D02*
X0015383Y0119013D01*
X0015383Y0120611D02*
X0016234Y0120611D01*
X0015806Y0122210D02*
X0015383Y0122210D01*
X0015383Y0123808D02*
X0015551Y0123808D01*
X0015551Y0125407D02*
X0015383Y0125407D01*
X0015383Y0127005D02*
X0015696Y0127005D01*
X0015383Y0128604D02*
X0016124Y0128604D01*
X0016722Y0130202D02*
X0015383Y0130202D01*
X0015383Y0131801D02*
X0017645Y0131801D01*
X0018940Y0133399D02*
X0015383Y0133399D01*
X0015383Y0134998D02*
X0020644Y0134998D01*
X0023593Y0136596D02*
X0015383Y0136596D01*
X0015383Y0138195D02*
X0295326Y0138195D01*
X0295326Y0139793D02*
X0015383Y0139793D01*
X0015383Y0141392D02*
X0295326Y0141392D01*
X0295326Y0142991D02*
X0015383Y0142991D01*
X0015383Y0144589D02*
X0295326Y0144589D01*
X0295326Y0146188D02*
X0015383Y0146188D01*
X0015383Y0147786D02*
X0295326Y0147786D01*
X0295326Y0149385D02*
X0015383Y0149385D01*
X0015383Y0150983D02*
X0295326Y0150983D01*
X0295326Y0152582D02*
X0015383Y0152582D01*
X0015383Y0154180D02*
X0295326Y0154180D01*
X0295326Y0155779D02*
X0015383Y0155779D01*
X0015383Y0157377D02*
X0295326Y0157377D01*
X0295326Y0158976D02*
X0015383Y0158976D01*
X0015383Y0160574D02*
X0295326Y0160574D01*
X0295326Y0162173D02*
X0015383Y0162173D01*
X0015383Y0163771D02*
X0295326Y0163771D01*
X0295326Y0165370D02*
X0015383Y0165370D01*
X0015383Y0166968D02*
X0295326Y0166968D01*
X0295326Y0168567D02*
X0015383Y0168567D01*
X0015383Y0170165D02*
X0295326Y0170165D01*
X0295326Y0171764D02*
X0015383Y0171764D01*
X0015383Y0173362D02*
X0295326Y0173362D01*
X0295326Y0174961D02*
X0015383Y0174961D01*
D15*
X0152639Y0118539D03*
X0186061Y0105976D03*
X0217382Y0107749D03*
X0247715Y0114291D03*
X0154843Y0081177D03*
X0148648Y0086391D03*
X0152751Y0073199D03*
X0119675Y0084709D03*
X0088386Y0081762D03*
X0163117Y0043481D03*
D16*
X0162871Y0043481D01*
X0163002Y0032027D01*
X0153102Y0031969D02*
X0152646Y0034495D01*
X0152751Y0073199D01*
X0149925Y0071394D02*
X0149925Y0036286D01*
X0149830Y0035687D01*
X0143205Y0021923D02*
X0126673Y0030694D01*
X0119961Y0028123D01*
X0119874Y0041183D01*
X0111317Y0044639D01*
X0111321Y0056246D01*
X0096692Y0061506D01*
X0096728Y0068427D01*
X0088153Y0071732D01*
X0119442Y0084477D01*
X0119675Y0084709D01*
X0148648Y0086391D02*
X0148648Y0072420D01*
X0148583Y0072420D01*
X0149925Y0071394D01*
X0159814Y0070366D02*
X0159956Y0077338D01*
X0155269Y0081319D01*
X0154843Y0081177D01*
X0159814Y0070366D02*
X0194468Y0056577D01*
X0194517Y0044886D01*
X0185996Y0041474D01*
X0185953Y0028264D01*
X0163142Y0021926D01*
X0217382Y0107749D02*
X0217257Y0109517D01*
D17*
X0149830Y0035687D02*
X0148167Y0034178D01*
X0148104Y0026434D01*
X0153301Y0021943D01*
M02*
