G04 Pdf2Gerb 1.6L: Layer 10 at Sat Apr  1 21:06:43 2017 *
%FSLAX24Y24*%
%IPPOS*%
G70*
%MOIN*%
%ADD10C,0.05600*%
%ADD11C,0.01000*%
G01*
G54D10*
G54D10*
X019697Y023021D03*
G54D11*
X039660Y062410D02*
X039760Y062410D01*
X039860Y062409D01*
X039960Y062408D01*
X040060Y062406D01*
X040160Y062404D01*
X040259Y062401D01*
X040359Y062398D01*
X040459Y062394D01*
X040559Y062390D01*
X040659Y062385D01*
X040759Y062380D01*
X040859Y062374D01*
X040959Y062367D01*
X041058Y062360D01*
X041158Y062353D01*
X041258Y062345D01*
X041357Y062337D01*
X041457Y062328D01*
X041557Y062319D01*
X041656Y062309D01*
X041756Y062298D01*
X041855Y062287D01*
X041954Y062276D01*
X042054Y062264D01*
X042153Y062251D01*
X042252Y062238D01*
X042351Y062225D01*
X042450Y062211D01*
X042549Y062197D01*
X042648Y062182D01*
X042747Y062166D01*
X042845Y062150D01*
X042944Y062134D01*
X043043Y062117D01*
X043141Y062099D01*
X043239Y062081D01*
X043338Y062063D01*
X043436Y062044D01*
X043534Y062024D01*
X043632Y062004D01*
X043730Y061984D01*
X043828Y061963D01*
X043925Y061941D01*
X044023Y061919D01*
X044120Y061897D01*
X044218Y061874D01*
X044315Y061851D01*
X044412Y061827D01*
X044509Y061802D01*
X044606Y061777D01*
X044702Y061752D01*
X044799Y061726D01*
X044895Y061699D01*
X044992Y061672D01*
X045088Y061645D01*
X045184Y061617D01*
X045280Y061589D01*
X045376Y061560D01*
X045471Y061531D01*
X045567Y061501D01*
X045662Y061470D01*
X045757Y061440D01*
X045852Y061408D01*
X045947Y061377D01*
X046042Y061344D01*
X046136Y061312D01*
X046230Y061278D01*
X046324Y061245D01*
X046418Y061210D01*
X046512Y061176D01*
X046606Y061141D01*
X046699Y061105D01*
X046793Y061069D01*
X046886Y061032D01*
X046979Y060995D01*
X047071Y060958D01*
X047164Y060920D01*
X047256Y060881D01*
X047348Y060842D01*
X047440Y060803D01*
X047532Y060763D01*
X047623Y060723D01*
X047715Y060682D01*
X047806Y060641D01*
X047897Y060599D01*
X047987Y060557D01*
X048078Y060514D01*
X048168Y060471D01*
X048258Y060428D01*
X048348Y060384D01*
X048437Y060339D01*
X048527Y060294D01*
X048616Y060249D01*
X048705Y060203D01*
X048793Y060157D01*
X048882Y060110D01*
X048970Y060063D01*
X049058Y060015D01*
X049145Y059967D01*
X049233Y059918D01*
X049320Y059869D01*
X049407Y059820D01*
X049494Y059770D01*
X049580Y059720D01*
X049666Y059669D01*
X049752Y059618D01*
X049838Y059566D01*
X049923Y059514D01*
X050008Y059462D01*
X050093Y059409D01*
X050178Y059356D01*
X050262Y059302D01*
X050346Y059248D01*
X050430Y059193D01*
X050513Y059138D01*
X050596Y059082D01*
X050679Y059026D01*
X050762Y058970D01*
X050844Y058913D01*
X050926Y058856D01*
X051008Y058799D01*
X051090Y058741D01*
X051171Y058682D01*
X051252Y058623D01*
X051332Y058564D01*
X051412Y058504D01*
X051492Y058444D01*
X051572Y058384D01*
X051651Y058323D01*
X051730Y058262D01*
X051809Y058200D01*
X051888Y058138D01*
X051966Y058076D01*
X052043Y058013D01*
X052121Y057949D01*
X052198Y057886D01*
X052275Y057822D01*
X052351Y057757D01*
X052427Y057692D01*
X052503Y057627D01*
X052579Y057562D01*
X052654Y057496D01*
X052729Y057429D01*
X052803Y057362D01*
X052877Y057295D01*
X052951Y057228D01*
X053024Y057160D01*
X053097Y057092D01*
X053170Y057023D01*
X053243Y056954D01*
X053315Y056885D01*
X053386Y056815D01*
X053458Y056745D01*
X053529Y056674D01*
X053599Y056604D01*
X053669Y056532D01*
X053739Y056461D01*
X053809Y056389D01*
X053878Y056317D01*
X053947Y056244D01*
X054015Y056171D01*
X054083Y056098D01*
X054151Y056024D01*
X054218Y055950D01*
X054285Y055876D01*
X054352Y055801D01*
X054418Y055726D01*
X054484Y055651D01*
X054549Y055575D01*
X054614Y055499D01*
X054679Y055423D01*
X054743Y055346D01*
X054807Y055269D01*
X054870Y055192D01*
X054933Y055115D01*
X054996Y055037D01*
X055058Y054958D01*
X055120Y054880D01*
X055181Y054801D01*
X055242Y054722D01*
X055303Y054642D01*
X055363Y054562D01*
X055423Y054482D01*
X055482Y054402D01*
X055541Y054321D01*
X055600Y054240D01*
X055658Y054159D01*
X055716Y054077D01*
X055773Y053995D01*
X055830Y053913D01*
X055887Y053830D01*
X055943Y053748D01*
X055998Y053665D01*
X056054Y053581D01*
X056109Y053498D01*
X056163Y053414D01*
X056217Y053329D01*
X056270Y053245D01*
X056324Y053160D01*
X056376Y053075D01*
X056428Y052990D01*
X056480Y052904D01*
X056532Y052819D01*
X056583Y052733D01*
X056633Y052646D01*
X056683Y052560D01*
X056733Y052473D01*
X056782Y052386D01*
X056831Y052298D01*
X056879Y052211D01*
X056927Y052123D01*
X056974Y052035D01*
X057021Y051947D01*
X057068Y051858D01*
X057114Y051769D01*
X057159Y051680D01*
X057204Y051591D01*
X057249Y051502D01*
X057293Y051412D01*
X057337Y051322D01*
X057380Y051232D01*
X057423Y051142D01*
X057465Y051051D01*
X057507Y050960D01*
X057549Y050869D01*
X057590Y050778D01*
X057630Y050687D01*
X057670Y050595D01*
X057710Y050503D01*
X057749Y050411D01*
X057788Y050319D01*
X057826Y050226D01*
X057864Y050134D01*
X057901Y050041D01*
X057938Y049948D01*
X057974Y049855D01*
X058010Y049761D01*
X058045Y049668D01*
X058080Y049574D01*
X058114Y049480D01*
X058148Y049386D01*
X058182Y049292D01*
X058215Y049198D01*
X058247Y049103D01*
X058279Y049008D01*
X058311Y048913D01*
X058342Y048818D01*
X058372Y048723D01*
X058402Y048628D01*
X058432Y048532D01*
X058461Y048436D01*
X058489Y048341D01*
X058518Y048245D01*
X058545Y048149D01*
X058572Y048052D01*
X058599Y047956D01*
X058625Y047859D01*
X058651Y047763D01*
X058676Y047666D01*
X058700Y047569D01*
X058725Y047472D01*
X058748Y047375D01*
X058772Y047278D01*
X058794Y047180D01*
X058816Y047083D01*
X058838Y046985D01*
X058859Y046887D01*
X058880Y046789D01*
X058900Y046692D01*
X058920Y046594D01*
X058939Y046495D01*
X058958Y046397D01*
X058976Y046299D01*
X058994Y046200D01*
X059011Y046102D01*
X059027Y046003D01*
X059044Y045905D01*
X059059Y045806D01*
X059075Y045707D01*
X059089Y045608D01*
X059103Y045509D01*
X059117Y045410D01*
X059130Y045311D01*
X059143Y045212D01*
X059155Y045112D01*
X059167Y045013D01*
X059178Y044914D01*
X059188Y044814D01*
X059199Y044715D01*
X059208Y044615D01*
X059217Y044516D01*
X059226Y044416D01*
X059234Y044316D01*
X059242Y044217D01*
X059249Y044117D01*
X059255Y044017D01*
X059261Y043917D01*
X059267Y043817D01*
X059272Y043718D01*
X059277Y043618D01*
X059281Y043518D01*
X059284Y043418D01*
X059287Y043318D01*
X059290Y043218D01*
X059292Y043118D01*
X059293Y043018D01*
X059294Y042918D01*
X059295Y042818D01*
X059295Y042718D01*
X059294Y042618D01*
X059293Y042518D01*
X059291Y042418D01*
X059289Y042318D01*
X059287Y042218D01*
X059284Y042118D01*
X059280Y042018D01*
X059276Y041918D01*
X059271Y041818D01*
X059266Y041718D01*
X059261Y041619D01*
X059254Y041519D01*
X059248Y041419D01*
X059241Y041319D01*
X059233Y041220D01*
X059225Y041120D01*
X059216Y041020D01*
X059207Y040921D01*
X059197Y040821D01*
X059187Y040722D01*
X059176Y040622D01*
X059165Y040523D01*
X059153Y040424D01*
X059141Y040324D01*
X059128Y040225D01*
X059115Y040126D01*
X059101Y040027D01*
X059087Y039928D01*
X059072Y039829D01*
X059057Y039730D01*
X059041Y039632D01*
X059025Y039533D01*
X059008Y039434D01*
X058991Y039336D01*
X058973Y039237D01*
X058955Y039139D01*
X058936Y039041D01*
X058917Y038943D01*
X058897Y038845D01*
X058877Y038747D01*
X058856Y038649D01*
X058835Y038551D01*
X058813Y038454D01*
X058791Y038356D01*
X058768Y038259D01*
X058745Y038162D01*
X058721Y038064D01*
X058697Y037967D01*
X058672Y037870D01*
X058647Y037774D01*
X058621Y037677D01*
X058595Y037581D01*
X058568Y037484D01*
X058541Y037388D01*
X058513Y037292D01*
X058485Y037196D01*
X058457Y037100D01*
X058427Y037004D01*
X058398Y036909D01*
X058368Y036814D01*
X058337Y036718D01*
X058306Y036623D01*
X058274Y036528D01*
X058242Y036434D01*
X058210Y036339D01*
X058177Y036245D01*
X058143Y036151D01*
X058109Y036057D01*
X058075Y035963D01*
X058040Y035869D01*
X058005Y035775D01*
X057969Y035682D01*
X057932Y035589D01*
X057895Y035496D01*
X057858Y035403D01*
X057820Y035311D01*
X057782Y035218D01*
X057743Y035126D01*
X057704Y035034D01*
X057665Y034942D01*
X057624Y034851D01*
X057584Y034759D01*
X057543Y034668D01*
X057501Y034577D01*
X057459Y034486D01*
X057417Y034396D01*
X057374Y034305D01*
X057331Y034215D01*
X057287Y034125D01*
X057242Y034036D01*
X057198Y033946D01*
X057153Y033857D01*
X057107Y033768D01*
X057061Y033679D01*
X057014Y033591D01*
X056967Y033503D01*
X056920Y033415D01*
X056872Y033327D01*
X056824Y033239D01*
X056775Y033152D01*
X056726Y033065D01*
X056676Y032978D01*
X056626Y032892D01*
X056575Y032805D01*
X056524Y032719D01*
X056473Y032634D01*
X056421Y032548D01*
X056369Y032463D01*
X056316Y032378D01*
X056263Y032293D01*
X056209Y032209D01*
X056155Y032125D01*
X056101Y032041D01*
X056046Y031957D01*
X055990Y031874D01*
X055935Y031791D01*
X055878Y031708D01*
X055822Y031626D01*
X055765Y031543D01*
X055708Y031462D01*
X055650Y031380D01*
X055591Y031299D01*
X055533Y031218D01*
X055474Y031137D01*
X055414Y031057D01*
X055354Y030977D01*
X055294Y030897D01*
X055233Y030817D01*
X055172Y030738D01*
X055111Y030659D01*
X055049Y030581D01*
X054987Y030503D01*
X054924Y030425D01*
X054861Y030347D01*
X054797Y030270D01*
X054733Y030193D01*
X054669Y030116D01*
X054604Y030040D01*
X054539Y029964D01*
X054474Y029888D01*
X054408Y029813D01*
X054342Y029738D01*
X054275Y029664D01*
X054208Y029589D01*
X054141Y029515D01*
X054073Y029442D01*
X054005Y029369D01*
X053937Y029296D01*
X053868Y029223D01*
X053799Y029151D01*
X053729Y029079D01*
X053659Y029008D01*
X053589Y028937D01*
X053518Y028866D01*
X053447Y028795D01*
X053376Y028725D01*
X053304Y028656D01*
X053232Y028586D01*
X053160Y028517D01*
X053087Y028449D01*
X053014Y028381D01*
X052940Y028313D01*
X052866Y028245D01*
X052792Y028178D01*
X052718Y028112D01*
X052643Y028045D01*
X052568Y027979D01*
X052492Y027914D01*
X052416Y027849D01*
X052340Y027784D01*
X052264Y027720D01*
X052187Y027656D01*
X052110Y027592D01*
X052032Y027529D01*
X051954Y027466D01*
X051876Y027403D01*
X051798Y027341D01*
X051719Y027280D01*
X051640Y027219D01*
X051560Y027158D01*
X051481Y027097D01*
X051401Y027037D01*
X051320Y026978D01*
X051240Y026919D01*
X051159Y026860D01*
X051078Y026802D01*
X050996Y026744D01*
X050914Y026686D01*
X050832Y026629D01*
X050750Y026572D01*
X050667Y026516D01*
X050584Y026460D01*
X050501Y026405D01*
X050418Y026350D01*
X050334Y026295D01*
X050250Y026241D01*
X050165Y026187D01*
X050081Y026134D01*
X049996Y026081D01*
X049911Y026029D01*
X049825Y025977D01*
X049740Y025925D01*
X049654Y025874D01*
X049567Y025823D01*
X049481Y025773D01*
X049394Y025723D01*
X049307Y025674D01*
X049220Y025625D01*
X049133Y025577D01*
X049045Y025529D01*
X048957Y025481D01*
X048869Y025434D01*
X048780Y025387D01*
X048692Y025341D01*
X048603Y025295D01*
X048514Y025250D01*
X048424Y025205D01*
X048335Y025161D01*
X048245Y025117D01*
X048155Y025073D01*
X048064Y025030D01*
X047974Y024987D01*
X047883Y024945D01*
X047792Y024904D01*
X047701Y024863D01*
X047610Y024822D01*
X047518Y024782D01*
X047427Y024742D01*
X047335Y024702D01*
X047243Y024664D01*
X047150Y024625D01*
X047058Y024587D01*
X046965Y024550D01*
X046872Y024513D01*
X046779Y024476D01*
X046686Y024440D01*
X046592Y024405D01*
X046499Y024370D01*
X046405Y024335D01*
X046311Y024301D01*
X046217Y024267D01*
X046122Y024234D01*
X046028Y024202D01*
X045933Y024169D01*
X045838Y024138D01*
X045743Y024106D01*
X045648Y024076D01*
X045553Y024045D01*
X045457Y024016D01*
X045362Y023986D01*
X045266Y023958D01*
X045170Y023929D01*
X045074Y023901D01*
X044978Y023874D01*
X044881Y023847D01*
X044785Y023821D01*
X044688Y023795D01*
X044592Y023770D01*
X044495Y023745D01*
X044398Y023720D01*
X044301Y023697D01*
X044203Y023673D01*
X044106Y023650D01*
X044009Y023628D01*
X043911Y023606D01*
X043813Y023585D01*
X043716Y023564D01*
X043618Y023543D01*
X043520Y023523D01*
X043422Y023504D01*
X043323Y023485D01*
X043225Y023467D01*
X043127Y023449D01*
X043028Y023431D01*
X042930Y023414D01*
X042831Y023398D01*
X042732Y023382D01*
X042633Y023367D01*
X042535Y023352D01*
X042436Y023337D01*
X042337Y023324D01*
X042238Y023310D01*
X042138Y023297D01*
X042039Y023285D01*
X041940Y023273D01*
X041840Y023262D01*
X041741Y023251D01*
X041642Y023241D01*
X041542Y023231D01*
X041443Y023221D01*
X041343Y023213D01*
X041243Y023204D01*
X041144Y023196D01*
X041044Y023189D01*
X040944Y023182D01*
X040844Y023176D01*
X040744Y023170D01*
X040645Y023165D01*
X040545Y023160D01*
X040445Y023156D01*
X040345Y023152D01*
X040245Y023149D01*
X040145Y023146D01*
X040045Y023144D01*
X039945Y023142D01*
X039845Y023141D01*
X039745Y023140D01*
X039645Y023140D01*
X039545Y023141D01*
X039445Y023141D01*
X039345Y023143D01*
X039245Y023145D01*
X039145Y023147D01*
X039045Y023150D01*
X038945Y023153D01*
X038845Y023157D01*
X038745Y023162D01*
X038645Y023166D01*
X038546Y023172D01*
X038446Y023178D01*
X038346Y023184D01*
X038246Y023191D01*
X038146Y023199D01*
X038047Y023207D01*
X037947Y023215D01*
X037848Y023224D01*
X037748Y023233D01*
X037649Y023243D01*
X037549Y023254D01*
X037450Y023265D01*
X037350Y023276D01*
X037251Y023289D01*
X037152Y023301D01*
X037053Y023314D01*
X036954Y023328D01*
X036855Y023342D01*
X036756Y023356D01*
X036657Y023371D01*
X036558Y023387D01*
X036459Y023403D01*
X036361Y023419D01*
X036262Y023436D01*
X036164Y023454D01*
X036065Y023472D01*
X035967Y023491D01*
X035869Y023510D01*
X035771Y023529D01*
X035673Y023549D01*
X035575Y023570D01*
X035477Y023591D01*
X035380Y023612D01*
X035282Y023634D01*
X035185Y023657D01*
X035087Y023680D01*
X034990Y023704D01*
X034893Y023728D01*
X034796Y023752D01*
X034699Y023777D01*
X034603Y023803D01*
X034506Y023829D01*
X034410Y023855D01*
X034313Y023882D01*
X034217Y023910D01*
X034121Y023938D01*
X034025Y023966D01*
X033930Y023995D01*
X033834Y024024D01*
X033739Y024054D01*
X033643Y024085D01*
X033548Y024116D01*
X033453Y024147D01*
X033358Y024179D01*
X033264Y024211D01*
X033169Y024244D01*
X033075Y024277D01*
X032981Y024311D01*
X032887Y024345D01*
X032793Y024380D01*
X032700Y024415D01*
X032606Y024451D01*
X032513Y024487D01*
X032420Y024524D01*
X032327Y024561D01*
X032234Y024598D01*
X032142Y024636D01*
X032050Y024675D01*
X031958Y024714D01*
X031866Y024753D01*
X031774Y024793D01*
X031683Y024834D01*
X031591Y024875D01*
X031500Y024916D01*
X031409Y024958D01*
X031319Y025000D01*
X031228Y025043D01*
X031138Y025086D01*
X031048Y025129D01*
X030958Y025173D01*
X030869Y025218D01*
X030780Y025263D01*
X030690Y025308D01*
X030602Y025354D01*
X030513Y025401D01*
X030425Y025448D01*
X030336Y025495D01*
X030249Y025542D01*
X030161Y025591D01*
X030074Y025639D01*
X029986Y025688D01*
X029900Y025738D01*
X029813Y025788D01*
X029726Y025838D01*
X029640Y025889D01*
X029554Y025940D01*
X029469Y025992D01*
X029384Y026044D01*
X029298Y026096D01*
X029214Y026149D01*
X029129Y026203D01*
X029045Y026257D01*
X028961Y026311D01*
X028877Y026366D01*
X028794Y026421D01*
X028711Y026476D01*
X028628Y026532D01*
X028545Y026589D01*
X028463Y026646D01*
X028381Y026703D01*
X028299Y026760D01*
X028218Y026819D01*
X028137Y026877D01*
X028056Y026936D01*
X027975Y026995D01*
X027895Y027055D01*
X027815Y027115D01*
X027735Y027176D01*
X027656Y027236D01*
X027577Y027298D01*
X027499Y027360D01*
X027420Y027422D01*
X027342Y027484D01*
X027264Y027547D01*
X027187Y027610D01*
X027110Y027674D01*
X027033Y027738D01*
X026957Y027803D01*
X026881Y027868D01*
X026805Y027933D01*
X026730Y027999D01*
X026654Y028065D01*
X026580Y028131D01*
X026505Y028198D01*
X026431Y028265D01*
X026357Y028333D01*
X026284Y028401D01*
X026211Y028469D01*
X026138Y028538D01*
X026066Y028607D01*
X025994Y028676D01*
X025922Y028746D01*
X025851Y028816D01*
X025780Y028886D01*
X025710Y028957D01*
X025640Y029029D01*
X025570Y029100D01*
X025500Y029172D01*
X025431Y029244D01*
X025362Y029317D01*
X025294Y029390D01*
X025226Y029463D01*
X025158Y029537D01*
X025091Y029611D01*
X025024Y029685D01*
X024958Y029760D01*
X024892Y029835D01*
X024826Y029910D01*
X024761Y029986D01*
X024696Y030062D01*
X024631Y030139D01*
X024567Y030215D01*
X024503Y030292D01*
X024440Y030370D01*
X024377Y030447D01*
X024314Y030525D01*
X024252Y030604D01*
X024190Y030682D01*
X024129Y030761D01*
X024068Y030841D01*
X024007Y030920D01*
X023947Y031000D01*
X023887Y031080D01*
X023828Y031161D01*
X023769Y031241D01*
X023711Y031322D01*
X023653Y031404D01*
X023595Y031485D01*
X023538Y031567D01*
X023481Y031650D01*
X023424Y031732D01*
X023368Y031815D01*
X023313Y031898D01*
X023257Y031982D01*
X023203Y032065D01*
X023148Y032149D01*
X023094Y032233D01*
X023041Y032318D01*
X022988Y032403D01*
X022935Y032488D01*
X022883Y032573D01*
X022831Y032659D01*
X022780Y032744D01*
X022729Y032831D01*
X022679Y032917D01*
X022629Y033004D01*
X022579Y033090D01*
X022530Y033178D01*
X022481Y033265D01*
X022433Y033352D01*
X022385Y033440D01*
X022338Y033528D01*
X022291Y033617D01*
X022245Y033705D01*
X022199Y033794D01*
X022153Y033883D01*
X022108Y033972D01*
X022064Y034062D01*
X022020Y034152D01*
X021976Y034242D01*
X021933Y034332D01*
X021890Y034422D01*
X021848Y034513D01*
X021806Y034604D01*
X021764Y034695D01*
X021723Y034786D01*
X021683Y034877D01*
X021643Y034969D01*
X021603Y035061D01*
X021564Y035153D01*
X021526Y035245D01*
X021488Y035338D01*
X021450Y035430D01*
X021413Y035523D01*
X021376Y035616D01*
X021340Y035709D01*
X021304Y035803D01*
X021269Y035896D01*
X021234Y035990D01*
X021200Y036084D01*
X021166Y036178D01*
X021133Y036272D01*
X021100Y036367D01*
X021067Y036461D01*
X021035Y036556D01*
X021004Y036651D01*
X020973Y036746D01*
X020943Y036841D01*
X020913Y036937D01*
X020883Y037032D01*
X020854Y037128D01*
X020826Y037224D01*
X020798Y037320D01*
X020770Y037416D01*
X020743Y037512D01*
X020716Y037609D01*
X020690Y037705D01*
X020665Y037802D01*
X020640Y037899D01*
X020615Y037996D01*
X020591Y038093D01*
X020567Y038190D01*
X020544Y038287D01*
X020522Y038385D01*
X020500Y038482D01*
X020478Y038580D01*
X020457Y038678D01*
X020436Y038775D01*
X020416Y038873D01*
X020396Y038971D01*
X020377Y039070D01*
X020359Y039168D01*
X020341Y039266D01*
X020323Y039365D01*
X020306Y039463D01*
X020289Y039562D01*
X020273Y039660D01*
X020258Y039759D01*
X020242Y039858D01*
X020228Y039957D01*
X020214Y040056D01*
X020200Y040155D01*
X020187Y040254D01*
X020174Y040353D01*
X020162Y040453D01*
X020151Y040552D01*
X020140Y040651D01*
X020129Y040751D01*
X020119Y040850D01*
X020110Y040950D01*
X020101Y041049D01*
X020092Y041149D01*
X020084Y041249D01*
X020076Y041348D01*
X020069Y041448D01*
X020063Y041548D01*
X020057Y041648D01*
X020051Y041748D01*
X020046Y041848D01*
X020042Y041947D01*
X020038Y042047D01*
X020035Y042147D01*
X020032Y042247D01*
X020029Y042347D01*
X020027Y042447D01*
X020026Y042547D01*
X020025Y042647D01*
X020025Y042747D01*
X020025Y042847D01*
X020025Y042947D01*
X020026Y043047D01*
X020028Y043147D01*
X020030Y043247D01*
X020033Y043347D01*
X020036Y043447D01*
X020040Y043547D01*
X020044Y043647D01*
X020049Y043747D01*
X020054Y043847D01*
X020059Y043947D01*
X020066Y044046D01*
X020072Y044146D01*
X020080Y044246D01*
X020087Y044346D01*
X020096Y044445D01*
X020104Y044545D01*
X020114Y044644D01*
X020123Y044744D01*
X020134Y044843D01*
X020145Y044943D01*
X020156Y045042D01*
X020168Y045141D01*
X020180Y045241D01*
X020193Y045340D01*
X020206Y045439D01*
X020220Y045538D01*
X020234Y045637D01*
X020249Y045736D01*
X020264Y045835D01*
X020280Y045933D01*
X020296Y046032D01*
X020313Y046131D01*
X020331Y046229D01*
X020349Y046328D01*
X020367Y046426D01*
X020386Y046524D01*
X020405Y046622D01*
X020425Y046720D01*
X020445Y046818D01*
X020466Y046916D01*
X020487Y047014D01*
X020509Y047111D01*
X020532Y047209D01*
X020554Y047306D01*
X020578Y047403D01*
X020602Y047500D01*
X020626Y047597D01*
X020651Y047694D01*
X020676Y047791D01*
X020702Y047888D01*
X020728Y047984D01*
X020755Y048080D01*
X020782Y048177D01*
X020810Y048273D01*
X020838Y048369D01*
X020867Y048464D01*
X020896Y048560D01*
X020926Y048656D01*
X020956Y048751D01*
X020987Y048846D01*
X021018Y048941D01*
X021049Y049036D01*
X021081Y049131D01*
X021114Y049225D01*
X021147Y049320D01*
X021181Y049414D01*
X021215Y049508D01*
X021249Y049602D01*
X021284Y049695D01*
X021320Y049789D01*
X021356Y049882D01*
X021392Y049975D01*
X021429Y050068D01*
X021466Y050161D01*
X021504Y050253D01*
X021543Y050346D01*
X021581Y050438D01*
X021621Y050530D01*
X021660Y050622D01*
X021701Y050713D01*
X021741Y050805D01*
X021782Y050896D01*
X021824Y050987D01*
X021866Y051078D01*
X021909Y051168D01*
X021952Y051258D01*
X021995Y051348D01*
X022039Y051438D01*
X022083Y051528D01*
X022128Y051617D01*
X022173Y051706D01*
X022219Y051795D01*
X022265Y051884D01*
X022312Y051973D01*
X022359Y052061D01*
X022406Y052149D01*
X022454Y052237D01*
X022503Y052324D01*
X022552Y052411D01*
X022601Y052498D01*
X022651Y052585D01*
X022701Y052672D01*
X022751Y052758D01*
X022802Y052844D01*
X022854Y052929D01*
X022906Y053015D01*
X022958Y053100D01*
X023011Y053185D01*
X023064Y053270D01*
X023118Y053354D01*
X023172Y053438D01*
X023227Y053522D01*
X023282Y053606D01*
X023337Y053689D01*
X023393Y053772D01*
X023449Y053855D01*
X023506Y053937D01*
X023563Y054019D01*
X023620Y054101D01*
X023678Y054182D01*
X023736Y054264D01*
X023795Y054345D01*
X023854Y054425D01*
X023914Y054506D01*
X023974Y054586D01*
X024034Y054665D01*
X024095Y054745D01*
X024156Y054824D01*
X024217Y054903D01*
X024279Y054981D01*
X024342Y055059D01*
X024405Y055137D01*
X024468Y055215D01*
X024531Y055292D01*
X024595Y055369D01*
X024659Y055445D01*
X024724Y055522D01*
X024789Y055598D01*
X024855Y055673D01*
X024921Y055748D01*
X024987Y055823D01*
X025054Y055898D01*
X025121Y055972D01*
X025188Y056046D01*
X025256Y056119D01*
X025324Y056193D01*
X025392Y056265D01*
X025461Y056338D01*
X025531Y056410D01*
X025600Y056482D01*
X025670Y056553D01*
X025741Y056624D01*
X025811Y056695D01*
X025882Y056765D01*
X025954Y056835D01*
X026026Y056905D01*
X026098Y056974D01*
X026170Y057043D01*
X026243Y057112D01*
X026316Y057180D01*
X026390Y057248D01*
X026464Y057315D01*
X026538Y057382D01*
X026612Y057449D01*
X026687Y057515D01*
X026763Y057581D01*
X026838Y057646D01*
X026914Y057711D01*
X026990Y057776D01*
X027067Y057840D01*
X027144Y057904D01*
X027221Y057968D01*
X027298Y058031D01*
X027376Y058094D01*
X027455Y058156D01*
X027533Y058218D01*
X027612Y058280D01*
X027691Y058341D01*
X027770Y058402D01*
X027850Y058462D01*
X027930Y058522D01*
X028010Y058581D01*
X028091Y058641D01*
X028172Y058699D01*
X028253Y058758D01*
X028335Y058815D01*
X028417Y058873D01*
X028499Y058930D01*
X028581Y058987D01*
X028664Y059043D01*
X028747Y059099D01*
X028830Y059154D01*
X028914Y059209D01*
X028998Y059263D01*
X029082Y059318D01*
X029166Y059371D01*
X029251Y059424D01*
X029336Y059477D01*
X029421Y059530D01*
X029506Y059581D01*
X029592Y059633D01*
X029678Y059684D01*
X029764Y059735D01*
X029851Y059785D01*
X029938Y059835D01*
X030025Y059884D01*
X030112Y059933D01*
X030199Y059981D01*
X030287Y060029D01*
X030375Y060077D01*
X030463Y060124D01*
X030552Y060170D01*
X030640Y060216D01*
X030729Y060262D01*
X030819Y060307D01*
X030908Y060352D01*
X030998Y060396D01*
X031088Y060440D01*
X031178Y060484D01*
X031268Y060527D01*
X031358Y060569D01*
X031449Y060611D01*
X031540Y060653D01*
X031631Y060694D01*
X031723Y060735D01*
X031814Y060775D01*
X031906Y060815D01*
X031998Y060854D01*
X032090Y060893D01*
X032182Y060931D01*
X032275Y060969D01*
X032368Y061006D01*
X032461Y061043D01*
X032554Y061080D01*
X032647Y061115D01*
X032741Y061151D01*
X032834Y061186D01*
X032928Y061220D01*
X033022Y061254D01*
X033116Y061288D01*
X033211Y061321D01*
X033305Y061354D01*
X033400Y061386D01*
X033495Y061418D01*
X033590Y061449D01*
X033685Y061479D01*
X033780Y061510D01*
X033876Y061539D01*
X033972Y061568D01*
X034067Y061597D01*
X034163Y061625D01*
X034259Y061653D01*
X034356Y061680D01*
X034452Y061707D01*
X034548Y061733D01*
X034645Y061759D01*
X034742Y061785D01*
X034839Y061809D01*
X034936Y061834D01*
X035033Y061857D01*
X035130Y061881D01*
X035227Y061904D01*
X035325Y061926D01*
X035422Y061948D01*
X035520Y061969D01*
X035618Y061990D01*
X035716Y062010D01*
X035814Y062030D01*
X035912Y062049D01*
X036010Y062068D01*
X036108Y062087D01*
X036207Y062104D01*
X036305Y062122D01*
X036404Y062139D01*
X036503Y062155D01*
X036601Y062171D01*
X036700Y062186D01*
X036799Y062201D01*
X036898Y062215D01*
X036997Y062229D01*
X037096Y062242D01*
X037195Y062255D01*
X037295Y062267D01*
X037394Y062279D01*
X037493Y062290D01*
X037593Y062301D01*
X037692Y062312D01*
X037792Y062321D01*
X037891Y062331D01*
X037991Y062339D01*
X038090Y062348D01*
X038190Y062355D01*
X038290Y062363D01*
X038390Y062369D01*
X038489Y062375D01*
X038589Y062381D01*
X038689Y062386D01*
X038789Y062391D01*
X038889Y062395D01*
X038989Y062399D01*
X039089Y062402D01*
X039189Y062405D01*
X039289Y062407D01*
X039389Y062408D01*
X039489Y062410D01*
X039589Y062410D01*
X037782Y023230D02*
X041537D01*
X042312Y023320D02*
X037007D01*
X036415Y023410D02*
X042905D01*
X043402Y023500D02*
X035917D01*
X035480Y023590D02*
X043839D01*
X044233Y023680D02*
X035086D01*
X034726Y023770D02*
X044593D01*
X044928Y023860D02*
X034391D01*
X034078Y023950D02*
X045241D01*
X045536Y024040D02*
X033783D01*
X033504Y024130D02*
X045816D01*
X046082Y024220D02*
X033237D01*
X032983Y024310D02*
X046336D01*
X046580Y024400D02*
X032739D01*
X032505Y024490D02*
X046814D01*
X047040Y024580D02*
X032279D01*
X032061Y024670D02*
X047258D01*
X047469Y024760D02*
X031850D01*
X031645Y024850D02*
X047674D01*
X047872Y024940D02*
X031447D01*
X031254Y025030D02*
X048065D01*
X048252Y025120D02*
X031067D01*
X030884Y025210D02*
X048435D01*
X048613Y025300D02*
X030706D01*
X030533Y025390D02*
X048786D01*
X048956Y025480D02*
X030364D01*
X030198Y025570D02*
X049121D01*
X049283Y025660D02*
X030036D01*
X029878Y025750D02*
X049441D01*
X049596Y025840D02*
X029723D01*
X029571Y025930D02*
X049748D01*
X049897Y026020D02*
X029422D01*
X029276Y026110D02*
X050043D01*
X050186Y026200D02*
X029133D01*
X028993Y026290D02*
X050326D01*
X050464Y026380D02*
X028855D01*
X028720Y026470D02*
X050599D01*
X050732Y026560D02*
X028587D01*
X028456Y026650D02*
X050863D01*
X050992Y026740D02*
X028328D01*
X028201Y026830D02*
X051118D01*
X051242Y026920D02*
X028077D01*
X027955Y027010D02*
X051364D01*
X051484Y027100D02*
X027835D01*
X027716Y027190D02*
X051603D01*
X051719Y027280D02*
X027600D01*
X027485Y027370D02*
X051834D01*
X051947Y027460D02*
X027372D01*
X027261Y027550D02*
X052059D01*
X052168Y027640D02*
X027151D01*
X027043Y027730D02*
X052276D01*
X052383Y027820D02*
X026936D01*
X026831Y027910D02*
X052488D01*
X052591Y028000D02*
X026728D01*
X026626Y028090D02*
X052694D01*
X052794Y028180D02*
X026525D01*
X026426Y028270D02*
X052894D01*
X052992Y028360D02*
X026328D01*
X026231Y028450D02*
X053088D01*
X053184Y028540D02*
X026136D01*
X026041Y028630D02*
X053278D01*
X053371Y028720D02*
X025949D01*
X025857Y028810D02*
X053462D01*
X053553Y028900D02*
X025766D01*
X025677Y028990D02*
X053642D01*
X053730Y029080D02*
X025589D01*
X025502Y029170D02*
X053817D01*
X053903Y029260D02*
X025416D01*
X025331Y029350D02*
X053988D01*
X054072Y029440D02*
X025247D01*
X025165Y029530D02*
X054155D01*
X054236Y029620D02*
X025083D01*
X025002Y029710D02*
X054317D01*
X054397Y029800D02*
X024922D01*
X024844Y029890D02*
X054475D01*
X054553Y029980D02*
X024766D01*
X024689Y030070D02*
X054630D01*
X054706Y030160D02*
X024613D01*
X024538Y030250D02*
X054781D01*
X054855Y030340D02*
X024464D01*
X024391Y030430D02*
X054928D01*
X055001Y030520D02*
X024318D01*
X024247Y030610D02*
X055072D01*
X055143Y030700D02*
X024176D01*
X024107Y030790D02*
X055213D01*
X055281Y030880D02*
X024038D01*
X023970Y030970D02*
X055350D01*
X055417Y031060D02*
X023902D01*
X023836Y031150D02*
X055483D01*
X055549Y031240D02*
X023770D01*
X023705Y031330D02*
X055614D01*
X055678Y031420D02*
X023641D01*
X023577Y031510D02*
X055742D01*
X055804Y031600D02*
X023515D01*
X023453Y031690D02*
X055866D01*
X055927Y031780D02*
X023392D01*
X023331Y031870D02*
X055988D01*
X056048Y031960D02*
X023271D01*
X023212Y032050D02*
X056107D01*
X056165Y032140D02*
X023154D01*
X023096Y032230D02*
X056223D01*
X056280Y032320D02*
X023039D01*
X022983Y032410D02*
X056336D01*
X056392Y032500D02*
X022928D01*
X022873Y032590D02*
X056446D01*
X056501Y032680D02*
X022818D01*
X022765Y032770D02*
X056554D01*
X056607Y032860D02*
X022712D01*
X022659Y032950D02*
X056660D01*
X056711Y033040D02*
X022608D01*
X022557Y033130D02*
X056762D01*
X056813Y033220D02*
X022506D01*
X022456Y033310D02*
X056863D01*
X056912Y033400D02*
X022407D01*
X022359Y033490D02*
X056961D01*
X057009Y033580D02*
X022311D01*
X022263Y033670D02*
X057056D01*
X057103Y033760D02*
X022216D01*
X022170Y033850D02*
X057149D01*
X057195Y033940D02*
X022125D01*
X022079Y034030D02*
X057240D01*
X057284Y034120D02*
X022035D01*
X021991Y034210D02*
X057328D01*
X057371Y034300D02*
X021948D01*
X021905Y034390D02*
X057414D01*
X057456Y034480D02*
X021863D01*
X021821Y034570D02*
X057498D01*
X057539Y034660D02*
X021780D01*
X021739Y034750D02*
X057580D01*
X057620Y034840D02*
X021699D01*
X021660Y034930D02*
X057659D01*
X057698Y035020D02*
X021621D01*
X021582Y035110D02*
X057737D01*
X057775Y035200D02*
X021545D01*
X021507Y035290D02*
X057812D01*
X057849Y035380D02*
X021470D01*
X021434Y035470D02*
X057885D01*
X057921Y035560D02*
X021398D01*
X021363Y035650D02*
X057956D01*
X057991Y035740D02*
X021328D01*
X021294Y035830D02*
X058025D01*
X058059Y035920D02*
X021260D01*
X021227Y036010D02*
X058092D01*
X058125Y036100D02*
X021194D01*
X021162Y036190D02*
X058157D01*
X058189Y036280D02*
X021130D01*
X021099Y036370D02*
X058221D01*
X058251Y036460D02*
X021068D01*
X021037Y036550D02*
X058282D01*
X058312Y036640D02*
X021008D01*
X020978Y036730D02*
X058341D01*
X058370Y036820D02*
X020949D01*
X020921Y036910D02*
X058398D01*
X058426Y037000D02*
X020893D01*
X020866Y037090D02*
X058454D01*
X058481Y037180D02*
X020839D01*
X020812Y037270D02*
X058507D01*
X058533Y037360D02*
X020786D01*
X020760Y037450D02*
X058559D01*
X058584Y037540D02*
X020735D01*
X020711Y037630D02*
X058609D01*
X058633Y037720D02*
X020686D01*
X020663Y037810D02*
X058657D01*
X058680Y037900D02*
X020639D01*
X020616Y037990D02*
X058703D01*
X058725Y038080D02*
X020594D01*
X020572Y038170D02*
X058747D01*
X058768Y038260D02*
X020551D01*
X020530Y038350D02*
X058790D01*
X058810Y038440D02*
X020509D01*
X020489Y038530D02*
X058830D01*
X058850Y038620D02*
X020469D01*
X020450Y038710D02*
X058869D01*
X058888Y038800D02*
X020431D01*
X020413Y038890D02*
X058906D01*
X058924Y038980D02*
X020395D01*
X020377Y039070D02*
X058942D01*
X058959Y039160D02*
X020360D01*
X020344Y039250D02*
X058976D01*
X058992Y039340D02*
X020327D01*
X020312Y039430D02*
X059008D01*
X059023Y039520D02*
X020296D01*
X020281Y039610D02*
X059038D01*
X059052Y039700D02*
X020267D01*
X020253Y039790D02*
X059066D01*
X059080Y039880D02*
X020239D01*
X020226Y039970D02*
X059093D01*
X059106Y040060D02*
X020213D01*
X020201Y040150D02*
X059118D01*
X059130Y040240D02*
X020189D01*
X020177Y040330D02*
X059142D01*
X059153Y040420D02*
X020166D01*
X020156Y040510D02*
X059164D01*
X059174Y040600D02*
X020145D01*
X020136Y040690D02*
X059184D01*
X059193Y040780D02*
X020126D01*
X020117Y040870D02*
X059202D01*
X059211Y040960D02*
X020109D01*
X020100Y041050D02*
X059219D01*
X059226Y041140D02*
X020093D01*
X020085Y041230D02*
X059234D01*
X059241Y041320D02*
X020079D01*
X020072Y041410D02*
X059247D01*
X059253Y041500D02*
X020066D01*
X020060Y041590D02*
X059259D01*
X059264Y041680D02*
X020055D01*
X020050Y041770D02*
X059269D01*
X059273Y041860D02*
X020046D01*
X020042Y041950D02*
X059277D01*
X059281Y042040D02*
X020038D01*
X020035Y042130D02*
X059284D01*
X059287Y042220D02*
X020032D01*
X020030Y042310D02*
X059289D01*
X059291Y042400D02*
X020028D01*
X020027Y042490D02*
X059293D01*
X059294Y042580D02*
X020025D01*
X020025Y042670D02*
X059294D01*
X059295Y042760D02*
X020025D01*
X020025Y042850D02*
X059295D01*
X059294Y042940D02*
X020025D01*
X020026Y043030D02*
X059293D01*
X059292Y043120D02*
X020028D01*
X020029Y043210D02*
X059290D01*
X059288Y043300D02*
X020032D01*
X020034Y043390D02*
X059285D01*
X059282Y043480D02*
X020037D01*
X020041Y043570D02*
X059279D01*
X059275Y043660D02*
X020044D01*
X020049Y043750D02*
X059270D01*
X059266Y043840D02*
X020053D01*
X020059Y043930D02*
X059261D01*
X059255Y044020D02*
X020064D01*
X020070Y044110D02*
X059249D01*
X059243Y044200D02*
X020076D01*
X020083Y044290D02*
X059236D01*
X059229Y044380D02*
X020090D01*
X020098Y044470D02*
X059221D01*
X059213Y044560D02*
X020106D01*
X020114Y044650D02*
X059205D01*
X059196Y044740D02*
X020123D01*
X020132Y044830D02*
X059187D01*
X059177Y044920D02*
X020142D01*
X020152Y045010D02*
X059167D01*
X059157Y045100D02*
X020163D01*
X020174Y045190D02*
X059146D01*
X059134Y045280D02*
X020185D01*
X020197Y045370D02*
X059122D01*
X059110Y045460D02*
X020209D01*
X020222Y045550D02*
X059098D01*
X059085Y045640D02*
X020235D01*
X020248Y045730D02*
X059071D01*
X059057Y045820D02*
X020262D01*
X020276Y045910D02*
X059043D01*
X059028Y046000D02*
X020291D01*
X020306Y046090D02*
X059013D01*
X058997Y046180D02*
X020322D01*
X020338Y046270D02*
X058981D01*
X058965Y046360D02*
X020355D01*
X020371Y046450D02*
X058948D01*
X058930Y046540D02*
X020389D01*
X020407Y046630D02*
X058913D01*
X058894Y046720D02*
X020425D01*
X020444Y046810D02*
X058876D01*
X058856Y046900D02*
X020463D01*
X020482Y046990D02*
X058837D01*
X058817Y047080D02*
X020502D01*
X020523Y047170D02*
X058796D01*
X058776Y047260D02*
X020544D01*
X020565Y047350D02*
X058754D01*
X058732Y047440D02*
X020587D01*
X020609Y047530D02*
X058710D01*
X058688Y047620D02*
X020632D01*
X020655Y047710D02*
X058664D01*
X058641Y047800D02*
X020678D01*
X020702Y047890D02*
X058617D01*
X058592Y047980D02*
X020727D01*
X020752Y048070D02*
X058567D01*
X058542Y048160D02*
X020777D01*
X020803Y048250D02*
X058516D01*
X058490Y048340D02*
X020830D01*
X020856Y048430D02*
X058463D01*
X058435Y048520D02*
X020884D01*
X020912Y048610D02*
X058408D01*
X058379Y048700D02*
X020940D01*
X020969Y048790D02*
X058351D01*
X058321Y048880D02*
X020998D01*
X021027Y048970D02*
X058292D01*
X058262Y049060D02*
X021058D01*
X021088Y049150D02*
X058231D01*
X058200Y049240D02*
X021119D01*
X021151Y049330D02*
X058168D01*
X058136Y049420D02*
X021183D01*
X021216Y049510D02*
X058103D01*
X058070Y049600D02*
X021249D01*
X021282Y049690D02*
X058037D01*
X058003Y049780D02*
X021317D01*
X021351Y049870D02*
X057968D01*
X057933Y049960D02*
X021386D01*
X021422Y050050D02*
X057897D01*
X057861Y050140D02*
X021458D01*
X021495Y050230D02*
X057824D01*
X057787Y050320D02*
X021532D01*
X021570Y050410D02*
X057749D01*
X057711Y050500D02*
X021608D01*
X021647Y050590D02*
X057672D01*
X057633Y050680D02*
X021686D01*
X021726Y050770D02*
X057593D01*
X057553Y050860D02*
X021766D01*
X021807Y050950D02*
X057512D01*
X057470Y051040D02*
X021849D01*
X021891Y051130D02*
X057428D01*
X057386Y051220D02*
X021933D01*
X021977Y051310D02*
X057343D01*
X057299Y051400D02*
X022020D01*
X022065Y051490D02*
X057255D01*
X057210Y051580D02*
X022109D01*
X022155Y051670D02*
X057164D01*
X057118Y051760D02*
X022201D01*
X022247Y051850D02*
X057072D01*
X057024Y051940D02*
X022295D01*
X022342Y052030D02*
X056977D01*
X056928Y052120D02*
X022391D01*
X022440Y052210D02*
X056879D01*
X056830Y052300D02*
X022490D01*
X022540Y052390D02*
X056779D01*
X056729Y052480D02*
X022591D01*
X022642Y052570D02*
X056677D01*
X056625Y052660D02*
X022694D01*
X022747Y052750D02*
X056572D01*
X056519Y052840D02*
X022800D01*
X022854Y052930D02*
X056465D01*
X056410Y053020D02*
X022909D01*
X022965Y053110D02*
X056355D01*
X056299Y053200D02*
X023021D01*
X023077Y053290D02*
X056242D01*
X056184Y053380D02*
X023135D01*
X023193Y053470D02*
X056126D01*
X056068Y053560D02*
X023252D01*
X023311Y053650D02*
X056008D01*
X055948Y053740D02*
X023371D01*
X023432Y053830D02*
X055887D01*
X055825Y053920D02*
X023494D01*
X023556Y054010D02*
X055763D01*
X055700Y054100D02*
X023620D01*
X023683Y054190D02*
X055636D01*
X055571Y054280D02*
X023748D01*
X023814Y054370D02*
X055506D01*
X055439Y054460D02*
X023880D01*
X023947Y054550D02*
X055372D01*
X055304Y054640D02*
X024015D01*
X024083Y054730D02*
X055236D01*
X055166Y054820D02*
X024153D01*
X024223Y054910D02*
X055096D01*
X055025Y055000D02*
X024294D01*
X024366Y055090D02*
X054953D01*
X054880Y055180D02*
X024439D01*
X024513Y055270D02*
X054806D01*
X054731Y055360D02*
X024588D01*
X024664Y055450D02*
X054656D01*
X054579Y055540D02*
X024740D01*
X024818Y055630D02*
X054502D01*
X054423Y055720D02*
X024896D01*
X024975Y055810D02*
X054344D01*
X054263Y055900D02*
X025056D01*
X025137Y055990D02*
X054182D01*
X054100Y056080D02*
X025220D01*
X025303Y056170D02*
X054016D01*
X053932Y056260D02*
X025387D01*
X025473Y056350D02*
X053846D01*
X053759Y056440D02*
X025560D01*
X025648Y056530D02*
X053672D01*
X053583Y056620D02*
X025736D01*
X025827Y056710D02*
X053493D01*
X053401Y056800D02*
X025918D01*
X026010Y056890D02*
X053309D01*
X053215Y056980D02*
X026104D01*
X026199Y057070D02*
X053120D01*
X053024Y057160D02*
X026295D01*
X026393Y057250D02*
X052927D01*
X052828Y057340D02*
X026491D01*
X026592Y057430D02*
X052727D01*
X052626Y057520D02*
X026693D01*
X026796Y057610D02*
X052523D01*
X052418Y057700D02*
X026901D01*
X027007Y057790D02*
X052312D01*
X052205Y057880D02*
X027115D01*
X027224Y057970D02*
X052095D01*
X051985Y058060D02*
X027335D01*
X027447Y058150D02*
X051872D01*
X051758Y058240D02*
X027561D01*
X027677Y058330D02*
X051642D01*
X051524Y058420D02*
X027795D01*
X027914Y058510D02*
X051405D01*
X051283Y058600D02*
X028036D01*
X028160Y058690D02*
X051160D01*
X051034Y058780D02*
X028285D01*
X028413Y058870D02*
X050906D01*
X050776Y058960D02*
X028543D01*
X028675Y059050D02*
X050644D01*
X050510Y059140D02*
X028809D01*
X028946Y059230D02*
X050373D01*
X050233Y059320D02*
X029086D01*
X029228Y059410D02*
X050091D01*
X049946Y059500D02*
X029373D01*
X029521Y059590D02*
X049798D01*
X049648Y059680D02*
X029672D01*
X029826Y059770D02*
X049494D01*
X049336Y059860D02*
X029983D01*
X030143Y059950D02*
X049176D01*
X049011Y060040D02*
X030308D01*
X030476Y060130D02*
X048843D01*
X048671Y060220D02*
X030648D01*
X030824Y060310D02*
X048495D01*
X048314Y060400D02*
X031005D01*
X031191Y060490D02*
X048128D01*
X047937Y060580D02*
X031382D01*
X031578Y060670D02*
X047741D01*
X047539Y060760D02*
X031781D01*
X031989Y060850D02*
X047330D01*
X047114Y060940D02*
X032205D01*
X032428Y061030D02*
X046891D01*
X046660Y061120D02*
X032660D01*
X032900Y061210D02*
X046419D01*
X046168Y061300D02*
X033151D01*
X033413Y061390D02*
X045906D01*
X045631Y061480D02*
X033688D01*
X033977Y061570D02*
X045342D01*
X045035Y061660D02*
X034284D01*
X034611Y061750D02*
X044708D01*
X044357Y061840D02*
X034962D01*
X035344Y061930D02*
X043975D01*
X043554Y062020D02*
X035765D01*
X036240Y062110D02*
X043080D01*
X042525Y062200D02*
X036795D01*
X037491Y062290D02*
X041828D01*
X040747Y062380D02*
X038572D01*
M02*
