G04 Pdf2Gerb 1.6L: Layer 11 at Sat Apr  1 21:06:43 2017 *
%FSLAX24Y24*%
%IPPOS*%
G70*
%MOIN*%
%ADD10C,0.01500*%
G01*
G54D10*
G54D10*
X000000Y000000D02*
Y039370D01*
X039370D01*
Y000000D01*
X000000D01*
X019685Y039370D02*
X019785Y039370D01*
X019885Y039369D01*
X019985Y039368D01*
X020085Y039366D01*
X020185Y039364D01*
X020285Y039361D01*
X020385Y039358D01*
X020485Y039354D01*
X020585Y039350D01*
X020685Y039345D01*
X020784Y039339D01*
X020884Y039334D01*
X020984Y039327D01*
X021084Y039320D01*
X021184Y039313D01*
X021283Y039305D01*
X021383Y039297D01*
X021483Y039288D01*
X021582Y039279D01*
X021682Y039269D01*
X021781Y039258D01*
X021880Y039247D01*
X021980Y039236D01*
X022079Y039224D01*
X022178Y039212D01*
X022278Y039199D01*
X022377Y039185D01*
X022476Y039171D01*
X022575Y039157D01*
X022673Y039142D01*
X022772Y039127D01*
X022871Y039111D01*
X022970Y039094D01*
X023068Y039077D01*
X023167Y039060D01*
X023265Y039042D01*
X023363Y039023D01*
X023462Y039005D01*
X023560Y038985D01*
X023658Y038965D01*
X023755Y038945D01*
X023853Y038924D01*
X023951Y038902D01*
X024049Y038880D01*
X024146Y038858D01*
X024243Y038835D01*
X024341Y038812D01*
X024438Y038788D01*
X024535Y038763D01*
X024631Y038739D01*
X024728Y038713D01*
X024825Y038687D01*
X024921Y038661D01*
X025018Y038634D01*
X025114Y038607D01*
X025210Y038579D01*
X025306Y038551D01*
X025402Y038522D01*
X025497Y038493D01*
X025593Y038463D01*
X025688Y038433D01*
X025783Y038402D01*
X025878Y038371D01*
X025973Y038339D01*
X026068Y038307D01*
X026162Y038274D01*
X026256Y038241D01*
X026351Y038207D01*
X026445Y038173D01*
X026538Y038139D01*
X026632Y038104D01*
X026726Y038068D01*
X026819Y038032D01*
X026912Y037996D01*
X027005Y037959D01*
X027098Y037921D01*
X027190Y037883D01*
X027283Y037845D01*
X027375Y037806D01*
X027467Y037767D01*
X027558Y037727D01*
X027650Y037687D01*
X027741Y037646D01*
X027832Y037605D01*
X027923Y037563D01*
X028014Y037521D01*
X028105Y037479D01*
X028195Y037436D01*
X028285Y037392D01*
X028375Y037348D01*
X028464Y037304D01*
X028554Y037259D01*
X028643Y037214D01*
X028732Y037168D01*
X028821Y037122D01*
X028909Y037075D01*
X028997Y037028D01*
X029085Y036981D01*
X029173Y036933D01*
X029260Y036884D01*
X029348Y036835D01*
X029435Y036786D01*
X029521Y036736D01*
X029608Y036686D01*
X029694Y036636D01*
X029780Y036584D01*
X029866Y036533D01*
X029951Y036481D01*
X030037Y036429D01*
X030121Y036376D01*
X030206Y036323D01*
X030291Y036269D01*
X030375Y036215D01*
X030458Y036160D01*
X030542Y036105D01*
X030625Y036050D01*
X030708Y035994D01*
X030791Y035938D01*
X030873Y035881D01*
X030956Y035824D01*
X031037Y035767D01*
X031119Y035709D01*
X031200Y035651D01*
X031281Y035592D01*
X031362Y035533D01*
X031442Y035473D01*
X031522Y035414D01*
X031602Y035353D01*
X031681Y035292D01*
X031761Y035231D01*
X031839Y035170D01*
X031918Y035108D01*
X031996Y035045D01*
X032074Y034983D01*
X032151Y034920D01*
X032229Y034856D01*
X032306Y034792D01*
X032382Y034728D01*
X032458Y034663D01*
X032534Y034598D01*
X032610Y034533D01*
X032685Y034467D01*
X032760Y034401D01*
X032835Y034334D01*
X032909Y034267D01*
X032983Y034200D01*
X033056Y034132D01*
X033130Y034064D01*
X033203Y033995D01*
X033275Y033926D01*
X033347Y033857D01*
X033419Y033788D01*
X033490Y033718D01*
X033562Y033647D01*
X033632Y033577D01*
X033703Y033506D01*
X033773Y033434D01*
X033842Y033362D01*
X033912Y033290D01*
X033981Y033218D01*
X034049Y033145D01*
X034117Y033072D01*
X034185Y032999D01*
X034253Y032925D01*
X034320Y032851D01*
X034386Y032776D01*
X034453Y032701D01*
X034519Y032626D01*
X034584Y032550D01*
X034649Y032475D01*
X034714Y032398D01*
X034779Y032322D01*
X034843Y032245D01*
X034906Y032168D01*
X034969Y032090D01*
X035032Y032013D01*
X035095Y031934D01*
X035157Y031856D01*
X035218Y031777D01*
X035279Y031698D01*
X035340Y031619D01*
X035401Y031539D01*
X035461Y031459D01*
X035520Y031379D01*
X035580Y031298D01*
X035638Y031217D01*
X035697Y031136D01*
X035755Y031055D01*
X035812Y030973D01*
X035869Y030891D01*
X035926Y030809D01*
X035982Y030726D01*
X036038Y030643D01*
X036094Y030560D01*
X036149Y030476D01*
X036203Y030392D01*
X036258Y030308D01*
X036311Y030224D01*
X036365Y030139D01*
X036418Y030055D01*
X036470Y029969D01*
X036522Y029884D01*
X036574Y029798D01*
X036625Y029712D01*
X036675Y029626D01*
X036726Y029540D01*
X036776Y029453D01*
X036825Y029366D01*
X036874Y029279D01*
X036922Y029192D01*
X036971Y029104D01*
X037018Y029016D01*
X037065Y028928D01*
X037112Y028839D01*
X037158Y028751D01*
X037204Y028662D01*
X037250Y028573D01*
X037294Y028483D01*
X037339Y028394D01*
X037383Y028304D01*
X037427Y028214D01*
X037470Y028124D01*
X037512Y028033D01*
X037554Y027943D01*
X037596Y027852D01*
X037637Y027761D01*
X037678Y027669D01*
X037719Y027578D01*
X037758Y027486D01*
X037798Y027394D01*
X037837Y027302D01*
X037875Y027210D01*
X037913Y027117D01*
X037951Y027025D01*
X037988Y026932D01*
X038024Y026839D01*
X038060Y026745D01*
X038096Y026652D01*
X038131Y026558D01*
X038166Y026465D01*
X038200Y026371D01*
X038234Y026276D01*
X038267Y026182D01*
X038300Y026088D01*
X038332Y025993D01*
X038364Y025898D01*
X038395Y025803D01*
X038426Y025708D01*
X038456Y025613D01*
X038486Y025517D01*
X038516Y025422D01*
X038545Y025326D01*
X038573Y025230D01*
X038601Y025134D01*
X038628Y025038D01*
X038655Y024942D01*
X038682Y024845D01*
X038708Y024749D01*
X038733Y024652D01*
X038758Y024555D01*
X038783Y024458D01*
X038807Y024361D01*
X038830Y024264D01*
X038853Y024167D01*
X038876Y024069D01*
X038898Y023972D01*
X038919Y023874D01*
X038940Y023776D01*
X038961Y023678D01*
X038981Y023580D01*
X039000Y023482D01*
X039019Y023384D01*
X039038Y023286D01*
X039056Y023188D01*
X039074Y023089D01*
X039091Y022991D01*
X039107Y022892D01*
X039123Y022793D01*
X039139Y022694D01*
X039154Y022596D01*
X039168Y022497D01*
X039182Y022398D01*
X039196Y022299D01*
X039209Y022199D01*
X039221Y022100D01*
X039233Y022001D01*
X039245Y021902D01*
X039256Y021802D01*
X039266Y021703D01*
X039276Y021603D01*
X039286Y021504D01*
X039295Y021404D01*
X039303Y021304D01*
X039311Y021205D01*
X039319Y021105D01*
X039326Y021005D01*
X039332Y020906D01*
X039338Y020806D01*
X039344Y020706D01*
X039349Y020606D01*
X039353Y020506D01*
X039357Y020406D01*
X039360Y020306D01*
X039363Y020206D01*
X039366Y020106D01*
X039368Y020006D01*
X039369Y019906D01*
X039370Y019806D01*
X039370Y019706D01*
X039370Y019606D01*
X039369Y019506D01*
X039368Y019406D01*
X039366Y019306D01*
X039364Y019206D01*
X039362Y019106D01*
X039358Y019006D01*
X039355Y018907D01*
X039351Y018807D01*
X039346Y018707D01*
X039341Y018607D01*
X039335Y018507D01*
X039329Y018407D01*
X039322Y018307D01*
X039315Y018208D01*
X039307Y018108D01*
X039299Y018008D01*
X039290Y017909D01*
X039281Y017809D01*
X039271Y017710D01*
X039260Y017610D01*
X039250Y017511D01*
X039238Y017411D01*
X039227Y017312D01*
X039214Y017213D01*
X039201Y017114D01*
X039188Y017015D01*
X039174Y016916D01*
X039160Y016817D01*
X039145Y016718D01*
X039130Y016619D01*
X039114Y016520D01*
X039098Y016421D01*
X039081Y016323D01*
X039064Y016224D01*
X039046Y016126D01*
X039027Y016028D01*
X039009Y015929D01*
X038989Y015831D01*
X038969Y015733D01*
X038949Y015635D01*
X038928Y015538D01*
X038907Y015440D01*
X038885Y015342D01*
X038863Y015245D01*
X038840Y015147D01*
X038817Y015050D01*
X038793Y014953D01*
X038769Y014856D01*
X038744Y014759D01*
X038719Y014662D01*
X038693Y014566D01*
X038667Y014469D01*
X038640Y014373D01*
X038613Y014277D01*
X038585Y014181D01*
X038557Y014085D01*
X038528Y013989D01*
X038499Y013893D01*
X038469Y013798D01*
X038439Y013702D01*
X038408Y013607D01*
X038377Y013512D01*
X038346Y013417D01*
X038314Y013323D01*
X038281Y013228D01*
X038248Y013134D01*
X038214Y013039D01*
X038180Y012945D01*
X038146Y012852D01*
X038111Y012758D01*
X038076Y012664D01*
X038040Y012571D01*
X038003Y012478D01*
X037966Y012385D01*
X037929Y012292D01*
X037891Y012200D01*
X037853Y012107D01*
X037814Y012015D01*
X037775Y011923D01*
X037736Y011831D01*
X037695Y011740D01*
X037655Y011648D01*
X037614Y011557D01*
X037572Y011466D01*
X037530Y011375D01*
X037488Y011285D01*
X037445Y011194D01*
X037402Y011104D01*
X037358Y011014D01*
X037313Y010925D01*
X037269Y010835D01*
X037224Y010746D01*
X037178Y010657D01*
X037132Y010568D01*
X037085Y010480D01*
X037038Y010392D01*
X036991Y010304D01*
X036943Y010216D01*
X036895Y010128D01*
X036846Y010041D01*
X036797Y009954D01*
X036747Y009867D01*
X036697Y009781D01*
X036646Y009694D01*
X036595Y009608D01*
X036544Y009522D01*
X036492Y009437D01*
X036440Y009352D01*
X036387Y009267D01*
X036334Y009182D01*
X036280Y009098D01*
X036226Y009013D01*
X036172Y008929D01*
X036117Y008846D01*
X036062Y008763D01*
X036006Y008679D01*
X035950Y008597D01*
X035894Y008514D01*
X035837Y008432D01*
X035779Y008350D01*
X035721Y008269D01*
X035663Y008187D01*
X035605Y008106D01*
X035546Y008025D01*
X035486Y007945D01*
X035426Y007865D01*
X035366Y007785D01*
X035305Y007706D01*
X035244Y007626D01*
X035183Y007548D01*
X035121Y007469D01*
X035059Y007391D01*
X034996Y007313D01*
X034933Y007235D01*
X034870Y007158D01*
X034806Y007081D01*
X034742Y007004D01*
X034677Y006928D01*
X034612Y006852D01*
X034547Y006776D01*
X034481Y006701D01*
X034415Y006626D01*
X034348Y006551D01*
X034281Y006477D01*
X034214Y006403D01*
X034146Y006329D01*
X034078Y006256D01*
X034010Y006183D01*
X033941Y006110D01*
X033872Y006038D01*
X033802Y005966D01*
X033733Y005895D01*
X033662Y005824D01*
X033592Y005753D01*
X033521Y005682D01*
X033449Y005612D01*
X033378Y005542D01*
X033306Y005473D01*
X033233Y005404D01*
X033161Y005335D01*
X033088Y005267D01*
X033014Y005199D01*
X032940Y005132D01*
X032866Y005065D01*
X032792Y004998D01*
X032717Y004931D01*
X032642Y004865D01*
X032566Y004800D01*
X032491Y004735D01*
X032415Y004670D01*
X032338Y004605D01*
X032261Y004541D01*
X032184Y004477D01*
X032107Y004414D01*
X032029Y004351D01*
X031951Y004289D01*
X031873Y004227D01*
X031794Y004165D01*
X031715Y004104D01*
X031636Y004043D01*
X031556Y003982D01*
X031476Y003922D01*
X031396Y003862D01*
X031315Y003803D01*
X031235Y003744D01*
X031153Y003686D01*
X031072Y003628D01*
X030990Y003570D01*
X030908Y003513D01*
X030826Y003456D01*
X030743Y003400D01*
X030661Y003344D01*
X030577Y003288D01*
X030494Y003233D01*
X030410Y003178D01*
X030326Y003124D01*
X030242Y003070D01*
X030157Y003017D01*
X030073Y002964D01*
X029988Y002911D01*
X029902Y002859D01*
X029817Y002807D01*
X029731Y002756D01*
X029645Y002705D01*
X029558Y002655D01*
X029472Y002605D01*
X029385Y002556D01*
X029298Y002507D01*
X029210Y002458D01*
X029123Y002410D01*
X029035Y002362D01*
X028947Y002315D01*
X028858Y002268D01*
X028770Y002222D01*
X028681Y002176D01*
X028592Y002130D01*
X028502Y002085D01*
X028413Y002041D01*
X028323Y001996D01*
X028233Y001953D01*
X028143Y001910D01*
X028053Y001867D01*
X027962Y001825D01*
X027871Y001783D01*
X027780Y001741D01*
X027689Y001701D01*
X027597Y001660D01*
X027506Y001620D01*
X027414Y001581D01*
X027322Y001542D01*
X027229Y001503D01*
X027137Y001465D01*
X027044Y001427D01*
X026951Y001390D01*
X026858Y001354D01*
X026765Y001317D01*
X026672Y001282D01*
X026578Y001246D01*
X026485Y001212D01*
X026391Y001177D01*
X026296Y001143D01*
X026202Y001110D01*
X026108Y001077D01*
X026013Y001045D01*
X025918Y001013D01*
X025823Y000982D01*
X025728Y000951D01*
X025633Y000920D01*
X025538Y000890D01*
X025442Y000861D01*
X025346Y000832D01*
X025251Y000803D01*
X025155Y000775D01*
X025058Y000748D01*
X024962Y000721D01*
X024866Y000694D01*
X024769Y000668D01*
X024673Y000642D01*
X024576Y000617D01*
X024479Y000593D01*
X024382Y000569D01*
X024285Y000545D01*
X024187Y000522D01*
X024090Y000499D01*
X023992Y000477D01*
X023895Y000455D01*
X023797Y000434D01*
X023699Y000414D01*
X023601Y000393D01*
X023503Y000374D01*
X023405Y000355D01*
X023307Y000336D01*
X023208Y000318D01*
X023110Y000300D01*
X023012Y000283D01*
X022913Y000266D01*
X022814Y000250D01*
X022715Y000235D01*
X022617Y000220D01*
X022518Y000205D01*
X022419Y000191D01*
X022320Y000177D01*
X022220Y000164D01*
X022121Y000151D01*
X022022Y000139D01*
X021923Y000128D01*
X021823Y000116D01*
X021724Y000106D01*
X021624Y000096D01*
X021525Y000086D01*
X021425Y000077D01*
X021326Y000068D01*
X021226Y000060D01*
X021126Y000053D01*
X021026Y000046D01*
X020927Y000039D01*
X020827Y000033D01*
X020727Y000028D01*
X020627Y000023D01*
X020527Y000018D01*
X020427Y000014D01*
X020327Y000010D01*
X020227Y000007D01*
X020128Y000005D01*
X020028Y000003D01*
X019928Y000001D01*
X019828Y000001D01*
X019728Y000000D01*
X019628Y000000D01*
X019528Y000001D01*
X019428Y000002D01*
X019328Y000003D01*
X019228Y000005D01*
X019128Y000008D01*
X019028Y000011D01*
X018928Y000015D01*
X018828Y000019D01*
X018728Y000023D01*
X018628Y000028D01*
X018528Y000034D01*
X018428Y000040D01*
X018329Y000047D01*
X018229Y000054D01*
X018129Y000062D01*
X018029Y000070D01*
X017930Y000078D01*
X017830Y000088D01*
X017731Y000097D01*
X017631Y000107D01*
X017532Y000118D01*
X017432Y000129D01*
X017333Y000141D01*
X017234Y000153D01*
X017135Y000166D01*
X017036Y000179D01*
X016937Y000193D01*
X016838Y000207D01*
X016739Y000222D01*
X016640Y000237D01*
X016541Y000253D01*
X016442Y000269D01*
X016344Y000286D01*
X016245Y000303D01*
X016147Y000321D01*
X016049Y000339D01*
X015950Y000358D01*
X015852Y000377D01*
X015754Y000396D01*
X015656Y000417D01*
X015558Y000437D01*
X015461Y000459D01*
X015363Y000480D01*
X015266Y000503D01*
X015168Y000525D01*
X015071Y000548D01*
X014974Y000572D01*
X014877Y000596D01*
X014780Y000621D01*
X014683Y000646D01*
X014586Y000672D01*
X014490Y000698D01*
X014393Y000725D01*
X014297Y000752D01*
X014201Y000779D01*
X014105Y000807D01*
X014009Y000836D01*
X013914Y000865D01*
X013818Y000895D01*
X013723Y000925D01*
X013627Y000955D01*
X013532Y000986D01*
X013437Y001018D01*
X013343Y001050D01*
X013248Y001082D01*
X013154Y001115D01*
X013059Y001149D01*
X012965Y001182D01*
X012871Y001217D01*
X012778Y001252D01*
X012684Y001287D01*
X012591Y001323D01*
X012498Y001359D01*
X012405Y001396D01*
X012312Y001433D01*
X012219Y001471D01*
X012127Y001509D01*
X012035Y001548D01*
X011943Y001587D01*
X011851Y001626D01*
X011759Y001666D01*
X011668Y001707D01*
X011576Y001748D01*
X011485Y001789D01*
X011395Y001831D01*
X011304Y001873D01*
X011214Y001916D01*
X011123Y001959D01*
X011033Y002003D01*
X010944Y002047D01*
X010854Y002092D01*
X010765Y002137D01*
X010676Y002183D01*
X010587Y002229D01*
X010499Y002275D01*
X010410Y002322D01*
X010322Y002369D01*
X010234Y002417D01*
X010147Y002465D01*
X010059Y002514D01*
X009972Y002563D01*
X009885Y002613D01*
X009799Y002663D01*
X009713Y002713D01*
X009626Y002764D01*
X009541Y002815D01*
X009455Y002867D01*
X009370Y002919D01*
X009285Y002972D01*
X009200Y003025D01*
X009115Y003078D01*
X009031Y003132D01*
X008947Y003187D01*
X008864Y003241D01*
X008780Y003296D01*
X008697Y003352D01*
X008614Y003408D01*
X008532Y003465D01*
X008449Y003521D01*
X008367Y003579D01*
X008286Y003636D01*
X008204Y003695D01*
X008123Y003753D01*
X008043Y003812D01*
X007962Y003871D01*
X007882Y003931D01*
X007802Y003991D01*
X007722Y004052D01*
X007643Y004113D01*
X007564Y004174D01*
X007486Y004236D01*
X007407Y004298D01*
X007329Y004361D01*
X007252Y004424D01*
X007174Y004487D01*
X007097Y004551D01*
X007020Y004615D01*
X006944Y004679D01*
X006868Y004744D01*
X006792Y004810D01*
X006717Y004875D01*
X006642Y004941D01*
X006567Y005008D01*
X006493Y005075D01*
X006419Y005142D01*
X006345Y005209D01*
X006272Y005277D01*
X006199Y005346D01*
X006126Y005414D01*
X006054Y005484D01*
X005982Y005553D01*
X005910Y005623D01*
X005839Y005693D01*
X005768Y005763D01*
X005697Y005834D01*
X005627Y005906D01*
X005557Y005977D01*
X005488Y006049D01*
X005419Y006121D01*
X005350Y006194D01*
X005282Y006267D01*
X005214Y006340D01*
X005146Y006414D01*
X005079Y006488D01*
X005012Y006562D01*
X004946Y006637D01*
X004879Y006712D01*
X004814Y006788D01*
X004748Y006863D01*
X004683Y006939D01*
X004619Y007016D01*
X004555Y007092D01*
X004491Y007169D01*
X004428Y007247D01*
X004365Y007324D01*
X004302Y007402D01*
X004240Y007481D01*
X004178Y007559D01*
X004117Y007638D01*
X004056Y007718D01*
X003995Y007797D01*
X003935Y007877D01*
X003875Y007957D01*
X003816Y008038D01*
X003757Y008118D01*
X003698Y008199D01*
X003640Y008281D01*
X003582Y008362D01*
X003525Y008444D01*
X003468Y008527D01*
X003412Y008609D01*
X003356Y008692D01*
X003300Y008775D01*
X003245Y008858D01*
X003190Y008942D01*
X003136Y009026D01*
X003082Y009110D01*
X003028Y009195D01*
X002975Y009279D01*
X002922Y009364D01*
X002870Y009450D01*
X002818Y009535D01*
X002767Y009621D01*
X002716Y009707D01*
X002666Y009794D01*
X002616Y009880D01*
X002566Y009967D01*
X002517Y010054D01*
X002468Y010141D01*
X002420Y010229D01*
X002372Y010317D01*
X002325Y010405D01*
X002278Y010493D01*
X002231Y010582D01*
X002185Y010671D01*
X002140Y010760D01*
X002095Y010849D01*
X002050Y010938D01*
X002006Y011028D01*
X001962Y011118D01*
X001919Y011208D01*
X001876Y011298D01*
X001834Y011389D01*
X001792Y011480D01*
X001750Y011571D01*
X001709Y011662D01*
X001669Y011753D01*
X001629Y011845D01*
X001589Y011937D01*
X001550Y012029D01*
X001511Y012121D01*
X001473Y012213D01*
X001435Y012306D01*
X001398Y012399D01*
X001361Y012492D01*
X001325Y012585D01*
X001289Y012678D01*
X001254Y012772D01*
X001219Y012866D01*
X001185Y012960D01*
X001151Y013054D01*
X001117Y013148D01*
X001084Y013242D01*
X001052Y013337D01*
X001020Y013432D01*
X000988Y013527D01*
X000957Y013622D01*
X000927Y013717D01*
X000896Y013812D01*
X000867Y013908D01*
X000838Y014003D01*
X000809Y014099D01*
X000781Y014195D01*
X000753Y014291D01*
X000726Y014387D01*
X000700Y014484D01*
X000673Y014580D01*
X000648Y014677D01*
X000623Y014774D01*
X000598Y014871D01*
X000574Y014968D01*
X000550Y015065D01*
X000527Y015162D01*
X000504Y015260D01*
X000482Y015357D01*
X000460Y015455D01*
X000439Y015552D01*
X000418Y015650D01*
X000398Y015748D01*
X000378Y015846D01*
X000359Y015944D01*
X000340Y016042D01*
X000322Y016141D01*
X000304Y016239D01*
X000287Y016338D01*
X000270Y016436D01*
X000254Y016535D01*
X000238Y016634D01*
X000223Y016733D01*
X000208Y016831D01*
X000194Y016930D01*
X000180Y017029D01*
X000167Y017129D01*
X000154Y017228D01*
X000142Y017327D01*
X000130Y017426D01*
X000119Y017526D01*
X000108Y017625D01*
X000098Y017725D01*
X000088Y017824D01*
X000079Y017924D01*
X000070Y018023D01*
X000062Y018123D01*
X000054Y018223D01*
X000047Y018322D01*
X000041Y018422D01*
X000034Y018522D01*
X000029Y018622D01*
X000024Y018722D01*
X000019Y018822D01*
X000015Y018922D01*
X000011Y019021D01*
X000008Y019121D01*
X000005Y019221D01*
X000003Y019321D01*
X000002Y019421D01*
X000001Y019521D01*
X000000Y019621D01*
X000000Y019721D01*
X000000Y019821D01*
X000001Y019921D01*
X000003Y020021D01*
X000005Y020121D01*
X000007Y020221D01*
X000010Y020321D01*
X000014Y020421D01*
X000018Y020521D01*
X000022Y020621D01*
X000027Y020721D01*
X000033Y020821D01*
X000039Y020921D01*
X000045Y021020D01*
X000052Y021120D01*
X000060Y021220D01*
X000068Y021319D01*
X000077Y021419D01*
X000086Y021519D01*
X000095Y021618D01*
X000105Y021718D01*
X000116Y021817D01*
X000127Y021917D01*
X000138Y022016D01*
X000151Y022115D01*
X000163Y022214D01*
X000176Y022313D01*
X000190Y022413D01*
X000204Y022512D01*
X000219Y022610D01*
X000234Y022709D01*
X000249Y022808D01*
X000265Y022907D01*
X000282Y023005D01*
X000299Y023104D01*
X000317Y023202D01*
X000335Y023301D01*
X000354Y023399D01*
X000373Y023497D01*
X000392Y023595D01*
X000412Y023693D01*
X000433Y023791D01*
X000454Y023889D01*
X000476Y023986D01*
X000498Y024084D01*
X000520Y024181D01*
X000543Y024279D01*
X000567Y024376D01*
X000591Y024473D01*
X000616Y024570D01*
X000641Y024667D01*
X000666Y024763D01*
X000692Y024860D01*
X000719Y024956D01*
X000746Y025053D01*
X000773Y025149D01*
X000801Y025245D01*
X000830Y025341D01*
X000859Y025436D01*
X000888Y025532D01*
X000918Y025627D01*
X000949Y025722D01*
X000980Y025818D01*
X001011Y025913D01*
X001043Y026007D01*
X001075Y026102D01*
X001108Y026196D01*
X001141Y026291D01*
X001175Y026385D01*
X001209Y026479D01*
X001244Y026572D01*
X001279Y026666D01*
X001315Y026759D01*
X001351Y026853D01*
X001388Y026946D01*
X001425Y027039D01*
X001463Y027131D01*
X001501Y027224D01*
X001539Y027316D01*
X001578Y027408D01*
X001618Y027500D01*
X001658Y027592D01*
X001698Y027683D01*
X001739Y027774D01*
X001780Y027865D01*
X001822Y027956D01*
X001864Y028047D01*
X001907Y028137D01*
X001950Y028228D01*
X001994Y028318D01*
X002038Y028407D01*
X002082Y028497D01*
X002127Y028586D01*
X002173Y028675D01*
X002219Y028764D01*
X002265Y028853D01*
X002312Y028941D01*
X002359Y029029D01*
X002407Y029117D01*
X002455Y029205D01*
X002504Y029292D01*
X002553Y029379D01*
X002602Y029466D01*
X002652Y029553D01*
X002702Y029639D01*
X002753Y029725D01*
X002804Y029811D01*
X002856Y029897D01*
X002908Y029982D01*
X002961Y030067D01*
X003014Y030152D01*
X003067Y030237D01*
X003121Y030321D01*
X003175Y030405D01*
X003230Y030489D01*
X003285Y030572D01*
X003340Y030655D01*
X003396Y030738D01*
X003453Y030821D01*
X003509Y030903D01*
X003567Y030985D01*
X003624Y031067D01*
X003682Y031148D01*
X003741Y031230D01*
X003799Y031310D01*
X003859Y031391D01*
X003918Y031471D01*
X003978Y031551D01*
X004039Y031631D01*
X004100Y031710D01*
X004161Y031789D01*
X004223Y031868D01*
X004285Y031946D01*
X004347Y032024D01*
X004410Y032102D01*
X004474Y032180D01*
X004537Y032257D01*
X004601Y032333D01*
X004666Y032410D01*
X004731Y032486D01*
X004796Y032562D01*
X004861Y032637D01*
X004927Y032712D01*
X004994Y032787D01*
X005060Y032862D01*
X005128Y032936D01*
X005195Y033010D01*
X005263Y033083D01*
X005331Y033156D01*
X005400Y033229D01*
X005469Y033301D01*
X005538Y033373D01*
X005608Y033445D01*
X005678Y033516D01*
X005748Y033587D01*
X005819Y033658D01*
X005890Y033728D01*
X005962Y033798D01*
X006034Y033868D01*
X006106Y033937D01*
X006179Y034006D01*
X006252Y034074D01*
X006325Y034142D01*
X006398Y034210D01*
X006472Y034277D01*
X006547Y034344D01*
X006621Y034411D01*
X006696Y034477D01*
X006772Y034542D01*
X006847Y034608D01*
X006923Y034673D01*
X006999Y034738D01*
X007076Y034802D01*
X007153Y034866D01*
X007230Y034929D01*
X007308Y034992D01*
X007386Y035055D01*
X007464Y035117D01*
X007543Y035179D01*
X007622Y035241D01*
X007701Y035302D01*
X007780Y035362D01*
X007860Y035423D01*
X007940Y035482D01*
X008020Y035542D01*
X008101Y035601D01*
X008182Y035660D01*
X008263Y035718D01*
X008345Y035776D01*
X008427Y035833D01*
X008509Y035890D01*
X008592Y035947D01*
X008674Y036003D01*
X008757Y036058D01*
X008841Y036114D01*
X008924Y036169D01*
X009008Y036223D01*
X009092Y036277D01*
X009177Y036331D01*
X009261Y036384D01*
X009346Y036437D01*
X009432Y036489D01*
X009517Y036541D01*
X009603Y036592D01*
X009689Y036643D01*
X009775Y036694D01*
X009862Y036744D01*
X009948Y036794D01*
X010036Y036843D01*
X010123Y036892D01*
X010210Y036940D01*
X010298Y036988D01*
X010386Y037035D01*
X010474Y037082D01*
X010563Y037129D01*
X010652Y037175D01*
X010741Y037221D01*
X010830Y037266D01*
X010919Y037311D01*
X011009Y037355D01*
X011099Y037399D01*
X011189Y037442D01*
X011279Y037485D01*
X011370Y037528D01*
X011460Y037570D01*
X011551Y037611D01*
X011643Y037652D01*
X011734Y037693D01*
X011826Y037733D01*
X011917Y037773D01*
X012009Y037812D01*
X012101Y037851D01*
X012194Y037889D01*
X012286Y037927D01*
X012379Y037964D01*
X012472Y038001D01*
X012565Y038037D01*
X012659Y038073D01*
X012752Y038109D01*
X012846Y038144D01*
X012940Y038178D01*
X013034Y038212D01*
X013128Y038246D01*
X013222Y038279D01*
X013317Y038312D01*
X013411Y038344D01*
X013506Y038375D01*
X013601Y038406D01*
X013697Y038437D01*
X013792Y038467D01*
X013887Y038497D01*
X013983Y038526D01*
X014079Y038555D01*
X014175Y038583D01*
X014271Y038611D01*
X014367Y038638D01*
X014463Y038665D01*
X014560Y038691D01*
X014656Y038717D01*
X014753Y038742D01*
X014850Y038767D01*
X014947Y038791D01*
X015044Y038815D01*
X015141Y038839D01*
X015239Y038861D01*
X015336Y038884D01*
X015434Y038906D01*
X015532Y038927D01*
X015629Y038948D01*
X015727Y038968D01*
X015825Y038988D01*
X015923Y039007D01*
X016022Y039026D01*
X016120Y039045D01*
X016218Y039062D01*
X016317Y039080D01*
X016415Y039097D01*
X016514Y039113D01*
X016613Y039129D01*
X016712Y039144D01*
X016810Y039159D01*
X016909Y039173D01*
X017008Y039187D01*
X017108Y039201D01*
X017207Y039214D01*
X017306Y039226D01*
X017405Y039238D01*
X017505Y039249D01*
X017604Y039260D01*
X017703Y039270D01*
X017803Y039280D01*
X017903Y039289D01*
X018002Y039298D01*
X018102Y039306D01*
X018202Y039314D01*
X018301Y039321D01*
X018401Y039328D01*
X018501Y039334D01*
X018601Y039340D01*
X018701Y039346D01*
X018800Y039350D01*
X018900Y039354D01*
X019000Y039358D01*
X019100Y039361D01*
X019200Y039364D01*
X019300Y039366D01*
X019400Y039368D01*
X019500Y039369D01*
X019600Y039370D01*
M02*
