G75*
%MOIN*%
%OFA0B0*%
%FSLAX25Y25*%
%IPPOS*%
%LPD*%
%AMOC8*
5,1,8,0,0,1.08239X$1,22.5*
%
%ADD10C,0.00394*%
%ADD11R,0.05000X0.08110*%
%ADD12R,0.04724X0.05512*%
%ADD13R,0.03150X0.03543*%
%ADD14R,0.05118X0.06299*%
%ADD15R,0.04724X0.02362*%
D10*
X0013034Y0012996D02*
X0293034Y0012996D01*
X0293034Y0177996D01*
X0013034Y0177996D01*
X0013034Y0012996D01*
D11*
G36*
X0083935Y0085755D02*
X0083978Y0090754D01*
X0092087Y0090683D01*
X0092044Y0085684D01*
X0083935Y0085755D01*
G37*
G36*
X0084055Y0099574D02*
X0084098Y0104573D01*
X0092207Y0104502D01*
X0092164Y0099503D01*
X0084055Y0099574D01*
G37*
D12*
G36*
X0060391Y0168813D02*
X0065114Y0168862D01*
X0065171Y0163351D01*
X0060448Y0163302D01*
X0060391Y0168813D01*
G37*
G36*
X0048581Y0168690D02*
X0053304Y0168739D01*
X0053361Y0163228D01*
X0048638Y0163179D01*
X0048581Y0168690D01*
G37*
G36*
X0244306Y0162737D02*
X0239583Y0162671D01*
X0239506Y0168181D01*
X0244229Y0168247D01*
X0244306Y0162737D01*
G37*
G36*
X0256115Y0162902D02*
X0251392Y0162836D01*
X0251315Y0168346D01*
X0256038Y0168412D01*
X0256115Y0162902D01*
G37*
D13*
G36*
X0219134Y0102947D02*
X0219008Y0099801D01*
X0215470Y0099943D01*
X0215596Y0103089D01*
X0219134Y0102947D01*
G37*
G36*
X0210723Y0099542D02*
X0210597Y0096396D01*
X0207059Y0096538D01*
X0207185Y0099684D01*
X0210723Y0099542D01*
G37*
G36*
X0218834Y0095473D02*
X0218708Y0092327D01*
X0215170Y0092469D01*
X0215296Y0095615D01*
X0218834Y0095473D01*
G37*
D14*
G36*
X0164555Y0138475D02*
X0169258Y0140491D01*
X0171739Y0134703D01*
X0167036Y0132687D01*
X0164555Y0138475D01*
G37*
G36*
X0171431Y0141422D02*
X0176134Y0143438D01*
X0178615Y0137650D01*
X0173912Y0135634D01*
X0171431Y0141422D01*
G37*
G36*
X0135442Y0142246D02*
X0140141Y0140221D01*
X0137650Y0134438D01*
X0132951Y0136463D01*
X0135442Y0142246D01*
G37*
G36*
X0128572Y0145205D02*
X0133271Y0143180D01*
X0130780Y0137397D01*
X0126081Y0139422D01*
X0128572Y0145205D01*
G37*
D15*
X0141305Y0110616D03*
X0141305Y0105616D03*
X0141305Y0100616D03*
X0141305Y0095616D03*
X0141305Y0090616D03*
X0141305Y0085616D03*
X0141305Y0080616D03*
X0163352Y0080616D03*
X0163352Y0085616D03*
X0163352Y0090616D03*
X0163352Y0095616D03*
X0163352Y0100616D03*
X0163352Y0105616D03*
X0163352Y0110616D03*
M02*
