G75*
%MOIN*%
%OFA0B0*%
%FSLAX25Y25*%
%IPPOS*%
%LPD*%
%AMOC8*
5,1,8,0,0,1.08239X$1,22.5*
%
%ADD10C,0.00394*%
%ADD11C,0.01600*%
%ADD12R,0.05800X0.08910*%
%ADD13R,0.05524X0.06312*%
%ADD14R,0.03950X0.04343*%
%ADD15R,0.05918X0.07099*%
%ADD16R,0.05524X0.03162*%
%ADD17C,0.22300*%
%ADD18C,0.06343*%
%ADD19C,0.04762*%
D10*
X0013034Y0012996D02*
X0293034Y0012996D01*
X0293034Y0177996D01*
X0013034Y0177996D01*
X0013034Y0012996D01*
X0111169Y0044657D02*
X0119758Y0041544D01*
X0119808Y0035249D01*
X0152257Y0046914D01*
X0152061Y0071125D01*
X0113307Y0056268D01*
X0111380Y0055674D01*
X0111169Y0044657D01*
X0111171Y0044765D02*
X0146279Y0044765D01*
X0145188Y0044373D02*
X0111953Y0044373D01*
X0111178Y0045157D02*
X0147370Y0045157D01*
X0148461Y0045549D02*
X0111186Y0045549D01*
X0111193Y0045942D02*
X0149552Y0045942D01*
X0150643Y0046334D02*
X0111201Y0046334D01*
X0111208Y0046726D02*
X0151734Y0046726D01*
X0152255Y0047118D02*
X0111216Y0047118D01*
X0111223Y0047510D02*
X0152252Y0047510D01*
X0152249Y0047903D02*
X0111231Y0047903D01*
X0111238Y0048295D02*
X0152246Y0048295D01*
X0152242Y0048687D02*
X0111246Y0048687D01*
X0111253Y0049079D02*
X0152239Y0049079D01*
X0152236Y0049471D02*
X0111261Y0049471D01*
X0111268Y0049864D02*
X0152233Y0049864D01*
X0152230Y0050256D02*
X0111276Y0050256D01*
X0111283Y0050648D02*
X0152227Y0050648D01*
X0152223Y0051040D02*
X0111291Y0051040D01*
X0111298Y0051433D02*
X0152220Y0051433D01*
X0152217Y0051825D02*
X0111306Y0051825D01*
X0111313Y0052217D02*
X0152214Y0052217D01*
X0152211Y0052609D02*
X0111321Y0052609D01*
X0111328Y0053001D02*
X0152208Y0053001D01*
X0152204Y0053394D02*
X0111336Y0053394D01*
X0111343Y0053786D02*
X0152201Y0053786D01*
X0152198Y0054178D02*
X0111351Y0054178D01*
X0111358Y0054570D02*
X0152195Y0054570D01*
X0152192Y0054962D02*
X0111366Y0054962D01*
X0111374Y0055355D02*
X0152189Y0055355D01*
X0152185Y0055747D02*
X0111617Y0055747D01*
X0112890Y0056139D02*
X0152182Y0056139D01*
X0152179Y0056531D02*
X0113994Y0056531D01*
X0115017Y0056923D02*
X0152176Y0056923D01*
X0152173Y0057316D02*
X0116041Y0057316D01*
X0117064Y0057708D02*
X0152170Y0057708D01*
X0152166Y0058100D02*
X0118087Y0058100D01*
X0119110Y0058492D02*
X0152163Y0058492D01*
X0152160Y0058885D02*
X0120133Y0058885D01*
X0121156Y0059277D02*
X0152157Y0059277D01*
X0152154Y0059669D02*
X0122179Y0059669D01*
X0123202Y0060061D02*
X0152151Y0060061D01*
X0152147Y0060453D02*
X0124225Y0060453D01*
X0125248Y0060846D02*
X0152144Y0060846D01*
X0152141Y0061238D02*
X0126271Y0061238D01*
X0127294Y0061630D02*
X0152138Y0061630D01*
X0152135Y0062022D02*
X0128317Y0062022D01*
X0129340Y0062414D02*
X0152132Y0062414D01*
X0152128Y0062807D02*
X0130363Y0062807D01*
X0131386Y0063199D02*
X0152125Y0063199D01*
X0152122Y0063591D02*
X0132409Y0063591D01*
X0133432Y0063983D02*
X0152119Y0063983D01*
X0152116Y0064376D02*
X0134455Y0064376D01*
X0135478Y0064768D02*
X0152113Y0064768D01*
X0152110Y0065160D02*
X0136501Y0065160D01*
X0137524Y0065552D02*
X0152106Y0065552D01*
X0152103Y0065944D02*
X0138547Y0065944D01*
X0139571Y0066337D02*
X0152100Y0066337D01*
X0152097Y0066729D02*
X0140594Y0066729D01*
X0141617Y0067121D02*
X0152094Y0067121D01*
X0152091Y0067513D02*
X0142640Y0067513D01*
X0143663Y0067905D02*
X0152087Y0067905D01*
X0152084Y0068298D02*
X0144686Y0068298D01*
X0145709Y0068690D02*
X0152081Y0068690D01*
X0152078Y0069082D02*
X0146732Y0069082D01*
X0147755Y0069474D02*
X0152075Y0069474D01*
X0152072Y0069866D02*
X0148778Y0069866D01*
X0149801Y0070259D02*
X0152068Y0070259D01*
X0152065Y0070651D02*
X0150824Y0070651D01*
X0151847Y0071043D02*
X0152062Y0071043D01*
X0194965Y0044373D02*
X0210466Y0044373D01*
X0211490Y0044765D02*
X0196017Y0044765D01*
X0197070Y0045157D02*
X0212515Y0045157D01*
X0213540Y0045549D02*
X0198122Y0045549D01*
X0199175Y0045942D02*
X0214565Y0045942D01*
X0215590Y0046334D02*
X0200228Y0046334D01*
X0201280Y0046726D02*
X0216615Y0046726D01*
X0216647Y0046738D02*
X0216747Y0070648D01*
X0208694Y0067262D01*
X0208736Y0067218D01*
X0208831Y0049540D01*
X0185813Y0040963D01*
X0185715Y0034900D01*
X0216647Y0046738D01*
X0216649Y0047118D02*
X0202333Y0047118D01*
X0203385Y0047510D02*
X0216650Y0047510D01*
X0216652Y0047903D02*
X0204438Y0047903D01*
X0205490Y0048295D02*
X0216654Y0048295D01*
X0216655Y0048687D02*
X0206543Y0048687D01*
X0207595Y0049079D02*
X0216657Y0049079D01*
X0216659Y0049471D02*
X0208648Y0049471D01*
X0208829Y0049864D02*
X0216660Y0049864D01*
X0216662Y0050256D02*
X0208827Y0050256D01*
X0208825Y0050648D02*
X0216664Y0050648D01*
X0216665Y0051040D02*
X0208823Y0051040D01*
X0208821Y0051433D02*
X0216667Y0051433D01*
X0216668Y0051825D02*
X0208819Y0051825D01*
X0208817Y0052217D02*
X0216670Y0052217D01*
X0216672Y0052609D02*
X0208814Y0052609D01*
X0208812Y0053001D02*
X0216673Y0053001D01*
X0216675Y0053394D02*
X0208810Y0053394D01*
X0208808Y0053786D02*
X0216677Y0053786D01*
X0216678Y0054178D02*
X0208806Y0054178D01*
X0208804Y0054570D02*
X0216680Y0054570D01*
X0216682Y0054962D02*
X0208802Y0054962D01*
X0208800Y0055355D02*
X0216683Y0055355D01*
X0216685Y0055747D02*
X0208798Y0055747D01*
X0208796Y0056139D02*
X0216686Y0056139D01*
X0216688Y0056531D02*
X0208794Y0056531D01*
X0208791Y0056923D02*
X0216690Y0056923D01*
X0216691Y0057316D02*
X0208789Y0057316D01*
X0208787Y0057708D02*
X0216693Y0057708D01*
X0216695Y0058100D02*
X0208785Y0058100D01*
X0208783Y0058492D02*
X0216696Y0058492D01*
X0216698Y0058885D02*
X0208781Y0058885D01*
X0208779Y0059277D02*
X0216700Y0059277D01*
X0216701Y0059669D02*
X0208777Y0059669D01*
X0208775Y0060061D02*
X0216703Y0060061D01*
X0216705Y0060453D02*
X0208773Y0060453D01*
X0208770Y0060846D02*
X0216706Y0060846D01*
X0216708Y0061238D02*
X0208768Y0061238D01*
X0208766Y0061630D02*
X0216709Y0061630D01*
X0216711Y0062022D02*
X0208764Y0062022D01*
X0208762Y0062414D02*
X0216713Y0062414D01*
X0216714Y0062807D02*
X0208760Y0062807D01*
X0208758Y0063199D02*
X0216716Y0063199D01*
X0216718Y0063591D02*
X0208756Y0063591D01*
X0208754Y0063983D02*
X0216719Y0063983D01*
X0216721Y0064376D02*
X0208752Y0064376D01*
X0208749Y0064768D02*
X0216723Y0064768D01*
X0216724Y0065160D02*
X0208747Y0065160D01*
X0208745Y0065552D02*
X0216726Y0065552D01*
X0216727Y0065944D02*
X0208743Y0065944D01*
X0208741Y0066337D02*
X0216729Y0066337D01*
X0216731Y0066729D02*
X0208739Y0066729D01*
X0208737Y0067121D02*
X0216732Y0067121D01*
X0216734Y0067513D02*
X0209290Y0067513D01*
X0210223Y0067905D02*
X0216736Y0067905D01*
X0216737Y0068298D02*
X0211156Y0068298D01*
X0212089Y0068690D02*
X0216739Y0068690D01*
X0216741Y0069082D02*
X0213022Y0069082D01*
X0213955Y0069474D02*
X0216742Y0069474D01*
X0216744Y0069866D02*
X0214888Y0069866D01*
X0215821Y0070259D02*
X0216746Y0070259D01*
X0209441Y0043980D02*
X0193912Y0043980D01*
X0192860Y0043588D02*
X0208416Y0043588D01*
X0207391Y0043196D02*
X0191807Y0043196D01*
X0190755Y0042804D02*
X0206366Y0042804D01*
X0205341Y0042412D02*
X0189702Y0042412D01*
X0188649Y0042019D02*
X0204317Y0042019D01*
X0203292Y0041627D02*
X0187597Y0041627D01*
X0186544Y0041235D02*
X0202267Y0041235D01*
X0201242Y0040843D02*
X0185811Y0040843D01*
X0185805Y0040451D02*
X0200217Y0040451D01*
X0199192Y0040058D02*
X0185798Y0040058D01*
X0185792Y0039666D02*
X0198167Y0039666D01*
X0197143Y0039274D02*
X0185786Y0039274D01*
X0185779Y0038882D02*
X0196118Y0038882D01*
X0195093Y0038490D02*
X0185773Y0038490D01*
X0185767Y0038097D02*
X0194068Y0038097D01*
X0193043Y0037705D02*
X0185760Y0037705D01*
X0185754Y0037313D02*
X0192018Y0037313D01*
X0190994Y0036921D02*
X0185748Y0036921D01*
X0185741Y0036528D02*
X0189969Y0036528D01*
X0188944Y0036136D02*
X0185735Y0036136D01*
X0185729Y0035744D02*
X0187919Y0035744D01*
X0186894Y0035352D02*
X0185722Y0035352D01*
X0185716Y0034960D02*
X0185869Y0034960D01*
X0144097Y0043980D02*
X0113035Y0043980D01*
X0114117Y0043588D02*
X0143006Y0043588D01*
X0141915Y0043196D02*
X0115199Y0043196D01*
X0116282Y0042804D02*
X0140824Y0042804D01*
X0139733Y0042412D02*
X0117364Y0042412D01*
X0118446Y0042019D02*
X0138642Y0042019D01*
X0137551Y0041627D02*
X0119528Y0041627D01*
X0119761Y0041235D02*
X0136460Y0041235D01*
X0135369Y0040843D02*
X0119764Y0040843D01*
X0119767Y0040451D02*
X0134278Y0040451D01*
X0133187Y0040058D02*
X0119770Y0040058D01*
X0119773Y0039666D02*
X0132096Y0039666D01*
X0131005Y0039274D02*
X0119776Y0039274D01*
X0119779Y0038882D02*
X0129914Y0038882D01*
X0128823Y0038490D02*
X0119782Y0038490D01*
X0119785Y0038097D02*
X0127732Y0038097D01*
X0126641Y0037705D02*
X0119789Y0037705D01*
X0119792Y0037313D02*
X0125550Y0037313D01*
X0124459Y0036921D02*
X0119795Y0036921D01*
X0119798Y0036528D02*
X0123368Y0036528D01*
X0122277Y0036136D02*
X0119801Y0036136D01*
X0119804Y0035744D02*
X0121186Y0035744D01*
X0120095Y0035352D02*
X0119807Y0035352D01*
X0096793Y0129439D02*
X0110402Y0134255D01*
X0110417Y0145048D01*
X0096837Y0139919D01*
X0096852Y0139934D01*
X0096833Y0139968D01*
X0096793Y0129439D01*
X0096793Y0129483D02*
X0096915Y0129483D01*
X0096794Y0129875D02*
X0098024Y0129875D01*
X0099132Y0130267D02*
X0096796Y0130267D01*
X0096797Y0130659D02*
X0100241Y0130659D01*
X0101349Y0131052D02*
X0096799Y0131052D01*
X0096800Y0131444D02*
X0102458Y0131444D01*
X0103566Y0131836D02*
X0096802Y0131836D01*
X0096803Y0132228D02*
X0104675Y0132228D01*
X0105784Y0132620D02*
X0096805Y0132620D01*
X0096806Y0133013D02*
X0106892Y0133013D01*
X0108001Y0133405D02*
X0096808Y0133405D01*
X0096809Y0133797D02*
X0109109Y0133797D01*
X0110218Y0134189D02*
X0096811Y0134189D01*
X0096812Y0134581D02*
X0110403Y0134581D01*
X0110403Y0134974D02*
X0096814Y0134974D01*
X0096815Y0135366D02*
X0110404Y0135366D01*
X0110404Y0135758D02*
X0096817Y0135758D01*
X0096818Y0136150D02*
X0110405Y0136150D01*
X0110405Y0136543D02*
X0096820Y0136543D01*
X0096821Y0136935D02*
X0110406Y0136935D01*
X0110406Y0137327D02*
X0096823Y0137327D01*
X0096824Y0137719D02*
X0110407Y0137719D01*
X0110407Y0138111D02*
X0096826Y0138111D01*
X0096827Y0138504D02*
X0110408Y0138504D01*
X0110409Y0138896D02*
X0096829Y0138896D01*
X0096830Y0139288D02*
X0110409Y0139288D01*
X0110410Y0139680D02*
X0096832Y0139680D01*
X0097243Y0140072D02*
X0110410Y0140072D01*
X0110411Y0140465D02*
X0098281Y0140465D01*
X0099320Y0140857D02*
X0110411Y0140857D01*
X0110412Y0141249D02*
X0100358Y0141249D01*
X0101397Y0141641D02*
X0110412Y0141641D01*
X0110413Y0142034D02*
X0102436Y0142034D01*
X0103474Y0142426D02*
X0110413Y0142426D01*
X0110414Y0142818D02*
X0104513Y0142818D01*
X0105551Y0143210D02*
X0110414Y0143210D01*
X0110415Y0143602D02*
X0106590Y0143602D01*
X0107628Y0143995D02*
X0110416Y0143995D01*
X0110416Y0144387D02*
X0108667Y0144387D01*
X0109706Y0144779D02*
X0110417Y0144779D01*
D11*
X0043180Y0136783D02*
X0043110Y0110844D01*
X0013470Y0100897D01*
X0013417Y0145915D01*
X0013334Y0148188D01*
X0043180Y0136783D01*
X0043178Y0136081D02*
X0013429Y0136081D01*
X0013431Y0134483D02*
X0043173Y0134483D01*
X0043169Y0132884D02*
X0013432Y0132884D01*
X0013434Y0131286D02*
X0043165Y0131286D01*
X0043161Y0129687D02*
X0013436Y0129687D01*
X0013438Y0128089D02*
X0043156Y0128089D01*
X0043152Y0126490D02*
X0013440Y0126490D01*
X0013442Y0124892D02*
X0043148Y0124892D01*
X0043144Y0123293D02*
X0013444Y0123293D01*
X0013446Y0121695D02*
X0043139Y0121695D01*
X0043135Y0120096D02*
X0013448Y0120096D01*
X0013449Y0118497D02*
X0043131Y0118497D01*
X0043126Y0116899D02*
X0013451Y0116899D01*
X0013453Y0115300D02*
X0043122Y0115300D01*
X0043118Y0113702D02*
X0013455Y0113702D01*
X0013457Y0112103D02*
X0043114Y0112103D01*
X0042099Y0110505D02*
X0013459Y0110505D01*
X0013461Y0108906D02*
X0037336Y0108906D01*
X0032573Y0107308D02*
X0013463Y0107308D01*
X0013465Y0105709D02*
X0027810Y0105709D01*
X0023048Y0104111D02*
X0013467Y0104111D01*
X0013468Y0102512D02*
X0018285Y0102512D01*
X0013522Y0100914D02*
X0013470Y0100914D01*
X0013381Y0090801D02*
X0013318Y0090630D01*
X0013310Y0041316D01*
X0043754Y0054480D01*
X0043736Y0080631D01*
X0013381Y0090801D01*
X0013318Y0089724D02*
X0016595Y0089724D01*
X0013318Y0088126D02*
X0021366Y0088126D01*
X0026137Y0086527D02*
X0013317Y0086527D01*
X0013317Y0084929D02*
X0030908Y0084929D01*
X0035679Y0083330D02*
X0013317Y0083330D01*
X0013317Y0081732D02*
X0040450Y0081732D01*
X0043736Y0080133D02*
X0013316Y0080133D01*
X0013316Y0078535D02*
X0043738Y0078535D01*
X0043739Y0076936D02*
X0013316Y0076936D01*
X0013315Y0075338D02*
X0043740Y0075338D01*
X0043741Y0073739D02*
X0013315Y0073739D01*
X0013315Y0072141D02*
X0043742Y0072141D01*
X0043743Y0070542D02*
X0013315Y0070542D01*
X0013314Y0068944D02*
X0043744Y0068944D01*
X0043745Y0067345D02*
X0013314Y0067345D01*
X0013314Y0065747D02*
X0043746Y0065747D01*
X0043747Y0064148D02*
X0013314Y0064148D01*
X0013313Y0062550D02*
X0043749Y0062550D01*
X0043750Y0060951D02*
X0013313Y0060951D01*
X0013313Y0059353D02*
X0043751Y0059353D01*
X0043752Y0057754D02*
X0013312Y0057754D01*
X0013312Y0056156D02*
X0043753Y0056156D01*
X0043754Y0054557D02*
X0013312Y0054557D01*
X0013312Y0052959D02*
X0040236Y0052959D01*
X0036539Y0051360D02*
X0013311Y0051360D01*
X0013311Y0049761D02*
X0032842Y0049761D01*
X0029145Y0048163D02*
X0013311Y0048163D01*
X0013311Y0046564D02*
X0025448Y0046564D01*
X0021751Y0044966D02*
X0013310Y0044966D01*
X0013310Y0043367D02*
X0018054Y0043367D01*
X0014357Y0041769D02*
X0013310Y0041769D01*
X0013427Y0137680D02*
X0040833Y0137680D01*
X0036650Y0139278D02*
X0013425Y0139278D01*
X0013423Y0140877D02*
X0032467Y0140877D01*
X0028284Y0142475D02*
X0013421Y0142475D01*
X0013419Y0144074D02*
X0024101Y0144074D01*
X0019918Y0145672D02*
X0013417Y0145672D01*
X0013367Y0147271D02*
X0015735Y0147271D01*
X0264020Y0136661D02*
X0264097Y0109925D01*
X0293216Y0100524D01*
X0293062Y0148835D01*
X0293139Y0148912D01*
X0264020Y0136661D01*
X0264021Y0136081D02*
X0293103Y0136081D01*
X0293108Y0134483D02*
X0264026Y0134483D01*
X0264030Y0132884D02*
X0293113Y0132884D01*
X0293118Y0131286D02*
X0264035Y0131286D01*
X0264040Y0129687D02*
X0293123Y0129687D01*
X0293129Y0128089D02*
X0264044Y0128089D01*
X0264049Y0126490D02*
X0293134Y0126490D01*
X0293139Y0124892D02*
X0264053Y0124892D01*
X0264058Y0123293D02*
X0293144Y0123293D01*
X0293149Y0121695D02*
X0264063Y0121695D01*
X0264067Y0120096D02*
X0293154Y0120096D01*
X0293159Y0118497D02*
X0264072Y0118497D01*
X0264076Y0116899D02*
X0293164Y0116899D01*
X0293169Y0115300D02*
X0264081Y0115300D01*
X0264086Y0113702D02*
X0293174Y0113702D01*
X0293179Y0112103D02*
X0264090Y0112103D01*
X0264095Y0110505D02*
X0293185Y0110505D01*
X0293190Y0108906D02*
X0267251Y0108906D01*
X0272202Y0107308D02*
X0293195Y0107308D01*
X0293200Y0105709D02*
X0277154Y0105709D01*
X0282106Y0104111D02*
X0293205Y0104111D01*
X0293210Y0102512D02*
X0287058Y0102512D01*
X0292010Y0100914D02*
X0293215Y0100914D01*
X0293216Y0090893D02*
X0293139Y0090816D01*
X0293062Y0041273D01*
X0264097Y0053370D01*
X0264174Y0081185D01*
X0293216Y0090893D01*
X0293138Y0089724D02*
X0289720Y0089724D01*
X0293135Y0088126D02*
X0284937Y0088126D01*
X0280155Y0086527D02*
X0293133Y0086527D01*
X0293130Y0084929D02*
X0275373Y0084929D01*
X0270591Y0083330D02*
X0293128Y0083330D01*
X0293125Y0081732D02*
X0265809Y0081732D01*
X0264171Y0080133D02*
X0293123Y0080133D01*
X0293120Y0078535D02*
X0264166Y0078535D01*
X0264162Y0076936D02*
X0293118Y0076936D01*
X0293115Y0075338D02*
X0264157Y0075338D01*
X0264153Y0073739D02*
X0293113Y0073739D01*
X0293110Y0072141D02*
X0264149Y0072141D01*
X0264144Y0070542D02*
X0293108Y0070542D01*
X0293105Y0068944D02*
X0264140Y0068944D01*
X0264135Y0067345D02*
X0293103Y0067345D01*
X0293100Y0065747D02*
X0264131Y0065747D01*
X0264126Y0064148D02*
X0293098Y0064148D01*
X0293095Y0062550D02*
X0264122Y0062550D01*
X0264118Y0060951D02*
X0293093Y0060951D01*
X0293090Y0059353D02*
X0264113Y0059353D01*
X0264109Y0057754D02*
X0293088Y0057754D01*
X0293085Y0056156D02*
X0264104Y0056156D01*
X0264100Y0054557D02*
X0293083Y0054557D01*
X0293080Y0052959D02*
X0265082Y0052959D01*
X0268909Y0051360D02*
X0293078Y0051360D01*
X0293076Y0049761D02*
X0272737Y0049761D01*
X0276564Y0048163D02*
X0293073Y0048163D01*
X0293071Y0046564D02*
X0280392Y0046564D01*
X0284220Y0044966D02*
X0293068Y0044966D01*
X0293066Y0043367D02*
X0288047Y0043367D01*
X0291875Y0041769D02*
X0293063Y0041769D01*
X0293098Y0137680D02*
X0266441Y0137680D01*
X0270241Y0139278D02*
X0293093Y0139278D01*
X0293088Y0140877D02*
X0274040Y0140877D01*
X0277840Y0142475D02*
X0293083Y0142475D01*
X0293078Y0144074D02*
X0281639Y0144074D01*
X0285439Y0145672D02*
X0293072Y0145672D01*
X0293067Y0147271D02*
X0289239Y0147271D01*
X0293038Y0148869D02*
X0293097Y0148869D01*
D12*
G36*
X0083651Y0099177D02*
X0083702Y0104976D01*
X0092611Y0104899D01*
X0092560Y0099100D01*
X0083651Y0099177D01*
G37*
G36*
X0083531Y0085358D02*
X0083582Y0091157D01*
X0092491Y0091080D01*
X0092440Y0085281D01*
X0083531Y0085358D01*
G37*
D13*
G36*
X0059987Y0169208D02*
X0065509Y0169266D01*
X0065575Y0162956D01*
X0060053Y0162898D01*
X0059987Y0169208D01*
G37*
G36*
X0048177Y0169085D02*
X0053699Y0169143D01*
X0053765Y0162833D01*
X0048243Y0162775D01*
X0048177Y0169085D01*
G37*
G36*
X0244711Y0162342D02*
X0239189Y0162265D01*
X0239101Y0168576D01*
X0244623Y0168653D01*
X0244711Y0162342D01*
G37*
G36*
X0256520Y0162507D02*
X0250998Y0162430D01*
X0250910Y0168741D01*
X0256432Y0168818D01*
X0256520Y0162507D01*
G37*
D14*
G36*
X0219550Y0103331D02*
X0219391Y0099385D01*
X0215054Y0099559D01*
X0215213Y0103505D01*
X0219550Y0103331D01*
G37*
G36*
X0211139Y0099926D02*
X0210980Y0095980D01*
X0206643Y0096154D01*
X0206802Y0100100D01*
X0211139Y0099926D01*
G37*
G36*
X0219250Y0095857D02*
X0219091Y0091911D01*
X0214754Y0092085D01*
X0214913Y0096031D01*
X0219250Y0095857D01*
G37*
D15*
G36*
X0164030Y0138685D02*
X0169468Y0141016D01*
X0172264Y0134493D01*
X0166826Y0132162D01*
X0164030Y0138685D01*
G37*
G36*
X0170906Y0141632D02*
X0176344Y0143963D01*
X0179140Y0137440D01*
X0173702Y0135109D01*
X0170906Y0141632D01*
G37*
G36*
X0135233Y0142771D02*
X0140667Y0140431D01*
X0137859Y0133913D01*
X0132425Y0136253D01*
X0135233Y0142771D01*
G37*
G36*
X0128363Y0145730D02*
X0133797Y0143390D01*
X0130989Y0136872D01*
X0125555Y0139212D01*
X0128363Y0145730D01*
G37*
D16*
X0141305Y0110616D03*
X0141305Y0105616D03*
X0141305Y0100616D03*
X0141305Y0095616D03*
X0141305Y0090616D03*
X0141305Y0085616D03*
X0141305Y0080616D03*
X0163352Y0080616D03*
X0163352Y0085616D03*
X0163352Y0090616D03*
X0163352Y0095616D03*
X0163352Y0100616D03*
X0163352Y0105616D03*
X0163352Y0110616D03*
D17*
X0276631Y0125207D03*
X0277113Y0068760D03*
X0029744Y0066680D03*
X0029449Y0124296D03*
D18*
X0029561Y0100415D03*
X0029561Y0092541D03*
X0276268Y0091703D03*
X0276268Y0099577D03*
D19*
X0247363Y0113776D03*
X0200142Y0097702D03*
X0191048Y0097912D03*
X0154491Y0080661D03*
X0148296Y0085876D03*
X0152483Y0073329D03*
X0119323Y0084194D03*
X0088034Y0081247D03*
X0152287Y0118023D03*
X0162765Y0042965D03*
M02*
