G04 Pdf2Gerb 1.6L: Top Copper at Sat Apr  1 21:06:43 2017 *
%FSLAX24Y24*%
%IPPOS*%
G70*
%MOIN*%
%ADD10C,0.03500*%
%ADD11C,0.01000*%
%ADD12C,0.03100*%
%ADD13C,0.00800*%
G01*
G54D10*
G54D10*
X019705Y016348D03*
G54D11*
X039571Y055738D02*
X039671Y055738D01*
X039771Y055737D01*
X039871Y055736D01*
X039971Y055734D01*
X040071Y055732D01*
X040171Y055729D01*
X040270Y055726D01*
X040370Y055722D01*
X040470Y055717D01*
X040570Y055713D01*
X040670Y055707D01*
X040770Y055701D01*
X040870Y055695D01*
X040969Y055688D01*
X041069Y055681D01*
X041169Y055673D01*
X041268Y055664D01*
X041368Y055656D01*
X041468Y055646D01*
X041567Y055636D01*
X041667Y055626D01*
X041766Y055615D01*
X041865Y055603D01*
X041965Y055592D01*
X042064Y055579D01*
X042163Y055566D01*
X042262Y055553D01*
X042361Y055539D01*
X042460Y055524D01*
X042559Y055509D01*
X042658Y055494D01*
X042756Y055478D01*
X042855Y055461D01*
X042954Y055444D01*
X043052Y055427D01*
X043150Y055409D01*
X043249Y055390D01*
X043347Y055371D01*
X043445Y055352D01*
X043543Y055332D01*
X043641Y055311D01*
X043739Y055291D01*
X043836Y055269D01*
X043934Y055247D01*
X044031Y055225D01*
X044129Y055202D01*
X044226Y055178D01*
X044323Y055154D01*
X044420Y055130D01*
X044517Y055105D01*
X044613Y055079D01*
X044710Y055053D01*
X044806Y055027D01*
X044903Y055000D01*
X044999Y054973D01*
X045095Y054945D01*
X045191Y054916D01*
X045287Y054888D01*
X045382Y054858D01*
X045478Y054828D01*
X045573Y054798D01*
X045668Y054767D01*
X045763Y054736D01*
X045858Y054704D01*
X045953Y054672D01*
X046047Y054639D01*
X046141Y054606D01*
X046235Y054572D01*
X046329Y054538D01*
X046423Y054503D01*
X046517Y054468D01*
X046610Y054433D01*
X046704Y054397D01*
X046797Y054360D01*
X046890Y054323D01*
X046982Y054285D01*
X047075Y054247D01*
X047167Y054209D01*
X047259Y054170D01*
X047351Y054131D01*
X047443Y054091D01*
X047534Y054050D01*
X047626Y054010D01*
X047717Y053968D01*
X047808Y053927D01*
X047898Y053885D01*
X047989Y053842D01*
X048079Y053799D01*
X048169Y053755D01*
X048259Y053711D01*
X048348Y053667D01*
X048438Y053622D01*
X048527Y053576D01*
X048616Y053531D01*
X048704Y053484D01*
X048793Y053438D01*
X048881Y053390D01*
X048969Y053343D01*
X049056Y053295D01*
X049144Y053246D01*
X049231Y053197D01*
X049318Y053148D01*
X049405Y053098D01*
X049491Y053048D01*
X049577Y052997D01*
X049663Y052946D01*
X049749Y052894D01*
X049834Y052842D01*
X049919Y052789D01*
X050004Y052737D01*
X050089Y052683D01*
X050173Y052629D01*
X050257Y052575D01*
X050341Y052521D01*
X050424Y052465D01*
X050508Y052410D01*
X050590Y052354D01*
X050673Y052298D01*
X050755Y052241D01*
X050837Y052184D01*
X050919Y052126D01*
X051001Y052068D01*
X051082Y052010D01*
X051163Y051951D01*
X051243Y051892D01*
X051323Y051832D01*
X051403Y051772D01*
X051483Y051712D01*
X051562Y051651D01*
X051641Y051589D01*
X051720Y051528D01*
X051799Y051466D01*
X051877Y051403D01*
X051954Y051340D01*
X052032Y051277D01*
X052109Y051213D01*
X052186Y051149D01*
X052262Y051085D01*
X052338Y051020D01*
X052414Y050955D01*
X052490Y050889D01*
X052565Y050823D01*
X052640Y050757D01*
X052714Y050690D01*
X052788Y050623D01*
X052862Y050555D01*
X052935Y050488D01*
X053008Y050419D01*
X053081Y050351D01*
X053154Y050282D01*
X053226Y050212D01*
X053297Y050143D01*
X053369Y050073D01*
X053440Y050002D01*
X053510Y049931D01*
X053580Y049860D01*
X053650Y049789D01*
X053720Y049717D01*
X053789Y049644D01*
X053858Y049572D01*
X053926Y049499D01*
X053994Y049426D01*
X054062Y049352D01*
X054129Y049278D01*
X054196Y049204D01*
X054263Y049129D01*
X054329Y049054D01*
X054395Y048979D01*
X054460Y048903D01*
X054525Y048827D01*
X054590Y048751D01*
X054654Y048674D01*
X054718Y048597D01*
X054781Y048520D01*
X054844Y048442D01*
X054907Y048364D01*
X054969Y048286D01*
X055031Y048207D01*
X055092Y048129D01*
X055153Y048049D01*
X055214Y047970D01*
X055274Y047890D01*
X055334Y047810D01*
X055393Y047729D01*
X055452Y047649D01*
X055511Y047568D01*
X055569Y047486D01*
X055627Y047405D01*
X055684Y047323D01*
X055741Y047241D01*
X055798Y047158D01*
X055854Y047075D01*
X055910Y046992D01*
X055965Y046909D01*
X056020Y046825D01*
X056074Y046741D01*
X056128Y046657D01*
X056181Y046573D01*
X056235Y046488D01*
X056287Y046403D01*
X056340Y046318D01*
X056391Y046232D01*
X056443Y046146D01*
X056494Y046060D01*
X056544Y045974D01*
X056594Y045887D01*
X056644Y045801D01*
X056693Y045713D01*
X056742Y045626D01*
X056790Y045539D01*
X056838Y045451D01*
X056885Y045363D01*
X056932Y045274D01*
X056979Y045186D01*
X057025Y045097D01*
X057070Y045008D01*
X057115Y044919D01*
X057160Y044829D01*
X057204Y044740D01*
X057248Y044650D01*
X057291Y044560D01*
X057334Y044469D01*
X057376Y044379D01*
X057418Y044288D01*
X057460Y044197D01*
X057501Y044106D01*
X057541Y044014D01*
X057581Y043923D01*
X057621Y043831D01*
X057660Y043739D01*
X057699Y043647D01*
X057737Y043554D01*
X057775Y043461D01*
X057812Y043369D01*
X057849Y043276D01*
X057885Y043182D01*
X057921Y043089D01*
X057956Y042996D01*
X057991Y042902D01*
X058025Y042808D01*
X058059Y042714D01*
X058093Y042620D01*
X058126Y042525D01*
X058158Y042431D01*
X058190Y042336D01*
X058222Y042241D01*
X058253Y042146D01*
X058283Y042051D01*
X058313Y041955D01*
X058343Y041860D01*
X058372Y041764D01*
X058400Y041668D01*
X058429Y041572D01*
X058456Y041476D01*
X058483Y041380D01*
X058510Y041284D01*
X058536Y041187D01*
X058562Y041090D01*
X058587Y040994D01*
X058612Y040897D01*
X058636Y040800D01*
X058659Y040702D01*
X058683Y040605D01*
X058705Y040508D01*
X058727Y040410D01*
X058749Y040313D01*
X058770Y040215D01*
X058791Y040117D01*
X058811Y040019D01*
X058831Y039921D01*
X058850Y039823D01*
X058869Y039725D01*
X058887Y039626D01*
X058905Y039528D01*
X058922Y039430D01*
X058939Y039331D01*
X058955Y039232D01*
X058970Y039133D01*
X058986Y039035D01*
X059000Y038936D01*
X059014Y038837D01*
X059028Y038738D01*
X059041Y038639D01*
X059054Y038539D01*
X059066Y038440D01*
X059078Y038341D01*
X059089Y038241D01*
X059100Y038142D01*
X059110Y038042D01*
X059119Y037943D01*
X059128Y037843D01*
X059137Y037744D01*
X059145Y037644D01*
X059153Y037544D01*
X059160Y037445D01*
X059166Y037345D01*
X059172Y037245D01*
X059178Y037145D01*
X059183Y037045D01*
X059188Y036945D01*
X059192Y036845D01*
X059195Y036746D01*
X059198Y036646D01*
X059201Y036546D01*
X059203Y036446D01*
X059204Y036346D01*
X059205Y036246D01*
X059206Y036146D01*
X059206Y036046D01*
X059205Y035946D01*
X059204Y035846D01*
X059202Y035746D01*
X059200Y035646D01*
X059198Y035546D01*
X059195Y035446D01*
X059191Y035346D01*
X059187Y035246D01*
X059182Y035146D01*
X059177Y035046D01*
X059172Y034946D01*
X059165Y034846D01*
X059159Y034747D01*
X059152Y034647D01*
X059144Y034547D01*
X059136Y034448D01*
X059127Y034348D01*
X059118Y034248D01*
X059108Y034149D01*
X059098Y034049D01*
X059087Y033950D01*
X059076Y033851D01*
X059064Y033751D01*
X059052Y033652D01*
X059039Y033553D01*
X059026Y033454D01*
X059012Y033355D01*
X058998Y033256D01*
X058983Y033157D01*
X058968Y033058D01*
X058952Y032959D01*
X058936Y032861D01*
X058919Y032762D01*
X058902Y032663D01*
X058884Y032565D01*
X058866Y032467D01*
X058847Y032369D01*
X058828Y032270D01*
X058808Y032172D01*
X058788Y032074D01*
X058767Y031977D01*
X058746Y031879D01*
X058724Y031781D01*
X058702Y031684D01*
X058679Y031586D01*
X058656Y031489D01*
X058632Y031392D01*
X058608Y031295D01*
X058583Y031198D01*
X058558Y031101D01*
X058532Y031005D01*
X058506Y030908D01*
X058479Y030812D01*
X058452Y030716D01*
X058424Y030620D01*
X058396Y030524D01*
X058368Y030428D01*
X058338Y030332D01*
X058309Y030237D01*
X058279Y030141D01*
X058248Y030046D01*
X058217Y029951D01*
X058185Y029856D01*
X058153Y029761D01*
X058121Y029667D01*
X058088Y029572D01*
X058054Y029478D01*
X058020Y029384D01*
X057986Y029290D01*
X057951Y029197D01*
X057916Y029103D01*
X057880Y029010D01*
X057843Y028917D01*
X057806Y028824D01*
X057769Y028731D01*
X057731Y028638D01*
X057693Y028546D01*
X057654Y028454D01*
X057615Y028362D01*
X057576Y028270D01*
X057535Y028178D01*
X057495Y028087D01*
X057454Y027996D01*
X057412Y027905D01*
X057370Y027814D01*
X057328Y027723D01*
X057285Y027633D01*
X057242Y027543D01*
X057198Y027453D01*
X057153Y027363D01*
X057109Y027274D01*
X057064Y027185D01*
X057018Y027096D01*
X056972Y027007D01*
X056925Y026919D01*
X056878Y026830D01*
X056831Y026742D01*
X056783Y026654D01*
X056735Y026567D01*
X056686Y026480D01*
X056637Y026393D01*
X056587Y026306D01*
X056537Y026219D01*
X056486Y026133D01*
X056435Y026047D01*
X056384Y025961D01*
X056332Y025876D01*
X056280Y025791D01*
X056227Y025706D01*
X056174Y025621D01*
X056120Y025536D01*
X056066Y025452D01*
X056012Y025368D01*
X055957Y025285D01*
X055901Y025202D01*
X055846Y025118D01*
X055790Y025036D01*
X055733Y024953D01*
X055676Y024871D01*
X055619Y024789D01*
X055561Y024708D01*
X055502Y024626D01*
X055444Y024545D01*
X055385Y024465D01*
X055325Y024384D01*
X055265Y024304D01*
X055205Y024224D01*
X055144Y024145D01*
X055083Y024066D01*
X055022Y023987D01*
X054960Y023908D01*
X054898Y023830D01*
X054835Y023752D01*
X054772Y023675D01*
X054708Y023597D01*
X054644Y023521D01*
X054580Y023444D01*
X054515Y023368D01*
X054450Y023292D01*
X054385Y023216D01*
X054319Y023141D01*
X054253Y023066D01*
X054186Y022991D01*
X054119Y022917D01*
X054052Y022843D01*
X053984Y022769D01*
X053916Y022696D01*
X053848Y022623D01*
X053779Y022551D01*
X053710Y022479D01*
X053640Y022407D01*
X053570Y022335D01*
X053500Y022264D01*
X053429Y022193D01*
X053358Y022123D01*
X053287Y022053D01*
X053215Y021983D01*
X053143Y021914D01*
X053071Y021845D01*
X052998Y021777D01*
X052925Y021708D01*
X052851Y021640D01*
X052777Y021573D01*
X052703Y021506D01*
X052629Y021439D01*
X052554Y021373D01*
X052479Y021307D01*
X052403Y021241D01*
X052327Y021176D01*
X052251Y021112D01*
X052175Y021047D01*
X052098Y020983D01*
X052021Y020920D01*
X051943Y020856D01*
X051865Y020794D01*
X051787Y020731D01*
X051709Y020669D01*
X051630Y020607D01*
X051551Y020546D01*
X051471Y020485D01*
X051392Y020425D01*
X051312Y020365D01*
X051231Y020305D01*
X051151Y020246D01*
X051070Y020187D01*
X050989Y020129D01*
X050907Y020071D01*
X050825Y020014D01*
X050743Y019957D01*
X050661Y019900D01*
X050578Y019844D01*
X050495Y019788D01*
X050412Y019732D01*
X050329Y019677D01*
X050245Y019623D01*
X050161Y019569D01*
X050076Y019515D01*
X049992Y019462D01*
X049907Y019409D01*
X049822Y019356D01*
X049736Y019304D01*
X049651Y019253D01*
X049565Y019202D01*
X049478Y019151D01*
X049392Y019101D01*
X049305Y019051D01*
X049218Y019002D01*
X049131Y018953D01*
X049044Y018904D01*
X048956Y018856D01*
X048868Y018809D01*
X048780Y018761D01*
X048691Y018715D01*
X048603Y018669D01*
X048514Y018623D01*
X048425Y018577D01*
X048335Y018533D01*
X048246Y018488D01*
X048156Y018444D01*
X048066Y018401D01*
X047976Y018358D01*
X047885Y018315D01*
X047794Y018273D01*
X047703Y018231D01*
X047612Y018190D01*
X047521Y018149D01*
X047429Y018109D01*
X047338Y018069D01*
X047246Y018030D01*
X047154Y017991D01*
X047061Y017953D01*
X046969Y017915D01*
X046876Y017877D01*
X046783Y017841D01*
X046690Y017804D01*
X046597Y017768D01*
X046503Y017732D01*
X046410Y017697D01*
X046316Y017663D01*
X046222Y017629D01*
X046128Y017595D01*
X046033Y017562D01*
X045939Y017529D01*
X045844Y017497D01*
X045749Y017465D01*
X045654Y017434D01*
X045559Y017403D01*
X045464Y017373D01*
X045368Y017343D01*
X045273Y017314D01*
X045177Y017285D01*
X045081Y017257D01*
X044985Y017229D01*
X044889Y017202D01*
X044792Y017175D01*
X044696Y017149D01*
X044599Y017123D01*
X044503Y017097D01*
X044406Y017072D01*
X044309Y017048D01*
X044212Y017024D01*
X044114Y017001D01*
X044017Y016978D01*
X043920Y016956D01*
X043822Y016934D01*
X043724Y016912D01*
X043627Y016891D01*
X043529Y016871D01*
X043431Y016851D01*
X043333Y016832D01*
X043234Y016813D01*
X043136Y016794D01*
X043038Y016776D01*
X042939Y016759D01*
X042841Y016742D01*
X042742Y016726D01*
X042643Y016710D01*
X042545Y016694D01*
X042446Y016679D01*
X042347Y016665D01*
X042248Y016651D01*
X042149Y016638D01*
X042049Y016625D01*
X041950Y016613D01*
X041851Y016601D01*
X041751Y016589D01*
X041652Y016578D01*
X041553Y016568D01*
X041453Y016558D01*
X041354Y016549D01*
X041254Y016540D01*
X041154Y016532D01*
X041055Y016524D01*
X040955Y016517D01*
X040855Y016510D01*
X040755Y016504D01*
X040655Y016498D01*
X040556Y016493D01*
X040456Y016488D01*
X040356Y016484D01*
X040256Y016480D01*
X040156Y016477D01*
X040056Y016474D01*
X039956Y016472D01*
X039856Y016470D01*
X039756Y016469D01*
X039656Y016468D01*
X039556Y016468D01*
X039456Y016468D01*
X039356Y016469D01*
X039256Y016470D01*
X039156Y016472D01*
X039056Y016475D01*
X038956Y016477D01*
X038856Y016481D01*
X038756Y016485D01*
X038656Y016489D01*
X038556Y016494D01*
X038457Y016499D01*
X038357Y016505D01*
X038257Y016512D01*
X038157Y016519D01*
X038058Y016526D01*
X037958Y016534D01*
X037858Y016543D01*
X037759Y016552D01*
X037659Y016561D01*
X037560Y016571D01*
X037460Y016582D01*
X037361Y016593D01*
X037261Y016604D01*
X037162Y016616D01*
X037063Y016629D01*
X036964Y016642D01*
X036865Y016655D01*
X036766Y016669D01*
X036667Y016684D01*
X036568Y016699D01*
X036469Y016714D01*
X036370Y016730D01*
X036272Y016747D01*
X036173Y016764D01*
X036075Y016782D01*
X035976Y016800D01*
X035878Y016818D01*
X035780Y016837D01*
X035682Y016857D01*
X035584Y016877D01*
X035486Y016897D01*
X035388Y016918D01*
X035291Y016940D01*
X035193Y016962D01*
X035096Y016985D01*
X034998Y017008D01*
X034901Y017031D01*
X034804Y017055D01*
X034707Y017080D01*
X034610Y017105D01*
X034514Y017130D01*
X034417Y017156D01*
X034321Y017183D01*
X034224Y017210D01*
X034128Y017237D01*
X034032Y017265D01*
X033936Y017294D01*
X033841Y017323D01*
X033745Y017352D01*
X033650Y017382D01*
X033554Y017412D01*
X033459Y017443D01*
X033364Y017475D01*
X033269Y017506D01*
X033175Y017539D01*
X033080Y017572D01*
X032986Y017605D01*
X032892Y017639D01*
X032798Y017673D01*
X032704Y017708D01*
X032611Y017743D01*
X032517Y017778D01*
X032424Y017815D01*
X032331Y017851D01*
X032238Y017888D01*
X032145Y017926D01*
X032053Y017964D01*
X031961Y018003D01*
X031869Y018042D01*
X031777Y018081D01*
X031685Y018121D01*
X031594Y018161D01*
X031502Y018202D01*
X031411Y018243D01*
X031320Y018285D01*
X031230Y018328D01*
X031139Y018370D01*
X031049Y018413D01*
X030959Y018457D01*
X030869Y018501D01*
X030780Y018546D01*
X030691Y018591D01*
X030601Y018636D01*
X030513Y018682D01*
X030424Y018728D01*
X030336Y018775D01*
X030248Y018822D01*
X030160Y018870D01*
X030072Y018918D01*
X029985Y018967D01*
X029897Y019016D01*
X029811Y019065D01*
X029724Y019115D01*
X029638Y019166D01*
X029551Y019217D01*
X029466Y019268D01*
X029380Y019319D01*
X029295Y019372D01*
X029209Y019424D01*
X029125Y019477D01*
X029040Y019531D01*
X028956Y019584D01*
X028872Y019639D01*
X028788Y019693D01*
X028705Y019748D01*
X028622Y019804D01*
X028539Y019860D01*
X028456Y019916D01*
X028374Y019973D01*
X028292Y020030D01*
X028210Y020088D01*
X028129Y020146D01*
X028048Y020205D01*
X027967Y020264D01*
X027886Y020323D01*
X027806Y020383D01*
X027726Y020443D01*
X027647Y020503D01*
X027567Y020564D01*
X027488Y020625D01*
X027410Y020687D01*
X027331Y020749D01*
X027253Y020812D01*
X027175Y020875D01*
X027098Y020938D01*
X027021Y021002D01*
X026944Y021066D01*
X026868Y021130D01*
X026792Y021195D01*
X026716Y021261D01*
X026641Y021326D01*
X026565Y021392D01*
X026491Y021459D01*
X026416Y021526D01*
X026342Y021593D01*
X026269Y021660D01*
X026195Y021728D01*
X026122Y021797D01*
X026049Y021865D01*
X025977Y021934D01*
X025905Y022004D01*
X025833Y022073D01*
X025762Y022144D01*
X025691Y022214D01*
X025621Y022285D01*
X025551Y022356D01*
X025481Y022428D01*
X025411Y022500D01*
X025342Y022572D01*
X025273Y022645D01*
X025205Y022718D01*
X025137Y022791D01*
X025069Y022865D01*
X025002Y022939D01*
X024935Y023013D01*
X024869Y023088D01*
X024803Y023163D01*
X024737Y023238D01*
X024672Y023314D01*
X024607Y023390D01*
X024542Y023466D01*
X024478Y023543D01*
X024414Y023620D01*
X024351Y023697D01*
X024288Y023775D01*
X024225Y023853D01*
X024163Y023931D01*
X024101Y024010D01*
X024040Y024089D01*
X023979Y024168D01*
X023918Y024248D01*
X023858Y024328D01*
X023799Y024408D01*
X023739Y024488D01*
X023680Y024569D01*
X023622Y024650D01*
X023564Y024731D01*
X023506Y024813D01*
X023449Y024895D01*
X023392Y024977D01*
X023335Y025060D01*
X023279Y025143D01*
X023224Y025226D01*
X023168Y025309D01*
X023114Y025393D01*
X023059Y025477D01*
X023005Y025561D01*
X022952Y025646D01*
X022899Y025730D01*
X022846Y025815D01*
X022794Y025901D01*
X022742Y025986D01*
X022691Y026072D01*
X022640Y026158D01*
X022590Y026245D01*
X022540Y026331D01*
X022490Y026418D01*
X022441Y026505D01*
X022392Y026593D01*
X022344Y026680D01*
X022297Y026768D01*
X022249Y026856D01*
X022202Y026944D01*
X022156Y027033D01*
X022110Y027122D01*
X022064Y027211D01*
X022019Y027300D01*
X021975Y027390D01*
X021931Y027479D01*
X021887Y027569D01*
X021844Y027659D01*
X021801Y027750D01*
X021759Y027840D01*
X021717Y027931D01*
X021675Y028022D01*
X021634Y028114D01*
X021594Y028205D01*
X021554Y028297D01*
X021514Y028389D01*
X021475Y028481D01*
X021437Y028573D01*
X021399Y028665D01*
X021361Y028758D01*
X021324Y028851D01*
X021287Y028944D01*
X021251Y029037D01*
X021215Y029130D01*
X021180Y029224D01*
X021145Y029318D01*
X021111Y029412D01*
X021077Y029506D01*
X021044Y029600D01*
X021011Y029694D01*
X020978Y029789D01*
X020946Y029884D01*
X020915Y029979D01*
X020884Y030074D01*
X020854Y030169D01*
X020824Y030264D01*
X020794Y030360D01*
X020765Y030456D01*
X020737Y030552D01*
X020709Y030648D01*
X020681Y030744D01*
X020654Y030840D01*
X020627Y030936D01*
X020601Y031033D01*
X020576Y031130D01*
X020551Y031226D01*
X020526Y031323D01*
X020502Y031420D01*
X020478Y031518D01*
X020455Y031615D01*
X020433Y031712D01*
X020411Y031810D01*
X020389Y031907D01*
X020368Y032005D01*
X020347Y032103D01*
X020327Y032201D01*
X020308Y032299D01*
X020288Y032397D01*
X020270Y032495D01*
X020252Y032594D01*
X020234Y032692D01*
X020217Y032791D01*
X020200Y032889D01*
X020184Y032988D01*
X020169Y033087D01*
X020153Y033186D01*
X020139Y033285D01*
X020125Y033384D01*
X020111Y033483D01*
X020098Y033582D01*
X020085Y033681D01*
X020073Y033780D01*
X020062Y033880D01*
X020051Y033979D01*
X020040Y034078D01*
X020030Y034178D01*
X020021Y034277D01*
X020012Y034377D01*
X020003Y034477D01*
X019995Y034576D01*
X019987Y034676D01*
X019980Y034776D01*
X019974Y034876D01*
X019968Y034975D01*
X019962Y035075D01*
X019957Y035175D01*
X019953Y035275D01*
X019949Y035375D01*
X019946Y035475D01*
X019943Y035575D01*
X019940Y035675D01*
X019938Y035775D01*
X019937Y035875D01*
X019936Y035975D01*
X019936Y036075D01*
X019936Y036175D01*
X019936Y036275D01*
X019937Y036375D01*
X019939Y036475D01*
X019941Y036575D01*
X019944Y036675D01*
X019947Y036775D01*
X019951Y036875D01*
X019955Y036975D01*
X019960Y037074D01*
X019965Y037174D01*
X019971Y037274D01*
X019977Y037374D01*
X019983Y037474D01*
X019991Y037573D01*
X019998Y037673D01*
X020007Y037773D01*
X020015Y037872D01*
X020025Y037972D01*
X020034Y038072D01*
X020045Y038171D01*
X020056Y038270D01*
X020067Y038370D01*
X020079Y038469D01*
X020091Y038568D01*
X020104Y038667D01*
X020117Y038767D01*
X020131Y038866D01*
X020145Y038965D01*
X020160Y039064D01*
X020175Y039162D01*
X020191Y039261D01*
X020208Y039360D01*
X020224Y039458D01*
X020242Y039557D01*
X020260Y039655D01*
X020278Y039753D01*
X020297Y039852D01*
X020316Y039950D01*
X020336Y040048D01*
X020356Y040146D01*
X020377Y040244D01*
X020398Y040341D01*
X020420Y040439D01*
X020443Y040536D01*
X020465Y040634D01*
X020489Y040731D01*
X020513Y040828D01*
X020537Y040925D01*
X020562Y041022D01*
X020587Y041119D01*
X020613Y041215D01*
X020639Y041312D01*
X020666Y041408D01*
X020693Y041504D01*
X020721Y041600D01*
X020749Y041696D01*
X020778Y041792D01*
X020807Y041888D01*
X020837Y041983D01*
X020867Y042079D01*
X020898Y042174D01*
X020929Y042269D01*
X020960Y042364D01*
X020993Y042458D01*
X021025Y042553D01*
X021058Y042647D01*
X021092Y042741D01*
X021126Y042835D01*
X021160Y042929D01*
X021195Y043023D01*
X021231Y043116D01*
X021267Y043210D01*
X021303Y043303D01*
X021340Y043396D01*
X021378Y043489D01*
X021415Y043581D01*
X021454Y043673D01*
X021492Y043766D01*
X021532Y043858D01*
X021571Y043949D01*
X021612Y044041D01*
X021652Y044132D01*
X021693Y044223D01*
X021735Y044314D01*
X021777Y044405D01*
X021820Y044496D01*
X021863Y044586D01*
X021906Y044676D01*
X021950Y044766D01*
X021994Y044856D01*
X022039Y044945D01*
X022084Y045034D01*
X022130Y045123D01*
X022176Y045212D01*
X022223Y045300D01*
X022270Y045388D01*
X022317Y045476D01*
X022365Y045564D01*
X022414Y045652D01*
X022463Y045739D01*
X022512Y045826D01*
X022562Y045913D01*
X022612Y045999D01*
X022662Y046085D01*
X022714Y046171D01*
X022765Y046257D01*
X022817Y046343D01*
X022869Y046428D01*
X022922Y046513D01*
X022975Y046597D01*
X023029Y046682D01*
X023083Y046766D01*
X023138Y046850D01*
X023193Y046933D01*
X023248Y047016D01*
X023304Y047099D01*
X023360Y047182D01*
X023417Y047265D01*
X023474Y047347D01*
X023531Y047429D01*
X023589Y047510D01*
X023647Y047591D01*
X023706Y047672D01*
X023765Y047753D01*
X023825Y047833D01*
X023885Y047913D01*
X023945Y047993D01*
X024006Y048072D01*
X024067Y048152D01*
X024128Y048230D01*
X024190Y048309D01*
X024253Y048387D01*
X024316Y048465D01*
X024379Y048542D01*
X024442Y048620D01*
X024506Y048697D01*
X024571Y048773D01*
X024635Y048849D01*
X024700Y048925D01*
X024766Y049001D01*
X024832Y049076D01*
X024898Y049151D01*
X024965Y049225D01*
X025032Y049300D01*
X025099Y049374D01*
X025167Y049447D01*
X025235Y049520D01*
X025303Y049593D01*
X025372Y049666D01*
X025442Y049738D01*
X025511Y049810D01*
X025581Y049881D01*
X025652Y049952D01*
X025722Y050023D01*
X025793Y050093D01*
X025865Y050163D01*
X025937Y050233D01*
X026009Y050302D01*
X026081Y050371D01*
X026154Y050439D01*
X026227Y050507D01*
X026301Y050575D01*
X026375Y050643D01*
X026449Y050710D01*
X026523Y050776D01*
X026598Y050843D01*
X026674Y050908D01*
X026749Y050974D01*
X026825Y051039D01*
X026901Y051104D01*
X026978Y051168D01*
X027055Y051232D01*
X027132Y051296D01*
X027210Y051359D01*
X027287Y051421D01*
X027366Y051484D01*
X027444Y051546D01*
X027523Y051607D01*
X027602Y051669D01*
X027681Y051729D01*
X027761Y051790D01*
X027841Y051850D01*
X027922Y051909D01*
X028002Y051968D01*
X028083Y052027D01*
X028164Y052085D01*
X028246Y052143D01*
X028328Y052201D01*
X028410Y052258D01*
X028492Y052314D01*
X028575Y052370D01*
X028658Y052426D01*
X028741Y052482D01*
X028825Y052537D01*
X028909Y052591D01*
X028993Y052645D01*
X029077Y052699D01*
X029162Y052752D01*
X029247Y052805D01*
X029332Y052857D01*
X029417Y052909D01*
X029503Y052961D01*
X029589Y053012D01*
X029675Y053062D01*
X029762Y053112D01*
X029849Y053162D01*
X029936Y053211D01*
X030023Y053260D01*
X030110Y053309D01*
X030198Y053357D01*
X030286Y053404D01*
X030374Y053451D01*
X030463Y053498D01*
X030552Y053544D01*
X030640Y053590D01*
X030730Y053635D01*
X030819Y053680D01*
X030909Y053724D01*
X030999Y053768D01*
X031089Y053811D01*
X031179Y053854D01*
X031269Y053897D01*
X031360Y053939D01*
X031451Y053981D01*
X031542Y054022D01*
X031634Y054062D01*
X031725Y054103D01*
X031817Y054142D01*
X031909Y054181D01*
X032001Y054220D01*
X032093Y054259D01*
X032186Y054296D01*
X032279Y054334D01*
X032372Y054371D01*
X032465Y054407D01*
X032558Y054443D01*
X032652Y054479D01*
X032745Y054514D01*
X032839Y054548D01*
X032933Y054582D01*
X033027Y054616D01*
X033122Y054649D01*
X033216Y054681D01*
X033311Y054714D01*
X033406Y054745D01*
X033501Y054776D01*
X033596Y054807D01*
X033691Y054837D01*
X033787Y054867D01*
X033883Y054896D01*
X033978Y054925D01*
X034074Y054953D01*
X034170Y054981D01*
X034267Y055008D01*
X034363Y055035D01*
X034459Y055061D01*
X034556Y055087D01*
X034653Y055112D01*
X034750Y055137D01*
X034847Y055161D01*
X034944Y055185D01*
X035041Y055208D01*
X035138Y055231D01*
X035236Y055254D01*
X035333Y055275D01*
X035431Y055297D01*
X035529Y055318D01*
X035627Y055338D01*
X035725Y055358D01*
X035823Y055377D01*
X035921Y055396D01*
X036019Y055414D01*
X036118Y055432D01*
X036216Y055449D01*
X036315Y055466D01*
X036414Y055483D01*
X036512Y055498D01*
X036611Y055514D01*
X036710Y055529D01*
X036809Y055543D01*
X036908Y055557D01*
X037007Y055570D01*
X037106Y055583D01*
X037206Y055595D01*
X037305Y055607D01*
X037404Y055618D01*
X037504Y055629D01*
X037603Y055639D01*
X037703Y055649D01*
X037802Y055658D01*
X037902Y055667D01*
X038002Y055675D01*
X038101Y055683D01*
X038201Y055690D01*
X038301Y055697D01*
X038401Y055703D01*
X038500Y055709D01*
X038600Y055714D01*
X038700Y055719D01*
X038800Y055723D01*
X038900Y055727D01*
X039000Y055730D01*
X039100Y055732D01*
X039200Y055734D01*
X039300Y055736D01*
X039400Y055737D01*
X039500Y055738D01*
X037693Y016558D02*
X041448D01*
X042223Y016648D02*
X036918D01*
X036326Y016738D02*
X042816D01*
X043313Y016828D02*
X035828D01*
X035391Y016918D02*
X043750D01*
X044144Y017008D02*
X034997D01*
X034637Y017098D02*
X044505D01*
X044839Y017188D02*
X034302D01*
X033989Y017278D02*
X045152D01*
X045447Y017368D02*
X033694D01*
X033415Y017458D02*
X045727D01*
X045993Y017548D02*
X033148D01*
X032894Y017638D02*
X046247D01*
X046491Y017728D02*
X032650D01*
X032416Y017818D02*
X046725D01*
X046951Y017908D02*
X032190D01*
X031972Y017998D02*
X047169D01*
X047380Y018088D02*
X031761D01*
X031556Y018178D02*
X047585D01*
X047783Y018268D02*
X031358D01*
X031165Y018358D02*
X047976D01*
X048163Y018448D02*
X030978D01*
X030795Y018538D02*
X048346D01*
X048524Y018628D02*
X030618D01*
X030444Y018718D02*
X048697D01*
X048867Y018808D02*
X030275D01*
X030109Y018898D02*
X049032D01*
X049194Y018988D02*
X029947D01*
X029789Y019078D02*
X049352D01*
X049507Y019168D02*
X029634D01*
X029482Y019258D02*
X049659D01*
X049808Y019348D02*
X029333D01*
X029187Y019438D02*
X049954D01*
X050097Y019528D02*
X029044D01*
X028904Y019618D02*
X050237D01*
X050375Y019708D02*
X028766D01*
X028631Y019798D02*
X050510D01*
X050643Y019888D02*
X028498D01*
X028367Y019978D02*
X050774D01*
X050903Y020068D02*
X028239D01*
X028112Y020158D02*
X051029D01*
X051153Y020248D02*
X027988D01*
X027866Y020338D02*
X051275D01*
X051396Y020428D02*
X027746D01*
X027627Y020518D02*
X051514D01*
X051630Y020608D02*
X027511D01*
X027396Y020698D02*
X051745D01*
X051858Y020788D02*
X027283D01*
X027172Y020878D02*
X051970D01*
X052079Y020968D02*
X027062D01*
X026954Y021058D02*
X052187D01*
X052294Y021148D02*
X026847D01*
X026742Y021238D02*
X052399D01*
X052502Y021328D02*
X026639D01*
X026537Y021418D02*
X052605D01*
X052705Y021508D02*
X026436D01*
X026337Y021598D02*
X052805D01*
X052903Y021688D02*
X026239D01*
X026142Y021778D02*
X052999D01*
X053095Y021868D02*
X026047D01*
X025952Y021958D02*
X053189D01*
X053282Y022048D02*
X025860D01*
X025768Y022138D02*
X053373D01*
X053464Y022228D02*
X025678D01*
X025588Y022318D02*
X053553D01*
X053641Y022408D02*
X025500D01*
X025413Y022498D02*
X053728D01*
X053814Y022588D02*
X025327D01*
X025242Y022678D02*
X053899D01*
X053983Y022768D02*
X025158D01*
X025076Y022858D02*
X054066D01*
X054147Y022948D02*
X024994D01*
X024913Y023038D02*
X054228D01*
X054308Y023128D02*
X024833D01*
X024755Y023218D02*
X054387D01*
X054464Y023308D02*
X024677D01*
X024600Y023398D02*
X054541D01*
X054617Y023488D02*
X024524D01*
X024449Y023578D02*
X054692D01*
X054766Y023668D02*
X024375D01*
X024302Y023758D02*
X054839D01*
X054912Y023848D02*
X024230D01*
X024158Y023938D02*
X054983D01*
X055054Y024028D02*
X024087D01*
X024018Y024118D02*
X055124D01*
X055192Y024208D02*
X023949D01*
X023881Y024298D02*
X055261D01*
X055328Y024388D02*
X023813D01*
X023747Y024478D02*
X055394D01*
X055460Y024568D02*
X023681D01*
X023616Y024658D02*
X055525D01*
X055589Y024748D02*
X023552D01*
X023489Y024838D02*
X055653D01*
X055715Y024928D02*
X023426D01*
X023364Y025018D02*
X055777D01*
X055839Y025108D02*
X023303D01*
X023242Y025198D02*
X055899D01*
X055959Y025288D02*
X023182D01*
X023123Y025378D02*
X056018D01*
X056076Y025468D02*
X023065D01*
X023007Y025558D02*
X056134D01*
X056191Y025648D02*
X022951D01*
X022894Y025738D02*
X056247D01*
X056303Y025828D02*
X022839D01*
X022784Y025918D02*
X056358D01*
X056412Y026008D02*
X022729D01*
X022676Y026098D02*
X056465D01*
X056518Y026188D02*
X022623D01*
X022570Y026278D02*
X056571D01*
X056622Y026368D02*
X022519D01*
X022468Y026458D02*
X056673D01*
X056724Y026548D02*
X022417D01*
X022367Y026638D02*
X056774D01*
X056823Y026728D02*
X022318D01*
X022270Y026818D02*
X056872D01*
X056920Y026908D02*
X022222D01*
X022174Y026998D02*
X056967D01*
X057014Y027088D02*
X022127D01*
X022081Y027178D02*
X057060D01*
X057106Y027268D02*
X022036D01*
X021991Y027358D02*
X057151D01*
X057195Y027448D02*
X021946D01*
X021902Y027538D02*
X057239D01*
X057282Y027628D02*
X021859D01*
X021816Y027718D02*
X057325D01*
X057367Y027808D02*
X021774D01*
X021732Y027898D02*
X057409D01*
X057450Y027988D02*
X021691D01*
X021650Y028078D02*
X057491D01*
X057531Y028168D02*
X021610D01*
X021571Y028258D02*
X057570D01*
X057609Y028348D02*
X021532D01*
X021493Y028438D02*
X057648D01*
X057686Y028528D02*
X021456D01*
X021418Y028618D02*
X057723D01*
X057760Y028708D02*
X021381D01*
X021345Y028798D02*
X057796D01*
X057832Y028888D02*
X021309D01*
X021274Y028978D02*
X057867D01*
X057902Y029068D02*
X021239D01*
X021205Y029158D02*
X057936D01*
X057970Y029248D02*
X021171D01*
X021138Y029338D02*
X058003D01*
X058036Y029428D02*
X021105D01*
X021073Y029518D02*
X058069D01*
X058100Y029608D02*
X021041D01*
X021010Y029698D02*
X058132D01*
X058162Y029788D02*
X020979D01*
X020948Y029878D02*
X058193D01*
X058223Y029968D02*
X020919D01*
X020889Y030058D02*
X058252D01*
X058281Y030148D02*
X020860D01*
X020832Y030238D02*
X058309D01*
X058337Y030328D02*
X020804D01*
X020777Y030418D02*
X058365D01*
X058392Y030508D02*
X020750D01*
X020723Y030598D02*
X058418D01*
X058444Y030688D02*
X020697D01*
X020671Y030778D02*
X058470D01*
X058495Y030868D02*
X020646D01*
X020622Y030958D02*
X058520D01*
X058544Y031048D02*
X020597D01*
X020574Y031138D02*
X058568D01*
X058591Y031228D02*
X020550D01*
X020528Y031318D02*
X058614D01*
X058636Y031408D02*
X020505D01*
X020483Y031498D02*
X058658D01*
X058680Y031588D02*
X020462D01*
X020441Y031678D02*
X058701D01*
X058721Y031768D02*
X020420D01*
X020400Y031858D02*
X058741D01*
X058761Y031948D02*
X020380D01*
X020361Y032038D02*
X058780D01*
X058799Y032128D02*
X020342D01*
X020324Y032218D02*
X058817D01*
X058835Y032308D02*
X020306D01*
X020288Y032398D02*
X058853D01*
X058870Y032488D02*
X020271D01*
X020255Y032578D02*
X058887D01*
X058903Y032668D02*
X020238D01*
X020223Y032758D02*
X058919D01*
X058934Y032848D02*
X020207D01*
X020192Y032938D02*
X058949D01*
X058963Y033028D02*
X020178D01*
X020164Y033118D02*
X058977D01*
X058991Y033208D02*
X020150D01*
X020137Y033298D02*
X059004D01*
X059017Y033388D02*
X020124D01*
X020112Y033478D02*
X059029D01*
X059041Y033568D02*
X020100D01*
X020088Y033658D02*
X059053D01*
X059064Y033748D02*
X020077D01*
X020067Y033838D02*
X059075D01*
X059085Y033928D02*
X020056D01*
X020047Y034018D02*
X059095D01*
X059104Y034108D02*
X020037D01*
X020028Y034198D02*
X059113D01*
X059122Y034288D02*
X020020D01*
X020011Y034378D02*
X059130D01*
X059137Y034468D02*
X020004D01*
X019996Y034558D02*
X059145D01*
X059152Y034648D02*
X019990D01*
X019983Y034738D02*
X059158D01*
X059164Y034828D02*
X019977D01*
X019971Y034918D02*
X059170D01*
X059175Y035008D02*
X019966D01*
X019961Y035098D02*
X059180D01*
X059184Y035188D02*
X019957D01*
X019953Y035278D02*
X059188D01*
X059192Y035368D02*
X019949D01*
X019946Y035458D02*
X059195D01*
X059198Y035548D02*
X019943D01*
X019941Y035638D02*
X059200D01*
X059202Y035728D02*
X019939D01*
X019938Y035818D02*
X059204D01*
X059205Y035908D02*
X019937D01*
X019936Y035998D02*
X059205D01*
X059206Y036088D02*
X019936D01*
X019936Y036178D02*
X059206D01*
X059205Y036268D02*
X019936D01*
X019937Y036358D02*
X059204D01*
X059203Y036448D02*
X019939D01*
X019940Y036538D02*
X059201D01*
X059199Y036628D02*
X019943D01*
X019945Y036718D02*
X059196D01*
X059193Y036808D02*
X019948D01*
X019952Y036898D02*
X059190D01*
X059186Y036988D02*
X019955D01*
X019960Y037078D02*
X059181D01*
X059177Y037168D02*
X019964D01*
X019970Y037258D02*
X059172D01*
X059166Y037348D02*
X019975D01*
X019981Y037438D02*
X059160D01*
X059154Y037528D02*
X019987D01*
X019994Y037618D02*
X059147D01*
X059140Y037708D02*
X020001D01*
X020009Y037798D02*
X059132D01*
X059124Y037888D02*
X020017D01*
X020025Y037978D02*
X059116D01*
X059107Y038068D02*
X020034D01*
X020043Y038158D02*
X059098D01*
X059088Y038248D02*
X020053D01*
X020063Y038338D02*
X059078D01*
X059068Y038428D02*
X020074D01*
X020085Y038518D02*
X059057D01*
X059045Y038608D02*
X020096D01*
X020108Y038698D02*
X059033D01*
X059021Y038788D02*
X020120D01*
X020133Y038878D02*
X059009D01*
X058996Y038968D02*
X020146D01*
X020159Y039058D02*
X058982D01*
X058968Y039148D02*
X020173D01*
X020187Y039238D02*
X058954D01*
X058939Y039328D02*
X020202D01*
X020217Y039418D02*
X058924D01*
X058908Y039508D02*
X020233D01*
X020249Y039598D02*
X058892D01*
X058876Y039688D02*
X020266D01*
X020283Y039778D02*
X058859D01*
X058841Y039868D02*
X020300D01*
X020318Y039958D02*
X058824D01*
X058805Y040048D02*
X020336D01*
X020355Y040138D02*
X058787D01*
X058768Y040228D02*
X020374D01*
X020393Y040318D02*
X058748D01*
X058728Y040408D02*
X020413D01*
X020434Y040498D02*
X058708D01*
X058687Y040588D02*
X020455D01*
X020476Y040678D02*
X058665D01*
X058643Y040768D02*
X020498D01*
X020520Y040858D02*
X058621D01*
X058599Y040948D02*
X020543D01*
X020566Y041038D02*
X058575D01*
X058552Y041128D02*
X020589D01*
X020613Y041218D02*
X058528D01*
X058503Y041308D02*
X020638D01*
X020663Y041398D02*
X058478D01*
X058453Y041488D02*
X020688D01*
X020714Y041578D02*
X058427D01*
X058401Y041668D02*
X020741D01*
X020767Y041758D02*
X058374D01*
X058346Y041848D02*
X020795D01*
X020823Y041938D02*
X058319D01*
X058290Y042028D02*
X020851D01*
X020880Y042118D02*
X058262D01*
X058232Y042208D02*
X020909D01*
X020938Y042298D02*
X058203D01*
X058173Y042388D02*
X020969D01*
X020999Y042478D02*
X058142D01*
X058111Y042568D02*
X021030D01*
X021062Y042658D02*
X058079D01*
X058047Y042748D02*
X021094D01*
X021127Y042838D02*
X058014D01*
X057981Y042928D02*
X021160D01*
X021193Y043018D02*
X057948D01*
X057914Y043108D02*
X021228D01*
X021262Y043198D02*
X057879D01*
X057844Y043288D02*
X021297D01*
X021333Y043378D02*
X057808D01*
X057772Y043468D02*
X021369D01*
X021406Y043558D02*
X057735D01*
X057698Y043648D02*
X021443D01*
X021481Y043738D02*
X057660D01*
X057622Y043828D02*
X021519D01*
X021558Y043918D02*
X057583D01*
X057544Y044008D02*
X021597D01*
X021637Y044098D02*
X057504D01*
X057464Y044188D02*
X021677D01*
X021718Y044278D02*
X057423D01*
X057381Y044368D02*
X021760D01*
X021802Y044458D02*
X057339D01*
X057297Y044548D02*
X021844D01*
X021888Y044638D02*
X057254D01*
X057210Y044728D02*
X021931D01*
X021976Y044818D02*
X057166D01*
X057121Y044908D02*
X022020D01*
X022066Y044998D02*
X057075D01*
X057029Y045088D02*
X022112D01*
X022159Y045178D02*
X056983D01*
X056936Y045268D02*
X022206D01*
X022254Y045358D02*
X056888D01*
X056839Y045448D02*
X022302D01*
X022351Y045538D02*
X056790D01*
X056741Y045628D02*
X022401D01*
X022451Y045718D02*
X056690D01*
X056640Y045808D02*
X022502D01*
X022553Y045898D02*
X056588D01*
X056536Y045988D02*
X022605D01*
X022658Y046078D02*
X056483D01*
X056430Y046168D02*
X022711D01*
X022765Y046258D02*
X056376D01*
X056321Y046348D02*
X022820D01*
X022876Y046438D02*
X056266D01*
X056210Y046528D02*
X022932D01*
X022988Y046618D02*
X056153D01*
X056095Y046708D02*
X023046D01*
X023104Y046798D02*
X056037D01*
X055979Y046888D02*
X023163D01*
X023222Y046978D02*
X055919D01*
X055859Y047068D02*
X023282D01*
X023343Y047158D02*
X055798D01*
X055736Y047248D02*
X023405D01*
X023467Y047338D02*
X055674D01*
X055611Y047428D02*
X023531D01*
X023595Y047518D02*
X055547D01*
X055482Y047608D02*
X023659D01*
X023725Y047698D02*
X055417D01*
X055350Y047788D02*
X023791D01*
X023858Y047878D02*
X055283D01*
X055215Y047968D02*
X023926D01*
X023994Y048058D02*
X055147D01*
X055077Y048148D02*
X024064D01*
X024134Y048238D02*
X055007D01*
X054936Y048328D02*
X024205D01*
X024278Y048418D02*
X054864D01*
X054791Y048508D02*
X024350D01*
X024424Y048598D02*
X054717D01*
X054642Y048688D02*
X024499D01*
X024575Y048778D02*
X054567D01*
X054490Y048868D02*
X024651D01*
X024729Y048958D02*
X054413D01*
X054334Y049048D02*
X024807D01*
X024886Y049138D02*
X054255D01*
X054174Y049228D02*
X024967D01*
X025048Y049318D02*
X054093D01*
X054011Y049408D02*
X025131D01*
X025214Y049498D02*
X053927D01*
X053843Y049588D02*
X025299D01*
X025384Y049678D02*
X053757D01*
X053670Y049768D02*
X025471D01*
X025559Y049858D02*
X053583D01*
X053494Y049948D02*
X025647D01*
X025738Y050038D02*
X053404D01*
X053312Y050128D02*
X025829D01*
X025921Y050218D02*
X053220D01*
X053126Y050308D02*
X026015D01*
X026110Y050398D02*
X053031D01*
X052935Y050488D02*
X026206D01*
X026304Y050578D02*
X052838D01*
X052739Y050668D02*
X026403D01*
X026503Y050758D02*
X052638D01*
X052537Y050848D02*
X026604D01*
X026707Y050938D02*
X052434D01*
X052329Y051028D02*
X026812D01*
X026918Y051118D02*
X052223D01*
X052116Y051208D02*
X027026D01*
X027135Y051298D02*
X052006D01*
X051896Y051388D02*
X027246D01*
X027358Y051478D02*
X051783D01*
X051669Y051568D02*
X027472D01*
X027588Y051658D02*
X051553D01*
X051435Y051748D02*
X027706D01*
X027825Y051838D02*
X051316D01*
X051194Y051928D02*
X027947D01*
X028071Y052018D02*
X051071D01*
X050945Y052108D02*
X028196D01*
X028324Y052198D02*
X050817D01*
X050687Y052288D02*
X028454D01*
X028586Y052378D02*
X050555D01*
X050421Y052468D02*
X028720D01*
X028857Y052558D02*
X050284D01*
X050144Y052648D02*
X028997D01*
X029139Y052738D02*
X050002D01*
X049857Y052828D02*
X029284D01*
X029432Y052918D02*
X049709D01*
X049559Y053008D02*
X029583D01*
X029737Y053098D02*
X049405D01*
X049247Y053188D02*
X029894D01*
X030054Y053278D02*
X049087D01*
X048923Y053368D02*
X030219D01*
X030387Y053458D02*
X048754D01*
X048582Y053548D02*
X030559D01*
X030735Y053638D02*
X048406D01*
X048225Y053728D02*
X030916D01*
X031102Y053818D02*
X048039D01*
X047848Y053908D02*
X031293D01*
X031489Y053998D02*
X047652D01*
X047450Y054088D02*
X031692D01*
X031900Y054178D02*
X047241D01*
X047025Y054268D02*
X032116D01*
X032339Y054358D02*
X046802D01*
X046571Y054448D02*
X032571D01*
X032811Y054538D02*
X046330D01*
X046079Y054628D02*
X033062D01*
X033324Y054718D02*
X045817D01*
X045542Y054808D02*
X033599D01*
X033888Y054898D02*
X045253D01*
X044946Y054988D02*
X034195D01*
X034522Y055078D02*
X044619D01*
X044268Y055168D02*
X034873D01*
X035255Y055258D02*
X043886D01*
X043465Y055348D02*
X035676D01*
X036151Y055438D02*
X042991D01*
X042436Y055528D02*
X036706D01*
X037402Y055618D02*
X041739D01*
X040658Y055708D02*
X038483D01*
G04 drill T01 X019703Y016348*
%LPC*%
G54D12*
G04 /drill T01 X019703Y016348*
%LPD*%
G54D13*
X005378Y021470D02*
X005327Y018005D01*
X000774Y023292D02*
X001903Y023823D01*
X005327Y022483D01*
X008744Y023739D01*
X009982Y023292D01*
X000774Y023292D02*
X001903Y023823D01*
X005327Y022483D01*
X008744Y023739D01*
X000774Y023292D02*
X001903Y023823D01*
X005327Y022483D01*
X000774Y023292D02*
X001903Y023823D01*
X000672Y027101D02*
X000672Y023226D01*
X005336Y021470D01*
X009982Y023292D01*
X000672Y027101D02*
X000672Y023226D01*
X005336Y021470D01*
X000672Y027101D02*
X000672Y023226D01*
X003225Y023319D02*
X005336Y024186D01*
X007540Y023319D01*
X003225Y023319D02*
X005336Y024186D01*
X005336Y028968D02*
X005336Y024186D01*
X009982Y027022D02*
X005336Y028968D01*
X000672Y027101D01*
X-05084Y029554D01*
X-00591Y031208D01*
X009982Y027022D02*
X005336Y028968D01*
X000672Y027101D01*
X-05084Y029554D01*
X009982Y027022D02*
X005336Y028968D01*
X000672Y027101D01*
X009982Y027022D02*
X005336Y028968D01*
X009982Y023317D02*
X014669Y021279D01*
X019626Y023055D02*
X014669Y021289D01*
X014669Y018122D01*
X019626Y023055D02*
X014669Y021289D01*
X013423Y027258D02*
X013423Y025626D01*
X011280Y024775D02*
X013414Y025565D01*
X019626Y023055D01*
X011280Y024775D02*
X013414Y025565D01*
X014696Y028776D02*
X014696Y027787D01*
X011263Y026498D01*
X011263Y023758D01*
X009982Y023331D01*
X014696Y028776D02*
X014696Y027787D01*
X011263Y026498D01*
X011263Y023758D01*
X014696Y028776D02*
X014696Y027787D01*
X011263Y026498D01*
X014696Y028776D02*
X014696Y027787D01*
X011263Y031185D02*
X019628Y027814D01*
X000427Y035602D02*
X005316Y033658D01*
X010018Y035386D01*
X011264Y034933D01*
X005337Y032767D01*
X-00591Y035165D01*
X000427Y035602D01*
X000427Y035602D01*
X000427Y035602D02*
X005316Y033658D01*
X010018Y035386D01*
X011264Y034933D01*
X005337Y032767D01*
X-00591Y035165D01*
X000427Y035602D01*
X000427Y035602D02*
X005316Y033658D01*
X010018Y035386D01*
X011264Y034933D01*
X005337Y032767D01*
X-00591Y035165D01*
X000427Y035602D02*
X005316Y033658D01*
X010018Y035386D01*
X011264Y034933D01*
X005337Y032767D01*
X000427Y035602D02*
X005316Y033658D01*
X010018Y035386D01*
X011264Y034933D01*
X000427Y035602D02*
X005316Y033658D01*
X010018Y035386D01*
X000427Y035602D02*
X005316Y033658D01*
X-00591Y035148D02*
X-00591Y031236D01*
X005336Y028968D01*
X011264Y031176D01*
X011264Y034933D01*
X005336Y032767D01*
X005336Y028968D01*
X-00591Y035148D02*
X-00591Y031236D01*
X005336Y028968D01*
X011264Y031176D01*
X011264Y034933D01*
X005336Y032767D01*
X-00591Y035148D02*
X-00591Y031236D01*
X005336Y028968D01*
X011264Y031176D01*
X011264Y034933D01*
X-00591Y035148D02*
X-00591Y031236D01*
X005336Y028968D01*
X011264Y031176D01*
X-00591Y035148D02*
X-00591Y031236D01*
X005336Y028968D01*
X-00591Y035148D02*
X-00591Y031236D01*
X010000Y023319D02*
X010000Y016144D01*
X000672Y016182D02*
X001902Y015652D01*
X005327Y016992D01*
X008744Y015736D01*
X009982Y016182D01*
X000672Y016182D02*
X001902Y015652D01*
X005327Y016992D01*
X008744Y015736D01*
X000672Y016182D02*
X001902Y015652D01*
X005327Y016992D01*
X000672Y016182D02*
X001902Y015652D01*
X000672Y012374D02*
X000672Y016182D01*
X005336Y018004D01*
X009982Y016182D01*
X000672Y012374D02*
X000672Y016182D01*
X005336Y018004D01*
X000672Y012374D02*
X000672Y016182D01*
X003163Y016144D02*
X005336Y015289D01*
X007483Y016182D01*
X003163Y016144D02*
X005336Y015289D01*
X005336Y010507D02*
X005336Y015289D01*
X009982Y012451D02*
X005336Y010507D01*
X000697Y012366D01*
X-05084Y009921D01*
X-00591Y008267D01*
X009982Y012451D02*
X005336Y010507D01*
X000697Y012366D01*
X-05084Y009921D01*
X009982Y012451D02*
X005336Y010507D01*
X000697Y012366D01*
X009982Y012451D02*
X005336Y010507D01*
X009982Y016157D02*
X014669Y018122D01*
X019626Y016420D02*
X014669Y018123D01*
X013423Y012217D02*
X013423Y013849D01*
X011280Y014700D02*
X013414Y013910D01*
X019626Y016420D01*
X011280Y014700D02*
X013414Y013910D01*
X014696Y010730D02*
X014696Y011688D01*
X011263Y012977D01*
X011263Y015717D01*
X009982Y016144D01*
X014696Y010730D02*
X014696Y011688D01*
X011263Y012977D01*
X011263Y015717D01*
X014696Y010730D02*
X014696Y011688D01*
X011263Y012977D01*
X014696Y010730D02*
X014696Y011688D01*
X011263Y008290D02*
X019630Y011647D01*
X000427Y003873D02*
X005316Y005817D01*
X010018Y004089D01*
X011264Y004542D01*
X005337Y006708D01*
X-00591Y004310D01*
X000427Y003873D01*
X000427Y003873D01*
X000427Y003873D02*
X005316Y005817D01*
X010018Y004089D01*
X011264Y004542D01*
X005337Y006708D01*
X-00591Y004310D01*
X000427Y003873D01*
X000427Y003873D02*
X005316Y005817D01*
X010018Y004089D01*
X011264Y004542D01*
X005337Y006708D01*
X-00591Y004310D01*
X000427Y003873D02*
X005316Y005817D01*
X010018Y004089D01*
X011264Y004542D01*
X005337Y006708D01*
X000427Y003873D02*
X005316Y005817D01*
X010018Y004089D01*
X011264Y004542D01*
X000427Y003873D02*
X005316Y005817D01*
X010018Y004089D01*
X000427Y003873D02*
X005316Y005817D01*
X-00591Y004327D02*
X-00591Y008238D01*
X005336Y010507D01*
X011264Y008299D01*
X011264Y004542D01*
X005336Y006708D01*
X005336Y010507D01*
X-00591Y004327D02*
X-00591Y008238D01*
X005336Y010507D01*
X011264Y008299D01*
X011264Y004542D01*
X005336Y006708D01*
X-00591Y004327D02*
X-00591Y008238D01*
X005336Y010507D01*
X011264Y008299D01*
X011264Y004542D01*
X-00591Y004327D02*
X-00591Y008238D01*
X005336Y010507D01*
X011264Y008299D01*
X-00591Y004327D02*
X-00591Y008238D01*
X005336Y010507D01*
X-00591Y004327D02*
X-00591Y008238D01*
X000672Y023319D02*
X000672Y016182D01*
X009982Y016144D02*
X009982Y012468D01*
X014696Y010699D01*
X009982Y016144D02*
X009982Y012468D01*
X014696Y010699D02*
X019626Y012540D01*
X019626Y026760D02*
X014696Y028776D01*
X009982Y027065D01*
X009982Y023331D01*
X019626Y026760D02*
X014696Y028776D01*
X009982Y027065D01*
X019626Y026760D02*
X014696Y028776D01*
X033879Y021497D02*
X033930Y018032D01*
X038482Y023320D02*
X037354Y023851D01*
X033930Y022510D01*
X030512Y023766D01*
X029275Y023320D01*
X038482Y023320D02*
X037354Y023851D01*
X033930Y022510D01*
X030512Y023766D01*
X038482Y023320D02*
X037354Y023851D01*
X033930Y022510D01*
X038482Y023320D02*
X037354Y023851D01*
X038585Y027128D02*
X038585Y023254D01*
X033920Y021497D01*
X029275Y023320D01*
X038585Y027128D02*
X038585Y023254D01*
X033920Y021497D01*
X038585Y027128D02*
X038585Y023254D01*
X036032Y023346D02*
X033920Y024213D01*
X031716Y023346D01*
X036032Y023346D02*
X033920Y024213D01*
X033920Y028995D02*
X033920Y024213D01*
X029388Y027050D02*
X034034Y028995D01*
X038698Y027128D01*
X044454Y029581D01*
X039961Y031235D01*
X029388Y027050D02*
X034034Y028995D01*
X038698Y027128D01*
X044454Y029581D01*
X029388Y027050D02*
X034034Y028995D01*
X038698Y027128D01*
X029388Y027050D02*
X034034Y028995D01*
X029275Y023345D02*
X024588Y021307D01*
X019630Y023082D02*
X024588Y021316D01*
X024588Y018150D01*
X019630Y023082D02*
X024588Y021316D01*
X025833Y027285D02*
X025833Y025653D01*
X027977Y024802D02*
X025842Y025592D01*
X019630Y023082D01*
X027977Y024802D02*
X025842Y025592D01*
X024561Y028803D02*
X024561Y027814D01*
X027993Y026525D01*
X027993Y023785D01*
X029275Y023359D01*
X024561Y028803D02*
X024561Y027814D01*
X027993Y026525D01*
X027993Y023785D01*
X024561Y028803D02*
X024561Y027814D01*
X027993Y026525D01*
X024561Y028803D02*
X024561Y027814D01*
X027993Y031212D02*
X019630Y027814D01*
X038829Y035629D02*
X033940Y033685D01*
X029239Y035413D01*
X027993Y034961D01*
X033919Y032794D01*
X039847Y035192D01*
X038829Y035629D01*
X038829Y035629D01*
X038829Y035629D02*
X033940Y033685D01*
X029239Y035413D01*
X027993Y034961D01*
X033919Y032794D01*
X039847Y035192D01*
X038829Y035629D01*
X038829Y035629D02*
X033940Y033685D01*
X029239Y035413D01*
X027993Y034961D01*
X033919Y032794D01*
X039847Y035192D01*
X038829Y035629D02*
X033940Y033685D01*
X029239Y035413D01*
X027993Y034961D01*
X033919Y032794D01*
X038829Y035629D02*
X033940Y033685D01*
X029239Y035413D01*
X027993Y034961D01*
X038829Y035629D02*
X033940Y033685D01*
X029239Y035413D01*
X038829Y035629D02*
X033940Y033685D01*
X039847Y035175D02*
X039847Y031264D01*
X033920Y028995D01*
X027993Y031204D01*
X027993Y034961D01*
X033920Y032794D01*
X033920Y028995D01*
X039847Y035175D02*
X039847Y031264D01*
X033920Y028995D01*
X027993Y031204D01*
X027993Y034961D01*
X033920Y032794D01*
X039847Y035175D02*
X039847Y031264D01*
X033920Y028995D01*
X027993Y031204D01*
X027993Y034961D01*
X039847Y035175D02*
X039847Y031264D01*
X033920Y028995D01*
X027993Y031204D01*
X039847Y035175D02*
X039847Y031264D01*
X033920Y028995D01*
X039847Y035175D02*
X039847Y031264D01*
X029257Y023346D02*
X029257Y016171D01*
X038585Y016210D02*
X037354Y015679D01*
X033930Y017019D01*
X030512Y015763D01*
X029275Y016210D01*
X038585Y016210D02*
X037354Y015679D01*
X033930Y017019D01*
X030512Y015763D01*
X038585Y016210D02*
X037354Y015679D01*
X033930Y017019D01*
X038585Y016210D02*
X037354Y015679D01*
X038585Y012401D02*
X038585Y016210D01*
X033920Y018032D01*
X029275Y016210D01*
X038585Y012401D02*
X038585Y016210D01*
X033920Y018032D01*
X038585Y012401D02*
X038585Y016210D01*
X036093Y016171D02*
X033920Y015316D01*
X031774Y016210D01*
X036093Y016171D02*
X033920Y015316D01*
X033920Y010534D02*
X033920Y015316D01*
X029388Y012478D02*
X034034Y010534D01*
X038673Y012394D01*
X044454Y009948D01*
X039961Y008295D01*
X029388Y012478D02*
X034034Y010534D01*
X038673Y012394D01*
X044454Y009948D01*
X029388Y012478D02*
X034034Y010534D01*
X038673Y012394D01*
X029388Y012478D02*
X034034Y010534D01*
X029275Y016185D02*
X024588Y018150D01*
X019630Y016447D02*
X024588Y018150D01*
X025833Y012244D02*
X025833Y013876D01*
X027977Y014727D02*
X025842Y013937D01*
X019630Y016447D01*
X027977Y014727D02*
X025842Y013937D01*
X024561Y010757D02*
X024561Y011715D01*
X027993Y013005D01*
X027993Y015744D01*
X029275Y016171D01*
X024561Y010757D02*
X024561Y011715D01*
X027993Y013005D01*
X027993Y015744D01*
X024561Y010757D02*
X024561Y011715D01*
X027993Y013005D01*
X024561Y010757D02*
X024561Y011715D01*
X027993Y008317D02*
X019630Y011647D01*
X038829Y003900D02*
X033940Y005844D01*
X029239Y004116D01*
X027993Y004569D01*
X033919Y006735D01*
X039847Y004337D01*
X038829Y003900D01*
X038829Y003900D01*
X038829Y003900D02*
X033940Y005844D01*
X029239Y004116D01*
X027993Y004569D01*
X033919Y006735D01*
X039847Y004337D01*
X038829Y003900D01*
X038829Y003900D02*
X033940Y005844D01*
X029239Y004116D01*
X027993Y004569D01*
X033919Y006735D01*
X039847Y004337D01*
X038829Y003900D02*
X033940Y005844D01*
X029239Y004116D01*
X027993Y004569D01*
X033919Y006735D01*
X038829Y003900D02*
X033940Y005844D01*
X029239Y004116D01*
X027993Y004569D01*
X038829Y003900D02*
X033940Y005844D01*
X029239Y004116D01*
X038829Y003900D02*
X033940Y005844D01*
X039847Y004354D02*
X039847Y008266D01*
X033920Y010534D01*
X027993Y008326D01*
X027993Y004569D01*
X033920Y006735D01*
X033920Y010534D01*
X039847Y004354D02*
X039847Y008266D01*
X033920Y010534D01*
X027993Y008326D01*
X027993Y004569D01*
X033920Y006735D01*
X039847Y004354D02*
X039847Y008266D01*
X033920Y010534D01*
X027993Y008326D01*
X027993Y004569D01*
X039847Y004354D02*
X039847Y008266D01*
X033920Y010534D01*
X027993Y008326D01*
X039847Y004354D02*
X039847Y008266D01*
X033920Y010534D01*
X039847Y004354D02*
X039847Y008266D01*
X038585Y023346D02*
X038585Y016210D01*
X029275Y016171D02*
X029275Y012496D01*
X024561Y010727D01*
X029275Y016171D02*
X029275Y012496D01*
X024561Y010727D02*
X019630Y012568D01*
X019630Y026787D02*
X024561Y028803D01*
X029275Y027092D01*
X029275Y023358D01*
X019630Y026787D02*
X024561Y028803D01*
X029275Y027092D01*
X019630Y026787D02*
X024561Y028803D01*
X019630Y016447D02*
X019630Y012568D01*
X019630Y026787D02*
X019630Y012568D01*
M02*
