  0
SECTION
  2
HEADER
  9
$ACADVER
  1
AC1012
  9
$DWGCODEPAGE
  3
undefined
  9
$INSBASE
 10
0.0
 20
0.0
 30
0.0
  9
$EXTMIN
 10
1.000000000000000E+20
 20
1.000000000000000E+20
 30
1.000000000000000E+20
  9
$EXTMAX
 10
-1.000000000000000E+20
 20
-1.000000000000000E+20
 30
-1.000000000000000E+20
  9
$LIMMIN
 10
0.0
 20
0.0
  9
$LIMMAX
 10
12.0
 20
9.0
  9
$ORTHOMODE
 70
     0
  9
$REGENMODE
 70
     1
  9
$FILLMODE
 70
     1
  9
$QTEXTMODE
 70
     0
  9
$MIRRTEXT
 70
     1
  9
$DRAGMODE
 70
     2
  9
$LTSCALE
 40
1.0
  9
$OSMODE
 70
    37
  9
$ATTMODE
 70
     1
  9
$TEXTSIZE
 40
0.2
  9
$TRACEWID
 40
0.05
  9
$TEXTSTYLE
  7
STANDARD
  9
$CLAYER
  8
0
  9
$CELTYPE
  6
BYLAYER
  9
$CECOLOR
 62
   256
  9
$CELTSCALE
 40
1.0
  9
$DELOBJ
 70
     1
  9
$DISPSILH
 70
     0
  9
$DIMSCALE
 40
1.0
  9
$DIMASZ
 40
0.18
  9
$DIMEXO
 40
0.0625
  9
$DIMDLI
 40
0.38
  9
$DIMRND
 40
0.0
  9
$DIMDLE
 40
0.0
  9
$DIMEXE
 40
0.18
  9
$DIMTP
 40
0.0
  9
$DIMTM
 40
0.0
  9
$DIMTXT
 40
0.18
  9
$DIMCEN
 40
0.09
  9
$DIMTSZ
 40
0.0
  9
$DIMTOL
 70
     0
  9
$DIMLIM
 70
     0
  9
$DIMTIH
 70
     1
  9
$DIMTOH
 70
     1
  9
$DIMSE1
 70
     0
  9
$DIMSE2
 70
     0
  9
$DIMTAD
 70
     0
  9
$DIMZIN
 70
     0
  9
$DIMBLK
  1

  9
$DIMASO
 70
     1
  9
$DIMSHO
 70
     1
  9
$DIMPOST
  1

  9
$DIMAPOST
  1

  9
$DIMALT
 70
     0
  9
$DIMALTD
 70
     2
  9
$DIMALTF
 40
25.4
  9
$DIMLFAC
 40
1.0
  9
$DIMTOFL
 70
     0
  9
$DIMTVP
 40
0.0
  9
$DIMTIX
 70
     0
  9
$DIMSOXD
 70
     0
  9
$DIMSAH
 70
     0
  9
$DIMBLK1
  1

  9
$DIMBLK2
  1

  9
$DIMSTYLE
  2
STANDARD
  9
$DIMCLRD
 70
     0
  9
$DIMCLRE
 70
     0
  9
$DIMCLRT
 70
     0
  9
$DIMTFAC
 40
1.0
  9
$DIMGAP
 40
0.09
  9
$DIMJUST
 70
     0
  9
$DIMSD1
 70
     0
  9
$DIMSD2
 70
     0
  9
$DIMTOLJ
 70
     1
  9
$DIMTZIN
 70
     0
  9
$DIMALTZ
 70
     0
  9
$DIMALTTZ
 70
     0
  9
$DIMFIT
 70
     3
  9
$DIMUPT
 70
     0
  9
$DIMUNIT
 70
     2
  9
$DIMDEC
 70
     4
  9
$DIMTDEC
 70
     4
  9
$DIMALTU
 70
     2
  9
$DIMALTTD
 70
     2
  9
$DIMTXSTY
  7
STANDARD
  9
$DIMAUNIT
 70
     0
  9
$LUNITS
 70
     2
  9
$LUPREC
 70
     4
  9
$SKETCHINC
 40
0.1
  9
$FILLETRAD
 40
0.5
  9
$AUNITS
 70
     0
  9
$AUPREC
 70
     0
  9
$MENU
  1
.
  9
$ELEVATION
 40
0.0
  9
$PELEVATION
 40
0.0
  9
$THICKNESS
 40
0.0
  9
$LIMCHECK
 70
     0
  9
$CHAMFERA
 40
0.5
  9
$CHAMFERB
 40
0.5
  9
$CHAMFERC
 40
1.0
  9
$CHAMFERD
 40
0.0
  9
$SKPOLY
 70
     0
  9
$TDCREATE
 40
2457878.954444433
  9
$TDUPDATE
 40
2457878.954444433
  9
$TDINDWG
 40
0.0000000116
  9
$TDUSRTIMER
 40
0.0000000116
  9
$USRTIMER
 70
     1
  9
$ANGBASE
 50
0.0
  9
$ANGDIR
 70
     0
  9
$PDMODE
 70
     0
  9
$PDSIZE
 40
0.0
  9
$PLINEWID
 40
0.0
  9
$COORDS
 70
     1
  9
$SPLFRAME
 70
     0
  9
$SPLINETYPE
 70
     6
  9
$SPLINESEGS
 70
     8
  9
$ATTDIA
 70
     0
  9
$ATTREQ
 70
     1
  9
$HANDLING
 70
     1
  9
$HANDSEED
  5
1D7
  9
$SURFTAB1
 70
     6
  9
$SURFTAB2
 70
     6
  9
$SURFTYPE
 70
     6
  9
$SURFU
 70
     6
  9
$SURFV
 70
     6
  9
$UCSNAME
  2

  9
$UCSORG
 10
0.0
 20
0.0
 30
0.0
  9
$UCSXDIR
 10
1.0
 20
0.0
 30
0.0
  9
$UCSYDIR
 10
0.0
 20
1.0
 30
0.0
  9
$PUCSNAME
  2

  9
$PUCSORG
 10
0.0
 20
0.0
 30
0.0
  9
$PUCSXDIR
 10
1.0
 20
0.0
 30
0.0
  9
$PUCSYDIR
 10
0.0
 20
1.0
 30
0.0
  9
$USERI1
 70
     0
  9
$USERI2
 70
     0
  9
$USERI3
 70
     0
  9
$USERI4
 70
     0
  9
$USERI5
 70
     0
  9
$USERR1
 40
0.0
  9
$USERR2
 40
0.0
  9
$USERR3
 40
0.0
  9
$USERR4
 40
0.0
  9
$USERR5
 40
0.0
  9
$WORLDVIEW
 70
     1
  9
$SHADEDGE
 70
     3
  9
$SHADEDIF
 70
    70
  9
$TILEMODE
 70
     1
  9
$MAXACTVP
 70
    64
  9
$PINSBASE
 10
0.0
 20
0.0
 30
0.0
  9
$PLIMCHECK
 70
     0
  9
$PEXTMIN
 10
1.000000000000000E+20
 20
1.000000000000000E+20
 30
1.000000000000000E+20
  9
$PEXTMAX
 10
-1.000000000000000E+20
 20
-1.000000000000000E+20
 30
-1.000000000000000E+20
  9
$PLIMMIN
 10
0.0
 20
0.0
  9
$PLIMMAX
 10
12.0
 20
9.0
  9
$UNITMODE
 70
     0
  9
$VISRETAIN
 70
     1
  9
$PLINEGEN
 70
     0
  9
$PSLTSCALE
 70
     1
  9
$TREEDEPTH
 70
  3020
  9
$PICKSTYLE
 70
     1
  9
$CMLSTYLE
  2
STANDARD
  9
$CMLJUST
 70
     0
  9
$CMLSCALE
 40
1.0
  9
$SAVEIMAGES
 70
     1
  0
ENDSEC
  0
SECTION
  2
CLASSES
  0
CLASS
  1
ACDBDICTIONARYWDFLT
  2
AcDbDictionaryWithDefault
  3
ObjectDBX Classes
 90
    32768
280
     0
281
     0
  0
CLASS
  1
VISUALSTYLE
  2
AcDbVisualStyle
  3
ObjectDBX Classes
 90
     4095
280
     0
281
     0
  0
CLASS
  1
MATERIAL
  2
AcDbMaterial
  3
ObjectDBX Classes
 90
     1153
280
     0
281
     0
  0
CLASS
  1
SUN
  2
AcDbSun
  3
SCENEOE
 90
     1024
280
     0
281
     0
  0
CLASS
  1
DICTIONARYVAR
  2
AcDbDictionaryVar
  3
ObjectDBX Classes
 90
        0
280
     0
281
     0
  0
CLASS
  1
XRECORD
  2
AcDbXrecord
  3
AutoCAD 2000
 90
    32768
280
     0
281
     0
  0
CLASS
  1
LWPOLYLINE
  2
AcDbPolyline
  3
AutoCAD 2000
 90
    32768
280
     0
281
     1
  0
CLASS
  1
HATCH
  2
AcDbHatch
  3
AutoCAD 2000
 90
    32768
280
     0
281
     1
  0
CLASS
  1
ACDBPLACEHOLDER
  2
AcDbPlaceHolder
  3
ObjectDBX Classes
 90
        0
280
     0
281
     0
  0
CLASS
  1
LAYOUT
  2
AcDbLayout
  3
ObjectDBX Classes
 90
        0
280
     0
281
     0
  0
ENDSEC
  0
SECTION
  2
TABLES
  0
TABLE
  2
VPORT
  5
8
330
0
100
AcDbSymbolTable
 70
     1
  0
VPORT
  5
29
330
8
100
AcDbSymbolTableRecord
100
AcDbViewportTableRecord
  2
*ACTIVE
 70
     0
 10
0.0
 20
0.0
 11
1.0
 21
1.0
 12
0.0
 22
0.0
 13
0.0
 23
0.0
 14
0.5
 24
0.5
 15
0.5
 25
0.5
 16
0.0
 26
0.0
 36
1.0
 17
21.00086110586097
 27
-35.50002776890281
 37
0.0
 40
41.99999998950008
 41
1.690476190476192
 42
50.0
 43
0.0
 44
0.0
 50
0.0
 51
0.0
 71
     0
 72
   100
 73
     1
 74
     3
 75
     0
 76
     0
 77
     0
 78
     0
  0
ENDTAB
  0
TABLE
  2
LTYPE
  5
5
330
0
100
AcDbSymbolTable
 70
     1
  0
LTYPE
  5
14
330
5
100
AcDbSymbolTableRecord
100
AcDbLinetypeTableRecord
  2
BYBLOCK
 70
     0
  3

 72
    65
 73
     0
 40
0.0
  0
LTYPE
  5
15
330
5
100
AcDbSymbolTableRecord
100
AcDbLinetypeTableRecord
  2
BYLAYER
 70
     0
  3

 72
    65
 73
     0
 40
0.0
  0
LTYPE
  5
16
330
5
100
AcDbSymbolTableRecord
100
AcDbLinetypeTableRecord
  2
CONTINUOUS
 70
     0
  3
Solid line
 72
    65
 73
     0
 40
0.0
  0
ENDTAB
  0
TABLE
  2
LAYER
  5
2
330
0
100
AcDbSymbolTable
 70
     2
  0
LAYER
  5
10
330
2
100
AcDbSymbolTableRecord
100
AcDbLayerTableRecord
  2
0
 70
     0
 62
     7
  6
CONTINUOUS
  0
LAYER
  5
40
330
2
100
AcDbSymbolTableRecord
100
AcDbLayerTableRecord
  2
CALQUE_1
 70
     0
 62
     7
  6
CONTINUOUS
  0
ENDTAB
  0
TABLE
  2
STYLE
  5
3
330
0
100
AcDbSymbolTable
 70
     1
  0
STYLE
  5
11
330
3
100
AcDbSymbolTableRecord
100
AcDbTextStyleTableRecord
  2
STANDARD
 70
     0
 40
0.0
 41
1.0
 50
0.0
 71
     0
 42
0.2
  3
txt
  4

  0
ENDTAB
  0
TABLE
  2
VIEW
  5
6
330
0
100
AcDbSymbolTable
 70
     0
  0
ENDTAB
  0
TABLE
  2
UCS
  5
7
330
0
100
AcDbSymbolTable
 70
     0
  0
ENDTAB
  0
TABLE
  2
APPID
  5
9
330
0
100
AcDbSymbolTable
 70
     1
  0
APPID
  5
12
330
9
100
AcDbSymbolTableRecord
100
AcDbRegAppTableRecord
  2
ACAD
 70
     0
  0
ENDTAB
  0
TABLE
  2
DIMSTYLE
  5
A
330
0
100
AcDbSymbolTable
 70
     1
  0
DIMSTYLE
105
27
330
A
100
AcDbSymbolTableRecord
100
AcDbDimStyleTableRecord
  2
STANDARD
 70
     0
  3

  4

  5

  6

  7

 40
1.0
 41
0.18
 42
0.0625
 43
0.38
 44
0.18
 45
0.0
 46
0.0
 47
0.0
 48
0.0
140
0.18
141
0.09
142
0.0
143
25.4
144
1.0
145
0.0
146
1.0
147
0.09
 71
     0
 72
     0
 73
     1
 74
     1
 75
     0
 76
     0
 77
     0
 78
     0
170
     0
171
     2
172
     0
173
     0
174
     0
175
     0
176
     0
177
     0
178
     0
270
     2
271
     4
272
     4
273
     2
274
     2
340
11
275
     0
280
     0
281
     0
282
     0
283
     1
284
     0
285
     0
286
     0
287
     3
288
     0
  0
ENDTAB
  0
TABLE
  2
BLOCK_RECORD
  5
1
330
0
100
AcDbSymbolTable
 70
     2
  0
BLOCK_RECORD
  5
1F
330
1
100
AcDbSymbolTableRecord
100
AcDbBlockTableRecord
  2
*MODEL_SPACE
  0
BLOCK_RECORD
  5
1B
330
1
100
AcDbSymbolTableRecord
100
AcDbBlockTableRecord
  2
*PAPER_SPACE
  0
BLOCK_RECORD
  5
41
330
1
100
AcDbSymbolTableRecord
100
AcDbBlockTableRecord
  2
BLOCK_2
  0
ENDTAB
  0
ENDSEC
  0
SECTION
  2
BLOCKS
  0
BLOCK
  5
20
330
1F
100
AcDbEntity
  8
0
100
AcDbBlockBegin
  2
*MODEL_SPACE
 70
     0
 10
0.0
 20
0.0
 30
0.0
  3
*MODEL_SPACE
  1

  0
ENDBLK
  5
21
330
1F
100
AcDbEntity
  8
0
100
AcDbBlockEnd
  0
BLOCK
  5
1C
330
1B
100
AcDbEntity
 67
     1
  8
0
100
AcDbBlockBegin
  2
*PAPER_SPACE
 70
     0
 10
0.0
 20
0.0
 30
0.0
  3
*PAPER_SPACE
  1

  0
ENDBLK
  5
1D
330
1B
100
AcDbEntity
 67
     1
  8
0
100
AcDbBlockEnd
  0
BLOCK
  5
43
330
41
100
AcDbEntity
  8
0
100
AcDbBlockBegin
  2
BLOCK_2
 70
     0
 10
0.0
 20
0.0
 30
0.0
  3
BLOCK_2
  1

  0
POLYLINE
  5
45
330
41
100
AcDbEntity
  8
CALQUE_1
 62
     7
100
AcDb2dPolyline
 66
     1
 10
0.0
 20
0.0
 30
0.0
  0
VERTEX
  5
46
330
45
100
AcDbEntity
  8
CALQUE_1
 62
     7
100
AcDbVertex
100
AcDb2dVertex
 10
-3.344709147067917
 20
-32.75020141661484
 30
0.0
  0
VERTEX
  5
47
330
45
100
AcDbEntity
  8
CALQUE_1
 62
     7
100
AcDbVertex
100
AcDb2dVertex
 10
-3.431633885400339
 20
-38.64748087901449
 30
0.0
  0
SEQEND
  5
48
330
45
100
AcDbEntity
  8
CALQUE_1
 62
     7
  0
POLYLINE
  5
49
330
41
100
AcDbEntity
  8
CALQUE_1
 62
     7
100
AcDb2dPolyline
 66
     1
 10
0.0
 20
0.0
 30
0.0
  0
VERTEX
  5
4A
330
49
100
AcDbEntity
  8
CALQUE_1
 62
     7
100
AcDbVertex
100
AcDb2dVertex
 10
-11.35251802640175
 20
-29.7481317533639
 30
0.0
  0
VERTEX
  5
4B
330
49
100
AcDbEntity
  8
CALQUE_1
 62
     7
100
AcDbVertex
100
AcDb2dVertex
 10
-9.258464509477689
 20
-28.74638411364038
 30
0.0
  0
VERTEX
  5
4C
330
49
100
AcDbEntity
  8
CALQUE_1
 62
     7
100
AcDbVertex
100
AcDb2dVertex
 10
-3.431633885400339
 20
-31.02695119748864
 30
0.0
  0
VERTEX
  5
4D
330
49
100
AcDbEntity
  8
CALQUE_1
 62
     7
100
AcDbVertex
100
AcDb2dVertex
 10
2.383379119144308
 20
-28.8894713099547
 30
0.0
  0
VERTEX
  5
4E
330
49
100
AcDbEntity
  8
CALQUE_1
 62
     7
100
AcDbVertex
100
AcDb2dVertex
 10
4.489250255601076
 20
-29.64981195799189
 30
0.0
  0
SEQEND
  5
4F
330
49
100
AcDbEntity
  8
CALQUE_1
 62
     7
  0
POLYLINE
  5
50
330
41
100
AcDbEntity
  8
CALQUE_1
 62
     7
100
AcDb2dPolyline
 66
     1
 10
0.0
 20
0.0
 30
0.0
  0
VERTEX
  5
51
330
50
100
AcDbEntity
  8
CALQUE_1
 62
     7
100
AcDbVertex
100
AcDb2dVertex
 10
-11.35251802640175
 20
-23.16949583988811
 30
0.0
  0
VERTEX
  5
52
330
50
100
AcDbEntity
  8
CALQUE_1
 62
     7
100
AcDbVertex
100
AcDb2dVertex
 10
-11.35251802640175
 20
-29.76220819819816
 30
0.0
  0
VERTEX
  5
53
330
50
100
AcDbEntity
  8
CALQUE_1
 62
     7
100
AcDbVertex
100
AcDb2dVertex
 10
-3.415617555744987
 20
-32.75020141661484
 30
0.0
  0
VERTEX
  5
54
330
50
100
AcDbEntity
  8
CALQUE_1
 62
     7
100
AcDbVertex
100
AcDb2dVertex
 10
4.489250255601076
 20
-29.64981195799189
 30
0.0
  0
SEQEND
  5
55
330
50
100
AcDbEntity
  8
CALQUE_1
 62
     7
  0
POLYLINE
  5
56
330
41
100
AcDbEntity
  8
CALQUE_1
 62
     7
100
AcDb2dPolyline
 66
     1
 10
0.0
 20
0.0
 30
0.0
  0
VERTEX
  5
57
330
56
100
AcDbEntity
  8
CALQUE_1
 62
     7
100
AcDbVertex
100
AcDb2dVertex
 10
-7.008518403235434
 20
-29.6046919730585
 30
0.0
  0
VERTEX
  5
58
330
56
100
AcDbEntity
  8
CALQUE_1
 62
     7
100
AcDbVertex
100
AcDb2dVertex
 10
-3.415617555744987
 20
-28.12912797043667
 30
0.0
  0
VERTEX
  5
59
330
56
100
AcDbEntity
  8
CALQUE_1
 62
     7
100
AcDbVertex
100
AcDb2dVertex
 10
0.3349751360104397
 20
-29.6046919730585
 30
0.0
  0
SEQEND
  5
5A
330
56
100
AcDbEntity
  8
CALQUE_1
 62
     7
  0
POLYLINE
  5
5B
330
41
100
AcDbEntity
  8
CALQUE_1
 62
     7
100
AcDb2dPolyline
 66
     1
 10
0.0
 20
0.0
 30
0.0
  0
VERTEX
  5
5C
330
5B
100
AcDbEntity
  8
CALQUE_1
 62
     7
100
AcDbVertex
100
AcDb2dVertex
 10
-3.415617555744987
 20
-19.99213272049745
 30
0.0
  0
VERTEX
  5
5D
330
5B
100
AcDbEntity
  8
CALQUE_1
 62
     7
100
AcDbVertex
100
AcDb2dVertex
 10
-3.415617555744987
 20
-28.12912797043667
 30
0.0
  0
SEQEND
  5
5E
330
5B
100
AcDbEntity
  8
CALQUE_1
 62
     7
  0
POLYLINE
  5
5F
330
41
100
AcDbEntity
  8
CALQUE_1
 62
     7
100
AcDb2dPolyline
 66
     1
 10
0.0
 20
0.0
 30
0.0
  0
VERTEX
  5
60
330
5F
100
AcDbEntity
  8
CALQUE_1
 62
     7
100
AcDbVertex
100
AcDb2dVertex
 10
4.489250255601076
 20
-23.30274029074185
 30
0.0
  0
VERTEX
  5
61
330
5F
100
AcDbEntity
  8
CALQUE_1
 62
     7
100
AcDbVertex
100
AcDb2dVertex
 10
-3.415617555744987
 20
-19.99213272049745
 30
0.0
  0
VERTEX
  5
62
330
5F
100
AcDbEntity
  8
CALQUE_1
 62
     7
100
AcDbVertex
100
AcDb2dVertex
 10
-11.35251802640175
 20
-23.16949583988811
 30
0.0
  0
VERTEX
  5
63
330
5F
100
AcDbEntity
  8
CALQUE_1
 62
     7
100
AcDbVertex
100
AcDb2dVertex
 10
-21.14612310254459
 20
-18.99483140713458
 30
0.0
  0
VERTEX
  5
64
330
5F
100
AcDbEntity
  8
CALQUE_1
 62
     7
100
AcDbVertex
100
AcDb2dVertex
 10
-13.50135798172426
 20
-16.18142647687547
 30
0.0
  0
SEQEND
  5
65
330
5F
100
AcDbEntity
  8
CALQUE_1
 62
     7
  0
POLYLINE
  5
66
330
41
100
AcDbEntity
  8
CALQUE_1
 62
     7
100
AcDb2dPolyline
 66
     1
 10
0.0
 20
0.0
 30
0.0
  0
VERTEX
  5
67
330
66
100
AcDbEntity
  8
CALQUE_1
 62
     7
100
AcDbVertex
100
AcDb2dVertex
 10
4.489250255601076
 20
-29.60716275247683
 30
0.0
  0
VERTEX
  5
68
330
66
100
AcDbEntity
  8
CALQUE_1
 62
     7
100
AcDbVertex
100
AcDb2dVertex
 10
12.46442694826535
 20
-33.0750739208739
 30
0.0
  0
SEQEND
  5
69
330
66
100
AcDbEntity
  8
CALQUE_1
 62
     7
  0
POLYLINE
  5
6A
330
41
100
AcDbEntity
  8
CALQUE_1
 62
     7
100
AcDb2dPolyline
 66
     1
 10
0.0
 20
0.0
 30
0.0
  0
VERTEX
  5
6B
330
6A
100
AcDbEntity
  8
CALQUE_1
 62
     7
100
AcDbVertex
100
AcDb2dVertex
 10
20.90047263520934
 20
-30.0540966046668
 30
0.0
  0
VERTEX
  5
6C
330
6A
100
AcDbEntity
  8
CALQUE_1
 62
     7
100
AcDbVertex
100
AcDb2dVertex
 10
12.46442694826535
 20
-33.05842172886825
 30
0.0
  0
VERTEX
  5
6D
330
6A
100
AcDbEntity
  8
CALQUE_1
 62
     7
100
AcDbVertex
100
AcDb2dVertex
 10
12.46442694826535
 20
-38.44664392388825
 30
0.0
  0
SEQEND
  5
6E
330
6A
100
AcDbEntity
  8
CALQUE_1
 62
     7
  0
POLYLINE
  5
6F
330
41
100
AcDbEntity
  8
CALQUE_1
 62
     7
100
AcDb2dPolyline
 66
     1
 10
0.0
 20
0.0
 30
0.0
  0
VERTEX
  5
70
330
6F
100
AcDbEntity
  8
CALQUE_1
 62
     7
100
AcDbVertex
100
AcDb2dVertex
 10
10.34557210819855
 20
-22.9018792077054
 30
0.0
  0
VERTEX
  5
71
330
6F
100
AcDbEntity
  8
CALQUE_1
 62
     7
100
AcDbVertex
100
AcDb2dVertex
 10
10.34557210819855
 20
-25.6791563905438
 30
0.0
  0
SEQEND
  5
72
330
6F
100
AcDbEntity
  8
CALQUE_1
 62
     7
  0
POLYLINE
  5
73
330
41
100
AcDbEntity
  8
CALQUE_1
 62
     7
100
AcDb2dPolyline
 66
     1
 10
0.0
 20
0.0
 30
0.0
  0
VERTEX
  5
74
330
73
100
AcDbEntity
  8
CALQUE_1
 62
     7
100
AcDbVertex
100
AcDb2dVertex
 10
6.697674886803527
 20
-27.1274503092152
 30
0.0
  0
VERTEX
  5
75
330
73
100
AcDbEntity
  8
CALQUE_1
 62
     7
100
AcDbVertex
100
AcDb2dVertex
 10
10.32969775415792
 20
-25.78294527499864
 30
0.0
  0
VERTEX
  5
76
330
73
100
AcDbEntity
  8
CALQUE_1
 62
     7
100
AcDbVertex
100
AcDb2dVertex
 10
20.90682183852942
 20
-30.05282622570662
 30
0.0
  0
SEQEND
  5
77
330
73
100
AcDbEntity
  8
CALQUE_1
 62
     7
  0
POLYLINE
  5
78
330
41
100
AcDbEntity
  8
CALQUE_1
 62
     7
100
AcDb2dPolyline
 66
     1
 10
0.0
 20
0.0
 30
0.0
  0
VERTEX
  5
79
330
78
100
AcDbEntity
  8
CALQUE_1
 62
     7
100
AcDbVertex
100
AcDb2dVertex
 10
12.51028709043189
 20
-20.31951099342586
 30
0.0
  0
VERTEX
  5
7A
330
78
100
AcDbEntity
  8
CALQUE_1
 62
     7
100
AcDbVertex
100
AcDb2dVertex
 10
12.51028709043189
 20
-22.00173227850742
 30
0.0
  0
VERTEX
  5
7B
330
78
100
AcDbEntity
  8
CALQUE_1
 62
     7
100
AcDbVertex
100
AcDb2dVertex
 10
6.67008720811305
 20
-24.19576287013556
 30
0.0
  0
VERTEX
  5
7C
330
78
100
AcDbEntity
  8
CALQUE_1
 62
     7
100
AcDbVertex
100
AcDb2dVertex
 10
6.67008720811305
 20
-28.85750997488647
 30
0.0
  0
VERTEX
  5
7D
330
78
100
AcDbEntity
  8
CALQUE_1
 62
     7
100
AcDbVertex
100
AcDb2dVertex
 10
4.489250255601076
 20
-29.58359614617304
 30
0.0
  0
SEQEND
  5
7E
330
78
100
AcDbEntity
  8
CALQUE_1
 62
     7
  0
POLYLINE
  5
7F
330
41
100
AcDbEntity
  8
CALQUE_1
 62
     7
100
AcDb2dPolyline
 66
     1
 10
0.0
 20
0.0
 30
0.0
  0
VERTEX
  5
80
330
7F
100
AcDbEntity
  8
CALQUE_1
 62
     7
100
AcDbVertex
100
AcDb2dVertex
 10
6.67008720811305
 20
-16.21952707975766
 30
0.0
  0
VERTEX
  5
81
330
7F
100
AcDbEntity
  8
CALQUE_1
 62
     7
100
AcDbVertex
100
AcDb2dVertex
 10
20.90364858260981
 20
-21.95519926612892
 30
0.0
  0
SEQEND
  5
82
330
7F
100
AcDbEntity
  8
CALQUE_1
 62
     7
  0
POLYLINE
  5
83
330
41
100
AcDbEntity
  8
CALQUE_1
 62
     7
100
AcDb2dPolyline
 66
     1
 10
0.0
 20
0.0
 30
0.0
  0
VERTEX
  5
84
330
83
100
AcDbEntity
  8
CALQUE_1
 62
     7
100
AcDbVertex
100
AcDb2dVertex
 10
-13.50135798172426
 20
-9.475825337363995
 30
0.0
  0
VERTEX
  5
85
330
83
100
AcDbEntity
  8
CALQUE_1
 62
     7
100
AcDbVertex
100
AcDb2dVertex
 10
-13.50135798172426
 20
-16.1320378033174
 30
0.0
  0
VERTEX
  5
86
330
83
100
AcDbEntity
  8
CALQUE_1
 62
     7
100
AcDbVertex
100
AcDb2dVertex
 10
-3.415617555744987
 20
-19.99213272049745
 30
0.0
  0
VERTEX
  5
87
330
83
100
AcDbEntity
  8
CALQUE_1
 62
     7
100
AcDbVertex
100
AcDb2dVertex
 10
6.67008720811305
 20
-16.23434368182508
 30
0.0
  0
VERTEX
  5
88
330
83
100
AcDbEntity
  8
CALQUE_1
 62
     7
100
AcDbVertex
100
AcDb2dVertex
 10
6.67008720811305
 20
-9.841306904655436
 30
0.0
  0
VERTEX
  5
89
330
83
100
AcDbEntity
  8
CALQUE_1
 62
     7
100
AcDbVertex
100
AcDb2dVertex
 10
-3.415617555744987
 20
-13.52818618891031
 30
0.0
  0
VERTEX
  5
8A
330
83
100
AcDbEntity
  8
CALQUE_1
 62
     7
100
AcDbVertex
100
AcDb2dVertex
 10
-3.415617555744987
 20
-19.99213272049745
 30
0.0
  0
SEQEND
  5
8B
330
83
100
AcDbEntity
  8
CALQUE_1
 62
     7
  0
POLYLINE
  5
8C
330
41
100
AcDbEntity
  8
CALQUE_1
 62
     7
100
AcDb2dPolyline
 66
     1
 10
0.0
 20
0.0
 30
0.0
  0
VERTEX
  5
8D
330
8C
100
AcDbEntity
  8
CALQUE_1
 62
     7
100
AcDbVertex
100
AcDb2dVertex
 10
4.519588627718057
 20
-29.6046919730585
 30
0.0
  0
VERTEX
  5
8E
330
8C
100
AcDbEntity
  8
CALQUE_1
 62
     7
100
AcDbVertex
100
AcDb2dVertex
 10
4.519588627718057
 20
-41.81408480371587
 30
0.0
  0
SEQEND
  5
8F
330
8C
100
AcDbEntity
  8
CALQUE_1
 62
     7
  0
POLYLINE
  5
90
330
41
100
AcDbEntity
  8
CALQUE_1
 62
     7
100
AcDb2dPolyline
 66
     1
 10
0.0
 20
0.0
 30
0.0
  0
VERTEX
  5
91
330
90
100
AcDbEntity
  8
CALQUE_1
 62
     7
100
AcDbVertex
100
AcDb2dVertex
 10
-21.14612310254459
 20
-18.97436807824836
 30
0.0
  0
VERTEX
  5
92
330
90
100
AcDbEntity
  8
CALQUE_1
 62
     7
100
AcDbVertex
100
AcDb2dVertex
 10
-21.14612310254459
 20
-20.58832802606672
 30
0.0
  0
VERTEX
  5
93
330
90
100
AcDbEntity
  8
CALQUE_1
 62
     7
100
AcDbVertex
100
AcDb2dVertex
 10
-13.27420431562915
 20
-24.00519256870344
 30
0.0
  0
VERTEX
  5
94
330
90
100
AcDbEntity
  8
CALQUE_1
 62
     7
100
AcDbVertex
100
AcDb2dVertex
 10
-13.27420431562915
 20
-35.51809475147721
 30
0.0
  0
SEQEND
  5
95
330
90
100
AcDbEntity
  8
CALQUE_1
 62
     7
  0
POLYLINE
  5
96
330
41
100
AcDbEntity
  8
CALQUE_1
 62
     7
100
AcDb2dPolyline
 66
     1
 10
0.0
 20
0.0
 30
0.0
  0
VERTEX
  5
97
330
96
100
AcDbEntity
  8
CALQUE_1
 62
     7
100
AcDbVertex
100
AcDb2dVertex
 10
-11.35251802640175
 20
-41.74790263540763
 30
0.0
  0
VERTEX
  5
98
330
96
100
AcDbEntity
  8
CALQUE_1
 62
     7
100
AcDbVertex
100
AcDb2dVertex
 10
-9.258464509477689
 20
-42.65129683624854
 30
0.0
  0
VERTEX
  5
99
330
96
100
AcDbEntity
  8
CALQUE_1
 62
     7
100
AcDbVertex
100
AcDb2dVertex
 10
-3.431633885400339
 20
-40.3707647416513
 30
0.0
  0
VERTEX
  5
9A
330
96
100
AcDbEntity
  8
CALQUE_1
 62
     7
100
AcDbVertex
100
AcDb2dVertex
 10
2.383379119144308
 20
-42.50824462918523
 30
0.0
  0
VERTEX
  5
9B
330
96
100
AcDbEntity
  8
CALQUE_1
 62
     7
100
AcDbVertex
100
AcDb2dVertex
 10
4.489250255601076
 20
-41.74790263540763
 30
0.0
  0
SEQEND
  5
9C
330
96
100
AcDbEntity
  8
CALQUE_1
 62
     7
  0
POLYLINE
  5
9D
330
41
100
AcDbEntity
  8
CALQUE_1
 62
     7
100
AcDb2dPolyline
 66
     1
 10
0.0
 20
0.0
 30
0.0
  0
VERTEX
  5
9E
330
9D
100
AcDbEntity
  8
CALQUE_1
 62
     7
100
AcDbVertex
100
AcDb2dVertex
 10
-11.35251802640175
 20
-48.22818376426038
 30
0.0
  0
VERTEX
  5
9F
330
9D
100
AcDbEntity
  8
CALQUE_1
 62
     7
100
AcDbVertex
100
AcDb2dVertex
 10
-11.35251802640175
 20
-41.74790263540763
 30
0.0
  0
VERTEX
  5
A0
330
9D
100
AcDbEntity
  8
CALQUE_1
 62
     7
100
AcDbVertex
100
AcDb2dVertex
 10
-3.415617555744987
 20
-38.64748087901449
 30
0.0
  0
VERTEX
  5
A1
330
9D
100
AcDbEntity
  8
CALQUE_1
 62
     7
100
AcDbVertex
100
AcDb2dVertex
 10
4.489250255601076
 20
-41.74790263540763
 30
0.0
  0
SEQEND
  5
A2
330
9D
100
AcDbEntity
  8
CALQUE_1
 62
     7
  0
POLYLINE
  5
A3
330
41
100
AcDbEntity
  8
CALQUE_1
 62
     7
100
AcDb2dPolyline
 66
     1
 10
0.0
 20
0.0
 30
0.0
  0
VERTEX
  5
A4
330
A3
100
AcDbEntity
  8
CALQUE_1
 62
     7
100
AcDbVertex
100
AcDb2dVertex
 10
-7.11322239117855
 20
-41.81408480371587
 30
0.0
  0
VERTEX
  5
A5
330
A3
100
AcDbEntity
  8
CALQUE_1
 62
     7
100
AcDbVertex
100
AcDb2dVertex
 10
-3.415617555744987
 20
-43.26855163371182
 30
0.0
  0
VERTEX
  5
A6
330
A3
100
AcDbEntity
  8
CALQUE_1
 62
     7
100
AcDbVertex
100
AcDb2dVertex
 10
0.2370429138805173
 20
-41.74790263540763
 30
0.0
  0
SEQEND
  5
A7
330
A3
100
AcDbEntity
  8
CALQUE_1
 62
     7
  0
POLYLINE
  5
A8
330
41
100
AcDbEntity
  8
CALQUE_1
 62
     7
100
AcDb2dPolyline
 66
     1
 10
0.0
 20
0.0
 30
0.0
  0
VERTEX
  5
A9
330
A8
100
AcDbEntity
  8
CALQUE_1
 62
     7
100
AcDbVertex
100
AcDb2dVertex
 10
-3.415617555744987
 20
-51.40544191589797
 30
0.0
  0
VERTEX
  5
AA
330
A8
100
AcDbEntity
  8
CALQUE_1
 62
     7
100
AcDbVertex
100
AcDb2dVertex
 10
-3.415617555744987
 20
-43.26855163371182
 30
0.0
  0
SEQEND
  5
AB
330
A8
100
AcDbEntity
  8
CALQUE_1
 62
     7
  0
POLYLINE
  5
AC
330
41
100
AcDbEntity
  8
CALQUE_1
 62
     7
100
AcDb2dPolyline
 66
     1
 10
0.0
 20
0.0
 30
0.0
  0
VERTEX
  5
AD
330
AC
100
AcDbEntity
  8
CALQUE_1
 62
     7
100
AcDbVertex
100
AcDb2dVertex
 10
4.489250255601076
 20
-48.09740941995477
 30
0.0
  0
VERTEX
  5
AE
330
AC
100
AcDbEntity
  8
CALQUE_1
 62
     7
100
AcDbVertex
100
AcDb2dVertex
 10
-3.415617555744987
 20
-51.40544191589797
 30
0.0
  0
VERTEX
  5
AF
330
AC
100
AcDbEntity
  8
CALQUE_1
 62
     7
100
AcDbVertex
100
AcDb2dVertex
 10
-11.30937325197559
 20
-48.24158935749332
 30
0.0
  0
VERTEX
  5
B0
330
AC
100
AcDbEntity
  8
CALQUE_1
 62
     7
100
AcDbVertex
100
AcDb2dVertex
 10
-21.14612310254459
 20
-52.40299151836906
 30
0.0
  0
VERTEX
  5
B1
330
AC
100
AcDbEntity
  8
CALQUE_1
 62
     7
100
AcDbVertex
100
AcDb2dVertex
 10
-13.50135798172426
 20
-55.21635893611385
 30
0.0
  0
SEQEND
  5
B2
330
AC
100
AcDbEntity
  8
CALQUE_1
 62
     7
  0
POLYLINE
  5
B3
330
41
100
AcDbEntity
  8
CALQUE_1
 62
     7
100
AcDb2dPolyline
 66
     1
 10
0.0
 20
0.0
 30
0.0
  0
VERTEX
  5
B4
330
B3
100
AcDbEntity
  8
CALQUE_1
 62
     7
100
AcDbVertex
100
AcDb2dVertex
 10
4.489250255601076
 20
-41.79051819741208
 30
0.0
  0
VERTEX
  5
B5
330
B3
100
AcDbEntity
  8
CALQUE_1
 62
     7
100
AcDbVertex
100
AcDb2dVertex
 10
12.46442694826535
 20
-38.44664392388825
 30
0.0
  0
SEQEND
  5
B6
330
B3
100
AcDbEntity
  8
CALQUE_1
 62
     7
  0
POLYLINE
  5
B7
330
41
100
AcDbEntity
  8
CALQUE_1
 62
     7
100
AcDb2dPolyline
 66
     1
 10
0.0
 20
0.0
 30
0.0
  0
VERTEX
  5
B8
330
B7
100
AcDbEntity
  8
CALQUE_1
 62
     7
100
AcDbVertex
100
AcDb2dVertex
 10
20.90047263520934
 20
-41.34361933447314
 30
0.0
  0
VERTEX
  5
B9
330
B7
100
AcDbEntity
  8
CALQUE_1
 62
     7
100
AcDbVertex
100
AcDb2dVertex
 10
12.46442694826535
 20
-38.44664392388825
 30
0.0
  0
SEQEND
  5
BA
330
B7
100
AcDbEntity
  8
CALQUE_1
 62
     7
  0
POLYLINE
  5
BB
330
41
100
AcDbEntity
  8
CALQUE_1
 62
     7
100
AcDb2dPolyline
 66
     1
 10
0.0
 20
0.0
 30
0.0
  0
VERTEX
  5
BC
330
BB
100
AcDbEntity
  8
CALQUE_1
 62
     7
100
AcDbVertex
100
AcDb2dVertex
 10
10.34557210819855
 20
-48.49583673143454
 30
0.0
  0
VERTEX
  5
BD
330
BB
100
AcDbEntity
  8
CALQUE_1
 62
     7
100
AcDbVertex
100
AcDb2dVertex
 10
10.34557210819855
 20
-45.7185232136047
 30
0.0
  0
SEQEND
  5
BE
330
BB
100
AcDbEntity
  8
CALQUE_1
 62
     7
  0
POLYLINE
  5
BF
330
41
100
AcDbEntity
  8
CALQUE_1
 62
     7
100
AcDb2dPolyline
 66
     1
 10
0.0
 20
0.0
 30
0.0
  0
VERTEX
  5
C0
330
BF
100
AcDbEntity
  8
CALQUE_1
 62
     7
100
AcDbVertex
100
AcDb2dVertex
 10
6.697674886803527
 20
-44.27026428418432
 30
0.0
  0
VERTEX
  5
C1
330
BF
100
AcDbEntity
  8
CALQUE_1
 62
     7
100
AcDbVertex
100
AcDb2dVertex
 10
10.32969775415792
 20
-45.61473567489028
 30
0.0
  0
VERTEX
  5
C2
330
BF
100
AcDbEntity
  8
CALQUE_1
 62
     7
100
AcDbVertex
100
AcDb2dVertex
 10
20.90047263520934
 20
-41.34361933447314
 30
0.0
  0
SEQEND
  5
C3
330
BF
100
AcDbEntity
  8
CALQUE_1
 62
     7
  0
POLYLINE
  5
C4
330
41
100
AcDbEntity
  8
CALQUE_1
 62
     7
100
AcDb2dPolyline
 66
     1
 10
0.0
 20
0.0
 30
0.0
  0
VERTEX
  5
C5
330
C4
100
AcDbEntity
  8
CALQUE_1
 62
     7
100
AcDbVertex
100
AcDb2dVertex
 10
12.51028709043189
 20
-51.02564099762575
 30
0.0
  0
VERTEX
  5
C6
330
C4
100
AcDbEntity
  8
CALQUE_1
 62
     7
100
AcDbVertex
100
AcDb2dVertex
 10
12.51028709043189
 20
-49.39594934425171
 30
0.0
  0
VERTEX
  5
C7
330
C4
100
AcDbEntity
  8
CALQUE_1
 62
     7
100
AcDbVertex
100
AcDb2dVertex
 10
6.67008720811305
 20
-47.20191807975336
 30
0.0
  0
VERTEX
  5
C8
330
C4
100
AcDbEntity
  8
CALQUE_1
 62
     7
100
AcDbVertex
100
AcDb2dVertex
 10
6.67008720811305
 20
-42.5402073099939
 30
0.0
  0
VERTEX
  5
C9
330
C4
100
AcDbEntity
  8
CALQUE_1
 62
     7
100
AcDbVertex
100
AcDb2dVertex
 10
4.489250255601076
 20
-41.79051819741208
 30
0.0
  0
SEQEND
  5
CA
330
C4
100
AcDbEntity
  8
CALQUE_1
 62
     7
  0
POLYLINE
  5
CB
330
41
100
AcDbEntity
  8
CALQUE_1
 62
     7
100
AcDb2dPolyline
 66
     1
 10
0.0
 20
0.0
 30
0.0
  0
VERTEX
  5
CC
330
CB
100
AcDbEntity
  8
CALQUE_1
 62
     7
100
AcDbVertex
100
AcDb2dVertex
 10
6.67008720811305
 20
-55.17804738842022
 30
0.0
  0
VERTEX
  5
CD
330
CB
100
AcDbEntity
  8
CALQUE_1
 62
     7
100
AcDbVertex
100
AcDb2dVertex
 10
20.90682183852942
 20
-49.46530544134978
 30
0.0
  0
SEQEND
  5
CE
330
CB
100
AcDbEntity
  8
CALQUE_1
 62
     7
  0
POLYLINE
  5
CF
330
41
100
AcDbEntity
  8
CALQUE_1
 62
     7
100
AcDb2dPolyline
 66
     1
 10
0.0
 20
0.0
 30
0.0
  0
VERTEX
  5
D0
330
CF
100
AcDbEntity
  8
CALQUE_1
 62
     7
100
AcDbVertex
100
AcDb2dVertex
 10
-13.50135798172426
 20
-61.9217472804208
 30
0.0
  0
VERTEX
  5
D1
330
CF
100
AcDbEntity
  8
CALQUE_1
 62
     7
100
AcDbVertex
100
AcDb2dVertex
 10
-13.50135798172426
 20
-55.26546567705311
 30
0.0
  0
VERTEX
  5
D2
330
CF
100
AcDbEntity
  8
CALQUE_1
 62
     7
100
AcDbVertex
100
AcDb2dVertex
 10
-3.415617555744987
 20
-51.40544191589797
 30
0.0
  0
VERTEX
  5
D3
330
CF
100
AcDbEntity
  8
CALQUE_1
 62
     7
100
AcDbVertex
100
AcDb2dVertex
 10
6.67008720811305
 20
-55.16323061813524
 30
0.0
  0
VERTEX
  5
D4
330
CF
100
AcDbEntity
  8
CALQUE_1
 62
     7
100
AcDbVertex
100
AcDb2dVertex
 10
6.642535864414018
 20
-61.5562344246645
 30
0.0
  0
VERTEX
  5
D5
330
CF
100
AcDbEntity
  8
CALQUE_1
 62
     7
100
AcDbVertex
100
AcDb2dVertex
 10
-3.415617555744987
 20
-57.86949484508738
 30
0.0
  0
VERTEX
  5
D6
330
CF
100
AcDbEntity
  8
CALQUE_1
 62
     7
100
AcDbVertex
100
AcDb2dVertex
 10
-3.415617555744987
 20
-51.40544191589797
 30
0.0
  0
SEQEND
  5
D7
330
CF
100
AcDbEntity
  8
CALQUE_1
 62
     7
  0
POLYLINE
  5
D8
330
41
100
AcDbEntity
  8
CALQUE_1
 62
     7
100
AcDb2dPolyline
 66
     1
 10
0.0
 20
0.0
 30
0.0
  0
VERTEX
  5
D9
330
D8
100
AcDbEntity
  8
CALQUE_1
 62
     7
100
AcDbVertex
100
AcDb2dVertex
 10
-21.14612310254459
 20
-52.32365170950099
 30
0.0
  0
VERTEX
  5
DA
330
D8
100
AcDbEntity
  8
CALQUE_1
 62
     7
100
AcDbVertex
100
AcDb2dVertex
 10
-21.14612310254459
 20
-50.80924728319892
 30
0.0
  0
VERTEX
  5
DB
330
D8
100
AcDbEntity
  8
CALQUE_1
 62
     7
100
AcDbVertex
100
AcDb2dVertex
 10
-13.27420431562915
 20
-47.39248905405569
 30
0.0
  0
VERTEX
  5
DC
330
D8
100
AcDbEntity
  8
CALQUE_1
 62
     7
100
AcDbVertex
100
AcDb2dVertex
 10
-13.27420431562915
 20
-35.51809475147721
 30
0.0
  0
SEQEND
  5
DD
330
D8
100
AcDbEntity
  8
CALQUE_1
 62
     7
  0
POLYLINE
  5
DE
330
41
100
AcDbEntity
  8
CALQUE_1
 62
     7
100
AcDb2dPolyline
 66
     1
 10
0.0
 20
0.0
 30
0.0
  0
VERTEX
  5
DF
330
DE
100
AcDbEntity
  8
CALQUE_1
 62
     7
100
AcDbVertex
100
AcDb2dVertex
 10
-11.35251802640175
 20
-29.6046919730585
 30
0.0
  0
VERTEX
  5
E0
330
DE
100
AcDbEntity
  8
CALQUE_1
 62
     7
100
AcDbVertex
100
AcDb2dVertex
 10
-11.35251802640175
 20
-41.74790263540763
 30
0.0
  0
SEQEND
  5
E1
330
DE
100
AcDbEntity
  8
CALQUE_1
 62
     7
  0
POLYLINE
  5
E2
330
41
100
AcDbEntity
  8
CALQUE_1
 62
     7
100
AcDb2dPolyline
 66
     1
 10
0.0
 20
0.0
 30
0.0
  0
VERTEX
  5
E3
330
E2
100
AcDbEntity
  8
CALQUE_1
 62
     7
100
AcDbVertex
100
AcDb2dVertex
 10
4.489250255601076
 20
-41.81408480371587
 30
0.0
  0
VERTEX
  5
E4
330
E2
100
AcDbEntity
  8
CALQUE_1
 62
     7
100
AcDbVertex
100
AcDb2dVertex
 10
4.489250255601076
 20
-48.06781120507094
 30
0.0
  0
VERTEX
  5
E5
330
E2
100
AcDbEntity
  8
CALQUE_1
 62
     7
100
AcDbVertex
100
AcDb2dVertex
 10
12.51028709043189
 20
-51.07816995646306
 30
0.0
  0
SEQEND
  5
E6
330
E2
100
AcDbEntity
  8
CALQUE_1
 62
     7
  0
POLYLINE
  5
E7
330
41
100
AcDbEntity
  8
CALQUE_1
 62
     7
100
AcDb2dPolyline
 66
     1
 10
0.0
 20
0.0
 30
0.0
  0
VERTEX
  5
E8
330
E7
100
AcDbEntity
  8
CALQUE_1
 62
     7
100
AcDbVertex
100
AcDb2dVertex
 10
12.51028709043189
 20
-51.07816995646306
 30
0.0
  0
VERTEX
  5
E9
330
E7
100
AcDbEntity
  8
CALQUE_1
 62
     7
100
AcDbVertex
100
AcDb2dVertex
 10
20.90047263520934
 20
-47.94550291377224
 30
0.0
  0
SEQEND
  5
EA
330
E7
100
AcDbEntity
  8
CALQUE_1
 62
     7
  0
POLYLINE
  5
EB
330
41
100
AcDbEntity
  8
CALQUE_1
 62
     7
100
AcDb2dPolyline
 66
     1
 10
0.0
 20
0.0
 30
0.0
  0
VERTEX
  5
EC
330
EB
100
AcDbEntity
  8
CALQUE_1
 62
     7
100
AcDbVertex
100
AcDb2dVertex
 10
20.90047263520934
 20
-23.70300117354923
 30
0.0
  0
VERTEX
  5
ED
330
EB
100
AcDbEntity
  8
CALQUE_1
 62
     7
100
AcDbVertex
100
AcDb2dVertex
 10
12.51028709043189
 20
-20.31951099342586
 30
0.0
  0
VERTEX
  5
EE
330
EB
100
AcDbEntity
  8
CALQUE_1
 62
     7
100
AcDbVertex
100
AcDb2dVertex
 10
4.489250255601076
 20
-23.23035022185804
 30
0.0
  0
VERTEX
  5
EF
330
EB
100
AcDbEntity
  8
CALQUE_1
 62
     7
100
AcDbVertex
100
AcDb2dVertex
 10
4.489250255601076
 20
-29.58359614617304
 30
0.0
  0
SEQEND
  5
F0
330
EB
100
AcDbEntity
  8
CALQUE_1
 62
     7
  0
POLYLINE
  5
F1
330
41
100
AcDbEntity
  8
CALQUE_1
 62
     7
100
AcDb2dPolyline
 66
     1
 10
0.0
 20
0.0
 30
0.0
  0
VERTEX
  5
F2
330
F1
100
AcDbEntity
  8
CALQUE_1
 62
     7
100
AcDbVertex
100
AcDb2dVertex
 10
45.15217923993233
 20
-32.70366840423634
 30
0.0
  0
VERTEX
  5
F3
330
F1
100
AcDbEntity
  8
CALQUE_1
 62
     7
100
AcDbVertex
100
AcDb2dVertex
 10
45.23896334839045
 20
-38.60094921237641
 30
0.0
  0
SEQEND
  5
F4
330
F1
100
AcDbEntity
  8
CALQUE_1
 62
     7
  0
POLYLINE
  5
F5
330
41
100
AcDbEntity
  8
CALQUE_1
 62
     7
100
AcDb2dPolyline
 66
     1
 10
0.0
 20
0.0
 30
0.0
  0
VERTEX
  5
F6
330
F5
100
AcDbEntity
  8
CALQUE_1
 62
     7
100
AcDbVertex
100
AcDb2dVertex
 10
53.29499616294545
 20
-29.55816165216085
 30
0.0
  0
VERTEX
  5
F7
330
F5
100
AcDbEntity
  8
CALQUE_1
 62
     7
100
AcDbVertex
100
AcDb2dVertex
 10
51.06579329959759
 20
-28.69985379274272
 30
0.0
  0
VERTEX
  5
F8
330
F5
100
AcDbEntity
  8
CALQUE_1
 62
     7
100
AcDbVertex
100
AcDb2dVertex
 10
45.23896334839045
 20
-30.98038588733996
 30
0.0
  0
VERTEX
  5
F9
330
F5
100
AcDbEntity
  8
CALQUE_1
 62
     7
100
AcDbVertex
100
AcDb2dVertex
 10
39.42377674333112
 20
-28.8429382975762
 30
0.0
  0
VERTEX
  5
FA
330
F5
100
AcDbEntity
  8
CALQUE_1
 62
     7
100
AcDbVertex
100
AcDb2dVertex
 10
37.31804287239759
 20
-29.60328163709423
 30
0.0
  0
SEQEND
  5
FB
330
F5
100
AcDbEntity
  8
CALQUE_1
 62
     7
  0
POLYLINE
  5
FC
330
41
100
AcDbEntity
  8
CALQUE_1
 62
     7
100
AcDb2dPolyline
 66
     1
 10
0.0
 20
0.0
 30
0.0
  0
VERTEX
  5
FD
330
FC
100
AcDbEntity
  8
CALQUE_1
 62
     7
100
AcDbVertex
100
AcDb2dVertex
 10
53.29499616294545
 20
-23.23289097977841
 30
0.0
  0
VERTEX
  5
FE
330
FC
100
AcDbEntity
  8
CALQUE_1
 62
     7
100
AcDbVertex
100
AcDb2dVertex
 10
53.29499616294545
 20
-29.55816165216085
 30
0.0
  0
VERTEX
  5
FF
330
FC
100
AcDbEntity
  8
CALQUE_1
 62
     7
100
AcDbVertex
100
AcDb2dVertex
 10
45.22308899434982
 20
-32.70366840423634
 30
0.0
  0
VERTEX
  5
100
330
FC
100
AcDbEntity
  8
CALQUE_1
 62
     7
100
AcDbVertex
100
AcDb2dVertex
 10
37.31804287239759
 20
-29.53706582527539
 30
0.0
  0
SEQEND
  5
101
330
FC
100
AcDbEntity
  8
CALQUE_1
 62
     7
  0
POLYLINE
  5
102
330
41
100
AcDbEntity
  8
CALQUE_1
 62
     7
100
AcDb2dPolyline
 66
     1
 10
0.0
 20
0.0
 30
0.0
  0
VERTEX
  5
103
330
102
100
AcDbEntity
  8
CALQUE_1
 62
     7
100
AcDbVertex
100
AcDb2dVertex
 10
48.81577990633414
 20
-29.55816165216085
 30
0.0
  0
VERTEX
  5
104
330
102
100
AcDbEntity
  8
CALQUE_1
 62
     7
100
AcDbVertex
100
AcDb2dVertex
 10
45.22308899434982
 20
-28.08259764953902
 30
0.0
  0
VERTEX
  5
105
330
102
100
AcDbEntity
  8
CALQUE_1
 62
     7
100
AcDbVertex
100
AcDb2dVertex
 10
41.47235432697967
 20
-29.55816165216085
 30
0.0
  0
SEQEND
  5
106
330
102
100
AcDbEntity
  8
CALQUE_1
 62
     7
  0
POLYLINE
  5
107
330
41
100
AcDbEntity
  8
CALQUE_1
 62
     7
100
AcDb2dPolyline
 66
     1
 10
0.0
 20
0.0
 30
0.0
  0
VERTEX
  5
108
330
107
100
AcDbEntity
  8
CALQUE_1
 62
     7
100
AcDbVertex
100
AcDb2dVertex
 10
45.30669715540748
 20
-19.94556741034877
 30
0.0
  0
VERTEX
  5
109
330
107
100
AcDbEntity
  8
CALQUE_1
 62
     7
100
AcDbVertex
100
AcDb2dVertex
 10
45.22308899434982
 20
-28.08259764953902
 30
0.0
  0
SEQEND
  5
10A
330
107
100
AcDbEntity
  8
CALQUE_1
 62
     7
  0
POLYLINE
  5
10B
330
41
100
AcDbEntity
  8
CALQUE_1
 62
     7
100
AcDb2dPolyline
 66
     1
 10
0.0
 20
0.0
 30
0.0
  0
VERTEX
  5
10C
330
10B
100
AcDbEntity
  8
CALQUE_1
 62
     7
100
AcDbVertex
100
AcDb2dVertex
 10
37.31804287239759
 20
-23.17881105510253
 30
0.0
  0
VERTEX
  5
10D
330
10B
100
AcDbEntity
  8
CALQUE_1
 62
     7
100
AcDbVertex
100
AcDb2dVertex
 10
45.30669715540748
 20
-19.94556741034877
 30
0.0
  0
VERTEX
  5
10E
330
10B
100
AcDbEntity
  8
CALQUE_1
 62
     7
100
AcDbVertex
100
AcDb2dVertex
 10
53.35320751072278
 20
-23.12296551899046
 30
0.0
  0
VERTEX
  5
10F
330
10B
100
AcDbEntity
  8
CALQUE_1
 62
     7
100
AcDbVertex
100
AcDb2dVertex
 10
63.14667195699133
 20
-18.94826340550505
 30
0.0
  0
VERTEX
  5
110
330
10B
100
AcDbEntity
  8
CALQUE_1
 62
     7
100
AcDbVertex
100
AcDb2dVertex
 10
55.50197277745176
 20
-16.1348611667268
 30
0.0
  0
SEQEND
  5
111
330
10B
100
AcDbEntity
  8
CALQUE_1
 62
     7
  0
POLYLINE
  5
112
330
41
100
AcDbEntity
  8
CALQUE_1
 62
     7
100
AcDb2dPolyline
 66
     1
 10
0.0
 20
0.0
 30
0.0
  0
VERTEX
  5
113
330
112
100
AcDbEntity
  8
CALQUE_1
 62
     7
100
AcDbVertex
100
AcDb2dVertex
 10
37.31804287239759
 20
-29.56062974009833
 30
0.0
  0
VERTEX
  5
114
330
112
100
AcDbEntity
  8
CALQUE_1
 62
     7
100
AcDbVertex
100
AcDb2dVertex
 10
29.3427975469717
 20
-33.0285409084954
 30
0.0
  0
SEQEND
  5
115
330
112
100
AcDbEntity
  8
CALQUE_1
 62
     7
  0
POLYLINE
  5
116
330
41
100
AcDbEntity
  8
CALQUE_1
 62
     7
100
AcDb2dPolyline
 66
     1
 10
0.0
 20
0.0
 30
0.0
  0
VERTEX
  5
117
330
116
100
AcDbEntity
  8
CALQUE_1
 62
     7
100
AcDbVertex
100
AcDb2dVertex
 10
20.90682183852942
 20
-30.05282622570662
 30
0.0
  0
VERTEX
  5
118
330
116
100
AcDbEntity
  8
CALQUE_1
 62
     7
100
AcDbVertex
100
AcDb2dVertex
 10
29.3427975469717
 20
-33.01185641871957
 30
0.0
  0
VERTEX
  5
119
330
116
100
AcDbEntity
  8
CALQUE_1
 62
     7
100
AcDbVertex
100
AcDb2dVertex
 10
29.3427975469717
 20
-38.40007726799914
 30
0.0
  0
SEQEND
  5
11A
330
116
100
AcDbEntity
  8
CALQUE_1
 62
     7
  0
POLYLINE
  5
11B
330
41
100
AcDbEntity
  8
CALQUE_1
 62
     7
100
AcDb2dPolyline
 66
     1
 10
0.0
 20
0.0
 30
0.0
  0
VERTEX
  5
11C
330
11B
100
AcDbEntity
  8
CALQUE_1
 62
     7
100
AcDbVertex
100
AcDb2dVertex
 10
31.46157971705561
 20
-22.85534888680774
 30
0.0
  0
VERTEX
  5
11D
330
11B
100
AcDbEntity
  8
CALQUE_1
 62
     7
100
AcDbVertex
100
AcDb2dVertex
 10
31.46157971705561
 20
-25.63262606964614
 30
0.0
  0
SEQEND
  5
11E
330
11B
100
AcDbEntity
  8
CALQUE_1
 62
     7
  0
POLYLINE
  5
11F
330
41
100
AcDbEntity
  8
CALQUE_1
 62
     7
100
AcDb2dPolyline
 66
     1
 10
0.0
 20
0.0
 30
0.0
  0
VERTEX
  5
120
330
11F
100
AcDbEntity
  8
CALQUE_1
 62
     7
100
AcDbVertex
100
AcDb2dVertex
 10
35.10965592192701
 20
-27.08091998831754
 30
0.0
  0
VERTEX
  5
121
330
11F
100
AcDbEntity
  8
CALQUE_1
 62
     7
100
AcDbVertex
100
AcDb2dVertex
 10
31.47745407109624
 20
-25.73641226262014
 30
0.0
  0
VERTEX
  5
122
330
11F
100
AcDbEntity
  8
CALQUE_1
 62
     7
100
AcDbVertex
100
AcDb2dVertex
 10
20.90682183852942
 20
-30.05282622570662
 30
0.0
  0
SEQEND
  5
123
330
11F
100
AcDbEntity
  8
CALQUE_1
 62
     7
  0
POLYLINE
  5
124
330
41
100
AcDbEntity
  8
CALQUE_1
 62
     7
100
AcDb2dPolyline
 66
     1
 10
0.0
 20
0.0
 30
0.0
  0
VERTEX
  5
125
330
124
100
AcDbEntity
  8
CALQUE_1
 62
     7
100
AcDbVertex
100
AcDb2dVertex
 10
29.29693740480516
 20
-20.27294299179633
 30
0.0
  0
VERTEX
  5
126
330
124
100
AcDbEntity
  8
CALQUE_1
 62
     7
100
AcDbVertex
100
AcDb2dVertex
 10
29.29693740480516
 20
-21.95519926612892
 30
0.0
  0
VERTEX
  5
127
330
124
100
AcDbEntity
  8
CALQUE_1
 62
     7
100
AcDbVertex
100
AcDb2dVertex
 10
35.13717362211544
 20
-24.14922985775706
 30
0.0
  0
VERTEX
  5
128
330
124
100
AcDbEntity
  8
CALQUE_1
 62
     7
100
AcDbVertex
100
AcDb2dVertex
 10
35.13717362211544
 20
-28.81097696250797
 30
0.0
  0
VERTEX
  5
129
330
124
100
AcDbEntity
  8
CALQUE_1
 62
     7
100
AcDbVertex
100
AcDb2dVertex
 10
37.31804287239759
 20
-29.53706582527539
 30
0.0
  0
SEQEND
  5
12A
330
124
100
AcDbEntity
  8
CALQUE_1
 62
     7
  0
POLYLINE
  5
12B
330
41
100
AcDbEntity
  8
CALQUE_1
 62
     7
100
AcDb2dPolyline
 66
     1
 10
0.0
 20
0.0
 30
0.0
  0
VERTEX
  5
12C
330
12B
100
AcDbEntity
  8
CALQUE_1
 62
     7
100
AcDbVertex
100
AcDb2dVertex
 10
35.13717362211544
 20
-16.17296176960898
 30
0.0
  0
VERTEX
  5
12D
330
12B
100
AcDbEntity
  8
CALQUE_1
 62
     7
100
AcDbVertex
100
AcDb2dVertex
 10
20.90682183852942
 20
-21.95519926612892
 30
0.0
  0
SEQEND
  5
12E
330
12B
100
AcDbEntity
  8
CALQUE_1
 62
     7
  0
POLYLINE
  5
12F
330
41
100
AcDbEntity
  8
CALQUE_1
 62
     7
100
AcDb2dPolyline
 66
     1
 10
0.0
 20
0.0
 30
0.0
  0
VERTEX
  5
130
330
12F
100
AcDbEntity
  8
CALQUE_1
 62
     7
100
AcDbVertex
100
AcDb2dVertex
 10
55.30865447407398
 20
-9.429262718696165
 30
0.0
  0
VERTEX
  5
131
330
12F
100
AcDbEntity
  8
CALQUE_1
 62
     7
100
AcDbVertex
100
AcDb2dVertex
 10
55.30865447407398
 20
-16.08582507715979
 30
0.0
  0
VERTEX
  5
132
330
12F
100
AcDbEntity
  8
CALQUE_1
 62
     7
100
AcDbVertex
100
AcDb2dVertex
 10
45.30669715540748
 20
-19.94556741034877
 30
0.0
  0
VERTEX
  5
133
330
12F
100
AcDbEntity
  8
CALQUE_1
 62
     7
100
AcDbVertex
100
AcDb2dVertex
 10
35.13717362211544
 20
-16.1877783716764
 30
0.0
  0
VERTEX
  5
134
330
12F
100
AcDbEntity
  8
CALQUE_1
 62
     7
100
AcDbVertex
100
AcDb2dVertex
 10
35.13717362211544
 20
-9.79473890302591
 30
0.0
  0
VERTEX
  5
135
330
12F
100
AcDbEntity
  8
CALQUE_1
 62
     7
100
AcDbVertex
100
AcDb2dVertex
 10
45.22308899434982
 20
-13.48161818728079
 30
0.0
  0
VERTEX
  5
136
330
12F
100
AcDbEntity
  8
CALQUE_1
 62
     7
100
AcDbVertex
100
AcDb2dVertex
 10
45.30669715540748
 20
-19.91381601078667
 30
0.0
  0
SEQEND
  5
137
330
12F
100
AcDbEntity
  8
CALQUE_1
 62
     7
  0
POLYLINE
  5
138
330
41
100
AcDbEntity
  8
CALQUE_1
 62
     7
100
AcDb2dPolyline
 66
     1
 10
0.0
 20
0.0
 30
0.0
  0
VERTEX
  5
139
330
138
100
AcDbEntity
  8
CALQUE_1
 62
     7
100
AcDbVertex
100
AcDb2dVertex
 10
37.28770450028061
 20
-29.55816165216085
 30
0.0
  0
VERTEX
  5
13A
330
138
100
AcDbEntity
  8
CALQUE_1
 62
     7
100
AcDbVertex
100
AcDb2dVertex
 10
37.28770450028061
 20
-41.76755313707779
 30
0.0
  0
SEQEND
  5
13B
330
138
100
AcDbEntity
  8
CALQUE_1
 62
     7
  0
POLYLINE
  5
13C
330
41
100
AcDbEntity
  8
CALQUE_1
 62
     7
100
AcDb2dPolyline
 66
     1
 10
0.0
 20
0.0
 30
0.0
  0
VERTEX
  5
13D
330
13C
100
AcDbEntity
  8
CALQUE_1
 62
     7
100
AcDbVertex
100
AcDb2dVertex
 10
63.14667195699133
 20
-18.92780276809969
 30
0.0
  0
VERTEX
  5
13E
330
13C
100
AcDbEntity
  8
CALQUE_1
 62
     7
100
AcDbVertex
100
AcDb2dVertex
 10
63.14667195699133
 20
-20.54176002443719
 30
0.0
  0
VERTEX
  5
13F
330
13C
100
AcDbEntity
  8
CALQUE_1
 62
     7
100
AcDbVertex
100
AcDb2dVertex
 10
55.27478487908462
 20
-23.95865955632494
 30
0.0
  0
VERTEX
  5
140
330
13C
100
AcDbEntity
  8
CALQUE_1
 62
     7
100
AcDbVertex
100
AcDb2dVertex
 10
55.27478487908462
 20
-35.47156308483913
 30
0.0
  0
SEQEND
  5
141
330
13C
100
AcDbEntity
  8
CALQUE_1
 62
     7
  0
POLYLINE
  5
142
330
41
100
AcDbEntity
  8
CALQUE_1
 62
     7
100
AcDb2dPolyline
 66
     1
 10
0.0
 20
0.0
 30
0.0
  0
VERTEX
  5
143
330
142
100
AcDbEntity
  8
CALQUE_1
 62
     7
100
AcDbVertex
100
AcDb2dVertex
 10
53.29499616294545
 20
-41.70137231450997
 30
0.0
  0
VERTEX
  5
144
330
142
100
AcDbEntity
  8
CALQUE_1
 62
     7
100
AcDbVertex
100
AcDb2dVertex
 10
51.06579329959759
 20
-42.60476516961046
 30
0.0
  0
VERTEX
  5
145
330
142
100
AcDbEntity
  8
CALQUE_1
 62
     7
100
AcDbVertex
100
AcDb2dVertex
 10
45.23896334839045
 20
-40.32423307501323
 30
0.0
  0
VERTEX
  5
146
330
142
100
AcDbEntity
  8
CALQUE_1
 62
     7
100
AcDbVertex
100
AcDb2dVertex
 10
39.42377674333112
 20
-42.46167797329613
 30
0.0
  0
VERTEX
  5
147
330
142
100
AcDbEntity
  8
CALQUE_1
 62
     7
100
AcDbVertex
100
AcDb2dVertex
 10
37.31804287239759
 20
-41.76755313707779
 30
0.0
  0
SEQEND
  5
148
330
142
100
AcDbEntity
  8
CALQUE_1
 62
     7
  0
POLYLINE
  5
149
330
41
100
AcDbEntity
  8
CALQUE_1
 62
     7
100
AcDb2dPolyline
 66
     1
 10
0.0
 20
0.0
 30
0.0
  0
VERTEX
  5
14A
330
149
100
AcDbEntity
  8
CALQUE_1
 62
     7
100
AcDbVertex
100
AcDb2dVertex
 10
53.29499616294545
 20
-48.2208111253479
 30
0.0
  0
VERTEX
  5
14B
330
149
100
AcDbEntity
  8
CALQUE_1
 62
     7
100
AcDbVertex
100
AcDb2dVertex
 10
53.29499616294545
 20
-41.70137231450997
 30
0.0
  0
VERTEX
  5
14C
330
149
100
AcDbEntity
  8
CALQUE_1
 62
     7
100
AcDbVertex
100
AcDb2dVertex
 10
45.22308899434982
 20
-38.60094921237641
 30
0.0
  0
VERTEX
  5
14D
330
149
100
AcDbEntity
  8
CALQUE_1
 62
     7
100
AcDbVertex
100
AcDb2dVertex
 10
37.31804287239759
 20
-41.74398787651443
 30
0.0
  0
SEQEND
  5
14E
330
149
100
AcDbEntity
  8
CALQUE_1
 62
     7
  0
POLYLINE
  5
14F
330
41
100
AcDbEntity
  8
CALQUE_1
 62
     7
100
AcDb2dPolyline
 66
     1
 10
0.0
 20
0.0
 30
0.0
  0
VERTEX
  5
150
330
14F
100
AcDbEntity
  8
CALQUE_1
 62
     7
100
AcDbVertex
100
AcDb2dVertex
 10
48.9205538727793
 20
-41.76755313707779
 30
0.0
  0
VERTEX
  5
151
330
14F
100
AcDbEntity
  8
CALQUE_1
 62
     7
100
AcDbVertex
100
AcDb2dVertex
 10
45.22308899434982
 20
-43.22201996707374
 30
0.0
  0
VERTEX
  5
152
330
14F
100
AcDbEntity
  8
CALQUE_1
 62
     7
100
AcDbVertex
100
AcDb2dVertex
 10
41.57042650611368
 20
-41.70137231450997
 30
0.0
  0
SEQEND
  5
153
330
14F
100
AcDbEntity
  8
CALQUE_1
 62
     7
  0
POLYLINE
  5
154
330
41
100
AcDbEntity
  8
CALQUE_1
 62
     7
100
AcDb2dPolyline
 66
     1
 10
0.0
 20
0.0
 30
0.0
  0
VERTEX
  5
155
330
154
100
AcDbEntity
  8
CALQUE_1
 62
     7
100
AcDbVertex
100
AcDb2dVertex
 10
45.22308899434982
 20
-51.3589102492599
 30
0.0
  0
VERTEX
  5
156
330
154
100
AcDbEntity
  8
CALQUE_1
 62
     7
100
AcDbVertex
100
AcDb2dVertex
 10
45.22308899434982
 20
-43.22201996707374
 30
0.0
  0
SEQEND
  5
157
330
154
100
AcDbEntity
  8
CALQUE_1
 62
     7
  0
POLYLINE
  5
158
330
41
100
AcDbEntity
  8
CALQUE_1
 62
     7
100
AcDb2dPolyline
 66
     1
 10
0.0
 20
0.0
 30
0.0
  0
VERTEX
  5
159
330
158
100
AcDbEntity
  8
CALQUE_1
 62
     7
100
AcDbVertex
100
AcDb2dVertex
 10
37.51136655873707
 20
-48.05087775331668
 30
0.0
  0
VERTEX
  5
15A
330
158
100
AcDbEntity
  8
CALQUE_1
 62
     7
100
AcDbVertex
100
AcDb2dVertex
 10
45.22308899434982
 20
-51.3589102492599
 30
0.0
  0
VERTEX
  5
15B
330
158
100
AcDbEntity
  8
CALQUE_1
 62
     7
100
AcDbVertex
100
AcDb2dVertex
 10
53.30981545649372
 20
-48.19505836372545
 30
0.0
  0
VERTEX
  5
15C
330
158
100
AcDbEntity
  8
CALQUE_1
 62
     7
100
AcDbVertex
100
AcDb2dVertex
 10
63.14667195699133
 20
-52.35642486247996
 30
0.0
  0
VERTEX
  5
15D
330
158
100
AcDbEntity
  8
CALQUE_1
 62
     7
100
AcDbVertex
100
AcDb2dVertex
 10
55.50197277745176
 20
-55.16982760591087
 30
0.0
  0
SEQEND
  5
15E
330
158
100
AcDbEntity
  8
CALQUE_1
 62
     7
  0
POLYLINE
  5
15F
330
41
100
AcDbEntity
  8
CALQUE_1
 62
     7
100
AcDb2dPolyline
 66
     1
 10
0.0
 20
0.0
 30
0.0
  0
VERTEX
  5
160
330
15F
100
AcDbEntity
  8
CALQUE_1
 62
     7
100
AcDbVertex
100
AcDb2dVertex
 10
37.31804287239759
 20
-41.74398787651443
 30
0.0
  0
VERTEX
  5
161
330
15F
100
AcDbEntity
  8
CALQUE_1
 62
     7
100
AcDbVertex
100
AcDb2dVertex
 10
29.3427975469717
 20
-38.40007726799914
 30
0.0
  0
SEQEND
  5
162
330
15F
100
AcDbEntity
  8
CALQUE_1
 62
     7
  0
POLYLINE
  5
163
330
41
100
AcDbEntity
  8
CALQUE_1
 62
     7
100
AcDb2dPolyline
 66
     1
 10
0.0
 20
0.0
 30
0.0
  0
VERTEX
  5
164
330
163
100
AcDbEntity
  8
CALQUE_1
 62
     7
100
AcDbVertex
100
AcDb2dVertex
 10
20.90682183852942
 20
-41.31878369494959
 30
0.0
  0
VERTEX
  5
165
330
163
100
AcDbEntity
  8
CALQUE_1
 62
     7
100
AcDbVertex
100
AcDb2dVertex
 10
29.3427975469717
 20
-38.40007726799914
 30
0.0
  0
SEQEND
  5
166
330
163
100
AcDbEntity
  8
CALQUE_1
 62
     7
  0
POLYLINE
  5
167
330
41
100
AcDbEntity
  8
CALQUE_1
 62
     7
100
AcDb2dPolyline
 66
     1
 10
0.0
 20
0.0
 30
0.0
  0
VERTEX
  5
168
330
167
100
AcDbEntity
  8
CALQUE_1
 62
     7
100
AcDbVertex
100
AcDb2dVertex
 10
31.46157971705561
 20
-48.44927007554544
 30
0.0
  0
VERTEX
  5
169
330
167
100
AcDbEntity
  8
CALQUE_1
 62
     7
100
AcDbVertex
100
AcDb2dVertex
 10
31.46157971705561
 20
-45.67199154696662
 30
0.0
  0
SEQEND
  5
16A
330
167
100
AcDbEntity
  8
CALQUE_1
 62
     7
  0
POLYLINE
  5
16B
330
41
100
AcDbEntity
  8
CALQUE_1
 62
     7
100
AcDb2dPolyline
 66
     1
 10
0.0
 20
0.0
 30
0.0
  0
VERTEX
  5
16C
330
16B
100
AcDbEntity
  8
CALQUE_1
 62
     7
100
AcDbVertex
100
AcDb2dVertex
 10
35.10965592192701
 20
-44.22369762829522
 30
0.0
  0
VERTEX
  5
16D
330
16B
100
AcDbEntity
  8
CALQUE_1
 62
     7
100
AcDbVertex
100
AcDb2dVertex
 10
31.47745407109624
 20
-45.5682040082522
 30
0.0
  0
VERTEX
  5
16E
330
16B
100
AcDbEntity
  8
CALQUE_1
 62
     7
100
AcDbVertex
100
AcDb2dVertex
 10
20.90682183852942
 20
-41.34361933447314
 30
0.0
  0
SEQEND
  5
16F
330
16B
100
AcDbEntity
  8
CALQUE_1
 62
     7
  0
POLYLINE
  5
170
330
41
100
AcDbEntity
  8
CALQUE_1
 62
     7
100
AcDb2dPolyline
 66
     1
 10
0.0
 20
0.0
 30
0.0
  0
VERTEX
  5
171
330
170
100
AcDbEntity
  8
CALQUE_1
 62
     7
100
AcDbVertex
100
AcDb2dVertex
 10
29.29693740480516
 20
-50.97911000385788
 30
0.0
  0
VERTEX
  5
172
330
170
100
AcDbEntity
  8
CALQUE_1
 62
     7
100
AcDbVertex
100
AcDb2dVertex
 10
29.29693740480516
 20
-49.34941767761363
 30
0.0
  0
VERTEX
  5
173
330
170
100
AcDbEntity
  8
CALQUE_1
 62
     7
100
AcDbVertex
100
AcDb2dVertex
 10
35.13717362211544
 20
-47.15538708598549
 30
0.0
  0
VERTEX
  5
174
330
170
100
AcDbEntity
  8
CALQUE_1
 62
     7
100
AcDbVertex
100
AcDb2dVertex
 10
35.13717362211544
 20
-42.49364065410479
 30
0.0
  0
VERTEX
  5
175
330
170
100
AcDbEntity
  8
CALQUE_1
 62
     7
100
AcDbVertex
100
AcDb2dVertex
 10
37.31804287239759
 20
-41.74398787651443
 30
0.0
  0
SEQEND
  5
176
330
170
100
AcDbEntity
  8
CALQUE_1
 62
     7
  0
POLYLINE
  5
177
330
41
100
AcDbEntity
  8
CALQUE_1
 62
     7
100
AcDb2dPolyline
 66
     1
 10
0.0
 20
0.0
 30
0.0
  0
VERTEX
  5
178
330
177
100
AcDbEntity
  8
CALQUE_1
 62
     7
100
AcDbVertex
100
AcDb2dVertex
 10
35.13717362211544
 20
-55.13151588999969
 30
0.0
  0
VERTEX
  5
179
330
177
100
AcDbEntity
  8
CALQUE_1
 62
     7
100
AcDbVertex
100
AcDb2dVertex
 10
20.90682183852942
 20
-49.46530544134978
 30
0.0
  0
SEQEND
  5
17A
330
177
100
AcDbEntity
  8
CALQUE_1
 62
     7
  0
POLYLINE
  5
17B
330
41
100
AcDbEntity
  8
CALQUE_1
 62
     7
100
AcDb2dPolyline
 66
     1
 10
0.0
 20
0.0
 30
0.0
  0
VERTEX
  5
17C
330
17B
100
AcDbEntity
  8
CALQUE_1
 62
     7
100
AcDbVertex
100
AcDb2dVertex
 10
55.30865447407398
 20
-61.87521595021782
 30
0.0
  0
VERTEX
  5
17D
330
17B
100
AcDbEntity
  8
CALQUE_1
 62
     7
100
AcDbVertex
100
AcDb2dVertex
 10
55.30865447407398
 20
-55.21893434685014
 30
0.0
  0
VERTEX
  5
17E
330
17B
100
AcDbEntity
  8
CALQUE_1
 62
     7
100
AcDbVertex
100
AcDb2dVertex
 10
45.22308899434982
 20
-51.3589102492599
 30
0.0
  0
VERTEX
  5
17F
330
17B
100
AcDbEntity
  8
CALQUE_1
 62
     7
100
AcDbVertex
100
AcDb2dVertex
 10
35.13717362211544
 20
-55.13151588999969
 30
0.0
  0
VERTEX
  5
180
330
17B
100
AcDbEntity
  8
CALQUE_1
 62
     7
100
AcDbVertex
100
AcDb2dVertex
 10
35.13717362211544
 20
-61.50970275802642
 30
0.0
  0
VERTEX
  5
181
330
17B
100
AcDbEntity
  8
CALQUE_1
 62
     7
100
AcDbVertex
100
AcDb2dVertex
 10
45.22308899434982
 20
-57.82296343077563
 30
0.0
  0
VERTEX
  5
182
330
17B
100
AcDbEntity
  8
CALQUE_1
 62
     7
100
AcDbVertex
100
AcDb2dVertex
 10
45.22308899434982
 20
-51.3589102492599
 30
0.0
  0
SEQEND
  5
183
330
17B
100
AcDbEntity
  8
CALQUE_1
 62
     7
  0
POLYLINE
  5
184
330
41
100
AcDbEntity
  8
CALQUE_1
 62
     7
100
AcDb2dPolyline
 66
     1
 10
0.0
 20
0.0
 30
0.0
  0
VERTEX
  5
185
330
184
100
AcDbEntity
  8
CALQUE_1
 62
     7
100
AcDbVertex
100
AcDb2dVertex
 10
63.14667195699133
 20
-52.27712037929802
 30
0.0
  0
VERTEX
  5
186
330
184
100
AcDbEntity
  8
CALQUE_1
 62
     7
100
AcDbVertex
100
AcDb2dVertex
 10
63.14667195699133
 20
-50.76271628943105
 30
0.0
  0
VERTEX
  5
187
330
184
100
AcDbEntity
  8
CALQUE_1
 62
     7
100
AcDbVertex
100
AcDb2dVertex
 10
55.27478487908462
 20
-47.34595738741761
 30
0.0
  0
VERTEX
  5
188
330
184
100
AcDbEntity
  8
CALQUE_1
 62
     7
100
AcDbVertex
100
AcDb2dVertex
 10
55.27478487908462
 20
-35.47156308483913
 30
0.0
  0
SEQEND
  5
189
330
184
100
AcDbEntity
  8
CALQUE_1
 62
     7
  0
POLYLINE
  5
18A
330
41
100
AcDbEntity
  8
CALQUE_1
 62
     7
100
AcDb2dPolyline
 66
     1
 10
0.0
 20
0.0
 30
0.0
  0
VERTEX
  5
18B
330
18A
100
AcDbEntity
  8
CALQUE_1
 62
     7
100
AcDbVertex
100
AcDb2dVertex
 10
53.29499616294545
 20
-29.55816165216085
 30
0.0
  0
VERTEX
  5
18C
330
18A
100
AcDbEntity
  8
CALQUE_1
 62
     7
100
AcDbVertex
100
AcDb2dVertex
 10
53.29499616294545
 20
-41.70137231450997
 30
0.0
  0
SEQEND
  5
18D
330
18A
100
AcDbEntity
  8
CALQUE_1
 62
     7
  0
POLYLINE
  5
18E
330
41
100
AcDbEntity
  8
CALQUE_1
 62
     7
100
AcDb2dPolyline
 66
     1
 10
0.0
 20
0.0
 30
0.0
  0
VERTEX
  5
18F
330
18E
100
AcDbEntity
  8
CALQUE_1
 62
     7
100
AcDbVertex
100
AcDb2dVertex
 10
37.31804287239759
 20
-41.76755313707779
 30
0.0
  0
VERTEX
  5
190
330
18E
100
AcDbEntity
  8
CALQUE_1
 62
     7
100
AcDbVertex
100
AcDb2dVertex
 10
37.31804287239759
 20
-48.02127953843286
 30
0.0
  0
VERTEX
  5
191
330
18E
100
AcDbEntity
  8
CALQUE_1
 62
     7
100
AcDbVertex
100
AcDb2dVertex
 10
29.29693740480516
 20
-51.03163828982498
 30
0.0
  0
SEQEND
  5
192
330
18E
100
AcDbEntity
  8
CALQUE_1
 62
     7
  0
POLYLINE
  5
193
330
41
100
AcDbEntity
  8
CALQUE_1
 62
     7
100
AcDb2dPolyline
 66
     1
 10
0.0
 20
0.0
 30
0.0
  0
VERTEX
  5
194
330
193
100
AcDbEntity
  8
CALQUE_1
 62
     7
100
AcDbVertex
100
AcDb2dVertex
 10
29.29693740480516
 20
-51.03163828982498
 30
0.0
  0
VERTEX
  5
195
330
193
100
AcDbEntity
  8
CALQUE_1
 62
     7
100
AcDbVertex
100
AcDb2dVertex
 10
20.90682183852942
 20
-47.89897192000437
 30
0.0
  0
SEQEND
  5
196
330
193
100
AcDbEntity
  8
CALQUE_1
 62
     7
  0
POLYLINE
  5
197
330
41
100
AcDbEntity
  8
CALQUE_1
 62
     7
100
AcDb2dPolyline
 66
     1
 10
0.0
 20
0.0
 30
0.0
  0
VERTEX
  5
198
330
197
100
AcDbEntity
  8
CALQUE_1
 62
     7
100
AcDbVertex
100
AcDb2dVertex
 10
20.90682183852942
 20
-23.70356638452727
 30
0.0
  0
VERTEX
  5
199
330
197
100
AcDbEntity
  8
CALQUE_1
 62
     7
100
AcDbVertex
100
AcDb2dVertex
 10
29.29693740480516
 20
-20.27294299179633
 30
0.0
  0
VERTEX
  5
19A
330
197
100
AcDbEntity
  8
CALQUE_1
 62
     7
100
AcDbVertex
100
AcDb2dVertex
 10
37.31804287239759
 20
-23.18381990096038
 30
0.0
  0
VERTEX
  5
19B
330
197
100
AcDbEntity
  8
CALQUE_1
 62
     7
100
AcDbVertex
100
AcDb2dVertex
 10
37.31804287239759
 20
-29.53706582527539
 30
0.0
  0
SEQEND
  5
19C
330
197
100
AcDbEntity
  8
CALQUE_1
 62
     7
  0
POLYLINE
  5
19D
330
41
100
AcDbEntity
  8
CALQUE_1
 62
     7
100
AcDb2dPolyline
 66
     1
 10
0.0
 20
0.0
 30
0.0
  0
VERTEX
  5
19E
330
19D
100
AcDbEntity
  8
CALQUE_1
 62
     7
100
AcDbVertex
100
AcDb2dVertex
 10
20.90682183852942
 20
-41.29705267858404
 30
0.0
  0
VERTEX
  5
19F
330
19D
100
AcDbEntity
  8
CALQUE_1
 62
     7
100
AcDbVertex
100
AcDb2dVertex
 10
20.90682183852942
 20
-47.89897192000437
 30
0.0
  0
SEQEND
  5
1A0
330
19D
100
AcDbEntity
  8
CALQUE_1
 62
     7
  0
POLYLINE
  5
1A1
330
41
100
AcDbEntity
  8
CALQUE_1
 62
     7
100
AcDb2dPolyline
 66
     1
 10
0.0
 20
0.0
 30
0.0
  0
VERTEX
  5
1A2
330
1A1
100
AcDbEntity
  8
CALQUE_1
 62
     7
100
AcDbVertex
100
AcDb2dVertex
 10
20.90682183852942
 20
-23.70300117354923
 30
0.0
  0
VERTEX
  5
1A3
330
1A1
100
AcDbEntity
  8
CALQUE_1
 62
     7
100
AcDbVertex
100
AcDb2dVertex
 10
20.90682183852942
 20
-47.89897192000437
 30
0.0
  0
SEQEND
  5
1A4
330
1A1
100
AcDbEntity
  8
CALQUE_1
 62
     7
  0
POLYLINE
  5
1A5
330
41
100
AcDbEntity
  8
CALQUE_1
 62
     7
100
AcDb2dPolyline
 66
     1
 10
0.0
 20
0.0
 30
0.0
  0
VERTEX
  5
1A6
330
1A5
100
AcDbEntity
  8
CALQUE_1
 62
     7
100
AcDbVertex
100
AcDb2dVertex
 10
-3.415617555744987
 20
-19.99213272049745
 30
0.0
  0
VERTEX
  5
1A7
330
1A5
100
AcDbEntity
  8
CALQUE_1
 62
     7
100
AcDbVertex
100
AcDb2dVertex
 10
35.13717362211544
 20
-5.593154278832166
 30
0.0
  0
SEQEND
  5
1A8
330
1A5
100
AcDbEntity
  8
CALQUE_1
 62
     7
  0
POLYLINE
  5
1A9
330
41
100
AcDbEntity
  8
CALQUE_1
 62
     7
100
AcDb2dPolyline
 66
     1
 10
0.0
 20
0.0
 30
0.0
  0
VERTEX
  5
1AA
330
1A9
100
AcDbEntity
  8
CALQUE_1
 62
     7
100
AcDbVertex
100
AcDb2dVertex
 10
45.22308899434982
 20
-19.94556741034877
 30
0.0
  0
VERTEX
  5
1AB
330
1A9
100
AcDbEntity
  8
CALQUE_1
 62
     7
100
AcDbVertex
100
AcDb2dVertex
 10
6.67008720811305
 20
-5.546586277202641
 30
0.0
  0
SEQEND
  5
1AC
330
1A9
100
AcDbEntity
  8
CALQUE_1
 62
     7
  0
POLYLINE
  5
1AD
330
41
100
AcDbEntity
  8
CALQUE_1
 62
     7
100
AcDb2dPolyline
 66
     1
 10
0.0
 20
0.0
 30
0.0
  0
VERTEX
  5
1AE
330
1AD
100
AcDbEntity
  8
CALQUE_1
 62
     7
100
AcDbVertex
100
AcDb2dVertex
 10
-3.415617555744987
 20
-51.41563690891453
 30
0.0
  0
VERTEX
  5
1AF
330
1AD
100
AcDbEntity
  8
CALQUE_1
 62
     7
100
AcDbVertex
100
AcDb2dVertex
 10
35.13717362211544
 20
-65.81457935202347
 30
0.0
  0
SEQEND
  5
1B0
330
1AD
100
AcDbEntity
  8
CALQUE_1
 62
     7
  0
POLYLINE
  5
1B1
330
41
100
AcDbEntity
  8
CALQUE_1
 62
     7
100
AcDb2dPolyline
 66
     1
 10
0.0
 20
0.0
 30
0.0
  0
VERTEX
  5
1B2
330
1B1
100
AcDbEntity
  8
CALQUE_1
 62
     7
100
AcDbVertex
100
AcDb2dVertex
 10
45.07174702627514
 20
-51.41563690891453
 30
0.0
  0
VERTEX
  5
1B3
330
1B1
100
AcDbEntity
  8
CALQUE_1
 62
     7
100
AcDbVertex
100
AcDb2dVertex
 10
6.642535864414018
 20
-65.76836595299565
 30
0.0
  0
SEQEND
  5
1B4
330
1B1
100
AcDbEntity
  8
CALQUE_1
 62
     7
  0
POLYLINE
  5
1B5
330
41
100
AcDbEntity
  8
CALQUE_1
 62
     7
100
AcDb2dPolyline
 66
     1
 10
0.0
 20
0.0
 30
0.0
  0
VERTEX
  5
1B6
330
1B5
100
AcDbEntity
  8
CALQUE_1
 62
     7
100
AcDbVertex
100
AcDb2dVertex
 10
35.13717362211544
 20
-16.03573123561958
 30
0.0
  0
VERTEX
  5
1B7
330
1B5
100
AcDbEntity
  8
CALQUE_1
 62
     7
100
AcDbVertex
100
AcDb2dVertex
 10
35.13717362211544
 20
-5.546586277202641
 30
0.0
  0
SEQEND
  5
1B8
330
1B5
100
AcDbEntity
  8
CALQUE_1
 62
     7
  0
POLYLINE
  5
1B9
330
41
100
AcDbEntity
  8
CALQUE_1
 62
     7
100
AcDb2dPolyline
 66
     1
 10
0.0
 20
0.0
 30
0.0
  0
VERTEX
  5
1BA
330
1B9
100
AcDbEntity
  8
CALQUE_1
 62
     7
100
AcDbVertex
100
AcDb2dVertex
 10
6.67008720811305
 20
-16.03573123561958
 30
0.0
  0
VERTEX
  5
1BB
330
1B9
100
AcDbEntity
  8
CALQUE_1
 62
     7
100
AcDbVertex
100
AcDb2dVertex
 10
6.67008720811305
 20
-5.593154278832166
 30
0.0
  0
SEQEND
  5
1BC
330
1B9
100
AcDbEntity
  8
CALQUE_1
 62
     7
  0
POLYLINE
  5
1BD
330
41
100
AcDbEntity
  8
CALQUE_1
 62
     7
100
AcDb2dPolyline
 66
     1
 10
0.0
 20
0.0
 30
0.0
  0
VERTEX
  5
1BE
330
1BD
100
AcDbEntity
  8
CALQUE_1
 62
     7
100
AcDbVertex
100
AcDb2dVertex
 10
35.13717362211544
 20
-65.81457935202347
 30
0.0
  0
VERTEX
  5
1BF
330
1BD
100
AcDbEntity
  8
CALQUE_1
 62
     7
100
AcDbVertex
100
AcDb2dVertex
 10
35.10965592192701
 20
-55.17713009810376
 30
0.0
  0
SEQEND
  5
1C0
330
1BD
100
AcDbEntity
  8
CALQUE_1
 62
     7
  0
POLYLINE
  5
1C1
330
41
100
AcDbEntity
  8
CALQUE_1
 62
     7
100
AcDb2dPolyline
 66
     1
 10
0.0
 20
0.0
 30
0.0
  0
VERTEX
  5
1C2
330
1C1
100
AcDbEntity
  8
CALQUE_1
 62
     7
100
AcDbVertex
100
AcDb2dVertex
 10
6.642535864414018
 20
-65.66606007448797
 30
0.0
  0
VERTEX
  5
1C3
330
1C1
100
AcDbEntity
  8
CALQUE_1
 62
     7
100
AcDbVertex
100
AcDb2dVertex
 10
6.642535864414018
 20
-55.17713009810376
 30
0.0
  0
SEQEND
  5
1C4
330
1C1
100
AcDbEntity
  8
CALQUE_1
 62
     7
  0
POLYLINE
  5
1C5
330
41
100
AcDbEntity
  8
CALQUE_1
100
AcDb2dPolyline
 66
     1
 10
0.0
 20
0.0
 30
0.0
  0
VERTEX
  5
1C6
330
1C5
100
AcDbEntity
  8
CALQUE_1
100
AcDbVertex
100
AcDb2dVertex
 10
-14.49971906567097
 20
-56.68066901622305
 30
0.0
  0
VERTEX
  5
1C7
330
1C5
100
AcDbEntity
  8
CALQUE_1
100
AcDbVertex
100
AcDb2dVertex
 10
56.50033453426869
 20
-56.68066901622305
 30
0.0
  0
VERTEX
  5
1C8
330
1C5
100
AcDbEntity
  8
CALQUE_1
100
AcDbVertex
100
AcDb2dVertex
 10
56.50033453426869
 20
-14.68071058573047
 30
0.0
  0
VERTEX
  5
1C9
330
1C5
100
AcDbEntity
  8
CALQUE_1
100
AcDbVertex
100
AcDb2dVertex
 10
-14.49971906567097
 20
-14.68071058573047
 30
0.0
  0
VERTEX
  5
1CA
330
1C5
100
AcDbEntity
  8
CALQUE_1
100
AcDbVertex
100
AcDb2dVertex
 10
-14.49971906567097
 20
-56.68066901622305
 30
0.0
  0
SEQEND
  5
1CB
330
1C5
100
AcDbEntity
  8
CALQUE_1
  0
ENDBLK
  5
44
330
41
100
AcDbEntity
  8
0
100
AcDbBlockEnd
  0
ENDSEC
  0
SECTION
  2
ENTITIES
  0
INSERT
  5
42
330
1F
100
AcDbEntity
  8
CALQUE_1
100
AcDbBlockReference
  2
BLOCK_2
 10
0.0
 20
0.0
 30
0.0
  0
ENDSEC
  0
SECTION
  2
OBJECTS
  0
DICTIONARY
  5
C
330
0
100
AcDbDictionary
  3
ACAD_GROUP
350
D
  3
ACAD_LAYOUT
350
1A
  3
ACAD_MATERIAL
350
3B
  3
ACAD_MLEADERSTYLE
350
1CE
  3
ACAD_MLINESTYLE
350
17
  3
ACAD_PLOTSETTINGS
350
19
  3
ACAD_VISUALSTYLE
350
2A
  3
ACDBVARIABLEDICTIONARY
350
1CC
1001
ACAD
1000
TREAT_AS_HARD
1070
     0
  0
DICTIONARY
  5
D
102
{ACAD_REACTORS
330
C
102
}
330
C
100
AcDbDictionary
1001
ACAD
1000
TREAT_AS_HARD
1070
     0
  0
DICTIONARY
  5
1A
102
{ACAD_REACTORS
330
C
102
}
330
C
100
AcDbDictionary
1001
ACAD
1000
TREAT_AS_HARD
1070
     0
  0
DICTIONARY
  5
3B
102
{ACAD_REACTORS
330
C
102
}
330
C
100
AcDbDictionary
  3
BYBLOCK
350
3D
  3
BYLAYER
350
3C
  3
GLOBAL
350
3E
1001
ACAD
1000
TREAT_AS_HARD
1070
     0
  0
DICTIONARY
  5
1CE
102
{ACAD_REACTORS
330
C
102
}
330
C
100
AcDbDictionary
1001
ACAD
1000
TREAT_AS_HARD
1070
     0
  0
DICTIONARY
  5
17
102
{ACAD_REACTORS
330
C
102
}
330
C
100
AcDbDictionary
  3
STANDARD
350
18
1001
ACAD
1000
TREAT_AS_HARD
1070
     0
  0
DICTIONARY
  5
19
102
{ACAD_REACTORS
330
C
102
}
330
C
100
AcDbDictionary
1001
ACAD
1000
TREAT_AS_HARD
1070
     0
  0
DICTIONARY
  5
2A
102
{ACAD_REACTORS
330
C
102
}
330
C
100
AcDbDictionary
  3
2DWIREFRAME
350
2F
  3
3DWIREFRAME
350
30
  3
3D_HIDDEN
350
31
  3
BASIC
350
32
  3
BRIGHTEN
350
36
  3
COLORCHANGE
350
3A
  3
CONCEPTUAL
350
34
  3
DIM
350
35
  3
FACEPATTERN
350
39
  3
FLAT
350
2B
  3
FLATWITHEDGES
350
2C
  3
GOURAUD
350
2D
  3
GOURAUDWITHEDGES
350
2E
  3
LINEPATTERN
350
38
  3
REALISTIC
350
33
  3
THICKEN
350
37
1001
ACAD
1000
TREAT_AS_HARD
1070
     0
  0
DICTIONARY
  5
1CC
102
{ACAD_REACTORS
330
C
102
}
330
C
100
AcDbDictionary
  3
DIMASSOC
350
1CF
  3
HIDETEXT
350
1D0
1001
ACAD
1000
TREAT_AS_HARD
1070
     0
  0
MATERIAL
  5
3D
102
{ACAD_REACTORS
330
3B
102
}
102
{ACAD_XDICTIONARY
360
1D3
102
}
330
3B
100
AcDbMaterial
  1
ByBlock
  0
MATERIAL
  5
3C
102
{ACAD_REACTORS
330
3B
102
}
102
{ACAD_XDICTIONARY
360
1D1
102
}
330
3B
100
AcDbMaterial
  1
ByLayer
  0
MATERIAL
  5
3E
102
{ACAD_REACTORS
330
3B
102
}
102
{ACAD_XDICTIONARY
360
1D5
102
}
330
3B
100
AcDbMaterial
  1
Global
  0
MLINESTYLE
  5
18
102
{ACAD_REACTORS
330
17
102
}
330
17
100
AcDbMlineStyle
  2
Standard
 70
     0
  3

 62
   256
 51
90.0
 52
90.0
 71
     2
 49
0.5
 62
   256
  6
BYLAYER
 49
-0.5
 62
   256
  6
BYLAYER
  0
ACAD_PROXY_OBJECT
  5
2F
102
{ACAD_REACTORS
330
2A
102
}
330
2A
100
AcDbZombieObject
 90
      499
 91
      501
 93
      436
310
42CC9915DA5C99599C985B595049028333333333333E3BF0000000000000FB0107901411070040501600405405064090741402480A0340
1001
ACAD
1000
AcDbSavedByObjectVersion
1070
     0
  0
ACAD_PROXY_OBJECT
  5
30
102
{ACAD_REACTORS
330
2A
102
}
330
2A
100
AcDbZombieObject
 90
      499
 91
      501
 93
      436
310
42CCD915DA5C99599C985B595059028333333333333E3BF0000000000000FB0107901411070040501600405405064090741402480A0340
1001
ACAD
1000
AcDbSavedByObjectVersion
1070
     0
  0
ACAD_PROXY_OBJECT
  5
31
102
{ACAD_REACTORS
330
2A
102
}
330
2A
100
AcDbZombieObject
 90
      499
 91
      501
 93
      500
310
424CD108121A5919195B90640502408333333333333E3BF0000000000000FB01079024090700405020000000000001110200405405064090740C02480A0340
1001
ACAD
1000
AcDbSavedByObjectVersion
1070
     0
  0
ACAD_PROXY_OBJECT
  5
32
102
{ACAD_REACTORS
330
2A
102
}
330
2A
100
AcDbZombieObject
 90
      499
 91
      501
 93
      388
310
4150985CDA58D07406404333333333333E3BF0000000000000FB0107A41107004050150841D405064090741402480A0350
1001
ACAD
1000
AcDbSavedByObjectVersion
1070
     0
  0
ACAD_PROXY_OBJECT
  5
36
102
{ACAD_REACTORS
330
2A
102
}
330
2A
100
AcDbZombieObject
 90
      499
 91
      501
 93
      428
310
42109C9A59DA1D195B90C409028333333333333E3BF0000000000000FB010790141107004050150841D405064090741402480A029950
1001
ACAD
1000
AcDbSavedByObjectVersion
1070
     0
  0
ACAD_PROXY_OBJECT
  5
3A
102
{ACAD_REACTORS
330
2A
102
}
330
2A
100
AcDbZombieObject
 90
      499
 91
      501
 93
      452
310
42D0DBDB1BDC90DA185B99D95104090240C333333333333E3BF0000000000000FB0108901411070040501508421405064090741402480A0350
1001
ACAD
1000
AcDbSavedByObjectVersion
1070
     0
  0
ACAD_PROXY_OBJECT
  5
34
102
{ACAD_REACTORS
330
2A
102
}
330
2A
100
AcDbZombieObject
 90
      499
 91
      501
 93
      500
310
4290DBDB98D95C1D1D585B10940D028333333333333E3BF0000000000000FB0107902409070040501000000000000111010841D405064090740C02480A0340
1001
ACAD
1000
AcDbSavedByObjectVersion
1070
     0
  0
ACAD_PROXY_OBJECT
  5
35
102
{ACAD_REACTORS
330
2A
102
}
330
2A
100
AcDbZombieObject
 90
      499
 91
      501
 93
      412
310
40D11A5B50B409028333333333333E3BF0000000000000FB010790141107004050150841D405064090741402480A02677FFFFFD0
1001
ACAD
1000
AcDbSavedByObjectVersion
1070
     0
  0
ACAD_PROXY_OBJECT
  5
39
102
{ACAD_REACTORS
330
2A
102
}
330
2A
100
AcDbZombieObject
 90
      499
 91
      501
 93
      444
310
42D19858D95C185D1D195C9B90F409028333333333333E3BF0000000000000FB010790141107004050150841D405064090741402480A0350
1001
ACAD
1000
AcDbSavedByObjectVersion
1070
     0
  0
ACAD_PROXY_OBJECT
  5
2B
102
{ACAD_REACTORS
330
2A
102
}
330
2A
100
AcDbZombieObject
 90
      499
 91
      501
 93
      388
310
41119B185D240901404333333333333E3BF0000000000000F9010740A41107004050150841D405064090741402480A1B50
1001
ACAD
1000
AcDbSavedByObjectVersion
1070
     0
  0
ACAD_PROXY_OBJECT
  5
2C
102
{ACAD_REACTORS
330
2A
102
}
330
2A
100
AcDbZombieObject
 90
      499
 91
      501
 93
      476
310
43519B185D15DA5D1A115919D95CD0140901404333333333333E3BF0000000000000F9010740901411070040501600405405064090741402480A1B50
1001
ACAD
1000
AcDbSavedByObjectVersion
1070
     0
  0
ACAD_PROXY_OBJECT
  5
2D
102
{ACAD_REACTORS
330
2A
102
}
330
2A
100
AcDbZombieObject
 90
      499
 91
      501
 93
      412
310
41D1DBDD5C985D5910240902404333333333333E3BF0000000000000F9010740A411070040501641D405064090741402480A1B50
1001
ACAD
1000
AcDbSavedByObjectVersion
1070
     0
  0
ACAD_PROXY_OBJECT
  5
2E
102
{ACAD_REACTORS
330
2A
102
}
330
2A
100
AcDbZombieObject
 90
      499
 91
      501
 93
      500
310
4411DBDD5C985D5915DA5D1A115919D95CD0340902404333333333333E3BF0000000000000F9010740901411070040501600405405064090741402480A1B50
1001
ACAD
1000
AcDbSavedByObjectVersion
1070
     0
  0
ACAD_PROXY_OBJECT
  5
38
102
{ACAD_REACTORS
330
2A
102
}
330
2A
100
AcDbZombieObject
 90
      499
 91
      501
 93
      444
310
42D31A5B995C185D1D195C9B90E409028333333333333E3BF0000000000000FB010790141107004050750841D405064090741402483A0350
1001
ACAD
1000
AcDbSavedByObjectVersion
1070
     0
  0
ACAD_PROXY_OBJECT
  5
33
102
{ACAD_REACTORS
330
2A
102
}
330
2A
100
AcDbZombieObject
 90
      499
 91
      501
 93
      420
310
425499585B1A5CDD1A58D08409028333333333333E3BF0000000000000FB01079019070040501508421405064090741402480A1B40
1001
ACAD
1000
AcDbSavedByObjectVersion
1070
     0
  0
ACAD_PROXY_OBJECT
  5
37
102
{ACAD_REACTORS
330
2A
102
}
330
2A
100
AcDbZombieObject
 90
      499
 91
      501
 93
      412
310
41D51A1A58DAD95B90D409028333333333333E3BF0000000000000FB010790141107004050150C41D405064090741402480A0350
1001
ACAD
1000
AcDbSavedByObjectVersion
1070
     0
  0
DICTIONARYVAR
  5
1CF
102
{ACAD_REACTORS
330
1CC
102
}
330
1CC
100
DictionaryVariables
280
     0
  1
2
  0
DICTIONARYVAR
  5
1D0
102
{ACAD_REACTORS
330
1CC
102
}
330
1CC
100
DictionaryVariables
280
     0
  1
1
  0
DICTIONARY
  5
1D3
330
3D
100
AcDbDictionary
  3
ACAD_XREC_ROUNDTRIP
360
1D4
1001
ACAD
1000
TREAT_AS_HARD
1070
     1
  0
DICTIONARY
  5
1D1
330
3C
100
AcDbDictionary
  3
ACAD_XREC_ROUNDTRIP
360
1D2
1001
ACAD
1000
TREAT_AS_HARD
1070
     1
  0
DICTIONARY
  5
1D5
330
3E
100
AcDbDictionary
  3
ACAD_XREC_ROUNDTRIP
360
1D6
1001
ACAD
1000
TREAT_AS_HARD
1070
     1
  0
XRECORD
  5
1D4
102
{ACAD_REACTORS
330
1D3
102
}
330
1D3
100
AcDbXrecord
102
MATERIAL
148
0.0
149
0.0
149
0.0
 93
        0
 94
      127
282
     0
 72
     1
 77
     1
171
     1
175
     1
179
     1
273
     0
  0
XRECORD
  5
1D2
102
{ACAD_REACTORS
330
1D1
102
}
330
1D1
100
AcDbXrecord
102
MATERIAL
148
0.0
149
0.0
149
0.0
 93
        0
 94
      127
282
     0
 72
     1
 77
     1
171
     1
175
     1
179
     1
273
     0
  0
XRECORD
  5
1D6
102
{ACAD_REACTORS
330
1D5
102
}
330
1D5
100
AcDbXrecord
102
MATERIAL
148
0.0
149
0.0
149
0.0
 93
        0
 94
      127
282
     0
 72
     1
 77
     1
171
     1
175
     1
179
     1
273
     0
  0
ENDSEC
  0
EOF
